<?xml version="1.0" encoding="UTF-8"?>
<svg width="167" height="32" viewBox="0 0 167 32" fill="none" xmlns="http://www.w3.org/2000/svg">
<path d="M0 0 C14.53985028 -0.39422242 27.3579814 2.75026297 38.57421875 12.12109375 C39.1775 12.61480469 39.78078125 13.10851562 40.40234375 13.6171875 C41.80334652 14.77268745 43.19050907 15.94494052 44.57421875 17.12109375 C44.98414063 16.41082031 45.3940625 15.70054687 45.81640625 14.96875 C46.35523438 14.04964844 46.8940625 13.13054687 47.44921875 12.18359375 C47.98289062 11.26707031 48.5165625 10.35054688 49.06640625 9.40625 C50.57421875 7.12109375 50.57421875 7.12109375 52.57421875 6.12109375 C55.66589412 5.60581452 57.76716768 5.67094574 60.53515625 7.21484375 C68.84193937 13.19827374 73.93412754 19.63172621 76.1328125 29.671875 C86.86660977 113.54747664 70.98469998 233.97523494 22.57421875 335.12109375 C22.09726563 335.79398438 21.6203125 336.466875 21.12890625 337.16015625 C13.55031339 347.09855048 0.66235217 354.04032819 -11.55078125 355.87109375 C-12.82953125 355.95359375 -14.10828125 356.03609375 -15.42578125 356.12109375 C-16.45058594 356.1984375 -16.45058594 356.1984375 -17.49609375 356.27734375 C-37.35002653 357.13127634 -56.07556322 344.51648332 -70.42578125 332.12109375 C-71.13476562 331.54617188 -71.84375 330.97125 -72.57421875 330.37890625 C-95.8099233 311.1841938 -106.0614712 280.25395374 -108.95703125 251.1328125 C-109.53337672 244.60637053 -109.61727748 238.10752244 -109.61328125 231.55859375 C-109.61320068 230.31166748 -109.61312012 229.06474121 -109.61303711 227.7800293 C-109.411133 194.09179725 -109.411133 194.09179725 -106.42578125 188.12109375 C-104.23828125 187.80859375 -104.23828125 187.80859375 -101.42578125 188.12109375 C-96.84079634 191.79288485 -95.72087657 194.4815793 -95.0546875 200.24609375 C-94.96727798 200.93717728 -94.87986847 201.6282608 -94.78981018 202.34028625 C-94.60307264 203.82536912 -94.42529473 205.3116012 -94.25567627 206.79873657 C-93.79952224 210.76048796 -93.26438661 214.71162655 -92.734375 218.6640625 C-92.57539734 219.86388008 -92.57539734 219.86388008 -92.41320801 221.0879364 C-88.54482741 249.77727151 -81.53219094 293.6622935 -58.42578125 314.12109375 C-50.9081434 319.84033117 -40.38511113 319.07652812 -31.42578125 318.12109375 C-19.44373605 315.65374854 -9.97158281 305.98326915 -3.42578125 296.12109375 C31.46420524 240.47745544 39.74327782 144.93892427 38.57421875 80.12109375 C38.12433594 80.71535156 37.67445313 81.30960938 37.2109375 81.921875 C28.01776836 93.76798273 17.51133492 103.19942831 5.57421875 112.12109375 C5.01895508 112.54245605 4.46369141 112.96381836 3.89160156 113.39794922 C-6.02064873 120.89507651 -16.57949782 127.07980035 -27.42578125 133.12109375 C-28.08723145 133.49508301 -28.74868164 133.86907227 -29.43017578 134.25439453 C-58.22581482 150.50866642 -97.00422641 166.54566016 -130.66796875 160.54296875 C-137.46295273 158.15495521 -142.44449564 153.1612797 -147.42578125 148.12109375 C-148.38484375 147.19490234 -148.38484375 147.19490234 -149.36328125 146.25 C-157.59819107 137.70260476 -162.76303135 126.01152211 -162.80859375 114.22509766 C-162.34440958 93.85418211 -145.6298085 75.76384368 -131.72265625 62.2265625 C-127.45528519 58.31480569 -122.9711012 54.70280587 -118.42578125 51.12109375 C-117.43835937 50.32832031 -116.4509375 49.53554688 -115.43359375 48.71875 C-82.60802276 22.81028811 -42.3484377 2.11401219 0 0 Z M-10.42578125 44.12109375 C-11.20002441 44.31977051 -11.97426758 44.51844727 -12.77197266 44.72314453 C-25.22312651 47.98817898 -36.8746987 52.46960375 -48.42578125 58.12109375 C-49.26786133 58.5298877 -50.10994141 58.93868164 -50.97753906 59.35986328 C-77.2430177 72.24032981 -110.01808172 93.15756411 -126.42578125 118.12109375 C-126.42578125 118.78109375 -126.42578125 119.44109375 -126.42578125 120.12109375 C-119.6778913 120.37586463 -113.69854609 119.8481805 -107.17578125 118.12109375 C-106.32371094 117.9003418 -105.47164062 117.67958984 -104.59375 117.45214844 C-87.21193418 112.77778094 -70.64359948 105.85463228 -54.42578125 98.12109375 C-53.51135254 97.68845215 -52.59692383 97.25581055 -51.65478516 96.81005859 C-27.1484049 85.13935953 -4.17558952 70.8704211 18.57421875 56.12109375 C20.00290283 55.19611084 20.00290283 55.19611084 21.46044922 54.25244141 C27.17197203 50.55259614 32.87681789 46.84264722 38.57421875 43.12109375 C35.26670542 39.81358042 31.09663166 40.82546166 26.59521484 40.79150391 C25.23404293 40.79532731 23.8728752 40.80106198 22.51171875 40.80859375 C21.82716614 40.8107489 21.14261353 40.81290405 20.43731689 40.81512451 C9.87159288 40.86877652 -0.16404024 41.40496587 -10.42578125 44.12109375 Z " fill="#fea709" transform="translate(1549.42578125,433.87890625)"/>
<path d="M0 0 C2.3125 0.0625 2.3125 0.0625 5 1 C9.37116454 6.13357696 10.28263783 11.53750365 11.4375 18.0625 C11.74772095 19.76067871 11.74772095 19.76067871 12.06420898 21.49316406 C26.76212129 104.4761676 29.25244511 191.81901228 23 278 C22.94908203 278.72423157 22.89816406 279.44846313 22.84570312 280.19464111 C20.83733032 308.73371404 17.25423108 337.27925212 10 365 C9.78794922 365.81758789 9.57589844 366.63517578 9.35742188 367.47753906 C4.04463882 387.51545366 -4.20208869 406.75492846 -14 425 C-14.32178223 425.60489258 -14.64356445 426.20978516 -14.97509766 426.83300781 C-22.21176192 440.32753342 -32.37764662 459.06152879 -48 464 C-53.99619766 465.11040697 -57.68990021 462.9462077 -62.58984375 459.74609375 C-80.04824944 447.09794571 -88.36494134 423.32137111 -94.8125 403.5625 C-95.06190338 402.80698853 -95.31130676 402.05147705 -95.56826782 401.27307129 C-99.69868524 388.7125516 -103.32764616 376.03664987 -106.6875 363.25 C-106.89162506 362.47850616 -107.09575012 361.70701233 -107.30606079 360.91213989 C-116.18697402 327.11311554 -123.0117106 292.77649894 -129.81394577 258.51321793 C-130.44827046 255.32079451 -131.08458632 252.12877375 -131.72146606 248.93685913 C-139.42827475 210.30308932 -146.88943621 171.62355921 -154.24452209 132.92144775 C-158.04078549 112.94087405 -158.04078549 112.94087405 -161.94140625 92.98046875 C-162.1407225 91.96632401 -162.34003876 90.95217926 -162.5453949 89.90730286 C-162.81598473 88.55556221 -162.81598473 88.55556221 -163.09204102 87.17651367 C-163.24496109 86.40893234 -163.39788116 85.64135101 -163.55543518 84.85050964 C-163.94520161 82.92133889 -163.94520161 82.92133889 -165 81 C-169.66541191 119.86711623 -173.23816906 158.58957695 -175.125 197.6875 C-175.16379272 198.47981018 -175.20258545 199.27212036 -175.24255371 200.08843994 C-175.54481703 206.39064658 -175.78188049 212.69436329 -176 219 C-176.04243835 220.19057007 -176.08487671 221.38114014 -176.12860107 222.60778809 C-176.88825611 244.80349577 -177.10137738 266.99812089 -177.20073462 289.20491099 C-177.21093439 291.46024905 -177.22166705 293.71558394 -177.23257828 295.97091866 C-177.30014708 309.95746248 -177.36472029 323.94400109 -177.40136719 337.93066406 C-177.41973959 344.91446019 -177.44864798 351.8981292 -177.4893719 358.88183177 C-177.51027885 362.54413072 -177.52587697 366.2062715 -177.52817917 369.86863327 C-177.53073292 373.91960142 -177.55621708 377.97011894 -177.58349609 382.02099609 C-177.58048996 383.20841904 -177.57748383 384.39584198 -177.5743866 385.61924744 C-177.66443971 394.62010359 -178.64699393 402.20885558 -185 409 C-190.18008789 408.32703132 -192.00333964 406.4966136 -195.23046875 402.56640625 C-211.98251961 378.27038546 -209.15936758 344.08949925 -209.16796875 315.9609375 C-209.17119808 313.43038923 -209.17456327 310.89984113 -209.17805481 308.36929321 C-209.18401829 303.06243385 -209.18594197 297.75559153 -209.18530273 292.44873047 C-209.18477782 287.13424482 -209.191985 281.81984413 -209.20581055 276.50537109 C-209.39227545 203.67445161 -207.02803866 130.96114212 -197.0625 58.75 C-196.94715912 57.89152466 -196.83181824 57.03304932 -196.71298218 56.14855957 C-195.45184485 46.84779798 -193.85803861 37.73640602 -191.50390625 28.64453125 C-191.3036232 27.86523254 -191.10334015 27.08593384 -190.89698792 26.28302002 C-188.95653998 19.14221854 -186.33669759 12.22446506 -180 8 C-175.24779371 7.23964699 -172.45063812 8.03436127 -168.5 10.5625 C-153.35175422 21.64221355 -146.58422466 36.29058742 -142 54 C-141.77280273 54.86351074 -141.54560547 55.72702148 -141.31152344 56.61669922 C-127.2021469 111.31781939 -120.58346495 168.16110481 -112.28125 223.96484375 C-104.35151796 340.26179979 -104.35151796 340.26179979 -62 443 C-58.4086812 443.21125405 -56.03642266 442.90570269 -53.265625 440.484375 C-17.38820162 397.36563681 -12.85321529 321.84637687 -9 268 C-8.9062207 266.72415039 -8.81244141 265.44830078 -8.71582031 264.13378906 C-4.65451531 206.87965182 -4.68329433 149.20534774 -3.69726562 91.84179688 C-3.02626064 53.00484346 -3.02626064 53.00484346 -2.47265625 34.48828125 C-2.45243849 33.8110627 -2.43222073 33.13384415 -2.4113903 32.43610382 C-2.16895948 24.43373764 -1.8728854 16.43486722 -1.5 8.4375 C-1.46487808 7.6718573 -1.42975616 6.9062146 -1.39356995 6.11737061 C-1.12098388 1.12098388 -1.12098388 1.12098388 0 0 Z " fill="#fea709" transform="translate(2342,196)"/>
<path d="M0 0 C2.5451344 0.02168799 5.08751177 -0.00007395 7.63256836 -0.02539062 C16.68344222 -0.04082896 24.29223041 0.49087605 32.58374023 4.52148438 C34.09774414 5.17310547 34.09774414 5.17310547 35.64233398 5.83789062 C48.52932633 12.58821995 59.88928026 23.43810447 64.58374023 37.52148438 C64.72793444 39.51801949 64.80430613 41.51996543 64.83374023 43.52148438 C64.85952148 44.57335937 64.88530273 45.62523437 64.91186523 46.70898438 C64.58374023 49.52148437 64.58374023 49.52148437 63.27514648 51.36523438 C60.33176443 53.3773385 58.0306459 52.98886141 54.58374023 52.52148438 C51.25366671 50.19043291 48.98843173 48.00711417 46.39624023 44.89648438 C39.63669503 39.18842398 30.02304365 39.0176137 21.52124023 39.14648438 C20.01654175 39.16388672 20.01654175 39.16388672 18.48144531 39.18164062 C-31.01693267 40.25247168 -79.65210196 67.44793543 -113.82250977 101.95117188 C-132.32664065 121.82356596 -146.12026801 146.60389116 -145.61938477 174.30273438 C-144.92447609 192.98052379 -136.5890047 207.85108988 -123.41625977 220.52148438 C-122.64797852 221.28589844 -121.87969727 222.0503125 -121.08813477 222.83789062 C-104.74740361 238.37270137 -84.03472686 249.53702844 -64.66748047 260.7800293 C-46.1088258 271.55609061 -27.912625 282.71497232 -11.41625977 296.52148438 C-9.97573242 297.71451172 -9.97573242 297.71451172 -8.50610352 298.93164062 C5.17041514 310.76154073 19.04881033 327.96523191 20.78369141 346.67822266 C20.88606161 348.92243526 20.91308361 351.15005964 20.89624023 353.39648438 C20.89060059 354.18732422 20.88496094 354.97816406 20.87915039 355.79296875 C20.55866632 371.2396662 12.83122917 382.43916752 2.11645508 393.07080078 C-23.1434347 416.97877546 -60.04726843 430.21029742 -94.41625977 431.52148438 C-96.32084961 431.60076172 -96.32084961 431.60076172 -98.26391602 431.68164062 C-127.73768344 432.50494987 -156.66659564 424.1651063 -180.41625977 406.52148438 C-181.22708008 405.93238281 -182.03790039 405.34328125 -182.87329102 404.73632812 C-194.143874 396.16048873 -204.64104982 386.04175538 -211.41625977 373.52148438 C-212.07754883 372.39226562 -212.07754883 372.39226562 -212.75219727 371.24023438 C-214.42488172 368.23164758 -215.45566113 366.12563858 -215.22875977 362.64648438 C-214.41625977 360.52148437 -214.41625977 360.52148437 -213.41625977 358.52148438 C-210.08750766 359.63106841 -209.40136278 360.44692941 -207.22875977 363.08398438 C-206.60743164 363.80714844 -205.98610352 364.5303125 -205.34594727 365.27539062 C-204.70915039 366.01660156 -204.07235352 366.7578125 -203.41625977 367.52148438 C-189.5187301 383.69372181 -165.89010476 391.26415931 -145.13012695 393.32666016 C-102.65838279 396.37563927 -58.66136253 386.26702469 -25.41625977 358.52148438 C-19.00904456 352.87372206 -12.83888031 346.75188204 -11.41625977 338.02148438 C-11.17823761 333.23641818 -11.80989021 329.5757842 -14.41625977 325.52148438 C-20.68062671 319.66122131 -27.94559803 315.05741413 -35.22875977 310.58398438 C-36.7659668 309.62963501 -36.7659668 309.62963501 -38.33422852 308.65600586 C-45.84207063 304.02493209 -53.44437152 299.57230519 -61.07629395 295.15036011 C-79.16851636 284.66478113 -97.07189632 273.61651996 -113.41625977 260.52148438 C-114.37145508 259.76867187 -115.32665039 259.01585937 -116.31079102 258.24023438 C-143.98150645 235.93681675 -171.3159838 205.79651511 -177.41625977 169.52148438 C-177.83395696 164.42970154 -177.89418168 159.37854101 -177.85375977 154.27148438 C-177.85005371 153.59106079 -177.84634766 152.91063721 -177.8425293 152.20959473 C-177.7598049 141.52248017 -177.11338816 131.60032711 -173.41625977 121.52148438 C-173.13717773 120.75980957 -172.8580957 119.99813477 -172.57055664 119.21337891 C-163.92925571 96.31209676 -150.63451142 76.83370402 -133.41625977 59.52148438 C-132.92077637 59.02197266 -132.42529297 58.52246094 -131.91479492 58.0078125 C-108.89628606 35.11581986 -79.06678962 18.78417281 -48.47875977 8.52148438 C-47.43945312 8.17214844 -46.40014648 7.8228125 -45.3293457 7.46289062 C-30.21131892 2.61077338 -15.89569228 -0.16092203 0 0 Z " fill="#fea709" transform="translate(473.416259765625,210.478515625)"/>
<path d="M0 0 C0.33 0 0.66 0 1 0 C1.00586624 0.60181091 1.01173248 1.20362183 1.01777649 1.82366943 C1.04296899 41.54357205 1.04296899 41.54357205 5 81 C5.17015625 82.06992187 5.3403125 83.13984375 5.515625 84.2421875 C13.30112292 131.51128203 31.87963932 175.32568184 53 218 C53.31445068 218.63643433 53.62890137 219.27286865 53.95288086 219.92858887 C56.16938975 224.41448726 58.39384435 228.89636933 60.625 233.375 C61.20491699 234.53966797 61.78483398 235.70433594 62.38232422 236.90429688 C65.11602844 242.36042567 67.89557102 247.74518607 71 253 C73.09671383 250.31884425 74.81903568 247.64987595 76.390625 244.6328125 C76.84493896 243.76325928 77.29925293 242.89370605 77.76733398 241.99780273 C78.25661377 241.04977783 78.74589355 240.10175293 79.25 239.125 C80.03129272 237.61498413 80.03129272 237.61498413 80.82836914 236.07446289 C82.5584224 232.71944712 84.2797004 229.36002642 86 226 C86.89984619 224.25130615 86.89984619 224.25130615 87.81787109 222.46728516 C101.90627609 195.05568023 114.23950613 167.27705708 124 138 C124.33225586 137.00983887 124.66451172 136.01967773 125.00683594 134.99951172 C135.13764401 104.43599401 140.82600218 72.43526096 141.31640625 40.234375 C141.3475779 38.49525848 141.3475779 38.49525848 141.37937927 36.7210083 C141.44409217 33.06405827 141.50339089 29.40704445 141.5625 25.75 C141.60575989 23.25129583 141.64937639 20.7525978 141.69335938 18.25390625 C141.79969173 12.16933574 141.90159444 6.0847036 142 0 C151.51956943 9.51956943 152.29236986 33.25185749 154 46 C154.1045752 46.77053711 154.20915039 47.54107422 154.31689453 48.33496094 C163.45437448 125.78286789 131.7757845 203.81371901 101.05859375 273.15625 C100.54538574 274.31769531 100.03217773 275.47914063 99.50341797 276.67578125 C98.51815995 278.85429264 97.50243019 281.01933469 96.45361328 283.16796875 C95.98552246 284.13347656 95.51743164 285.09898437 95.03515625 286.09375 C94.40879272 287.34188477 94.40879272 287.34188477 93.76977539 288.61523438 C92.45813369 292.67870286 93.6357044 295.23114027 95.42016602 298.99731445 C96.02530029 300.1080835 96.63043457 301.21885254 97.25390625 302.36328125 C97.7525695 303.28731247 97.7525695 303.28731247 98.26130676 304.23001099 C98.98041629 305.56232956 99.70214523 306.89323696 100.4262085 308.22286987 C102.37872899 311.81353797 104.30467802 315.4183812 106.23046875 319.0234375 C106.62776184 319.76675827 107.02505493 320.51007904 107.43438721 321.27592468 C118.19214104 341.45687197 128.29955555 361.95107086 137.16949463 383.03497314 C138.11335687 385.26820933 139.06684786 387.49721368 140.02099609 389.72607422 C141.89020897 394.09686362 143.73939658 398.47572739 145.57714844 402.85983276 C146.31051532 404.6036149 147.04886984 406.3453088 147.79248047 408.08474731 C148.83964991 410.5398062 149.86544081 413.00282771 150.88671875 415.46875 C151.2017485 416.19597763 151.51677826 416.92320526 151.84135437 417.67247009 C153.91030703 422.75225595 154.7938616 427.51395964 154 433 C150.0383541 439.22544355 141.40473594 441.91241088 134.46875 443.625 C128.93025678 444.46629011 123.22821521 444.92842301 118 442.75 C114.15186319 439.38288029 112.43175036 435.93412491 110.7578125 431.13671875 C110.33838379 429.95585693 109.91895508 428.77499512 109.48681641 427.55834961 C109.2658429 426.92911591 109.04486938 426.2998822 108.81719971 425.65158081 C99.72034264 399.83972013 88.6359237 374.87190186 77.33935547 349.96191406 C75.5401941 345.98316347 73.76534265 341.99385324 72 338 C69.38377778 340.61622222 68.22914086 343.64277996 66.76171875 346.98046875 C66.44477554 347.69211685 66.12783234 348.40376495 65.80128479 349.13697815 C64.7579543 351.48480033 63.72219333 353.8358597 62.6875 356.1875 C62.3306311 356.99554077 61.97376221 357.80358154 61.6060791 358.6361084 C49.0449754 387.02560349 49.0449754 387.02560349 37.66796875 415.90234375 C37.39499969 416.63999969 37.12203064 417.37765564 36.84078979 418.13766479 C35.52614583 421.70122421 34.22842395 425.26976132 32.95605469 428.84863281 C32.49036399 430.13220849 32.02455022 431.41573953 31.55859375 432.69921875 C31.15954834 433.82158936 30.76050293 434.94395996 30.34936523 436.1003418 C28.93108102 439.14810038 27.58378213 440.87355198 25 443 C15.90911374 446.03029542 6.6112399 443.4467125 -2 440 C-9.38202247 436.23595506 -9.38202247 436.23595506 -11 433 C-11.88530153 425.94730942 -10.05568928 420.45235947 -7.30078125 414.04296875 C-6.91451065 413.11069962 -6.52824005 412.17843048 -6.13026428 411.21791077 C-4.87419698 408.20054126 -3.59454669 405.19391291 -2.3125 402.1875 C-1.43181391 400.0943449 -0.55177231 398.00091852 0.32763672 395.90722656 C6.85599807 380.42889631 13.61712461 365.09229702 21 350 C21.32248718 349.33995972 21.64497437 348.67991943 21.97723389 347.99987793 C37.78317976 315.67996372 37.78317976 315.67996372 46.68579102 300.53173828 C47.14268311 299.73106934 47.5995752 298.93040039 48.0703125 298.10546875 C48.47008301 297.42637451 48.86985352 296.74728027 49.28173828 296.04760742 C50.83949947 291.60677019 48.49818975 287.57390299 46.62109375 283.5390625 C46.1202124 282.44827393 45.61933105 281.35748535 45.10327148 280.23364258 C44.55356689 279.04279053 44.0038623 277.85193848 43.4375 276.625 C18.46646058 221.78735203 -4.66509577 163.37996923 -11 103 C-11.0913623 102.21085205 -11.18272461 101.4217041 -11.27685547 100.60864258 C-12.18368021 92.02451997 -12.24337624 83.43472602 -12.25 74.8125 C-12.25067474 74.01931366 -12.25134949 73.22612732 -12.25204468 72.40890503 C-12.21911037 47.91347139 -9.55989138 22.80488054 0 0 Z " fill="#471C10" transform="translate(2587,230)"/>
<path d="M0 0 C3.76425028 1.52362511 5.33796915 3.759011 7.625 7.0625 C8.79408122 11.21002647 8.79927915 15.37441052 8.82373047 19.65380859 C8.83031803 20.40133015 8.83690559 21.1488517 8.84369278 21.91902542 C8.86024541 24.39138255 8.8655961 26.8635268 8.8671875 29.3359375 C8.86883219 30.6232181 8.86883219 30.6232181 8.8705101 31.93650436 C8.86039066 51.08427327 7.54948329 70.06595843 5.96020508 89.13775635 C5.60574988 93.43722386 5.27100905 97.73823064 4.93359375 102.0390625 C3.64237888 118.39375931 2.27328006 134.73936884 0.625 151.0625 C2.0322937 150.95639404 2.0322937 150.95639404 3.46801758 150.84814453 C13.30281944 150.16315741 23.08074485 149.90555059 32.93823242 149.93212891 C35.34885697 149.93758225 37.75930225 149.93209368 40.16992188 149.92578125 C41.72135457 149.92644068 43.27278716 149.92771903 44.82421875 149.9296875 C45.53567551 149.92766327 46.24713226 149.92563904 46.98014832 149.92355347 C50.65371909 149.9408695 54.05245672 150.18962578 57.625 151.0625 C57.59019531 150.33289063 57.55539062 149.60328125 57.51953125 148.8515625 C56.97812131 127.96860771 61.6461862 102.66931886 75.15625 86.1953125 C77.81879655 83.5752534 79.45530421 83.06547712 83.1875 83 C87.64271587 84.37706672 90.28586524 85.90725954 92.78515625 89.9296875 C96.79987439 97.55621299 96.8186064 104.64077421 96.8125 113.125 C96.81169434 114.27790527 96.81088867 115.43081055 96.81005859 116.61865234 C96.75913096 123.84538357 96.4708598 130.9961475 95.75 138.1875 C95.67160889 138.97261963 95.59321777 139.75773926 95.51245117 140.56665039 C94.95101436 145.53560841 93.9276984 150.23485297 92.625 155.0625 C93.78 155.124375 94.935 155.18625 96.125 155.25 C109.79733276 156.80514685 123.61940744 162.05507725 133.15625 172.19921875 C137.95189369 178.28305396 139.76504206 184.465289 139.8125 192.125 C139.82667969 193.16785156 139.84085938 194.21070313 139.85546875 195.28515625 C139.625 198.0625 139.625 198.0625 137.625 201.0625 C123.23417021 203.18310257 107.30006225 199.72492418 93 198.125 C89.18602873 197.70480441 85.37180267 197.2871067 81.55728149 196.87193298 C79.20158405 196.61486403 76.84622504 196.35466463 74.49130249 196.09059143 C62.28151973 194.74397156 50.16920418 193.90531047 37.8828125 193.96484375 C36.74842743 193.9662587 35.61404236 193.96767365 34.44528198 193.96913147 C30.88015926 193.97465586 27.31510321 193.98719327 23.75 194 C21.30859467 194.0050248 18.86718833 194.00958597 16.42578125 194.01367188 C10.49216399 194.02374251 4.55859043 194.04248514 -1.375 194.0625 C-2.47591748 218.77250726 -2.48453898 243.45969787 -2.41959953 268.18962479 C-2.40100429 275.30092146 -2.39163259 282.41221356 -2.38368225 289.52352905 C-2.3597435 309.71671721 -2.32337289 329.90987413 -2.27905273 350.10302734 C-2.25452305 361.31592091 -2.23715704 372.52880315 -2.22749335 383.7417196 C-2.22096236 390.81121333 -2.20543559 397.88061169 -2.18317592 404.95007253 C-2.17146561 409.3271662 -2.16807992 413.70423661 -2.16707802 418.0813446 C-2.16492801 420.11109969 -2.15932769 422.14085444 -2.1500473 424.17058945 C-2.13788404 426.93701975 -2.13800933 429.7031861 -2.14122009 432.46963501 C-2.13145839 433.67673738 -2.13145839 433.67673738 -2.12149948 434.90822566 C-2.14033527 439.06812716 -2.49745283 442.32232784 -4.375 446.0625 C-6.5625 446.0625 -6.5625 446.0625 -9.375 445.0625 C-42.19345661 410.93130513 -34.89787121 247.94889046 -35.375 199.0625 C-39.70872855 200.0190518 -44.04190961 200.97806186 -48.375 201.9375 C-49.59574219 202.20691406 -50.81648438 202.47632813 -52.07421875 202.75390625 C-59.57112083 204.41172375 -59.57112083 204.41172375 -67.02783203 206.23901367 C-70.52968995 207.10055756 -73.6488103 207.36228992 -77.25 207.375 C-78.36117188 207.39175781 -79.47234375 207.40851563 -80.6171875 207.42578125 C-81.52726562 207.30589844 -82.43734375 207.18601562 -83.375 207.0625 C-87.08034554 201.50448169 -85.98031595 193.12864411 -85.015625 186.6484375 C-82.43736907 178.18200248 -75.35774517 171.83230997 -67.78637695 167.76806641 C-58.04653545 162.89872951 -47.84182833 159.10139051 -37.14404297 156.99951172 C-36.24926239 156.82298065 -35.35448181 156.64644958 -34.43258667 156.46456909 C-33.41408127 156.26554489 -33.41408127 156.26554489 -32.375 156.0625 C-32.32124207 155.39662369 -32.26748413 154.73074738 -32.21209717 154.04469299 C-21.54165093 22.17956472 -21.54165093 22.17956472 -3.8125 1.21484375 C-2.375 0.0625 -2.375 0.0625 0 0 Z " fill="#fea709" transform="translate(1909.375,206.9375)"/>
<path d="M0 0 C0.9027919 -0.00807175 1.8055838 -0.01614349 2.73573303 -0.02445984 C4.64094164 -0.03822249 6.5461741 -0.0489792 8.45141602 -0.05688477 C10.36620509 -0.06834477 12.28096374 -0.08870042 14.19555664 -0.1184082 C31.49727909 -0.38596832 49.662898 0.19209612 63.16015625 12.42578125 C70.20044448 19.98878229 73.6040291 29.79968617 73.3359375 40.0859375 C72.77163094 46.51533186 72.77163094 46.51533186 71.41015625 49.23828125 C65.68491728 49.47587484 60.66307658 48.592674 55.09765625 47.30078125 C16.41488595 38.3788383 -29.14715228 43.44473658 -64.58984375 61.23828125 C-58.1145604 64.36132496 -51.66078476 66.54257135 -44.71484375 68.36328125 C-43.62695557 68.65332031 -42.53906738 68.94335938 -41.41821289 69.2421875 C-30.3427278 72.14013623 -19.18442908 74.6768445 -8.02734375 77.23828125 C57.11882732 92.2075792 57.11882732 92.2075792 68.9453125 108.8203125 C75.93689027 120.36107688 78.0982275 136.5362929 75.23046875 149.6953125 C73.91895402 153.76100817 72.09391788 156.93022213 69.41015625 160.23828125 C68.92804687 160.84285156 68.4459375 161.44742188 67.94921875 162.0703125 C52.50698836 179.35807775 20.30216011 181.56148923 -1.25927734 183.05957031 C-32.15987797 184.71762922 -67.83094834 183.78091325 -93.58984375 164.23828125 C-100.07331343 158.34531346 -103.13364179 151.76017156 -105.77734375 143.55078125 C-105.56679175 139.8310293 -105.24164519 139.37320316 -102.65234375 136.92578125 C-92.70657496 129.54030938 -80.20902032 132.29414284 -68.78320312 133.96679688 C-66.41634534 134.31847909 -64.04983236 134.67241534 -61.68334961 135.02661133 C-30.36364151 139.68370719 1.40788634 140.18946285 32.41015625 133.23828125 C25.33192151 130.72141506 18.18464303 128.87360863 10.87752533 127.14134789 C8.77817902 126.64347871 6.68013963 126.1403919 4.58233643 125.63606262 C-0.63622185 124.38250576 -5.85667137 123.136909 -11.07739258 121.89239502 C-42.32724247 114.44178735 -42.32724247 114.44178735 -54.65234375 110.97265625 C-55.45101868 110.75099289 -56.2496936 110.52932953 -57.0725708 110.3009491 C-71.08486157 106.24125232 -86.03763934 99.25120342 -93.30859375 86.0625 C-99.16152508 73.16106904 -102.42397703 57.04506985 -98.75390625 43.05078125 C-91.0288547 26.4600665 -71.40843845 17.15867457 -55.14599609 11.13330078 C-37.40284612 4.92065629 -18.86185601 0.16470344 0 0 Z " fill="#fea709" transform="translate(3030.58984375,423.76171875)"/>
<path d="M0 0 C7.5117537 1.52781431 12.06939432 6.72415173 16.4609375 12.72265625 C19.37883702 17.54555386 20.02335758 21.79033128 19.9609375 27.36328125 C19.95613373 28.10483963 19.95132996 28.84639801 19.94638062 29.61042786 C19.80544914 37.62369544 18.77576466 45.48884234 17.66415405 53.41586304 C15.80771837 66.72797134 14.23812524 80.0230238 13.375 93.4375 C13.29910645 94.60369873 13.22321289 95.76989746 13.14501953 96.97143555 C12.70129947 104.56945008 12.61008124 112.14028297 12.6875 119.75 C13.19885498 119.01861816 13.71020996 118.28723633 14.23706055 117.53369141 C18.55667582 111.3902129 23.21377761 105.79115201 28.32421875 100.29296875 C30.28212264 98.18619944 32.18556611 96.05333933 34.0625 93.875 C42.20055077 84.55561927 50.70363264 75.63682793 59.4375 66.875 C60.22930664 66.07860107 61.02111328 65.28220215 61.83691406 64.46166992 C66.62637617 59.68472732 71.5542351 55.15284521 76.6875 50.75 C77.75932596 49.8011861 78.82971612 48.85074697 79.8984375 47.8984375 C103.23187572 27.33362192 136.69098953 0.16459524 169.1875 0.25 C170.16847656 0.22164063 171.14945313 0.19328125 172.16015625 0.1640625 C182.33369775 0.13696918 189.10885202 4.53601851 196.41796875 11.3203125 C208.53769935 24.29530808 213.84474324 38.69977894 213.8203125 56.35546875 C213.81878677 57.64421654 213.81878677 57.64421654 213.81723022 58.95899963 C213.74312621 70.13918201 213.12604351 81.29683749 212.515625 92.45825195 C212.31300652 96.17820059 212.12077424 99.89858373 211.9296875 103.61914062 C211.35001475 114.63356251 210.6992454 125.63116787 209.6640625 136.61328125 C209.58548004 137.44846786 209.50689758 138.28365448 209.42593384 139.14414978 C208.42536595 149.13773076 206.99517874 159.24026562 199.6875 166.75 C197.1796875 168.1171875 197.1796875 168.1171875 194.6875 168.75 C193.6975 168.09 192.7075 167.43 191.6875 166.75 C191.6875 166.09 191.6875 165.43 191.6875 164.75 C191.0275 164.75 190.3675 164.75 189.6875 164.75 C179.4802115 144.335423 179.34021269 121.67792005 179.4375 99.375 C179.44015869 97.62867783 179.44015869 97.62867783 179.44287109 95.84707642 C179.47698321 76.75396893 180.0911216 57.77704731 181.6875 38.75 C147.47984789 51.67052082 116.29010514 71.9552193 90.9453125 98.51953125 C88.99819658 100.44306618 87.00779127 102.20694275 84.9296875 103.984375 C80.54718913 107.7871805 76.61673829 111.92442994 72.6875 116.1875 C68.73118955 120.45676079 64.76968655 124.6973693 60.625 128.78515625 C57.40675593 131.97633317 54.40519198 135.29560752 51.44726562 138.72753906 C39.668818 152.26425661 27.39749543 165.78740941 11.6875 174.75 C10.72650391 175.3378125 10.72650391 175.3378125 9.74609375 175.9375 C6.84449502 177.08272303 4.78317 177.13349935 1.6875 176.75 C-0.83984375 175.02734375 -0.83984375 175.02734375 -3.25 172.6875 C-4.10722656 171.8625 -4.96445313 171.0375 -5.84765625 170.1875 C-6.66105469 169.383125 -7.47445313 168.57875 -8.3125 167.75 C-8.99183594 167.13125 -9.67117188 166.5125 -10.37109375 165.875 C-16.12987713 160.52490447 -20.00354218 154.15921239 -20.45967102 146.17333984 C-20.46951523 145.19574707 -20.47935944 144.2181543 -20.48950195 143.2109375 C-20.50215591 142.0903746 -20.51480988 140.96981171 -20.52784729 139.81529236 C-20.5354155 138.59749588 -20.5429837 137.3796994 -20.55078125 136.125 C-20.56048447 134.85084732 -20.57018768 133.57669464 -20.58018494 132.26393127 C-20.60770779 128.09263239 -20.61839481 123.92137847 -20.625 119.75 C-20.62644516 119.04142223 -20.62789032 118.33284447 -20.62937927 117.60279465 C-20.67142721 92.15264835 -19.58786048 67.01276062 -16.3125 41.75 C-16.22572998 41.07706909 -16.13895996 40.40413818 -16.04956055 39.71081543 C-11.185105 2.5324766 -11.185105 2.5324766 0 0 Z " fill="#fea709" transform="translate(1154.3125,433.25)"/>
<path d="M0 0 C1.05413086 -0.02247803 2.10826172 -0.04495605 3.19433594 -0.06811523 C13.79625711 -0.03557865 21.50272828 2.92013635 29.203125 10.2109375 C35.62810499 17.19994245 38.83362985 23.43974768 38.70703125 32.9921875 C36.62369757 48.69731834 22.1715584 63.14039978 10.25 72.4375 C-7.84231652 85.28282701 -26.45699127 93.56881997 -48.875 93.75 C-50.63457031 93.79350586 -50.63457031 93.79350586 -52.4296875 93.83789062 C-64.11707707 93.92229955 -72.8673402 91.07302418 -81.75 83.4375 C-97.2299375 90.28927561 -109.89537224 106.71970807 -115.9375 122.00390625 C-116.8555615 124.32606946 -116.8555615 124.32606946 -116.75 126.4375 C-109.02778206 129.33501633 -101.99935115 131.17470904 -93.75 131.4375 C-92.77804688 131.47746094 -91.80609375 131.51742187 -90.8046875 131.55859375 C-53.49883976 132.35332985 -17.0998085 117.48028596 17.17333984 104.25585938 C24.60108301 101.40202567 32.05554551 98.70511385 39.625 96.25 C40.50462402 95.95826904 41.38424805 95.66653809 42.29052734 95.3659668 C47.06536142 93.85839627 51.18052404 92.98498533 56.25 93.4375 C58.1875 94.9375 58.1875 94.9375 59.25 97.4375 C60.38478942 106.84004095 56.51097829 113.99776122 51.125 121.5 C27.92386397 150.99105441 -14.30821031 164.86015923 -50.18115234 169.77026367 C-73.83164586 172.41360981 -98.48624763 171.97593314 -118.25 157.25 C-119.76568362 155.99791353 -121.26434191 154.72507035 -122.75 153.4375 C-123.7090625 152.6228125 -124.668125 151.808125 -125.65625 150.96875 C-137.88766385 140.33814381 -148.2514919 127.89678871 -149.97265625 111.2890625 C-150.62360741 95.60963016 -142.38277697 79.66271771 -132.26953125 68.13671875 C-131.43808594 67.24597656 -130.60664063 66.35523438 -129.75 65.4375 C-129.29028809 64.93686035 -128.83057617 64.4362207 -128.35693359 63.92041016 C-101.73536927 35.15921828 -64.02987002 14.48660046 -26.75 3.4375 C-25.57566406 3.07527344 -24.40132812 2.71304687 -23.19140625 2.33984375 C-15.51160176 0.31884257 -7.91114788 0.1098451 0 0 Z M-73.75 75.4375 C-73.75 75.7675 -73.75 76.0975 -73.75 76.4375 C-47.5108533 75.5061227 -22.01928648 68.97081815 -1.75 51.4375 C-0.96882813 50.79941406 -0.18765625 50.16132813 0.6171875 49.50390625 C5.59245125 45.319791 9.20463026 41.19156544 12.25 35.4375 C-14.81723825 35.4375 -52.7855604 58.98730104 -73.75 75.4375 Z " fill="#fea709" transform="translate(2531.75,430.5625)"/>
<path d="M0 0 C1.14210938 -0.02900391 2.28421875 -0.05800781 3.4609375 -0.08789062 C13.91640019 -0.16600615 20.7777665 2.32604632 28.3984375 9.4609375 C34.77148651 15.83398651 39.18552329 21.43914167 39.6875 30.75 C39.47587711 35.90830797 37.70780611 39.83498615 35.25 44.3125 C34.83363281 45.12074219 34.41726563 45.92898438 33.98828125 46.76171875 C21.31859431 69.00849189 -3.06760141 84.53163651 -27.125 91.8125 C-34.49352184 93.637032 -42.00599896 93.72652599 -49.5625 93.8125 C-50.6954248 93.83119141 -51.82834961 93.84988281 -52.99560547 93.86914062 C-64.18280645 93.7840046 -72.69999517 91.18361584 -80.75 83.3125 C-85.39972784 84.76500278 -88.47621422 87.45481868 -91.9375 90.75 C-92.50412354 91.28496094 -93.07074707 91.81992187 -93.65454102 92.37109375 C-95.36684594 94.00465817 -97.06187559 95.653983 -98.75 97.3125 C-99.23791016 97.78961426 -99.72582031 98.26672852 -100.22851562 98.75830078 C-108.11344454 106.58467824 -114.27348063 115.08099874 -115.75 126.3125 C-81.99932305 142.24910684 -36.28047448 123.73996301 -3.75 112.3125 C2.56406146 110.03639867 8.82451842 107.62046003 15.08496094 105.20141602 C22.86415676 102.19852298 30.6705379 99.31883524 38.5625 96.625 C39.52905518 96.2856543 40.49561035 95.94630859 41.49145508 95.59667969 C46.95792431 93.7639962 51.47751103 92.76522114 57.25 93.3125 C59.59020638 95.51087569 60.1463578 97.04288306 60.40625 100.2265625 C59.92601737 111.2318935 52.71630866 121.66728618 45.25 129.3125 C36.80710551 137.02755876 27.39386517 143.08914644 17.25 148.3125 C16.31776611 148.80097412 16.31776611 148.80097412 15.36669922 149.29931641 C-16.52769292 165.82252891 -61.38898642 178.21862443 -96.9921875 167.6328125 C-116.77046538 160.68368784 -135.33913299 145.67125051 -145.02734375 126.828125 C-150.26790553 115.41451714 -150.29052236 103.61305597 -146.078125 91.80395508 C-130.87747252 52.75523592 -86.44195417 28.02742514 -50.1484375 11.69140625 C-34.02310776 4.92860456 -17.5058909 0.14620733 0 0 Z M-72.75 75.3125 C-72.75 75.6425 -72.75 75.9725 -72.75 76.3125 C-40.64027803 75.17274243 -14.6460362 65.03594965 8.4375 42.48828125 C10.35558237 40.18575565 11.29984017 38.13823574 12.25 35.3125 C-13.33932061 35.3125 -53.87457829 59.17777184 -72.75 75.3125 Z " fill="#fea709" transform="translate(1054.75,430.6875)"/>
<path d="M0 0 C1.05413086 -0.02247803 2.10826172 -0.04495605 3.19433594 -0.06811523 C13.79625711 -0.03557865 21.50272828 2.92013635 29.203125 10.2109375 C35.62810499 17.19994245 38.83362985 23.43974768 38.70703125 32.9921875 C36.62369757 48.69731834 22.1715584 63.14039978 10.25 72.4375 C-7.84231652 85.28282701 -26.45699127 93.56881997 -48.875 93.75 C-50.63457031 93.79350586 -50.63457031 93.79350586 -52.4296875 93.83789062 C-64.11707707 93.92229955 -72.8673402 91.07302418 -81.75 83.4375 C-97.2299375 90.28927561 -109.89537224 106.71970807 -115.9375 122.00390625 C-116.8555615 124.32606946 -116.8555615 124.32606946 -116.75 126.4375 C-109.02778206 129.33501633 -101.99935115 131.17470904 -93.75 131.4375 C-92.77804687 131.47746094 -91.80609375 131.51742187 -90.8046875 131.55859375 C-53.49883976 132.35332985 -17.0998085 117.48028596 17.17333984 104.25585938 C24.60108301 101.40202567 32.05554551 98.70511385 39.625 96.25 C40.50462402 95.95826904 41.38424805 95.66653809 42.29052734 95.3659668 C47.06536142 93.85839627 51.18052404 92.98498533 56.25 93.4375 C58.1875 94.9375 58.1875 94.9375 59.25 97.4375 C60.38478942 106.84004095 56.51097829 113.99776122 51.125 121.5 C27.92386397 150.99105441 -14.30821031 164.86015923 -50.18115234 169.77026367 C-73.83164586 172.41360981 -98.48624763 171.97593314 -118.25 157.25 C-119.76568362 155.99791353 -121.26434191 154.72507035 -122.75 153.4375 C-123.7090625 152.6228125 -124.668125 151.808125 -125.65625 150.96875 C-137.88766385 140.33814381 -148.2514919 127.89678871 -149.97265625 111.2890625 C-150.62360741 95.60963016 -142.38277697 79.66271771 -132.26953125 68.13671875 C-131.43808594 67.24597656 -130.60664062 66.35523438 -129.75 65.4375 C-129.29028809 64.93686035 -128.83057617 64.4362207 -128.35693359 63.92041016 C-101.73536927 35.15921828 -64.02987002 14.48660046 -26.75 3.4375 C-25.57566406 3.07527344 -24.40132812 2.71304687 -23.19140625 2.33984375 C-15.51160176 0.31884257 -7.91114788 0.1098451 0 0 Z M-73.75 75.4375 C-73.75 75.7675 -73.75 76.0975 -73.75 76.4375 C-47.5108533 75.5061227 -22.01928648 68.97081815 -1.75 51.4375 C-0.96882813 50.79941406 -0.18765625 50.16132813 0.6171875 49.50390625 C5.59245125 45.319791 9.20463026 41.19156544 12.25 35.4375 C-14.81723825 35.4375 -52.7855604 58.98730104 -73.75 75.4375 Z " fill="#fea709" transform="translate(667.75,430.5625)"/>
<path d="M0 0 C1.58083374 -0.03359619 1.58083374 -0.03359619 3.19360352 -0.06787109 C14.43198494 -0.03427354 21.94867754 3.33848049 30.046875 11.0546875 C36.62845144 18.17305919 38.70612733 24.38164692 38.578125 34.03515625 C37.34017056 46.87156478 24.70352058 60.3434113 15.25 68.4375 C-3.46091421 83.80486288 -24.4463481 93.55257016 -48.875 93.75 C-50.63457031 93.79350586 -50.63457031 93.79350586 -52.4296875 93.83789062 C-61.87410431 93.9061003 -70.51919046 92.72728566 -77.6875 86.125 C-78.19152344 85.59261719 -78.69554687 85.06023437 -79.21484375 84.51171875 C-80.7015915 83.21008186 -80.7015915 83.21008186 -82.63842773 83.71289062 C-84.92043091 84.49598525 -86.24011061 85.3987838 -88.0703125 86.95703125 C-88.68334229 87.4785376 -89.29637207 88.00004395 -89.92797852 88.53735352 C-90.57049561 89.10252686 -91.2130127 89.6677002 -91.875 90.25 C-92.54007568 90.83386475 -93.20515137 91.41772949 -93.89038086 92.01928711 C-104.18965035 101.24294089 -114.46483039 112.28998926 -116.75 126.4375 C-109.02778206 129.33501633 -101.99935115 131.17470904 -93.75 131.4375 C-92.77804687 131.47746094 -91.80609375 131.51742187 -90.8046875 131.55859375 C-53.49883976 132.35332985 -17.0998085 117.48028596 17.17333984 104.25585938 C24.60108301 101.40202567 32.05554551 98.70511385 39.625 96.25 C40.50462402 95.95826904 41.38424805 95.66653809 42.29052734 95.3659668 C47.03991399 93.86643086 51.21424528 92.8446833 56.25 93.4375 C58.52776149 94.91382689 59.08408935 95.82555419 59.7890625 98.42578125 C60.19473263 109.39731437 54.20133421 118.86780196 47.0625 126.75 C20.36122757 154.77579487 -25.9072259 169.4563468 -63.78125 170.67578125 C-87.14571495 171.07410034 -105.64512669 168.25024993 -123.75 152.4375 C-124.595625 151.72464844 -125.44125 151.01179687 -126.3125 150.27734375 C-137.43876512 140.66058716 -148.54713633 127.77401178 -149.75 112.4375 C-150.15395809 93.35048047 -140.7386098 77.18832815 -127.96875 63.71875 C-127.2365625 62.9659375 -126.504375 62.213125 -125.75 61.4375 C-125.1003125 60.7259375 -124.450625 60.014375 -123.78125 59.28125 C-98.6698596 32.62454326 -61.4621737 13.73341296 -26.75 3.4375 C-25.64011719 3.09589844 -24.53023437 2.75429688 -23.38671875 2.40234375 C-15.62776796 0.36550075 -7.99275911 0.10595689 0 0 Z M-73.75 75.4375 C-73.75 75.7675 -73.75 76.0975 -73.75 76.4375 C-42.95455849 75.05097538 -14.05359892 66.31584286 7.5 43 C9.81834413 40.36436424 11.13591755 38.77974734 12.25 35.4375 C-14.81723825 35.4375 -52.7855604 58.98730104 -73.75 75.4375 Z " fill="#fea709" transform="translate(1793.75,430.5625)"/>
<path d="M0 0 C7.46620287 5.53577779 11.06878379 14.13820744 13 23 C13.90370154 29.67026826 13.71370735 36.41019633 13.625 43.125 C13.61685776 44.62370132 13.61685776 44.62370132 13.60855103 46.15267944 C13.4665851 69.23384239 12.05319376 92.27810154 10.6875 115.3125 C10.63414742 116.21898537 10.58079483 117.12547073 10.5258255 118.05942535 C6.41139319 187.76582044 6.41139319 187.76582044 0 207 C-1.32 207 -2.64 207 -4 207 C-7.27827238 200.04407181 -8.65618378 192.99345642 -9.6875 185.4375 C-9.80649658 184.58333496 -9.92549316 183.72916992 -10.0480957 182.84912109 C-12.07460314 166.89713248 -12.20480219 150.80555805 -12.1875 134.75 C-12.18709213 133.31184433 -12.18709213 133.31184433 -12.18667603 131.84463501 C-12.15626683 108.36849026 -10.39314778 85.17352274 -8.04248047 61.82666016 C-7.08218618 52.22495637 -6.38353433 42.64125958 -6 33 C-12.14491393 45.06788967 -17.46097187 57.34409662 -22.25 70 C-22.5199881 70.71338531 -22.7899762 71.42677063 -23.06814575 72.16177368 C-25.05973905 77.43585271 -27.03201633 82.71707376 -29 88 C-66.928204 189.8068694 -66.928204 189.8068694 -104.75 207.2890625 C-111.69528035 210.25045287 -120.88128302 213.5687917 -128.1484375 210.80078125 C-140.4488047 203.03301512 -149.01870739 188.65492304 -152.89331055 174.80737305 C-155.2572842 163.92998887 -155.46890476 153.35170939 -155.375 142.25 C-155.36901794 140.8151828 -155.36901794 140.8151828 -155.36291504 139.35137939 C-154.93613339 51.41794414 -154.93613339 51.41794414 -138.0625 34 C-136 33 -136 33 -133.625 33.3125 C-127.46402381 37.27312755 -123.76631645 43.99827078 -122 51 C-118.82558022 69.97653848 -121.7233877 89.86470142 -123.25952148 108.91644287 C-123.78572212 115.44613085 -124.30231536 121.97654998 -124.80859375 128.5078125 C-124.8631007 129.20798744 -124.91760765 129.90816238 -124.97376633 130.62955475 C-126.01202773 144.07522628 -126.62721076 157.51840155 -127 171 C-125.39445882 170.5272909 -123.78961015 170.05222929 -122.18505859 169.57617188 C-121.2912851 169.31187378 -120.3975116 169.04757568 -119.47665405 168.77526855 C-91.10530934 159.89416892 -76.83386817 126.33817993 -64.25 102.3125 C-58.12794126 90.50244408 -52.46168659 78.49433849 -46.83447266 66.44287109 C-14.45202314 -2.89040463 -14.45202314 -2.89040463 0 0 Z " fill="#fea709" transform="translate(2894,392)"/>
<path d="M0 0 C0.70125 0.42410156 1.4025 0.84820312 2.125 1.28515625 C7.9156288 5.22234515 12.85636534 10.71273067 16 17 C16.23828125 19.0234375 16.23828125 19.0234375 16.3125 21.375 C16.36857422 22.53128906 16.36857422 22.53128906 16.42578125 23.7109375 C15.83165394 26.90505316 14.45784596 27.91184572 12 30 C3.71198247 33.52308237 -5.48136574 35.08909176 -14.25799561 36.94915771 C-37.35789579 41.8873568 -59.2851892 48.57252143 -77 65 C-77.82628906 65.74636719 -78.65257812 66.49273437 -79.50390625 67.26171875 C-106.7566444 93.06438945 -122.03657349 133.27832055 -126.9375 169.8125 C-127.48245503 173.25432125 -127.99328663 175.66197044 -130.3125 178.3125 C-133 180 -133 180 -135.4296875 179.78515625 C-144.58399462 176.98877976 -150.66270182 166.53912509 -155.3203125 158.80859375 C-157.99360589 153.27388632 -158.52823051 147.52531489 -159.0871582 141.48828125 C-159.17314176 140.5647435 -159.25912531 139.64120575 -159.34771442 138.68968201 C-160.2137095 128.64443547 -160.27174418 118.63798186 -160.23046875 108.5625 C-160.2292706 106.58015981 -160.22882512 104.59781905 -160.2290802 102.61547852 C-160.22753275 98.49784695 -160.21938013 94.38030447 -160.20581055 90.26269531 C-160.18882389 85.04931761 -160.1849975 79.83603704 -160.18575573 74.62263489 C-160.18548062 70.54023351 -160.1799455 66.45785232 -160.17275429 62.37545776 C-160.16962743 60.45580192 -160.16761467 58.53614384 -160.16686058 56.6164856 C-160.15866547 46.66569921 -160.02735844 36.72814053 -159.61450195 26.78515625 C-159.58429301 25.94995956 -159.55408407 25.11476288 -159.52295971 24.2542572 C-158.6466075 5.6466075 -158.6466075 5.6466075 -153 0 C-149.8787541 -0.60902359 -147.81674327 -0.49765126 -145.0703125 1.17578125 C-135.74196008 8.78002184 -131.01334876 18.29899671 -129 30 C-128.54010835 35.41729827 -128.40030771 40.81602939 -128.3125 46.25 C-128.27923129 47.68883121 -128.2447333 49.12763453 -128.20898438 50.56640625 C-128.12519552 54.04406543 -128.05788469 57.52180162 -128 61 C-127.47470703 60.19973389 -126.94941406 59.39946777 -126.40820312 58.57495117 C-121.60865938 51.31007704 -116.64172548 44.6237665 -111 38 C-110.38769531 37.24074219 -109.77539062 36.48148437 -109.14453125 35.69921875 C-93.05574134 16.38580997 -69.04800288 4.78437486 -45 -1 C-43.75992188 -1.2990625 -42.51984375 -1.598125 -41.2421875 -1.90625 C-28.21276213 -4.81056622 -11.92302079 -7.24865469 0 0 Z " fill="#fea709" transform="translate(906,418)"/>
<path d="M0 0 C7.92659124 2.54586698 13.54196857 9.55820981 17.25 16.72265625 C21.3337587 30.48291347 18.06737798 47.47798106 16.8125 61.59765625 C15.19078911 79.93711164 14.37451402 98.18284644 14.0078125 116.58984375 C13.98633148 117.66436295 13.96485046 118.73888214 13.94271851 119.84596252 C13.83511305 125.28547113 13.73319734 130.7249841 13.64208984 136.16479492 C13.4867941 145.08247587 13.3248272 153.99918944 12.84375 162.90625 C12.77865234 164.11724365 12.71355469 165.3282373 12.64648438 166.57592773 C12.16474051 170.39932474 11.1176888 173.3526213 9.0625 176.59765625 C7.25 177.72265625 7.25 177.72265625 4.0625 177.78515625 C-3.30602036 175.73163418 -9.68783977 170.19067923 -13.75 163.72265625 C-17.49809521 155.44972241 -18.84457894 146.69618572 -19.75 137.72265625 C-19.83757568 136.90442383 -19.92515137 136.08619141 -20.01538086 135.24316406 C-21.0962012 123.63856674 -20.94794511 111.99173489 -20.9375 100.34765625 C-20.93722809 99.21493286 -20.93695618 98.08220947 -20.93667603 96.91516113 C-20.84749007 16.08842571 -20.84749007 16.08842571 -8.75 1.72265625 C-5.4483567 -0.47843928 -3.86360214 -0.61789225 0 0 Z " fill="#fea709" transform="translate(1959.75,437.27734375)"/>
<path d="M0 0 C2.72977064 -0.08126109 5.4571017 -0.14061663 8.1875 -0.1875 C9.34088867 -0.22520508 9.34088867 -0.22520508 10.51757812 -0.26367188 C15.13956217 -0.3231824 18.35105056 -0.16792033 22 3 C24.09536394 7.07261472 24.23394304 10.51169295 24.1953125 15.05078125 C24.19031738 16.25645752 24.18532227 17.46213379 24.18017578 18.7043457 C24.15286377 20.98538208 24.15286377 20.98538208 24.125 23.3125 C24.08375 28.159375 24.0425 33.00625 24 38 C36.21 38 48.42 38 61 38 C61 25.46 61 12.92 61 0 C65.29 0 69.58 0 74 0 C74.00808685 0.94325134 74.01617371 1.88650269 74.02450562 2.8583374 C74.1019761 11.74576249 74.18971769 20.63303465 74.28752708 29.52025986 C74.33748198 34.08932201 74.38381212 38.65836114 74.421875 43.22753906 C74.45873796 47.63669823 74.50510071 52.04566436 74.55806351 56.45465851 C74.57660208 58.13713445 74.59171204 59.81965177 74.60334396 61.50218964 C74.62021567 63.85810634 74.64925257 66.21358146 74.68115234 68.56933594 C74.68331253 69.26561096 74.68547272 69.96188599 74.68769836 70.67926025 C74.74952665 74.25141234 74.93007728 77.0175085 77 80 C78.93981618 80.90609992 78.93981618 80.90609992 81.125 81.25 C83.043125 81.62125 83.043125 81.62125 85 82 C85 82.99 85 83.98 85 85 C82.10259378 85.13539281 79.21154379 85.23426829 76.3125 85.3125 C75.49587891 85.35439453 74.67925781 85.39628906 73.83789062 85.43945312 C69.49848175 85.52729541 67.5840067 85.4268613 63.98046875 82.79296875 C60.60817576 78.03717094 60.8788429 73.44117457 60.90234375 67.73046875 C60.90484131 66.48418701 60.90733887 65.23790527 60.90991211 63.95385742 C60.91901611 62.38095947 60.92812012 60.80806152 60.9375 59.1875 C60.958125 54.175625 60.97875 49.16375 61 44 C48.79 44 36.58 44 24 44 C24 57.53 24 71.06 24 85 C20.04 85 16.08 85 12 85 C11.99191315 84.12827148 11.98382629 83.25654297 11.97549438 82.35839844 C11.89736488 74.11972579 11.81001947 65.88121249 11.71247292 57.64274597 C11.66265129 53.40785969 11.61632067 49.17299665 11.578125 44.93798828 C11.54109281 40.84651401 11.49468563 36.75524119 11.44193649 32.66394043 C11.42348739 31.1075801 11.40834491 29.55117675 11.39665604 27.99475098 C11.35206839 16.84373637 11.35206839 16.84373637 9 6 C4.545 5.01 4.545 5.01 0 4 C0 2.68 0 1.36 0 0 Z " fill="#471C10" transform="translate(2298,695)"/>
<path d="M0 0 C7.8942516 6.89558122 10.47523497 14.97158961 11.23828125 25.19140625 C11.46556409 35.51483186 10.39448005 45.3995564 3.625 53.625 C-1.43563923 58.70703728 -6.26933825 60.46626705 -13.328125 61.01171875 C-18.29774874 60.98992215 -23.52291287 60.23854357 -28 58 C-28.33 66.25 -28.66 74.5 -29 83 C-33.29 83 -37.58 83 -42 83 C-42.00808685 82.06927673 -42.01617371 81.13855347 -42.02450562 80.17962646 C-42.10197856 71.40992902 -42.18972077 62.64038651 -42.28752708 53.87089157 C-42.33748043 49.36236399 -42.38381057 44.85385972 -42.421875 40.34521484 C-42.45873994 35.99440881 -42.50510321 31.64379833 -42.55806351 27.29315948 C-42.57660103 25.63301269 -42.59171138 23.97282398 -42.60334396 22.31261444 C-42.62021749 19.98782816 -42.64925477 17.66348912 -42.68115234 15.33886719 C-42.68331253 14.6519429 -42.68547272 13.96501862 -42.68769836 13.25727844 C-42.75001263 9.70401607 -42.94742196 6.96818967 -45 4 C-46.93981618 3.09390008 -46.93981618 3.09390008 -49.125 2.75 C-50.40375 2.5025 -51.6825 2.255 -53 2 C-53 0.68 -53 -0.64 -53 -2 C-37.07061503 -2.55353075 -37.07061503 -2.55353075 -31 1 C-31 1.66 -31 2.32 -31 3 C-30.39671875 2.65066406 -29.7934375 2.30132813 -29.171875 1.94140625 C-28.37265625 1.48636719 -27.5734375 1.03132812 -26.75 0.5625 C-25.56664062 -0.11619141 -25.56664062 -0.11619141 -24.359375 -0.80859375 C-17.00263794 -4.52350236 -7.05411103 -4.37589045 0 0 Z M-26.61401367 6.99487305 C-29.93359711 11.17585663 -29.64189559 14.27224014 -29.48828125 19.45703125 C-29.48120651 20.35999435 -29.47413177 21.26295746 -29.46684265 22.19328308 C-29.43893319 25.06721088 -29.37620232 27.93916472 -29.3125 30.8125 C-29.28741262 32.76494575 -29.26460022 34.71742215 -29.24414062 36.66992188 C-29.18911789 41.44737102 -29.10286998 46.22335126 -29 51 C-22.34120979 53.93624365 -17.19008825 55.58292223 -10.1875 52.9375 C-3.73974482 47.22663112 -2.46389755 39.55049348 -1.77734375 31.3359375 C-1.49683536 22.87190165 -2.47095536 13.76315484 -7.6875 6.8125 C-9.99424901 4.45984554 -11.8147257 3.48900884 -15.0625 2.9375 C-20.25658534 3.0199458 -22.52797186 3.87662819 -26.61401367 6.99487305 Z " fill="#471C10" transform="translate(1834,721)"/>
<path d="M0 0 C7.60622012 -0.06959844 15.2124071 -0.12286116 22.81887341 -0.15543652 C26.35112466 -0.17107343 29.88315759 -0.19227501 33.4152832 -0.22631836 C37.47869937 -0.26523603 41.54188721 -0.27972547 45.60546875 -0.29296875 C46.8702153 -0.30845261 48.13496185 -0.32393646 49.43803406 -0.33988953 C50.61888077 -0.34011612 51.79972748 -0.34034271 53.01635742 -0.34057617 C54.05338303 -0.34723801 55.09040863 -0.35389984 56.15885925 -0.36076355 C59.45316512 0.05754219 61.3208628 1.07385452 64 3 C66.60718219 6.46583501 66.20291938 10.04235344 66.125 14.25 C66.10695313 15.51328125 66.08890625 16.7765625 66.0703125 18.078125 C66.04710937 19.04234375 66.02390625 20.0065625 66 21 C64.68 21 63.36 21 62 21 C61.89042969 20.38511719 61.78085938 19.77023437 61.66796875 19.13671875 C61.50941406 18.32847656 61.35085938 17.52023437 61.1875 16.6875 C61.03667969 15.88699219 60.88585938 15.08648438 60.73046875 14.26171875 C59.8666547 11.58712872 59.28755216 10.63533603 57 9 C50.43574444 6.35268706 43.55615506 6.55880285 36.5625 6.375 C32.416875 6.25125 28.27125 6.1275 24 6 C24 16.56 24 27.12 24 38 C35.22 38 46.44 38 58 38 C58 39.98 58 41.96 58 44 C46.78 44 35.56 44 24 44 C24 55.55 24 67.1 24 79 C28.455 78.896875 32.91 78.79375 37.5 78.6875 C38.88896484 78.66260498 40.27792969 78.63770996 41.70898438 78.61206055 C48.40934286 78.41342759 54.02860247 78.18102485 60 75 C62.37604288 72.61029934 62.37604288 72.61029934 64 69.8125 C64.5775 68.91144531 65.155 68.01039063 65.75 67.08203125 C66.1625 66.39496094 66.575 65.70789063 67 65 C68.485 65.495 68.485 65.495 70 66 C69.37896591 71.89982386 67.75098855 79.46934883 63.23834229 83.62055969 C60.56944632 85.26534061 59.07067932 85.36417181 55.95605469 85.34057617 C54.95531921 85.34034958 53.95458374 85.34012299 52.92352295 85.33988953 C51.31395721 85.31666374 51.31395721 85.31666374 49.671875 85.29296875 C48.56773254 85.28872391 47.46359009 85.28447906 46.32598877 85.28010559 C42.80041084 85.26331668 39.27540509 85.22566309 35.75 85.1875 C33.35938326 85.17245348 30.96875755 85.15876502 28.578125 85.14648438 C22.71855487 85.11341243 16.85931831 85.06321046 11 85 C10.98969254 84.05674866 10.97938507 83.11349731 10.96876526 82.1416626 C10.87102736 73.25429374 10.76829287 64.36699484 10.66066074 55.47974014 C10.60548624 50.91067139 10.55207498 46.34159618 10.50268555 41.77246094 C10.45496128 37.36336483 10.40261556 32.95434563 10.34705925 28.54534149 C10.32667222 26.86285059 10.30795316 25.18033862 10.29092598 23.49781036 C10.26680103 21.1420175 10.23675768 18.78636914 10.20532227 16.43066406 C10.1995668 15.73438904 10.19381134 15.03811401 10.18788147 14.32073975 C10.13713662 10.97721776 9.81964425 8.27857698 9 5 C6.03 4.67 3.06 4.34 0 4 C0 2.68 0 1.36 0 0 Z " fill="#471C10" transform="translate(1646,695)"/>
<path d="M0 0 C2.72977064 -0.08126109 5.4571017 -0.14061663 8.1875 -0.1875 C9.34088867 -0.22520508 9.34088867 -0.22520508 10.51757812 -0.26367188 C15.16229839 -0.32347514 18.28625625 -0.11227113 22 3 C23.9130863 6.07673765 24.23913574 8.39086948 24.1953125 11.984375 C24.18886719 12.91894531 24.18242187 13.85351562 24.17578125 14.81640625 C24.15902344 15.78449219 24.14226563 16.75257813 24.125 17.75 C24.11597656 18.73355469 24.10695313 19.71710937 24.09765625 20.73046875 C24.07412785 23.15389407 24.04125368 25.57682222 24 28 C25.0725 27.360625 26.145 26.72125 27.25 26.0625 C33.97087914 22.23994728 41.2405302 21.88407911 48.765625 23.6484375 C54.9425071 25.8121956 57.79537827 28.31438081 61 34 C61.96813254 36.90439761 62.12144834 38.7281824 62.11352539 41.74682617 C62.11344986 42.70759567 62.11337433 43.66836517 62.11329651 44.6582489 C62.10813522 45.69270645 62.10297394 46.727164 62.09765625 47.79296875 C62.0962413 48.85413406 62.09482635 49.91529938 62.09336853 51.00862122 C62.08776606 54.40160935 62.07521314 57.79453177 62.0625 61.1875 C62.05748532 63.48632717 62.05292236 65.78515538 62.04882812 68.08398438 C62.03779583 73.72268162 62.02052952 79.36132966 62 85 C58.04 85 54.08 85 50 85 C49.98541748 83.69853027 49.97083496 82.39706055 49.95581055 81.05615234 C49.89771066 76.21408008 49.82047809 71.37246715 49.73754883 66.53076172 C49.70435451 64.43773876 49.67630555 62.34462747 49.65356445 60.25146484 C49.61991769 57.23757388 49.56759607 54.22448837 49.51171875 51.2109375 C49.50532883 50.27945892 49.4989389 49.34798035 49.49235535 48.38827515 C49.37405464 43.12616574 48.73732174 39.63701302 46 35 C46 34.34 46 33.68 46 33 C40.83993223 30.98631502 36.31173856 29.81146827 30.93115234 31.74247742 C28.57246179 32.96327224 26.84658483 34.07960813 25 36 C23.82577585 39.7259818 23.9279522 43.3256618 24 47.20703125 C23.9836853 48.82782845 23.9836853 48.82782845 23.96704102 50.48136902 C23.94088482 53.92609352 23.96972691 57.36785437 24 60.8125 C23.99190868 63.15040599 23.98023201 65.48830252 23.96484375 67.82617188 C23.93498909 73.55150245 23.95444887 79.2747928 24 85 C20.04 85 16.08 85 12 85 C11.99191315 84.09877411 11.98382629 83.19754822 11.97549438 82.26901245 C11.8974682 73.76482832 11.81015324 65.26080076 11.71247292 56.75681877 C11.66258346 52.38511182 11.61625288 48.01342817 11.578125 43.64160156 C11.54117919 39.42046142 11.49479424 35.19951978 11.44193649 30.97854996 C11.42344186 29.37029639 11.40831579 27.76200035 11.39665604 26.15368271 C11.3797088 23.89635761 11.35065433 21.63948224 11.31884766 19.38232422 C11.30552399 18.09881073 11.29220032 16.81529724 11.2784729 15.4928894 C10.99874447 11.98425187 10.38456069 9.23081839 9 6 C6.85635805 4.85585408 6.85635805 4.85585408 4.375 4.625 C3.55773438 4.49351562 2.74046875 4.36203125 1.8984375 4.2265625 C1.27195312 4.15179687 0.64546875 4.07703125 0 4 C0 2.68 0 1.36 0 0 Z " fill="#471C10" transform="translate(2132,695)"/>
<path d="M0 0 C1.2065625 0.0309375 1.2065625 0.0309375 2.4375 0.0625 C2.88963867 1.15264404 3.34177734 2.24278809 3.80761719 3.3659668 C4.10966064 4.09421661 4.4117041 4.82246643 4.72290039 5.57278442 C5.4086798 7.22638098 6.09438714 8.88000742 6.7800293 10.53366089 C8.69351985 15.14855302 10.60802531 19.76301954 12.52441406 24.37670898 C16.06127548 32.89508672 19.59075886 41.41578462 23.0625 49.9609375 C23.60171187 51.28303084 24.14109381 52.60505483 24.68066406 53.92700195 C25.65742558 56.32411906 26.62849032 58.72356849 27.59277344 61.12573242 C31.52821058 71.52803767 31.52821058 71.52803767 38.67578125 79.71875 C39.36027344 79.9971875 40.04476562 80.275625 40.75 80.5625 C41.966875 81.0575 43.18375 81.5525 44.4375 82.0625 C44.4375 83.0525 44.4375 84.0425 44.4375 85.0625 C40.68778127 86.93735937 36.33792993 86.51278843 32.34375 85.56640625 C24.65421803 82.94900787 20.81525364 79.20634019 17.125 72.0625 C15.25497295 68.21446535 14.29125465 65.33127323 13.4375 61.0625 C-3.8875 61.5575 -3.8875 61.5575 -21.5625 62.0625 C-24.4821409 69.25656815 -24.4821409 69.25656815 -27.39624023 76.45288086 C-27.94066772 77.78911499 -27.94066772 77.78911499 -28.49609375 79.15234375 C-28.86790771 80.06878662 -29.23972168 80.98522949 -29.62280273 81.92944336 C-30.5625 84.0625 -30.5625 84.0625 -31.5625 85.0625 C-33.89547433 85.10342937 -36.22955225 85.10491723 -38.5625 85.0625 C-36.22310072 77.57009961 -33.23025987 70.48899624 -30.0625 63.3125 C-28.90786523 60.67994822 -27.75771817 58.04545808 -26.609375 55.41015625 C-26.29881165 54.69757156 -25.98824829 53.98498688 -25.66827393 53.25080872 C-22.90615135 46.89296042 -20.20556626 40.50976703 -17.515625 34.12109375 C-17.08540039 33.0993808 -16.65517578 32.07766785 -16.21191406 31.0249939 C-14.47798154 26.9043471 -12.74552335 22.7830933 -11.01733398 18.66003418 C-9.7999316 15.75561977 -8.57979035 12.8523681 -7.359375 9.94921875 C-6.9901593 9.06519882 -6.6209436 8.18117889 -6.24053955 7.27037048 C-5.90173767 6.4653157 -5.56293579 5.66026093 -5.21386719 4.83081055 C-4.9177655 4.12409714 -4.62166382 3.41738373 -4.31658936 2.68925476 C-3.11568603 0.09861323 -3.00460068 0.07328294 0 0 Z M-4.5625 20.0625 C-6.56335915 24.56177237 -8.55698144 29.06415399 -10.54394531 33.56958008 C-11.22099689 35.10203407 -11.90002283 36.63361735 -12.58105469 38.16430664 C-13.55923679 40.36379044 -14.53029142 42.56630094 -15.5 44.76953125 C-15.80623291 45.45400833 -16.11246582 46.13848541 -16.42797852 46.84370422 C-17.70412698 49.75958333 -18.5625 51.84264511 -18.5625 55.0625 C-8.9925 55.0625 0.5775 55.0625 10.4375 55.0625 C8.08625 49.184375 8.08625 49.184375 5.6875 43.1875 C2.60416667 35.47916667 -0.47916667 27.77083333 -3.5625 20.0625 C-3.8925 20.0625 -4.2225 20.0625 -4.5625 20.0625 Z " fill="#471C10" transform="translate(2815.5625,694.9375)"/>
<path d="M0 0 C6.38150462 4.83818488 10.28298159 11.20957584 12 19 C12.73609145 31.28428023 12.70105608 41.32167736 4.8125 51.375 C-0.77185905 57.25639943 -7.46032124 59.52575532 -15.44921875 60.03515625 C-23.63943646 59.92227423 -29.84798089 58.02674267 -35.8125 52.2421875 C-43.05875793 44.54303845 -45.38712988 35.97172809 -45.2109375 25.48828125 C-44.42783516 16.25057406 -41.1279318 7.82143473 -34.30078125 1.40234375 C-24.45273337 -6.18839878 -10.54979996 -6.19823603 0 0 Z M-24 5 C-30.61206126 12.17363359 -31.88264602 20.5060632 -32 30 C-31.36697258 38.82721575 -28.66356439 45.03938985 -22.6875 51.5 C-19.0479265 53.53138986 -16.00183027 53.96622138 -12 53 C-7.21605218 50.60802609 -4.64193643 46.9624258 -2.5625 42.125 C0.59468331 32.0930842 0.3258253 20.90392985 -3.79296875 11.2109375 C-6.15347869 6.88715553 -9.32197654 3.65994381 -14 2 C-18.51086511 2 -20.2213938 2.60945322 -24 5 Z " fill="#471C10" transform="translate(1931,722)"/>
<path d="M0 0 C6.15933926 4.56896282 9.85850106 12.07939379 11.74609375 19.40234375 C13.14656702 29.29902155 12.09688425 38.2215103 7.41015625 47.07421875 C1.69351794 54.02688696 -3.98939027 58.72578185 -13.15234375 59.63671875 C-21.85812942 60.26774214 -29.10614615 58.53587878 -35.90234375 52.88671875 C-43.47964486 45.0351262 -45.41258633 36.58936472 -45.32202148 25.91015625 C-44.98090617 16.57390689 -42.23484305 9.30309382 -35.765625 2.54296875 C-25.90461125 -6.22237681 -11.19541144 -6.55172949 0 0 Z M-27.765625 9.1171875 C-32.77740196 16.91902586 -32.75011677 25.89090509 -31.90234375 34.88671875 C-30.36103447 41.67345155 -27.82339496 46.96566754 -22.90234375 51.88671875 C-19.67885753 53.49846186 -16.39753022 53.3366588 -12.90234375 52.88671875 C-8.0163061 50.63162445 -5.83871381 47.86360817 -3.71484375 43.09375 C0.2508024 32.32168232 -0.35179948 22.70597382 -3.90234375 11.88671875 C-6.394815 7.07367081 -9.10509013 4.43220026 -13.90234375 1.88671875 C-20.02214721 0.84187426 -24.15981497 4.44214674 -27.765625 9.1171875 Z " fill="#471C10" transform="translate(2682.90234375,722.11328125)"/>
<path d="M0 0 C6.4938197 6.6793574 6.33420666 15.45102879 6.28515625 24.14453125 C6.2837413 25.09188644 6.28232635 26.03924164 6.28086853 27.01530457 C6.27528611 30.03106895 6.26273682 33.04675818 6.25 36.0625 C6.24498273 38.11132705 6.24042022 40.16015527 6.23632812 42.20898438 C6.22532243 47.22268506 6.20806988 52.2363298 6.1875 57.25 C-1.5 57.5 -1.5 57.5 -4.3125 55.25 C-5.055 54.26 -5.055 54.26 -5.8125 53.25 C-6.534375 53.86875 -7.25625 54.4875 -8 55.125 C-13.44699362 58.74770359 -20.80606962 59.5616834 -27.22265625 59.0625 C-32.78006416 57.86321351 -37.28415111 55.35806744 -40.625 50.75 C-43.36933138 44.97246026 -43.77701918 39.14355755 -41.75 33.0625 C-37.28596522 26.58244951 -31.66889651 24.42155911 -24.234375 22.7421875 C-18.09451101 21.85905638 -12.00306298 22.02165956 -5.8125 22.25 C-6.23877206 20.18515022 -6.67901449 18.12318179 -7.125 16.0625 C-7.36863281 14.91394531 -7.61226562 13.76539063 -7.86328125 12.58203125 C-9.03665732 8.46314323 -10.27195952 5.24682031 -13.9375 2.875 C-18.07588037 1.97535209 -21.72866777 2.0937789 -25.8125 3.25 C-29.10859597 5.84479895 -31.22854252 8.36210437 -32.8125 12.25 C-35.1225 12.25 -37.4325 12.25 -39.8125 12.25 C-39.79212377 7.00312065 -39.75632166 3.38258599 -36.3125 -0.75 C-25.85965169 -7.74327676 -10.22548153 -6.36252184 0 0 Z M-26.75 33.5625 C-29.11980369 36.65042602 -29.73178647 38.37575033 -29.8125 42.25 C-28.74687742 46.72561486 -26.68580118 48.83994593 -22.8125 51.25 C-18.77972277 52.34984834 -16.58003416 52.52089441 -12.625 51.125 C-9.48198048 49.02965365 -7.83830892 47.44570281 -5.8125 44.25 C-5.34467219 41.45663489 -5.43136167 38.7594959 -5.5625 35.9375 C-5.58957031 34.82665039 -5.58957031 34.82665039 -5.6171875 33.69335938 C-5.66402663 31.8783429 -5.73576211 30.06399834 -5.8125 28.25 C-14.01666406 27.79608109 -20.17225839 28.38427788 -26.75 33.5625 Z " fill="#471C10" transform="translate(2492.8125,722.75)"/>
<path d="M0 0 C4.36247969 3.72315077 6.53181507 7.45789811 8 13 C8.26723996 16.55173169 8.23299467 20.08840972 8.1953125 23.6484375 C8.1924826 24.66096588 8.18965271 25.67349426 8.18673706 26.71670532 C8.17558254 29.93625938 8.15048646 33.15553065 8.125 36.375 C8.1149641 38.56379805 8.10583931 40.75260049 8.09765625 42.94140625 C8.0756587 48.29436658 8.04222824 53.64716308 8 59 C0.3125 59.25 0.3125 59.25 -2.5 57 C-3.2425 56.01 -3.2425 56.01 -4 55 C-5.2065625 55.928125 -5.2065625 55.928125 -6.4375 56.875 C-12.38888252 60.8006772 -18.98301419 61.53249087 -25.93359375 60.46875 C-32.21876086 59.04300321 -35.29584595 55.97414972 -39 51 C-40.40053506 48.19892988 -40.2075504 45.81108319 -40.25 42.6875 C-40.27578125 41.55699219 -40.3015625 40.42648437 -40.328125 39.26171875 C-39.96274481 35.62966568 -39.21853007 33.87162544 -37 31 C-27.37189088 23.38020812 -15.67898972 23.69708672 -4 24 C-5.06935283 14.21023815 -5.06935283 14.21023815 -10 6 C-13.96745267 3.47990131 -17.13464044 3.88908688 -21.65625 4.4609375 C-24.84955559 5.19539779 -26.18977132 6.28465697 -28 9 C-29.25436187 11.63222962 -29.25436187 11.63222962 -30 14 C-32.31 14 -34.62 14 -37 14 C-37.62108626 6.08115016 -37.62108626 6.08115016 -35.3125 2.0625 C-27.01727028 -5.33594813 -9.43698663 -5.4034359 0 0 Z M-25 35.6875 C-27.64996692 40.07650771 -27.7227256 41.9409208 -27 47 C-25.22210886 50.02899973 -23.73009767 51.5538292 -20.75 53.375 C-16.95528801 54.23743454 -13.67544284 54.21476118 -10 53 C-6.86021987 50.96707485 -4.37612623 48.63633112 -3.52075195 44.91503906 C-3.41059925 42.62325793 -3.47368885 40.41406613 -3.625 38.125 C-3.65207031 37.34125 -3.67914062 36.5575 -3.70703125 35.75 C-3.77719722 33.83213019 -3.88480246 31.9156924 -4 30 C-11.89226117 29.56333801 -19.18367358 29.70825128 -25 35.6875 Z " fill="#471C10" transform="translate(3087,721)"/>
<path d="M0 0 C6.48648282 4.16113992 8.86405821 9.64555647 10.75 16.875 C11.12552589 21.56907366 11 26.29092926 11 31 C-1.87 31 -14.74 31 -28 31 C-25.75665944 43.22428905 -25.75665944 43.22428905 -18.9375 51.875 C-14.31384778 53.64576042 -9.88251338 53.64812124 -5 53 C-1.63063481 51.44839606 -1.63063481 51.44839606 1 49 C2.1247644 48.08304426 3.24976328 47.16637607 4.375 46.25 C5.674375 45.13625 5.674375 45.13625 7 44 C7.99 44.99 8.98 45.98 10 47 C6.05812302 53.22971147 2.02432487 57.44169016 -5 60 C-13.9191804 61.95629931 -21.88511022 61.10971175 -29.75 56.4375 C-36.48858972 51.61582149 -39.11408203 44.86485443 -41 37 C-42.31418635 25.27085059 -41.29777859 14.1436752 -33.875 4.5625 C-24.93656242 -4.69924277 -11.23872759 -5.42180804 0 0 Z M-23 7 C-27.16235135 12.76631476 -27.2703651 17.70365101 -28 25 C-19.42 25 -10.84 25 -2 25 C-2.92849261 14.42564666 -2.92849261 14.42564666 -7.75 5.625 C-13.38974121 1.55185357 -18.06435912 2.50308275 -23 7 Z " fill="#471C10" transform="translate(2430,721)"/>
<path d="M0 0 C8.09461182 8.7691628 8.25 17.91617001 8.25 29.4375 C-4.62 29.4375 -17.49 29.4375 -30.75 29.4375 C-28.62130311 41.18899385 -28.62130311 41.18899385 -21.75 50.4375 C-17.11992987 51.98085671 -12.58545209 51.93771918 -7.75 51.4375 C-4.38063481 49.88589606 -4.38063481 49.88589606 -1.75 47.4375 C-0.6252356 46.52054426 0.49976328 45.60387607 1.625 44.6875 C2.924375 43.57375 2.924375 43.57375 4.25 42.4375 C5.24 42.9325 5.24 42.9325 6.25 43.4375 C5.7381973 47.91577363 4.47995619 50.28632323 1.25 53.4375 C-6.48051368 58.46869354 -14.18576147 60.39612309 -23.3125 58.875 C-30.35271685 56.98099476 -35.99150178 53.3514808 -39.6875 47 C-44.71272425 37.21972485 -45.22608557 25.83560551 -43.09765625 15.16796875 C-40.76262777 8.00253799 -37.00701239 2.00187777 -30.4609375 -1.94140625 C-20.18299868 -6.62357838 -9.67431706 -5.49677106 0 0 Z M-25.75 5.4375 C-29.91235135 11.20381476 -30.0203651 16.14115101 -30.75 23.4375 C-22.17 23.4375 -13.59 23.4375 -4.75 23.4375 C-5.018125 21.395625 -5.28625 19.35375 -5.5625 17.25 C-5.71332031 16.10144531 -5.86414062 14.95289063 -6.01953125 13.76953125 C-6.99176657 9.33468244 -8.97993738 5.13040187 -12.75 2.4375 C-18.51933675 0.80466884 -21.31605609 1.39768444 -25.75 5.4375 Z " fill="#471C10" transform="translate(2251.75,722.5625)"/>
<path d="M0 0 C4.85877148 4.05753643 7.46666612 8.86666448 9 15 C9 19.95 9 24.9 9 30 C-3.87 30 -16.74 30 -30 30 C-27.65937692 42.01567987 -27.65937692 42.01567987 -20.171875 51.1875 C-15.41185542 52.96822675 -9.66989596 52.90463508 -4.8671875 51.27734375 C-1.02264788 49.22192971 1.53668279 46.54717678 4 43 C5.32 43.66 6.64 44.32 8 45 C6.6330156 50.63881065 2.43735781 53.65251954 -2 57 C-8.71617526 60.88831199 -17.42776784 60.45778014 -24.75 58.71875 C-30.9842766 56.72724498 -35.37364072 52.28933469 -39 47 C-44.29886077 36.38174023 -44.0097849 24.90397041 -40.90234375 13.69140625 C-38.34168895 6.05378221 -32.31756142 0.25690711 -25.25 -3.4375 C-16.3193312 -4.98319268 -7.91600819 -4.78347019 0 0 Z M-24.4921875 6.12890625 C-28.8535979 11.54112278 -29.14480951 17.15847607 -30 24 C-21.42 24 -12.84 24 -4 24 C-4 15.75547467 -4.34455573 11.46683002 -9.25 5.0625 C-15.1587725 0.63092062 -19.42097709 1.20551139 -24.4921875 6.12890625 Z " fill="#471C10" transform="translate(2046,722)"/>
<path d="M0 0 C1.28003906 -0.01675781 2.56007813 -0.03351562 3.87890625 -0.05078125 C8.56633104 0.42773742 11.12560558 1.91314595 14.3125 5.3125 C14.68375 5.9725 15.055 6.6325 15.4375 7.3125 C14.4375 10.3125 14.4375 10.3125 12.375 11.5 C11.735625 11.768125 11.09625 12.03625 10.4375 12.3125 C9.798125 11.673125 9.15875 11.03375 8.5 10.375 C4.55320437 7.71695396 1.18315936 6.9342228 -3.5625 7.3125 C-7.09974365 9.37589213 -8.26669522 10.42508565 -9.5625 14.3125 C-9.78429785 16.20462737 -9.96864015 18.10134472 -10.125 20 C-10.269375 21.753125 -10.41375 23.50625 -10.5625 25.3125 C-4.9525 25.3125 0.6575 25.3125 6.4375 25.3125 C6.4375 27.2925 6.4375 29.2725 6.4375 31.3125 C0.8275 31.3125 -4.7825 31.3125 -10.5625 31.3125 C-10.5625 49.4625 -10.5625 67.6125 -10.5625 86.3125 C-14.8525 86.3125 -19.1425 86.3125 -23.5625 86.3125 C-23.5625 68.1625 -23.5625 50.0125 -23.5625 31.3125 C-26.5325 31.3125 -29.5025 31.3125 -32.5625 31.3125 C-32.5625 29.3325 -32.5625 27.3525 -32.5625 25.3125 C-29.5925 25.3125 -26.6225 25.3125 -23.5625 25.3125 C-23.624375 23.9925 -23.68625 22.6725 -23.75 21.3125 C-23.71437791 15.63968171 -22.84094694 10.90739791 -19.015625 6.55078125 C-13.26275308 1.29428545 -7.76665764 0.02351158 0 0 Z " fill="#471C10" transform="translate(2734.5625,693.6875)"/>
<path d="M0 0 C16.49656751 -0.83409611 16.49656751 -0.83409611 22 4 C24.65370208 7.15545247 26.84357271 10.49156548 29 14 C29.90151558 15.44322598 30.80389956 16.88590978 31.70703125 18.328125 C32.47146534 19.5520139 33.2358267 20.77594825 34 22 C34.51385254 21.26680542 34.51385254 21.26680542 35.03808594 20.51879883 C36.60703348 18.28217458 38.17849421 16.04732742 39.75 13.8125 C40.28882813 13.04357422 40.82765625 12.27464844 41.3828125 11.48242188 C42.90992639 9.31280274 44.45205744 7.15478851 46 5 C46.7115625 3.9996875 47.423125 2.999375 48.15625 1.96875 C50 0 50 0 53.75 -0.3125 C54.8225 -0.209375 55.895 -0.10625 57 0 C55.36231341 5.09390861 52.29804286 9.03597372 49.1875 13.3125 C45.24876083 18.76052117 41.48747317 24.25038207 38 30 C39.88344677 33.23654156 41.7839069 36.46277312 43.6875 39.6875 C44.48317383 41.05551758 44.48317383 41.05551758 45.29492188 42.45117188 C50.42208907 51.32861725 50.42208907 51.32861725 58.8125 56.8125 C59.864375 57.204375 60.91625 57.59625 62 58 C62 58.99 62 59.98 62 61 C59.29057607 61.10861833 56.585561 61.18758577 53.875 61.25 C53.11445312 61.28351562 52.35390625 61.31703125 51.5703125 61.3515625 C46.20382411 61.44408816 43.24627459 60.57216275 39 57 C37.3125 55.17578125 37.3125 55.17578125 36 53.3125 C35.51273438 52.62800781 35.02546875 51.94351563 34.5234375 51.23828125 C31.9864384 47.51084412 29.46471836 43.77573876 27 40 C25.24834503 42.3737945 23.49863966 44.7489858 21.75 47.125 C21.25886719 47.79015625 20.76773437 48.4553125 20.26171875 49.140625 C19.77832031 49.79804687 19.29492188 50.45546875 18.796875 51.1328125 C18.31766602 51.7820166 17.83845703 52.4312207 17.34472656 53.10009766 C16.10715631 54.84860378 15.00819027 56.63344949 13.90625 58.46875 C12 61 12 61 9.859375 61.5859375 C9.16328125 61.51632812 8.4671875 61.44671875 7.75 61.375 C5.89375 61.189375 5.89375 61.189375 4 61 C5.28946889 58.31002873 6.69916121 55.8464876 8.390625 53.390625 C8.85057861 52.72200439 9.31053223 52.05338379 9.78442383 51.36450195 C10.26806396 50.66671631 10.7517041 49.96893066 11.25 49.25 C11.74072998 48.53352295 12.23145996 47.8170459 12.73706055 47.07885742 C15.2977738 43.36152927 17.9333422 39.79287404 20.8125 36.3125 C21.8953125 34.6728125 21.8953125 34.6728125 23 33 C21.74657299 27.94942646 18.37082618 23.35269407 15.6875 18.9375 C14.9769043 17.73383789 14.9769043 17.73383789 14.25195312 16.50585938 C10.51648577 10.34821483 6.98776691 6.3958058 0 4 C0 2.68 0 1.36 0 0 Z " fill="#471C10" transform="translate(1720,719)"/>
<path d="M0 0 C1.90652344 -0.02513672 1.90652344 -0.02513672 3.8515625 -0.05078125 C7.59145445 0.33481737 9.42245766 1.03680401 12.375 3.3125 C14.375 6.3125 14.375 6.3125 14.25 8.375 C13.1163007 10.88533417 11.88881062 11.33941202 9.375 12.3125 C8.776875 11.673125 8.17875 11.03375 7.5625 10.375 C4.69750325 7.67371735 2.83844165 7.35463106 -1.0625 7 C-4.59450501 7.01945459 -4.59450501 7.01945459 -6.9375 8.875 C-10.4123975 13.89429639 -10.77205803 19.34190618 -11.625 25.3125 C-5.685 25.3125 0.255 25.3125 6.375 25.3125 C6.375 27.2925 6.375 29.2725 6.375 31.3125 C0.435 31.3125 -5.505 31.3125 -11.625 31.3125 C-11.625 49.4625 -11.625 67.6125 -11.625 86.3125 C-15.585 86.3125 -19.545 86.3125 -23.625 86.3125 C-23.625 68.1625 -23.625 50.0125 -23.625 31.3125 C-26.595 31.3125 -29.565 31.3125 -32.625 31.3125 C-32.625 29.3325 -32.625 27.3525 -32.625 25.3125 C-29.655 25.3125 -26.685 25.3125 -23.625 25.3125 C-23.67140625 24.61125 -23.7178125 23.91 -23.765625 23.1875 C-24.01648697 16.59341399 -23.55296085 11.74232824 -19.625 6.3125 C-14.20449633 0.74549623 -7.49928077 0.02291023 0 0 Z " fill="#471C10" transform="translate(2890.625,693.6875)"/>
<path d="M0 0 C0 6.27 0 12.54 0 19 C4.95 19 9.9 19 15 19 C15 20.98 15 22.96 15 25 C10.05 25 5.1 25 0 25 C0.06883475 31.3358391 0.15678189 37.67101561 0.26245117 44.00634766 C0.2957054 46.16154636 0.32373577 48.31683226 0.34643555 50.47216797 C0.379972 53.57036497 0.43228803 56.66776255 0.48828125 59.765625 C0.49467117 60.72929993 0.5010611 61.69297485 0.50764465 62.68585205 C0.53733589 64.03679962 0.53733589 64.03679962 0.56762695 65.41503906 C0.57873001 66.20557678 0.58983307 66.9961145 0.60127258 67.81060791 C1.10079847 70.55347928 2.12431753 71.96439443 4 74 C6.10580643 74.5197133 6.10580643 74.5197133 8.375 74.3125 C9.16519531 74.27769531 9.95539062 74.24289062 10.76953125 74.20703125 C13.23286454 73.9783856 15.60319046 73.61853149 18 73 C18.33 74.32 18.66 75.64 19 77 C12.083967 81.76437829 5.40099442 82.70983781 -2.875 81.375 C-7.39628862 79.38563301 -10.10568197 77.01503093 -12.12451172 72.46630859 C-13.28997238 67.85191638 -13.24783316 63.52837313 -13.1953125 58.7890625 C-13.1924826 57.82092621 -13.18965271 56.85278992 -13.18673706 55.85531616 C-13.17558696 52.77841572 -13.1504918 49.70181172 -13.125 46.625 C-13.11496352 44.5325563 -13.10583884 42.44010802 -13.09765625 40.34765625 C-13.07566453 35.23165749 -13.04117025 30.11587892 -13 25 C-15.97 25 -18.94 25 -22 25 C-22 23.02 -22 21.04 -22 19 C-19.03 19 -16.06 19 -13 19 C-13.06960937 18.29875 -13.13921875 17.5975 -13.2109375 16.875 C-13.57987252 10.40985302 -12.85391939 6.58023246 -8.99609375 1.36328125 C-7 0 -7 0 0 0 Z " fill="#471C10" transform="translate(2116,700)"/>
<path d="M0 0 C2.70869807 1.69221436 4.11635974 3.44688793 5.83203125 6.14453125 C6.44140625 9.6953125 6.44140625 9.6953125 6.58203125 13.45703125 C6.63875 14.71128906 6.69546875 15.96554687 6.75390625 17.2578125 C6.7796875 18.21042969 6.80546875 19.16304687 6.83203125 20.14453125 C5.51203125 20.14453125 4.19203125 20.14453125 2.83203125 20.14453125 C2.68507813 19.55285156 2.538125 18.96117187 2.38671875 18.3515625 C0.76218852 12.62836118 -0.81204155 9.26070708 -6.16796875 6.14453125 C-10.90588973 4.89359502 -15.39750288 4.53122789 -20.04296875 6.26953125 C-25.80585452 9.72726271 -27.92101909 13.88064908 -29.625 20.20703125 C-31.42167137 29.92715263 -30.85206086 39.33361845 -26.16796875 48.14453125 C-24.19501471 50.7888786 -22.14986972 52.65358076 -19.16796875 54.14453125 C-9.99376149 54.8586911 -4.38535167 53.92140098 2.70703125 47.95703125 C3.75408979 47.02555709 4.79769998 46.09011812 5.83203125 45.14453125 C6.82203125 45.63953125 6.82203125 45.63953125 7.83203125 46.14453125 C7.32022855 50.62280488 6.06198744 52.99335448 2.83203125 56.14453125 C-5.43552464 61.61525596 -13.75623955 63.06072722 -23.48046875 61.45703125 C-30.86564509 59.68365557 -36.01028219 55.38106109 -40.16796875 49.14453125 C-45.47110345 39.35664683 -45.78936361 27.31764661 -43.04296875 16.64453125 C-40.4482869 9.40865792 -35.99719934 3.76820462 -29.16796875 0.14453125 C-19.7721683 -3.00255064 -9.430184 -3.1805946 0 0 Z " fill="#471C10" transform="translate(3030.16796875,719.85546875)"/>
<path d="M0 0 C0 6.27 0 12.54 0 19 C4.95 19 9.9 19 15 19 C15 20.98 15 22.96 15 25 C10.05 25 5.1 25 0 25 C0.09367004 31.03257915 0.19979496 37.06476339 0.31738281 43.09692383 C0.35562625 45.14829534 0.39048719 47.19973284 0.421875 49.2512207 C0.46762602 52.20287638 0.52560422 55.15407953 0.5859375 58.10546875 C0.59748871 59.02023483 0.60903992 59.93500092 0.62094116 60.87748718 C0.74996038 67.1734119 0.74996038 67.1734119 3 73 C7.59543291 75.29771645 14.17247654 74.24581251 19 73 C19.33 74.32 19.66 75.64 20 77 C13.32524189 80.83180558 7.26048618 82.93025812 -0.49609375 81.55859375 C-5.4259678 80.14196328 -8.23103384 78.49957001 -11 74 C-12.19791173 71.60417654 -12.1206744 70.13222462 -12.11352539 67.45849609 C-12.11344986 66.51767181 -12.11337433 65.57684753 -12.11329651 64.60751343 C-12.10555458 63.08089584 -12.10555458 63.08089584 -12.09765625 61.5234375 C-12.0962413 60.48305328 -12.09482635 59.44266907 -12.09336853 58.37075806 C-12.08775866 55.03880979 -12.07520447 51.70692805 -12.0625 48.375 C-12.05748627 46.11979264 -12.05292314 43.86458422 -12.04882812 41.609375 C-12.03778602 36.07289093 -12.02051475 30.53645675 -12 25 C-14.97 25 -17.94 25 -21 25 C-21 23.02 -21 21.04 -21 19 C-18.03 19 -15.06 19 -12 19 C-12.06960937 18.21496094 -12.13921875 17.42992187 -12.2109375 16.62109375 C-12.5480684 10.07914882 -12.35145325 6.05717027 -7.8984375 1.109375 C-6 0 -6 0 0 0 Z " fill="#471C10" transform="translate(2581,700)"/>
<path d="M0 0 C2.72977064 -0.08126109 5.4571017 -0.14061663 8.1875 -0.1875 C9.34088867 -0.22520508 9.34088867 -0.22520508 10.51757812 -0.26367188 C15.1199878 -0.32293037 18.41383224 -0.22147273 22 3 C23.93402508 7.57364575 24.27816046 11.75977521 24.22705078 16.65771484 C24.22734283 17.39986237 24.22763489 18.14200989 24.22793579 18.90664673 C24.22655072 21.34153235 24.21102871 23.77610582 24.1953125 26.2109375 C24.19157944 27.90629916 24.18873385 29.60166299 24.18673706 31.29702759 C24.1791237 35.74564638 24.15949505 40.19413328 24.1373291 44.6427002 C24.11682107 49.18756324 24.10772476 53.73244771 24.09765625 58.27734375 C24.0762469 67.18495358 24.04213882 76.0924658 24 85 C19.71 85 15.42 85 11 85 C10.98969254 84.05674866 10.97938507 83.11349731 10.96876526 82.1416626 C10.87102736 73.25429374 10.76829287 64.36699484 10.66066074 55.47974014 C10.60548624 50.91067139 10.55207498 46.34159618 10.50268555 41.77246094 C10.45496128 37.36336483 10.40261556 32.95434563 10.34705925 28.54534149 C10.32667222 26.86285059 10.30795316 25.18033862 10.29092598 23.49781036 C10.26680103 21.1420175 10.23675768 18.78636914 10.20532227 16.43066406 C10.1995668 15.73438904 10.19381134 15.03811401 10.18788147 14.32073975 C10.13713662 10.97721776 9.81964425 8.27857698 9 5 C6.03 4.67 3.06 4.34 0 4 C0 2.68 0 1.36 0 0 Z " fill="#471C10" transform="translate(1848,695)"/>
<path d="M0 0 C2.12387774 1.74907578 3.6205428 3.45372322 5.125 5.75 C4.15932113 8.16419718 3.36628309 9.55863755 1.3125 11.1875 C0.590625 11.373125 -0.13125 11.55875 -0.875 11.75 C-1.596875 11.29625 -2.31875 10.8425 -3.0625 10.375 C-6.91488154 8.14917956 -10.52065757 7.84195158 -14.875 8.75 C-18.15777671 9.98213972 -18.15777671 9.98213972 -20.875 12.75 C-21.7965405 16.36372206 -21.71249447 19.92736954 -21.6796875 23.640625 C-21.69339386 24.70037537 -21.70710022 25.76012573 -21.72122192 26.85198975 C-21.75859717 30.23508871 -21.7548017 33.61672346 -21.75 37 C-21.76812136 39.29429386 -21.78892227 41.58856823 -21.8125 43.8828125 C-21.86442222 49.50545454 -21.87942546 55.12713132 -21.875 60.75 C-26.165 60.75 -30.455 60.75 -34.875 60.75 C-34.89481934 59.22600586 -34.91463867 57.70201172 -34.93505859 56.13183594 C-35.01109323 50.4811136 -35.09981429 44.83064947 -35.19238281 39.18017578 C-35.23068134 36.73393855 -35.26553264 34.28764484 -35.296875 31.84130859 C-35.34250605 28.32629194 -35.40050457 24.81166445 -35.4609375 21.296875 C-35.47248871 20.2019574 -35.48403992 19.10703979 -35.49594116 17.97894287 C-35.51581085 16.95818665 -35.53568054 15.93743042 -35.55615234 14.88574219 C-35.56947601 13.98861511 -35.58279968 13.09148804 -35.5965271 12.16717529 C-35.89960143 9.53645685 -36.37616936 7.93264677 -37.875 5.75 C-41.42088501 4.45079254 -41.42088501 4.45079254 -44.875 3.75 C-44.875 2.43 -44.875 1.11 -44.875 -0.25 C-30.09367882 -0.80353075 -30.09367882 -0.80353075 -23.875 2.75 C-23.875 3.41 -23.875 4.07 -23.875 4.75 C-23.34390625 4.40066406 -22.8128125 4.05132813 -22.265625 3.69140625 C-21.55921875 3.23636719 -20.8528125 2.78132812 -20.125 2.3125 C-19.42890625 1.86003906 -18.7328125 1.40757812 -18.015625 0.94140625 C-12.59858692 -2.07355108 -5.66623946 -2.46358237 0 0 Z " fill="#471C10" transform="translate(1992.875,719.25)"/>
<path d="M0 0 C2.875 1.3125 2.875 1.3125 5 3 C5.61875 3.474375 6.2375 3.94875 6.875 4.4375 C8 6 8 6 8 8 C6.61287108 10.77425784 4.7073419 11.61161954 2 13 C1.360625 12.505 0.72125 12.01 0.0625 11.5 C-3.95906076 9.53025596 -7.59858161 9.08213442 -12 10 C-15.28277671 11.23213972 -15.28277671 11.23213972 -18 14 C-18.9215405 17.61372206 -18.83749447 21.17736954 -18.8046875 24.890625 C-18.81839386 25.95037537 -18.83210022 27.01012573 -18.84622192 28.10198975 C-18.88359717 31.48508871 -18.8798017 34.86672346 -18.875 38.25 C-18.89312136 40.54429386 -18.91392227 42.83856823 -18.9375 45.1328125 C-18.98942222 50.75545454 -19.00442546 56.37713132 -19 62 C-23.29 62 -27.58 62 -32 62 C-32.01401855 59.66856934 -32.01401855 59.66856934 -32.02832031 57.29003906 C-32.06817025 51.52737693 -32.133916 45.76525146 -32.20751953 40.00292969 C-32.23575799 37.50820811 -32.25695812 35.01339658 -32.27099609 32.51855469 C-32.29238499 28.93377534 -32.33901708 25.35008082 -32.390625 21.765625 C-32.39185364 20.64883362 -32.39308228 19.53204224 -32.39434814 18.38140869 C-32.41406677 17.34063171 -32.4337854 16.29985474 -32.45410156 15.22753906 C-32.46298401 14.31264709 -32.47186646 13.39775513 -32.48101807 12.45513916 C-33.16115348 9.23763395 -34.46920112 8.03641699 -37 6 C-39.64184541 5.20318682 -39.64184541 5.20318682 -42 5 C-42 3.68 -42 2.36 -42 1 C-27.21867882 0.44646925 -27.21867882 0.44646925 -21 4 C-21 4.66 -21 5.32 -21 6 C-20.23816406 5.566875 -19.47632812 5.13375 -18.69140625 4.6875 C-12.45103058 1.32190413 -7.18137219 -1.5041067 0 0 Z " fill="#471C10" transform="translate(2940,718)"/>
<path d="M0 0 C3.14563298 2.2468807 4.20413809 4.32284523 5.625 7.875 C0.875 11.875 0.875 11.875 -1.375 11.875 C-1.375 11.215 -1.375 10.555 -1.375 9.875 C-7.01977845 8.25848146 -13.02861946 7.82152302 -18.4375 10.25 C-20.4720615 11.73752499 -20.4720615 11.73752499 -21.375 13.875 C-21.49305177 15.3857757 -21.55196449 16.90138831 -21.58032227 18.41650391 C-21.60026749 19.35732819 -21.62021271 20.29815247 -21.64076233 21.26748657 C-21.66583107 22.79410416 -21.66583107 22.79410416 -21.69140625 24.3515625 C-21.71218735 25.39194672 -21.73296844 26.43233093 -21.75437927 27.50424194 C-21.81989872 30.83609249 -21.87877092 34.1680235 -21.9375 37.5 C-21.98068294 39.75521674 -22.02429715 42.01042527 -22.06835938 44.265625 C-22.17558258 49.80200033 -22.27684329 55.3384568 -22.375 60.875 C-26.335 60.875 -30.295 60.875 -34.375 60.875 C-34.404729 58.74889282 -34.404729 58.74889282 -34.43505859 56.57983398 C-34.51133061 51.30361656 -34.60001474 46.02766715 -34.69238281 40.75170898 C-34.73058341 38.47148951 -34.76545162 36.19121161 -34.796875 33.91088867 C-34.84271924 30.62657846 -34.90068214 27.34266738 -34.9609375 24.05859375 C-34.97248871 23.04478134 -34.98403992 22.03096893 -34.99594116 20.98643494 C-35.10669564 15.63274965 -35.30607137 10.85633061 -37.375 5.875 C-40.88900668 4.33413678 -40.88900668 4.33413678 -44.375 3.875 C-44.375 2.555 -44.375 1.235 -44.375 -0.125 C-42.33363605 -0.17951714 -40.29184144 -0.21802485 -38.25 -0.25 C-36.54457031 -0.28480469 -36.54457031 -0.28480469 -34.8046875 -0.3203125 C-29.89926406 -0.04096037 -26.45007039 1.15828641 -22.375 3.875 C-21.75753906 3.5140625 -21.14007812 3.153125 -20.50390625 2.78125 C-13.26479074 -1.18538864 -7.94324865 -2.64774955 0 0 Z " fill="#471C10" transform="translate(2551.375,719.125)"/>
<path d="M0 0 C2.56278699 -0.05420701 5.12441483 -0.09377007 7.6875 -0.125 C8.40873047 -0.14175781 9.12996094 -0.15851562 9.87304688 -0.17578125 C14.01909328 -0.21364469 17.40463461 -0.16369737 21 2 C23.60631124 5.61065842 24.37167329 8.0985017 24.34057617 12.5246582 C24.34034958 13.60540115 24.34012299 14.6861441 24.33988953 15.79963684 C24.32440567 16.9550145 24.30892181 18.11039215 24.29296875 19.30078125 C24.28872391 20.49229294 24.28447906 21.68380463 24.28010559 22.91142273 C24.26333093 26.71201296 24.22567959 30.51207038 24.1875 34.3125 C24.17245166 36.89126838 24.15876351 39.47004508 24.14648438 42.04882812 C24.11343115 48.36609029 24.06165593 54.68295485 24 61 C20.04 61 16.08 61 12 61 C11.98018066 59.54706543 11.96036133 58.09413086 11.93994141 56.59716797 C11.86375234 51.1961156 11.77505507 45.79532795 11.68261719 40.39453125 C11.64438246 38.05897252 11.60952005 35.723356 11.578125 33.38769531 C11.5323553 30.02648295 11.47437964 26.66566645 11.4140625 23.3046875 C11.40251129 22.26384003 11.39096008 21.22299255 11.37905884 20.15060425 C11.27712095 15.11999789 11.18400992 10.64102108 9 6 C6.85635805 4.85585408 6.85635805 4.85585408 4.375 4.625 C3.55773438 4.49351562 2.74046875 4.36203125 1.8984375 4.2265625 C1.27195312 4.15179687 0.64546875 4.07703125 0 4 C0 2.68 0 1.36 0 0 Z " fill="#471C10" transform="translate(2948,719)"/>
<path d="M0 0 C3.625 0.375 3.625 0.375 6 2 C7.98342363 4.89884992 8.47911447 6.8737473 8.625 10.375 C8.125 12.6875 8.125 12.6875 6.625 14.375 C2.60347846 15.58904424 0.52034494 15.79409763 -3.3125 14 C-5.94500385 10.64954056 -5.86319691 8.54526702 -5.74609375 4.3984375 C-5.06367442 0.67745632 -3.60342822 0.40038091 0 0 Z " fill="#471C10" transform="translate(2963.375,697.625)"/>
</svg>
