<!DOCTYPE svg PUBLIC "-//W3C//DTD SVG 1.1//EN" "http://www.w3.org/Graphics/SVG/1.1/DTD/svg11.dtd">
<!-- Uploaded to: SVG Repo, www.svgrepo.com, Transformed by: SVG Repo Mixer Tools -->
<svg fill="#31a046" height="800px" width="800px" version="1.1" id="Layer_1" xmlns="http://www.w3.org/2000/svg" xmlns:xlink="http://www.w3.org/1999/xlink" viewBox="0 0 463.76 463.76" xml:space="preserve">
<g id="SVGRepo_bgCarrier" stroke-width="0"/>
<g id="SVGRepo_tracerCarrier" stroke-linecap="round" stroke-linejoin="round"/>
<g id="SVGRepo_iconCarrier"> <g> <g> <path d="M181.536,322.104l-72-72L79.88,220.448V123.76c0-15.44-12.56-28-28-28s-28,12.56-28,28v176c0,1.792,0.6,3.52,1.704,4.928 L95.88,394.52v69.24h16v-72c0-1.792-0.6-3.52-1.704-4.928L39.88,297V123.76c0-6.616,5.384-12,12-12c6.616,0,12,5.384,12,12v100 c0,2.12,0.84,4.16,2.344,5.656l11.712,11.712c-12.696,3.736-22.056,15.368-22.056,29.264c0,8.176,3.184,15.864,8.968,21.656 l49.376,49.368l11.312-11.312L76.16,280.736c-2.76-2.768-4.28-6.44-4.28-10.344c0-8.072,6.56-14.632,14.624-14.632 c3.848,0,7.616,1.56,10.344,4.288l71.032,71.024V463.76h16v-136C183.88,325.64,183.04,323.6,181.536,322.104z"/> </g> </g> <g> <g> <path d="M411.88,95.76c-15.44,0-28,12.56-28,28v96.688l-29.656,29.656l-72,72c-1.504,1.496-2.344,3.536-2.344,5.656v136h16 V331.072l69.656-69.656l1.376-1.376c2.728-2.72,6.488-4.28,10.344-4.28c8.064,0,14.624,6.56,14.624,14.632 c0,3.904-1.52,7.584-4.28,10.344l-49.376,49.368l11.312,11.312l49.376-49.376c5.784-5.784,8.968-13.472,8.968-21.648 c0-13.896-9.36-25.52-22.056-29.256l11.712-11.712c1.504-1.504,2.344-3.544,2.344-5.664v-100c0-6.616,5.384-12,12-12 c6.616,0,12,5.384,12,12V297l-70.296,89.832c-1.104,1.408-1.704,3.136-1.704,4.928v72h16v-69.24l70.296-89.832 c1.104-1.408,1.704-3.136,1.704-4.928v-176C439.88,108.32,427.32,95.76,411.88,95.76z"/> </g> </g> <g> <g> <path d="M231.88,31.76c-61.76,0-112,50.24-112,112s50.24,112,112,112s112-50.24,112-112S293.64,31.76,231.88,31.76z M239.88,48.168c31.52,2.616,58.696,20.52,74.2,46.264l-42.104,24.056L239.88,99.232V48.168z M262.504,131.464l-12.656,44.296 h-35.936l-12.656-44.296l30.624-18.376L262.504,131.464z M223.88,48.168v51.064l-32.096,19.256L149.68,94.432 C165.184,68.688,192.36,50.784,223.88,48.168z M135.88,143.76c0-12.344,2.424-24.112,6.688-34.968l42.512,24.288l13.816,48.352 l-32.408,32.408C147.704,196.312,135.88,171.416,135.88,143.76z M231.88,239.76c-19.496,0-37.624-5.88-52.784-15.904 l32.096-32.096h41.376l32.096,32.096C269.504,233.88,251.376,239.76,231.88,239.76z M297.272,213.84l-32.408-32.408l13.816-48.352 l42.512-24.288c4.264,10.856,6.688,22.624,6.688,34.968C327.88,171.416,316.056,196.312,297.272,213.84z"/> </g> </g> <g> <g> <path d="M240.648,0.032L239.688,16c5.12,0.312,10.256,0.928,15.264,1.84l2.856-15.744C252.176,1.072,246.4,0.376,240.648,0.032z"/> </g> </g> <g> <g> <path d="M223.376,0c-5.744,0.336-11.512,1.016-17.16,2.032l2.832,15.752c5.016-0.896,10.152-1.512,15.264-1.808L223.376,0z"/> </g> </g> <g> <g> <path d="M306.104,20.352l-8.264,13.704c4.376,2.632,8.632,5.56,12.656,8.704l9.84-12.608 C315.816,26.616,311.016,23.32,306.104,20.352z"/> </g> </g> <g> <g> <path d="M333.296,41.584l-11.272,11.352c3.624,3.592,7.072,7.448,10.24,11.464l12.544-9.936 C341.24,49.96,337.36,45.624,333.296,41.584z"/> </g> </g> <g> <g> <path d="M274.608,6.208l-4.752,15.28c4.864,1.504,9.696,3.336,14.36,5.432l6.56-14.592C285.52,9.968,280.08,7.904,274.608,6.208z"/> </g> </g> <g> <g> <path d="M189.408,6.136c-5.512,1.704-10.96,3.76-16.192,6.096l6.544,14.6c4.632-2.072,9.472-3.896,14.368-5.408L189.408,6.136z"/> </g> </g> <g> <g> <path d="M157.896,20.216c-4.928,2.96-9.728,6.248-14.256,9.768l9.816,12.632c4.032-3.128,8.296-6.048,12.672-8.688L157.896,20.216 z"/> </g> </g> <g> <g> <path d="M130.656,41.392c-4.088,4.04-7.968,8.368-11.536,12.864l12.528,9.952c3.168-3.992,6.624-7.84,10.256-11.448 L130.656,41.392z"/> </g> </g> <g> <g> <path d="M284.304,260.528c-4.672,2.112-9.528,3.952-14.432,5.48l4.752,15.272c5.52-1.72,10.992-3.792,16.256-6.168 L284.304,260.528z"/> </g> </g> <g> <g> <path d="M254.88,269.688c-5.04,0.92-10.192,1.544-15.336,1.848l0.952,15.968c5.784-0.336,11.584-1.04,17.256-2.072L254.88,269.688 z"/> </g> </g> <g> <g> <path d="M179.328,260.472l-6.592,14.576c5.264,2.376,10.728,4.456,16.232,6.184l4.784-15.264 C188.856,264.432,184,262.584,179.328,260.472z"/> </g> </g> <g> <g> <path d="M208.744,269.672l-2.888,15.728c5.664,1.04,11.472,1.744,17.256,2.096l0.968-15.968 C218.928,271.216,213.768,270.584,208.744,269.672z"/> </g> </g> </g>
</svg>