<!DOCTYPE svg PUBLIC "-//W3C//DTD SVG 1.1//EN" "http://www.w3.org/Graphics/SVG/1.1/DTD/svg11.dtd">
<!-- Uploaded to: SVG Repo, www.svgrepo.com, Transformed by: SVG Repo Mixer Tools -->
<svg fill="#947a57" height="800px" width="800px" version="1.1" id="Capa_1" xmlns="http://www.w3.org/2000/svg" xmlns:xlink="http://www.w3.org/1999/xlink" viewBox="0 0 395 395" xml:space="preserve">
<g id="SVGRepo_bgCarrier" stroke-width="0"/>
<g id="SVGRepo_tracerCarrier" stroke-linecap="round" stroke-linejoin="round"/>
<g id="SVGRepo_iconCarrier"> <path d="M265.19,384.693c0.128,1.138,0.035,2.267-0.25,3.327c-0.243,0.908-0.625,1.772-1.121,2.543 c-1.07,1.668-2.69,3.008-4.679,3.681c-0.292,0.1-0.59,0.223-0.895,0.293c-0.673,0.154-1.346,0.307-2.009,0.307 c-0.09,0-0.18,0.155-0.27,0.155h-54.021c-4.971,0-9-4.029-9-9s4.029-9,9-9h42.847l-23.774-97.944 c-3.651-15.024-22.953-28.017-43.356-29.626c-6.952,11.05-21.072,18.35-36.69,18.35c-15.618,0-29.737-7.24-36.688-18.29 c-20.402,1.609-39.705,14.533-43.357,29.556L37.153,377H80c4.971,0,9,4.029,9,9s-4.029,9-9,9H25.979 c-0.755,0-1.521-0.208-2.289-0.385c-0.299-0.068-0.593-0.311-0.88-0.409c-1.985-0.671-3.538-1.987-4.609-3.65 c-0.002-0.004,0.06-0.009,0.06-0.012v-0.005c-1-0.78-0.953-1.65-1.196-2.57c-0.278-1.049-0.402-2.173-0.277-3.297 c0.05-0.465,0.119-0.949,0.238-1.39l26.419-108.767C49.361,250.182,77.958,231,108.558,231h1.237c3.844,0,7.264,2.531,8.512,6.168 c2.119,6.173,10.585,12.512,22.666,12.512c12.082,0,20.548-6.309,22.667-12.483c1.248-3.636,4.668-6.197,8.512-6.197h1.237 c30.604,0,59.208,19.182,65.121,43.516l26.427,108.826C265.054,383.778,265.14,384.233,265.19,384.693z M132.825,129 c0-4.971-4.029-9-9-9h-10c-4.971,0-9,4.029-9,9s4.029,9,9,9h10C128.796,138,132.825,133.971,132.825,129z M158.122,138h10.001 c4.971,0,9-4.029,9-9s-4.029-9-9-9h-10.001c-4.971,0-9,4.029-9,9S153.151,138,158.122,138z M70.137,149.596 c2.608,0.428,5.101-0.305,7.118-2.014c2.017-1.71,3.005-4.221,3.005-6.865v-17.225c0-33.132,27.147-60.086,60.278-60.086 c1.61,0,3.302,0.063,4.88,0.188c-8.341,12.948-20.417,22.306-34.067,26.124c-4.787,1.339-7.558,6.305-6.219,11.092 c1.339,4.787,6.322,7.588,11.104,6.242c19.756-5.525,36.941-19.668,47.574-39.035c21.707,9.067,37.005,30.519,37.005,55.475 c0,25.727-16.18,48.098-39.998,56.496c-2.833-2.391-6.489-3.988-10.477-3.988h-19.217c-8.971,0-16.269,7.529-16.269,16.5 s7.298,16.5,16.269,16.5h19.217c7.276,0,13.452-4.878,15.525-11.48c23.194-7.841,40.771-25.968,48.516-48.454 c10.454-2.538,16.878-9.052,16.878-17.033v-19.949c0-8.283-6.928-14.943-18.072-17.264c-11.454-28.912-39.607-49.414-72.547-49.414 c-32.984,0-61.246,20.554-72.669,49.527c-10.838,2.419-17.712,8.999-17.712,17.15v19.949 C50.261,140.702,58.084,147.596,70.137,149.596z M288.111,91c4.971,0,9-4.029,9-9s-4.029-9-9-9h-0.75c-4.971,0-9,4.029-9,9 s4.029,9,9,9H288.111z M319.39,91c4.971,0,9-4.029,9-9s-4.029-9-9-9h-0.749c-4.971,0-9,4.029-9,9s4.029,9,9,9H319.39z M340.146,0 h-104.82c-21.275,0-38.584,17.467-38.584,38.742c0,4.971,4.029,9.079,9,9.079s9-4.148,9-9.119c0-11.35,9.234-20.703,20.584-20.703 h104.82c11.35,0,20.115,9.551,20.115,20.9v86.867c0,11.351-8.766,20.232-20.115,20.232h-87.718c-2.833,0-5.501,1.51-7.201,3.778 l-29.611,39.587c-2.981,3.977-2.174,9.662,1.803,12.644c1.619,1.214,3.513,1.822,5.392,1.822c2.737,0,5.44-1.409,7.208-3.768 L256.929,164h83.217c21.275,0,38.115-16.957,38.115-38.232V38.9C378.261,17.625,361.421,0,340.146,0z M256.832,91 c4.971,0,9-4.029,9-9s-4.029-9-9-9h-0.75c-4.971,0-9,4.029-9,9s4.029,9,9,9H256.832z"/> </g>
</svg>