<?xml version="1.0" encoding="UTF-8"?>
<svg xmlns="http://www.w3.org/2000/svg" xmlns:xlink="http://www.w3.org/1999/xlink" width="500" zoomAndPan="magnify" viewBox="0 0 375 374.999991" height="500" preserveAspectRatio="xMidYMid meet" version="1.0">
  <path fill="#c89e67" d="M 30.753906 136.699219 C 58.925781 113.484375 107.507812 106.628906 136.667969 132 C 137.507812 132.734375 138.335938 133.488281 139.144531 134.273438 L 139.117188 134.296875 C 155.300781 127.359375 181.847656 134.207031 202.511719 130.386719 C 225.527344 126.128906 245.703125 115.324219 248.554688 113.664062 C 248.640625 113.613281 248.601562 113.492188 248.503906 113.488281 C 245.960938 113.421875 243.980469 112.113281 243.398438 111.449219 C 243.351562 111.394531 243.390625 111.3125 243.460938 111.296875 C 255.050781 108.9375 261.015625 103.792969 261.851562 102.691406 C 261.894531 102.632812 261.859375 102.554688 261.785156 102.542969 C 259.859375 102.25 258.75 100.722656 258.648438 100.066406 C 258.640625 100.011719 258.683594 99.96875 258.738281 99.960938 C 263.75 99.28125 267.378906 97.910156 273.015625 92.53125 C 278.183594 87.597656 285.25 86.90625 286.460938 86.820312 C 286.539062 86.816406 286.578125 86.726562 286.527344 86.664062 C 285.566406 85.523438 282.433594 83.9375 280.621094 83.546875 C 280.527344 83.527344 280.507812 83.398438 280.597656 83.359375 C 284.429688 81.746094 289.269531 81.394531 290.925781 81.386719 C 291 81.386719 291.050781 81.300781 291.003906 81.238281 C 290.515625 80.535156 289.347656 79.679688 288.183594 79.390625 C 288.09375 79.371094 288.078125 79.253906 288.15625 79.210938 C 291.488281 77.363281 295.1875 76.757812 297.824219 76.902344 C 297.878906 76.90625 297.925781 76.867188 297.929688 76.8125 C 298 75.492188 297.089844 74.144531 296.15625 73.578125 C 296.089844 73.535156 296.089844 73.445312 296.160156 73.40625 C 302.820312 69.886719 315.40625 71 317.257812 71.1875 C 317.347656 71.199219 317.398438 71.097656 317.34375 71.03125 C 316.851562 70.429688 315.160156 68.519531 313.046875 67.804688 C 312.945312 67.769531 312.972656 67.617188 313.078125 67.613281 C 342.597656 66.089844 354.523438 84.4375 355.257812 85.617188 C 355.285156 85.652344 355.324219 85.664062 355.367188 85.652344 C 355.644531 85.550781 356.605469 85.125 356.472656 84.105469 C 356.460938 84.019531 356.546875 83.953125 356.621094 83.996094 C 360.191406 86.160156 360.34375 91.847656 360.347656 92.742188 C 360.347656 92.804688 360.402344 92.847656 360.464844 92.832031 C 360.859375 92.738281 362.15625 92.40625 362.890625 92.046875 C 362.964844 92.011719 363.042969 92.078125 363.03125 92.15625 C 361.714844 100.601562 355.800781 97.753906 355.542969 97.628906 C 355.535156 97.625 355.535156 97.625 355.523438 97.621094 C 355.523438 97.621094 354.199219 104.285156 357.863281 109.84375 C 361.527344 115.402344 367.058594 122.363281 369.027344 124.246094 C 371.140625 126.265625 372.574219 128.703125 371.003906 130.464844 C 370.886719 130.597656 370.757812 130.726562 370.605469 130.847656 C 370.132812 131.234375 369.699219 131.636719 369.300781 132.046875 C 368.851562 132.5 368.445312 132.964844 368.070312 133.425781 C 367.230469 134.457031 366.546875 135.480469 365.929688 136.378906 C 364.78125 138.039062 363.617188 139.015625 360.734375 138.480469 C 361.058594 139.804688 360.597656 142.925781 357.480469 144.246094 C 354.359375 145.566406 351.753906 142.910156 347.574219 142.542969 C 343.398438 142.171875 335.804688 141.449219 333.503906 138.046875 L 333.503906 138.042969 C 331.632812 138.722656 329.710938 137.988281 327.417969 139.070312 C 326.886719 139.320312 326.429688 139.589844 326.023438 139.867188 C 324.125 141.183594 323.542969 142.6875 323.402344 143.15625 C 323.382812 143.226562 323.300781 143.25 323.25 143.199219 C 322.582031 142.597656 319.167969 139.542969 317.40625 138.878906 C 317.355469 138.859375 317.300781 138.835938 317.253906 138.820312 C 317.179688 138.796875 317.113281 138.875 317.144531 138.949219 C 319.671875 144.957031 320.386719 154.660156 320.0625 157.628906 C 320.054688 157.722656 319.929688 157.742188 319.882812 157.664062 C 319.246094 156.570312 317.929688 155.082031 316.570312 154.027344 C 316.488281 153.964844 316.382812 154.054688 316.425781 154.148438 C 320.476562 163.125 319.253906 171.644531 318.914062 174.019531 C 318.898438 174.109375 318.777344 174.128906 318.734375 174.046875 C 318.136719 172.980469 317.460938 172.089844 316.546875 170.800781 C 316.488281 170.71875 316.355469 170.769531 316.375 170.871094 C 318.097656 181.050781 315.167969 188.222656 314.375 189.925781 C 314.328125 190.019531 314.191406 189.992188 314.1875 189.886719 C 314.171875 189.136719 314.007812 187.371094 313.070312 184.484375 C 312.148438 196.832031 311.277344 197.667969 310.359375 200.605469 C 310.355469 200.628906 310.355469 200.652344 310.363281 200.675781 C 311.488281 203.429688 314.984375 207.851562 315.601562 208.621094 C 315.644531 208.675781 315.617188 208.757812 315.546875 208.773438 C 315.113281 208.867188 313.753906 209.085938 312.085938 208.597656 C 312.003906 208.574219 311.925781 208.652344 311.964844 208.730469 C 316.957031 218.566406 348.90625 241.273438 352.03125 243.96875 C 355.175781 246.683594 357.507812 250.265625 363.90625 253.765625 C 370.308594 257.269531 371.34375 271.035156 373.144531 276.609375 C 374.933594 282.140625 371.738281 283.511719 370.847656 284.261719 C 370.832031 284.273438 370.824219 284.289062 370.820312 284.308594 C 369.554688 288.890625 366.476562 289.652344 365.414062 289.722656 C 365.378906 289.722656 365.351562 289.746094 365.339844 289.777344 C 363.949219 292.976562 361.660156 292.746094 361.238281 292.671875 C 361.195312 292.664062 361.15625 292.691406 361.140625 292.730469 C 358.273438 298.789062 354.898438 298.503906 354.253906 297.789062 C 353.425781 296.871094 355.855469 292.074219 355.683594 288.941406 C 355.515625 285.804688 352.542969 285.199219 352.875 278.996094 C 353.207031 272.792969 350.28125 267.683594 340.152344 260.097656 C 330.023438 252.515625 293.054688 239.613281 287.820312 235.898438 C 282.699219 232.261719 278.121094 231.480469 275.683594 231.746094 C 275.609375 231.753906 275.5625 231.679688 275.59375 231.613281 C 276.75 229.191406 276.371094 226.496094 275.726562 223.792969 C 275.089844 221.136719 275.488281 216.949219 276.054688 214.890625 C 276.078125 214.804688 275.988281 214.742188 275.910156 214.785156 C 275.0625 215.28125 273.539062 215.761719 272.710938 215.234375 C 272.65625 215.199219 272.65625 215.125 272.699219 215.082031 C 275.121094 212.746094 275.90625 209.441406 276.082031 208.089844 C 276.09375 207.988281 275.957031 207.941406 275.90625 208.03125 C 275.1875 209.253906 273.554688 210.402344 272.449219 210.800781 C 272.375 210.832031 272.304688 210.746094 272.335938 210.667969 C 274.625 204.578125 274.855469 201.871094 274.4375 200.09375 C 274.417969 200.011719 274.308594 200 274.265625 200.070312 C 273.765625 200.839844 273.097656 201.535156 272.363281 202.003906 L 272.363281 202.007812 C 272.363281 202.007812 271.378906 203.796875 269.675781 206.585938 C 268.441406 208.601562 266.832031 211.132812 264.933594 213.902344 C 260.449219 220.441406 257.773438 226.199219 256.878906 231.621094 C 256.867188 231.691406 256.789062 231.722656 256.730469 231.6875 C 255.167969 230.625 254.675781 228.242188 254.578125 226.765625 C 254.574219 226.660156 254.425781 226.644531 254.398438 226.746094 C 253.425781 230.101562 251.078125 240.746094 251.542969 257.066406 C 251.546875 257.132812 251.480469 257.1875 251.417969 257.164062 C 250.261719 256.792969 249.394531 255.679688 248.917969 254.304688 C 248.886719 254.214844 248.761719 254.210938 248.742188 254.304688 C 248.386719 255.84375 247.417969 259.917969 246.773438 263.992188 C 247.824219 264.964844 248.996094 265.960938 250.285156 266.9375 C 250.414062 267.035156 250.378906 267.246094 250.21875 267.285156 C 248.703125 267.625 246.492188 267.667969 244.894531 266.9375 C 244.71875 266.859375 244.546875 267.046875 244.644531 267.210938 C 246.03125 269.582031 248.546875 272.011719 255 276.152344 C 255.140625 276.246094 255.117188 276.457031 254.960938 276.511719 C 253.570312 276.96875 251.140625 277.164062 249.5 276.546875 C 249.316406 276.476562 249.152344 276.679688 249.265625 276.839844 C 250.777344 278.996094 251.839844 280.675781 257.289062 281.445312 C 263.246094 282.285156 268.644531 282.726562 273.453125 283.933594 C 273.476562 283.9375 273.5 283.9375 273.523438 283.9375 C 278.140625 283.441406 284.339844 280.792969 286.371094 280.648438 C 288.410156 280.5 298.480469 283.6875 298.339844 286.078125 C 298.253906 287.53125 296.125 288.792969 293.582031 288.9375 C 293.527344 288.941406 293.476562 288.960938 293.441406 289.003906 C 292.359375 290.289062 292.011719 292.964844 287.425781 292.210938 C 282.921875 291.46875 280.222656 292.097656 278.132812 293.480469 C 278.027344 293.550781 278.015625 293.703125 278.109375 293.789062 C 279.109375 294.691406 281.636719 297.960938 274.660156 298.414062 C 270.488281 298.6875 265.976562 297.515625 262.230469 296.992188 C 254.691406 295.933594 226.511719 298.117188 228.269531 288.941406 C 228.738281 282.789062 225.0625 277.242188 221.175781 272.589844 C 217.425781 268.09375 208.675781 258.335938 205.3125 252.445312 C 205.21875 252.277344 204.964844 252.328125 204.949219 252.523438 C 204.847656 253.867188 204.527344 255.488281 204.941406 257.324219 C 204.984375 257.527344 204.730469 257.648438 204.601562 257.488281 C 202.363281 254.71875 196.3125 243.234375 194.621094 234.105469 C 192.800781 224.296875 180.671875 227.011719 173.140625 223.988281 C 172.976562 223.921875 172.976562 223.683594 173.144531 223.621094 C 174.277344 223.191406 176.027344 222.480469 177.046875 222.058594 C 177.242188 221.980469 177.199219 221.695312 176.988281 221.683594 C 174.457031 221.558594 167.042969 221.078125 162.5625 219.601562 C 162.363281 219.535156 162.394531 219.25 162.601562 219.222656 C 164.875 218.925781 167.550781 217.652344 168.789062 217.011719 C 168.972656 216.914062 168.90625 216.640625 168.699219 216.640625 C 165.832031 216.660156 155.90625 216.613281 151.4375 215.132812 C 151.273438 215.078125 151.269531 214.847656 151.421875 214.769531 C 153.46875 213.738281 154.480469 213.054688 154.957031 212.671875 C 155.105469 212.554688 155.019531 212.320312 154.832031 212.324219 C 153.125 212.363281 147.628906 212.402344 144.941406 211.453125 L 144.941406 211.445312 C 140.691406 220.027344 136.191406 228.554688 133.296875 233.628906 C 127.664062 243.503906 123.886719 249.433594 104.207031 260.679688 C 84.902344 271.714844 75.957031 276.835938 68.570312 278.226562 C 68.46875 278.246094 68.417969 278.109375 68.503906 278.050781 C 70.179688 276.84375 71.417969 275.359375 72.1875 273.929688 C 72.234375 273.839844 72.125 273.75 72.042969 273.808594 C 67.144531 277.332031 58.796875 278.929688 56.347656 279.101562 C 56.246094 279.105469 56.214844 278.972656 56.304688 278.921875 C 58.367188 277.683594 59.765625 275.980469 60.441406 274.421875 C 60.476562 274.339844 60.386719 274.261719 60.308594 274.300781 C 55.910156 276.550781 49.359375 276.636719 47.75 276.308594 C 47.675781 276.292969 47.617188 276.367188 47.644531 276.4375 C 49.796875 282.371094 45.089844 286.476562 42.398438 290.660156 C 39.980469 294.421875 40.484375 297.453125 40.621094 298.070312 C 40.632812 298.132812 40.703125 298.15625 40.757812 298.128906 C 42.707031 297.171875 44.363281 298.183594 44.601562 298.339844 C 44.625 298.355469 44.644531 298.359375 44.667969 298.355469 C 44.960938 298.292969 46.992188 297.878906 48.847656 297.953125 C 50.65625 298.027344 52.019531 300.695312 52.765625 302.597656 C 52.949219 303.070312 52.945312 303.617188 52.683594 304.050781 C 51.972656 305.238281 50.371094 305.179688 49.738281 304.675781 C 49.6875 304.636719 49.621094 304.652344 49.59375 304.710938 C 48.421875 307.222656 46.273438 306.785156 45.628906 305.992188 C 45.578125 305.933594 45.488281 305.941406 45.460938 306.019531 C 44.699219 308.171875 42.332031 309.089844 40.800781 306.503906 C 39.222656 303.84375 32.199219 306.15625 30.527344 305.28125 C 19.515625 299.578125 34.460938 268.464844 38.480469 259.320312 C 42.496094 250.179688 55.699219 255.777344 61.695312 250.5625 C 67.425781 245.582031 71.144531 242.011719 74.648438 240.019531 C 74.746094 239.964844 74.6875 239.832031 74.582031 239.847656 C 71.441406 240.351562 69.503906 239.726562 68.707031 238.058594 C 68.683594 238.003906 68.710938 237.933594 68.769531 237.917969 C 79.019531 234.839844 89.207031 228.613281 90.941406 227.527344 C 91.019531 227.480469 90.992188 227.359375 90.898438 227.351562 C 90.003906 227.292969 87.367188 226.976562 86.292969 225.324219 C 86.253906 225.261719 86.296875 225.179688 86.363281 225.167969 C 92.902344 224.066406 94.996094 220.992188 95.375 220.339844 C 95.410156 220.277344 95.371094 220.207031 95.304688 220.199219 C 94.605469 220.105469 91.441406 219.660156 90.597656 218.917969 C 90.542969 218.871094 90.574219 218.78125 90.644531 218.757812 C 98.667969 216.277344 101.777344 210.84375 102.316406 209.789062 C 102.351562 209.714844 102.289062 209.636719 102.210938 209.652344 C 101.453125 209.820312 98.648438 210.386719 97.417969 210.003906 C 97.34375 209.980469 97.335938 209.882812 97.390625 209.835938 C 107.472656 201.292969 108.972656 189.535156 109.125 188.074219 C 109.132812 188.003906 109.066406 187.953125 109 187.976562 C 108.363281 188.207031 105.71875 189.074219 104.269531 188.007812 C 104.214844 187.96875 104.222656 187.882812 104.277344 187.84375 C 109.949219 183.929688 110.628906 180.675781 110.710938 179.976562 C 110.71875 179.90625 110.65625 179.855469 110.589844 179.875 C 109.960938 180.046875 107.207031 180.753906 105.84375 180.269531 C 105.773438 180.246094 105.765625 180.148438 105.824219 180.097656 C 119.726562 168.664062 119.851562 159.890625 123.90625 150.667969 L 123.902344 150.671875 C 122.035156 149.214844 120.175781 147.976562 118.359375 146.914062 C 109.441406 141.6875 101.695312 140.859375 100.417969 140.753906 C 100.332031 140.746094 100.296875 140.652344 100.351562 140.589844 C 100.71875 140.175781 102.023438 138.953125 105.703125 137.449219 C 105.796875 137.410156 105.796875 137.277344 105.703125 137.253906 C 98.914062 135.628906 88.835938 135.839844 85.480469 136.316406 C 85.390625 136.332031 85.335938 136.21875 85.390625 136.148438 C 87.300781 133.792969 89.601562 132.773438 90.542969 132.433594 C 90.644531 132.394531 90.621094 132.246094 90.515625 132.234375 C 50.40625 127.464844 17.710938 157.804688 10.761719 196.03125 C 10.234375 198.929688 9.585938 201.847656 8.964844 204.777344 C 8.546875 206.757812 6.945312 208.894531 4.703125 208.953125 C 0.046875 209.074219 0.425781 202.671875 0.453125 199.59375 C 0.675781 175.761719 12.441406 151.789062 30.753906 136.699219 Z M 227.261719 223.070312 C 226.40625 223.804688 225.136719 223.886719 224.515625 223.878906 C 224.359375 223.875 224.261719 224.046875 224.347656 224.175781 C 224.976562 225.132812 227.003906 228.132812 230.019531 231.742188 C 229.535156 225.132812 229.277344 219.101562 229.144531 215.027344 C 229.035156 211.746094 229.007812 209.738281 229.007812 209.738281 L 229.011719 209.738281 C 225.566406 210.542969 223.058594 210.742188 221.71875 210.609375 C 221.625 210.601562 221.605469 210.476562 221.6875 210.429688 C 223.03125 209.675781 224.101562 208.804688 225 207.472656 C 225.050781 207.394531 224.96875 207.292969 224.878906 207.328125 C 222.136719 208.339844 219.667969 209.03125 217.453125 209.5 C 217.449219 209.503906 217.453125 209.503906 217.453125 209.507812 C 217.453125 209.507812 219.429688 213.769531 222.769531 218.035156 C 224.070312 219.699219 225.574219 221.363281 227.253906 222.777344 C 227.34375 222.851562 227.351562 222.992188 227.261719 223.070312 Z M 227.261719 223.070312 " fill-opacity="1" fill-rule="nonzero"></path>
</svg>
