<?xml version="1.0" encoding="UTF-8"?>
<svg xmlns="http://www.w3.org/2000/svg" xmlns:xlink="http://www.w3.org/1999/xlink" width="500" zoomAndPan="magnify" viewBox="0 0 375 374.999991" height="500" preserveAspectRatio="xMidYMid meet" version="1.0">
  <defs>
    <clipPath id="e81c61473f">
      <path d="M 0 47.109375 L 374 47.109375 L 374 327.609375 L 0 327.609375 Z M 0 47.109375 " clip-rule="nonzero"></path>
    </clipPath>
  </defs>
  <path fill="#c89e67" d="M 270.15625 68.449219 C 259.941406 67.46875 249.925781 65.476562 240.113281 62.46875 C 239.648438 64.4375 239.476562 66.429688 239.59375 68.449219 C 239.628906 70.84375 240.269531 73.058594 241.519531 75.101562 C 243.328125 77.679688 246.484375 77.929688 249.390625 78.042969 C 252.105469 78.195312 254.777344 77.925781 257.40625 77.234375 C 260.035156 76.546875 262.496094 75.46875 264.785156 74.003906 C 266.96875 72.53125 268.757812 70.679688 270.15625 68.449219 Z M 270.15625 68.449219 " fill-opacity="1" fill-rule="nonzero"></path>
  <g clip-path="url(#e81c61473f)">
    <path fill="#c89e67" d="M 7.273438 307.25 C 7.386719 308.265625 7.296875 309.265625 7.003906 310.25 C 6.734375 311.25 6.734375 312.25 7.003906 313.246094 C 7.078125 313.492188 7.191406 313.714844 7.347656 313.917969 C 7.503906 314.121094 7.6875 314.289062 7.902344 314.425781 C 8.117188 314.566406 8.347656 314.660156 8.597656 314.714844 C 8.847656 314.769531 9.097656 314.78125 9.351562 314.746094 C 10.140625 314.535156 10.621094 313.765625 11.121094 313.132812 C 11.621094 312.5 12.390625 311.863281 13.179688 312.09375 C 13.96875 312.324219 14.238281 313.191406 14.375 314.015625 C 14.644531 315.542969 14.609375 317.0625 14.257812 318.574219 C 13.769531 319.753906 13.648438 320.972656 13.894531 322.226562 C 14.234375 322.835938 14.691406 323.347656 15.261719 323.757812 C 15.828125 324.167969 16.457031 324.4375 17.144531 324.570312 C 24.015625 326.566406 31.027344 327.578125 38.179688 327.609375 C 38.71875 327.609375 39.390625 327.609375 39.640625 327.109375 C 39.890625 326.609375 39.640625 326.148438 39.355469 325.726562 C 37.25 322.351562 34.785156 319.261719 31.964844 316.457031 C 31.714844 312.804688 29.132812 309.902344 27.460938 306.632812 C 25.742188 302.773438 24.847656 298.730469 24.785156 294.503906 C 24.148438 284.640625 20.9375 273.875 25.132812 264.894531 C 28.75 257.050781 31.847656 248.898438 36.582031 241.691406 C 40.046875 236.402344 41.855469 230.269531 43.835938 224.273438 C 45.820312 218.273438 48.109375 212.238281 52.285156 207.507812 C 53.679688 205.9375 55.367188 204.796875 57.347656 204.085938 C 58.269531 211.621094 56.925781 220.445312 51.765625 226.023438 C 50.542969 227.378906 49.640625 228.921875 49.058594 230.65625 C 48.476562 232.386719 48.261719 234.160156 48.417969 235.980469 C 49.054688 242.5 53.035156 248.015625 55.289062 254.167969 C 60.65625 268.722656 67.296875 283.007812 69.125 298.386719 C 69.394531 300.730469 69.644531 303.078125 69.953125 305.402344 C 69.988281 305.992188 70.148438 306.542969 70.433594 307.058594 C 70.597656 307.308594 70.824219 307.476562 71.113281 307.5625 C 71.398438 307.644531 71.679688 307.625 71.953125 307.5 C 72.453125 307.191406 72.703125 306.382812 73.300781 306.460938 C 73.464844 306.503906 73.601562 306.59375 73.710938 306.722656 C 73.820312 306.851562 73.882812 307.003906 73.898438 307.171875 C 73.898438 307.5 73.898438 307.84375 74.011719 308.171875 C 74.085938 308.390625 74.199219 308.582031 74.359375 308.746094 C 74.519531 308.914062 74.710938 309.035156 74.925781 309.109375 C 75.140625 309.1875 75.363281 309.214844 75.59375 309.1875 C 75.824219 309.160156 76.035156 309.085938 76.226562 308.960938 C 76.417969 308.824219 76.613281 308.632812 76.84375 308.652344 C 77.074219 308.671875 77.324219 309.113281 77.402344 309.460938 C 77.570312 310.003906 77.804688 310.519531 78.105469 311.003906 C 78.402344 311.488281 78.761719 311.929688 79.171875 312.320312 C 79.585938 312.714844 80.042969 313.050781 80.539062 313.328125 C 81.039062 313.605469 81.5625 313.816406 82.117188 313.960938 C 84.320312 314.507812 86.550781 314.894531 88.8125 315.113281 C 91.257812 315.554688 93.605469 316.402344 96.03125 316.84375 C 97.238281 317.109375 98.453125 317.179688 99.683594 317.042969 C 100.914062 316.90625 102.085938 316.578125 103.207031 316.054688 C 102.578125 313.976562 101.617188 312.058594 100.332031 310.308594 C 99.042969 308.554688 97.5 307.070312 95.703125 305.847656 C 95.84375 305.179688 95.816406 304.523438 95.621094 303.871094 C 95.429688 303.21875 95.089844 302.652344 94.605469 302.175781 C 90.574219 298.96875 87.539062 295 85.503906 290.273438 C 83.507812 285.625 81.910156 280.84375 80.710938 275.929688 C 78.632812 269.652344 77.539062 263.203125 77.417969 256.589844 C 77.941406 240.382812 90.777344 226.484375 93.144531 210.757812 C 93.253906 210.054688 93.183594 209.371094 92.933594 208.707031 C 92.683594 208.042969 92.285156 207.480469 91.738281 207.027344 C 87.351562 203.375 82.925781 199.742188 78.554688 196.050781 C 74.1875 192.359375 70.261719 188.707031 66.199219 184.917969 C 62.140625 181.128906 57.347656 177.226562 53.269531 172.996094 C 53 172.730469 53.269531 172.230469 53.691406 172.460938 C 58.347656 175.671875 62.679688 179.417969 67.164062 182.839844 C 71.644531 186.261719 75.9375 189.511719 80.191406 193.03125 C 84.445312 196.550781 88.660156 200.222656 92.894531 203.816406 C 93.777344 204.585938 94.664062 205.335938 95.527344 206.144531 C 105.882812 212.0625 116.523438 217.679688 128.246094 220.195312 C 146.125 224.042969 165.792969 222.925781 182.59375 215.71875 C 185.535156 214.277344 188.613281 213.253906 191.828125 212.640625 C 193.539062 212.390625 195.238281 212.441406 196.929688 212.792969 C 196.738281 212.410156 196.546875 212.027344 196.371094 211.640625 C 194.179688 206.875 194.449219 200.816406 190.925781 196.703125 C 190.695312 196.433594 190.925781 195.914062 191.347656 196.164062 C 196.507812 199.777344 196.449219 206.507812 199.046875 211.699219 C 199.449219 212.527344 199.894531 213.332031 200.355469 214.140625 C 200.625 214.3125 200.875 214.503906 201.125 214.699219 C 204.164062 217.121094 205.339844 221.136719 206.339844 224.886719 C 209.457031 236.652344 210.363281 249.148438 214.980469 260.417969 C 217.289062 266.03125 216.65625 272.375 216 278.410156 C 215.421875 286.121094 214.035156 293.683594 211.84375 301.097656 C 211.558594 301.714844 211.488281 302.355469 211.632812 303.019531 C 211.824219 303.617188 212.035156 304.019531 212.5 303.578125 C 213.589844 302.394531 214.921875 301.652344 216.5 301.347656 C 216.882812 301.28125 217.261719 301.289062 217.636719 301.363281 C 218.015625 301.441406 218.367188 301.582031 218.691406 301.789062 C 219.015625 301.992188 219.292969 302.25 219.523438 302.558594 C 219.753906 302.867188 219.917969 303.207031 220.023438 303.578125 C 220.234375 305.191406 218.8125 306.480469 217.984375 307.882812 C 217.667969 308.445312 217.4375 309.039062 217.296875 309.664062 C 217.15625 310.292969 217.109375 310.925781 217.15625 311.566406 C 217.203125 312.207031 217.339844 312.828125 217.570312 313.429688 C 217.796875 314.03125 218.109375 314.585938 218.503906 315.09375 C 218.898438 315.613281 219.359375 316.0625 219.886719 316.449219 C 220.414062 316.832031 220.988281 317.132812 221.601562 317.351562 C 222.214844 317.570312 222.851562 317.695312 223.5 317.730469 C 224.152344 317.765625 224.796875 317.707031 225.429688 317.554688 C 226.972656 319.265625 228.773438 320.628906 230.839844 321.644531 C 232.90625 322.660156 235.085938 323.257812 237.382812 323.4375 C 241.90625 323.976562 246.601562 320.59375 250.855469 321.9375 C 251.722656 322.136719 252.59375 322.136719 253.460938 321.933594 C 254.328125 321.730469 255.109375 321.347656 255.800781 320.785156 C 254.933594 317.265625 251.71875 315.015625 251.066406 311.382812 C 250.335938 307.269531 247.214844 304.097656 244.578125 300.808594 C 241.335938 296.847656 239.199219 292.363281 238.171875 287.351562 C 236.691406 278.988281 239.902344 269.816406 239.363281 261.378906 C 238.554688 258.761719 237.804688 256.128906 237.226562 253.457031 C 235.890625 246.695312 235.308594 239.871094 235.476562 232.980469 C 235.476562 229.519531 235.746094 226.042969 235.882812 222.582031 C 235.746094 219.945312 236.335938 217.484375 237.652344 215.199219 C 240.980469 210.46875 248.46875 211.621094 251.296875 206.335938 C 251.335938 206.25 251.394531 206.230469 251.480469 206.269531 C 251.5625 206.304688 251.585938 206.367188 251.546875 206.449219 C 250.238281 211.488281 244.445312 211.890625 240.808594 214.5625 C 237.902344 216.699219 237.921875 220.214844 237.84375 223.484375 C 237.765625 226.753906 237.84375 230.425781 237.84375 233.886719 C 237.800781 239.558594 238.210938 245.195312 239.074219 250.804688 C 241.433594 242.449219 244.492188 234.363281 248.253906 226.539062 C 251.027344 220.351562 251.085938 211.96875 256.511719 207.929688 C 263.785156 202.507812 268.539062 194.472656 273.445312 186.78125 C 278.5625 179.332031 284.59375 172.710938 291.539062 166.921875 C 296.921875 162.109375 301.328125 156.527344 304.757812 150.175781 C 307.011719 146.003906 308.800781 141.546875 311.820312 137.910156 C 313.746094 135.605469 316.09375 133.71875 318.054688 131.453125 C 319.046875 130.296875 319.835938 129.019531 320.417969 127.617188 C 321.003906 126.214844 321.359375 124.757812 321.480469 123.242188 C 321.730469 120.070312 321.980469 116.898438 322.25 113.746094 C 322.222656 112.582031 322.53125 111.519531 323.175781 110.554688 C 323.453125 110.269531 323.769531 110.03125 324.121094 109.847656 C 324.472656 109.664062 324.847656 109.535156 325.238281 109.472656 C 325.632812 109.40625 326.027344 109.402344 326.421875 109.460938 C 326.8125 109.523438 327.1875 109.644531 327.542969 109.824219 C 328.972656 110.589844 330.113281 111.660156 330.96875 113.035156 C 331.804688 114.394531 332.792969 115.628906 333.933594 116.742188 C 335.050781 117.558594 336.265625 118.175781 337.582031 118.59375 C 338.898438 119.011719 340.25 119.207031 341.632812 119.1875 C 346.457031 119.453125 351.1875 118.890625 355.816406 117.492188 C 355.199219 115.878906 354.46875 114.300781 353.71875 112.746094 C 353.660156 112.621094 353.675781 112.511719 353.773438 112.417969 C 353.871094 112.320312 353.980469 112.300781 354.101562 112.359375 C 355.859375 113.324219 357.140625 114.71875 357.949219 116.550781 L 358.066406 116.820312 C 360.300781 116.035156 362.597656 115.535156 364.957031 115.320312 L 363.628906 113.167969 C 363.011719 112.203125 362.292969 111.316406 361.472656 110.515625 C 361.050781 110.09375 360.585938 109.6875 360.144531 109.285156 C 359.710938 108.96875 359.371094 108.570312 359.125 108.09375 C 359.09375 107.96875 359.140625 107.886719 359.257812 107.84375 C 359.835938 107.800781 360.359375 107.941406 360.835938 108.265625 C 361.398438 108.558594 361.933594 108.898438 362.433594 109.285156 C 363.457031 110.070312 364.382812 110.964844 365.207031 111.957031 C 366.09375 112.964844 366.734375 114.113281 367.128906 115.398438 C 367.664062 115.453125 368.191406 115.558594 368.707031 115.707031 C 369.429688 115.960938 370.167969 116.144531 370.921875 116.261719 C 371.308594 116.320312 371.683594 116.277344 372.046875 116.140625 C 372.410156 116 372.714844 115.777344 372.960938 115.476562 C 373.617188 114.515625 372.960938 113.246094 372.441406 112.246094 C 369.773438 107.605469 366.800781 103.164062 363.53125 98.921875 C 362.464844 98.308594 361.34375 97.820312 360.164062 97.460938 C 356.304688 96.308594 352.367188 95.609375 348.347656 95.367188 C 346.421875 95.191406 344.5 95.191406 342.574219 95.367188 C 340.648438 95.578125 338.9375 96.132812 337.089844 96.402344 C 336.515625 96.566406 335.933594 96.636719 335.335938 96.617188 C 334.742188 96.597656 334.164062 96.488281 333.601562 96.292969 C 333.039062 96.09375 332.523438 95.816406 332.046875 95.457031 C 331.570312 95.097656 331.160156 94.675781 330.816406 94.191406 C 330.605469 93.867188 331.046875 93.578125 331.296875 93.808594 C 334.433594 96.539062 338.839844 94.308594 342.363281 93.808594 C 346.152344 93.34375 349.917969 93.496094 353.660156 94.269531 C 356.996094 94.664062 360.203125 95.527344 363.28125 96.863281 C 367.128906 94.136719 370.652344 90.828125 371.578125 86.234375 C 371.761719 85.34375 371.902344 84.449219 372.003906 83.546875 C 372.105469 82.644531 372.167969 81.742188 372.1875 80.835938 C 372.203125 79.925781 372.183594 79.019531 372.117188 78.117188 C 372.050781 77.210938 371.945312 76.308594 371.800781 75.414062 C 371.652344 74.519531 371.464844 73.632812 371.234375 72.753906 C 371.003906 71.875 370.734375 71.011719 370.425781 70.15625 C 370.117188 69.304688 369.773438 68.464844 369.386719 67.644531 C 369 66.824219 368.578125 66.019531 368.117188 65.238281 C 367.660156 64.457031 367.164062 63.695312 366.636719 62.957031 C 366.105469 62.222656 365.542969 61.507812 364.949219 60.824219 C 364.355469 60.136719 363.730469 59.480469 363.074219 58.851562 C 362.417969 58.222656 361.734375 57.625 361.023438 57.0625 C 360.316406 56.496094 359.578125 55.964844 358.820312 55.464844 C 358.0625 54.964844 357.28125 54.503906 356.480469 54.078125 C 355.679688 53.652344 354.859375 53.261719 354.019531 52.910156 C 353.183594 52.558594 352.332031 52.246094 351.464844 51.972656 C 351.886719 53.925781 352.835938 55.570312 354.3125 56.914062 C 357.933594 60.757812 361.355469 65.21875 362.550781 70.371094 C 363.742188 75.523438 362.183594 81.734375 357.644531 84.503906 C 355.246094 85.847656 352.683594 86.398438 349.945312 86.15625 C 342.246094 85.65625 335.644531 80.753906 330.160156 75.410156 C 325.792969 71.140625 322.214844 66.335938 317 63.183594 C 311.78125 60.027344 305.257812 58.453125 299.484375 60.453125 C 297.054688 59.457031 294.53125 58.886719 291.90625 58.738281 C 289.285156 58.589844 286.710938 58.871094 284.1875 59.585938 C 281.808594 60.335938 279.613281 61.441406 277.597656 62.902344 C 275.578125 64.359375 273.84375 66.101562 272.386719 68.121094 C 271.578125 69.902344 270.472656 71.480469 269.078125 72.851562 C 266.6875 75.257812 263.894531 77.039062 260.707031 78.195312 C 258.121094 79.222656 255.453125 79.941406 252.703125 80.351562 C 250.925781 80.652344 249.148438 80.683594 247.363281 80.449219 C 245.578125 80.210938 243.867188 79.71875 242.230469 78.964844 C 241.113281 78.242188 240.179688 77.332031 239.421875 76.234375 C 238.664062 75.140625 238.144531 73.941406 237.863281 72.640625 C 237.144531 69.910156 236.949219 67.140625 237.28125 64.335938 C 237.613281 61.53125 238.449219 58.882812 239.789062 56.394531 C 240.890625 54.414062 242.292969 52.675781 243.992188 51.179688 C 245.691406 49.679688 247.59375 48.511719 249.699219 47.667969 C 249.019531 47.402344 248.316406 47.285156 247.589844 47.316406 C 246.863281 47.351562 246.171875 47.53125 245.523438 47.859375 C 242.632812 49.035156 239.90625 50.507812 237.34375 52.28125 C 231.878906 56.453125 227.203125 62.085938 226.085938 68.96875 C 225.816406 70.378906 225.710938 71.804688 225.769531 73.242188 C 225.824219 74.675781 226.039062 76.089844 226.417969 77.476562 C 226.792969 78.863281 227.320312 80.191406 228 81.457031 C 228.679688 82.726562 229.488281 83.898438 230.433594 84.984375 C 232.445312 87.152344 234.84375 88.738281 237.632812 89.730469 C 238.195312 89.921875 238.765625 90.082031 239.34375 90.214844 C 240.75 90.085938 242.15625 90.085938 243.558594 90.214844 C 250.640625 90.769531 258.148438 94.230469 264.210938 88.789062 C 264.402344 88.617188 264.710938 88.789062 264.574219 89.058594 C 261.417969 94.617188 253.875 93.730469 248.621094 92.789062 C 246.226562 92.285156 243.808594 91.945312 241.367188 91.769531 C 240.992188 91.800781 240.621094 91.800781 240.25 91.769531 C 239.03125 91.753906 237.828125 91.863281 236.632812 92.097656 C 234.835938 92.460938 233.152344 93.117188 231.585938 94.070312 C 230.019531 95.019531 228.660156 96.207031 227.511719 97.632812 C 227.511719 97.75 227.296875 97.632812 227.335938 97.519531 C 227.761719 96.644531 228.28125 95.832031 228.894531 95.078125 C 229.511719 94.328125 230.207031 93.65625 230.980469 93.070312 C 231.753906 92.480469 232.585938 91.992188 233.476562 91.597656 C 234.367188 91.207031 235.289062 90.925781 236.246094 90.75 C 234.976562 90.238281 233.753906 89.632812 232.570312 88.945312 C 231.402344 88.242188 230.324219 87.421875 229.339844 86.480469 C 228.351562 85.539062 227.484375 84.5 226.730469 83.363281 C 225.976562 82.226562 225.359375 81.023438 224.878906 79.75 C 224.394531 78.472656 224.0625 77.164062 223.871094 75.8125 C 223.539062 73.460938 223.5625 71.113281 223.941406 68.769531 C 224.324219 66.425781 225.042969 64.191406 226.105469 62.066406 C 220.464844 61.535156 214.839844 61.652344 209.230469 62.425781 C 203.621094 63.199219 198.171875 64.605469 192.886719 66.640625 C 185.980469 69.371094 179.417969 73.3125 172.277344 74.96875 C 152.667969 79.425781 131.746094 74.21875 111.867188 71.679688 C 105.941406 70.929688 99.800781 73.257812 93.96875 71.988281 C 88.753906 70.871094 83.90625 68.046875 78.574219 67.621094 C 74.726562 67.421875 71.058594 68.132812 67.566406 69.757812 C 64.136719 71.355469 60.859375 73.222656 57.734375 75.351562 L 40.066406 86.714844 C 32.808594 91.386719 27.363281 98.363281 22.878906 105.726562 C 16.144531 116.800781 14.914062 130.394531 15.855469 143.3125 C 17.335938 163.730469 14.625 184.570312 16.027344 204.949219 C 16.253906 207.441406 16.171875 209.921875 15.777344 212.390625 C 15.363281 214.902344 14.351562 217.148438 12.738281 219.121094 C 10.253906 222.117188 6.253906 223.5625 3.617188 226.445312 C 0.980469 229.328125 0.230469 234.539062 0.902344 238.769531 C 4.480469 261.53125 3.019531 284.601562 7.273438 307.25 Z M 223.027344 107.304688 C 223.019531 107.257812 223.019531 107.214844 223.027344 107.167969 C 223.21875 105.675781 223.617188 104.242188 224.21875 102.863281 C 224.492188 102.199219 224.8125 101.558594 225.179688 100.941406 C 225.375 100.652344 225.605469 100.382812 225.835938 100.09375 C 226.019531 99.785156 226.273438 99.5625 226.605469 99.421875 C 226.679688 99.402344 226.75 99.417969 226.8125 99.464844 C 226.875 99.511719 226.910156 99.574219 226.914062 99.652344 C 226.902344 99.980469 226.808594 100.28125 226.625 100.554688 C 226.46875 100.882812 226.355469 101.210938 226.203125 101.535156 C 226.046875 101.863281 225.566406 102.746094 225.316406 103.460938 C 224.964844 104.320312 224.664062 105.199219 224.410156 106.09375 C 224.410156 106.324219 224.316406 106.574219 224.257812 106.804688 C 225.492188 106.207031 226.792969 105.808594 228.152344 105.609375 C 229.511719 105.414062 230.871094 105.425781 232.226562 105.652344 C 232.511719 105.652344 232.78125 105.765625 233.070312 105.824219 C 233.082031 105.6875 233.121094 105.558594 233.1875 105.441406 L 233.300781 105.246094 C 233.667969 104.710938 234.109375 104.25 234.628906 103.863281 C 234.878906 103.675781 235.140625 103.515625 235.417969 103.382812 C 235.59375 103.292969 235.773438 103.21875 235.957031 103.152344 C 236.136719 103.121094 236.316406 103.121094 236.496094 103.152344 C 236.578125 103.171875 236.632812 103.222656 236.664062 103.296875 C 236.695312 103.371094 236.691406 103.445312 236.652344 103.515625 L 236.476562 103.785156 C 236.347656 103.941406 236.191406 104.070312 236.015625 104.171875 L 235.882812 104.285156 C 235.785156 104.382812 235.667969 104.476562 235.574219 104.59375 C 235.367188 104.785156 235.171875 104.988281 234.996094 105.207031 L 234.898438 105.34375 C 234.808594 105.460938 234.726562 105.582031 234.648438 105.707031 L 234.648438 105.882812 C 237.144531 106.679688 239.5625 107.660156 241.90625 108.824219 L 241.90625 108.554688 C 242.03125 108.257812 242.171875 107.96875 242.328125 107.6875 C 242.648438 107.171875 243.046875 106.722656 243.523438 106.34375 C 243.75 106.128906 244 105.945312 244.273438 105.785156 C 244.546875 105.636719 244.828125 105.507812 245.117188 105.402344 C 245.382812 105.304688 245.652344 105.230469 245.925781 105.171875 C 246.210938 105.105469 246.492188 105.105469 246.773438 105.171875 C 246.773438 105.171875 246.890625 105.324219 246.773438 105.402344 C 246.601562 105.589844 246.414062 105.761719 246.214844 105.921875 L 245.636719 106.304688 C 245.4375 106.460938 245.246094 106.628906 245.0625 106.804688 L 244.484375 107.324219 C 244.292969 107.511719 244.113281 107.710938 243.945312 107.917969 L 243.828125 108.074219 C 243.730469 108.222656 243.621094 108.363281 243.503906 108.496094 L 243.386719 108.667969 L 243.195312 108.957031 C 243.140625 109.035156 243.097656 109.121094 243.058594 109.207031 C 246.097656 110.773438 249.304688 111.808594 252.683594 112.320312 C 256.8125 112.566406 260.765625 111.835938 264.535156 110.128906 C 264.625 110.078125 264.695312 110.097656 264.746094 110.1875 C 264.800781 110.277344 264.78125 110.347656 264.691406 110.398438 C 263.367188 111.46875 261.917969 112.332031 260.347656 112.984375 C 258.777344 113.640625 257.144531 114.058594 255.453125 114.246094 C 251.980469 114.410156 248.699219 113.683594 245.621094 112.074219 C 242.378906 110.21875 239.011719 108.636719 235.515625 107.324219 C 233.578125 106.910156 231.621094 106.765625 229.644531 106.902344 C 228.316406 106.960938 226.996094 107.09375 225.679688 107.304688 C 225.339844 107.453125 225.003906 107.617188 224.679688 107.804688 C 224.371094 107.957031 224.066406 108.246094 223.71875 108.226562 C 223.453125 108.261719 223.242188 108.171875 223.085938 107.953125 C 222.929688 107.734375 222.910156 107.507812 223.027344 107.265625 Z M 223.027344 107.304688 " fill-opacity="1" fill-rule="nonzero"></path>
  </g>
</svg>
