<?xml version="1.0" encoding="UTF-8"?>
<svg xmlns="http://www.w3.org/2000/svg" xmlns:xlink="http://www.w3.org/1999/xlink" width="500" zoomAndPan="magnify" viewBox="0 0 375 374.999991" height="500" preserveAspectRatio="xMidYMid meet" version="1.0">
  <path fill="#c89e67" d="M 318.898438 184.097656 C 322.316406 184.046875 324.839844 183.257812 327.417969 185.152344 C 329.996094 187.046875 335.09375 186.941406 337.355469 184.046875 C 337.355469 184.046875 340.25 182.835938 341.300781 180.253906 C 341.300781 180.253906 344.824219 177.832031 343.351562 176.042969 C 341.878906 174.253906 340.457031 171.9375 339.144531 170.148438 C 337.832031 168.359375 338.300781 166.199219 337.671875 164.464844 C 337.054688 162.757812 330.617188 154.324219 321.839844 152.808594 C 322.128906 154.0625 322.070312 155.28125 322.070312 155.28125 C 322.070312 155.28125 321.859375 153.914062 321.316406 152.722656 C 321.316406 152.722656 318.898438 147.671875 317.265625 147.355469 C 313.332031 146.589844 310.519531 154.953125 311.078125 157.78125 C 311.078125 157.78125 309.890625 155.824219 311.519531 151.355469 C 310.308594 151.214844 307.878906 150.722656 303.804688 149.09375 C 297.496094 146.566406 289.078125 145.144531 271.9375 143.667969 C 254.792969 142.195312 252.058594 144.300781 243.960938 149.878906 C 235.859375 155.460938 229.445312 159.882812 215.980469 159.25 C 187.203125 157.902344 167.164062 163.371094 138.78125 147.933594 C 129.105469 142.667969 115.433594 140.039062 99.339844 149.828125 C 83.25 159.621094 75.886719 167.832031 58.425781 165.304688 C 40.96875 162.777344 26.929688 152.359375 13.46875 158.992188 C 0.00390625 165.625 14.730469 169.835938 21.355469 168.890625 C 31.652344 167.417969 45.425781 173.917969 56.664062 176.445312 C 76.910156 180.996094 94.242188 164.964844 113.015625 157.726562 C 113.015625 157.726562 107.859375 159.9375 105.441406 165.09375 C 103.023438 170.253906 98.605469 180.992188 90.613281 184.464844 C 82.617188 187.941406 72.730469 187.625 69.15625 186.46875 C 65.578125 185.308594 65.683594 183.308594 59.585938 185.308594 C 53.484375 187.308594 49.277344 187.203125 41.492188 187.308594 C 33.710938 187.414062 29.082031 183.835938 26.507812 184.886719 C 26.507812 184.886719 23.773438 183.570312 22.246094 184.675781 C 22.246094 184.675781 19.667969 184.414062 19.144531 185.835938 C 18.617188 187.257812 17.828125 189.835938 21.667969 191.414062 C 25.507812 192.996094 29.976562 196.363281 32.289062 196.574219 C 48.457031 198.046875 58.109375 196.707031 74.308594 201.703125 C 74.308594 201.703125 64.785156 199.777344 58.921875 199.734375 C 56.582031 201.082031 52.5625 203.523438 49.066406 206.261719 C 43.753906 210.417969 39.230469 213.683594 38.179688 213.367188 C 37.128906 213.050781 35.65625 211.523438 34.078125 212.3125 C 34.078125 212.3125 29.820312 209.363281 27.398438 210.839844 C 27.398438 210.839844 24.035156 210.363281 23.824219 212.261719 C 23.824219 212.261719 22.140625 213.628906 22.824219 215.945312 C 23.507812 218.261719 26.347656 222.367188 32.078125 223.15625 C 37.8125 223.945312 40.695312 223.5 49.90625 218.628906 C 59.121094 213.761719 72.726562 207.46875 89.972656 207.546875 C 88.273438 206.652344 86.085938 205.625 86.085938 205.625 C 94.589844 208.144531 101.597656 211.410156 110.121094 209.734375 C 126.636719 206.488281 150.574219 188.277344 164.285156 188.53125 C 164.285156 188.53125 159.75 189.246094 153.707031 192.097656 C 200.320312 194.402344 197.558594 233.449219 268.011719 202.554688 C 267.75 197.839844 266.027344 190.515625 266.027344 190.515625 C 268.074219 197.273438 271.429688 204.234375 271.671875 211.261719 C 271.882812 217.367188 276.613281 219.628906 281.347656 220.789062 C 286.082031 221.945312 314.582031 226.949219 318.6875 229.15625 C 322.789062 231.371094 328.78125 231.578125 333.199219 232.316406 C 337.617188 233.054688 342.085938 235.054688 345.347656 234.210938 C 345.347656 234.210938 349.238281 235 350.660156 232.472656 C 350.660156 232.472656 352.550781 231.527344 353.65625 232.367188 C 353.65625 232.367188 353.5 230.921875 352.789062 230.132812 C 352.789062 230.132812 354.578125 229.367188 355.679688 230.734375 C 355.679688 230.734375 355.445312 228.261719 353 226.550781 C 349.089844 223.816406 347.175781 223.519531 343.304688 222.097656 C 343.304688 222.097656 347.699219 222.875 351.785156 224.636719 C 353.109375 224.910156 354.554688 224.839844 355.839844 225.789062 C 357.125 226.734375 359.757812 229.128906 363.175781 229.023438 C 366.59375 228.917969 367.804688 228.183594 369.382812 228.550781 C 370.960938 228.917969 372.640625 227.761719 372.90625 226.128906 C 372.90625 226.128906 373.957031 226.023438 374.484375 227.445312 C 374.484375 227.445312 375.007812 224.550781 371.851562 222.179688 C 368.699219 219.8125 366.648438 218.96875 360.390625 217.335938 C 354.132812 215.707031 345.820312 212.652344 333.304688 209.390625 C 320.789062 206.125 309.21875 202.757812 306.800781 197.808594 C 304.472656 193.042969 304.675781 187.984375 304.371094 180.78125 C 301.355469 179.484375 299.644531 177.738281 299.644531 177.738281 C 304.300781 180.371094 315.53125 184.152344 318.898438 184.101562 Z M 318.898438 184.097656 " fill-opacity="1" fill-rule="evenodd"></path>
</svg>
