<?xml version="1.0" encoding="UTF-8"?>
<svg xmlns="http://www.w3.org/2000/svg" xmlns:xlink="http://www.w3.org/1999/xlink" width="500" zoomAndPan="magnify" viewBox="0 0 375 374.999991" height="500" preserveAspectRatio="xMidYMid meet" version="1.0">
  <defs>
    <clipPath id="83ee13f9c3">
      <path d="M 0 88.359375 L 375 88.359375 L 375 286 L 0 286 Z M 0 88.359375 " clip-rule="nonzero"></path>
    </clipPath>
  </defs>
  <g clip-path="url(#83ee13f9c3)">
    <path fill="#c89e67" d="M 180.425781 202.910156 C 174.136719 197.226562 166.351562 198.125 158.339844 198.648438 C 162.757812 191.097656 167.699219 184.070312 163.28125 175.398438 C 160.886719 170.6875 153.472656 166.875 147.035156 166.578125 C 149.132812 167.699219 151.226562 168.667969 153.175781 169.941406 C 160.136719 174.5 162.308594 181.003906 158.863281 188.480469 C 156.691406 193.191406 153.472656 197.378906 150.480469 202.085938 C 151.226562 202.085938 152.199219 202.085938 153.175781 202.085938 C 157.589844 201.9375 162.007812 201.9375 166.425781 201.636719 C 169.871094 201.339844 172.714844 202.3125 175.632812 203.957031 C 178.703125 205.601562 180.351562 207.84375 180.800781 211.355469 C 177.953125 210.460938 175.183594 209.636719 172.488281 208.742188 C 174.960938 211.730469 179.527344 212.03125 180.351562 216.738281 C 177.429688 216.515625 174.585938 216.292969 171.816406 216.066406 C 173.988281 218.160156 178.03125 217.335938 178.480469 221.972656 C 172.191406 222.421875 165.601562 223.839844 159.238281 223.09375 C 148.382812 221.75 137.828125 223.46875 127.195312 224.589844 C 124.125 224.886719 120.832031 225.261719 117.835938 224.589844 C 108.929688 222.496094 103.914062 212.925781 107.65625 204.328125 C 109.527344 199.917969 112.449219 195.433594 116.117188 192.441406 C 122.328125 187.359375 129.515625 183.472656 136.328125 179.136719 C 137.304688 178.464844 138.5 178.089844 139.324219 177.265625 C 124.203125 182.125 110.050781 188.257812 102.492188 203.730469 C 102.117188 204.480469 101.066406 205.375 100.320312 205.375 C 83.027344 206.347656 67.078125 211.207031 52.929688 222.046875 C 49.710938 215.167969 49.5625 208.515625 51.957031 201.714844 C 54.128906 195.582031 58.09375 190.722656 62.886719 186.535156 C 70.671875 179.734375 79.730469 175.171875 89.3125 171.4375 C 90.511719 170.988281 91.636719 170.464844 92.683594 169.566406 C 91.859375 169.789062 91.035156 169.941406 90.210938 170.238281 C 79.355469 173.976562 68.875 178.613281 59.816406 185.9375 C 52.929688 191.546875 47.464844 198.125 46.339844 207.246094 C 45.144531 217.039062 47.839844 225.5625 55.175781 232.363281 C 63.1875 239.765625 72.992188 243.726562 83.101562 247.167969 C 83.476562 247.316406 83.925781 247.390625 84.296875 247.539062 C 93.207031 251.203125 102.117188 252.101562 111.023438 247.613281 C 113.945312 246.121094 116.492188 246.644531 118.734375 248.8125 C 120.53125 250.457031 122.253906 250.457031 124.425781 249.410156 C 128.019531 247.691406 131.835938 246.417969 135.429688 244.625 C 137.902344 243.429688 139.847656 243.277344 141.644531 245.671875 C 142.242188 246.492188 143.21875 247.09375 144.265625 247.988281 C 147.859375 245.296875 151.601562 242.753906 155.046875 239.914062 C 157.140625 238.195312 159.089844 237.523438 161.558594 238.71875 C 163.953125 239.839844 165.828125 239.242188 167.847656 237.597656 C 170.992188 234.980469 174.359375 232.664062 177.582031 230.269531 C 177.953125 230.421875 178.253906 230.421875 178.328125 230.570312 C 180.574219 233.785156 183.121094 233.410156 186.640625 232.214844 C 204.679688 226.011719 221.003906 228.625 235.003906 242.234375 C 235.300781 242.53125 235.601562 242.832031 235.898438 243.128906 C 236.050781 243.277344 236.050781 243.503906 236.199219 243.800781 C 230.585938 242.90625 225.121094 241.785156 219.578125 241.109375 C 212.019531 240.214844 204.382812 240.289062 197.046875 242.679688 C 193.601562 243.800781 190.007812 245.222656 187.164062 247.464844 C 175.257812 256.960938 161.859375 263.613281 148.007812 269.519531 C 126.671875 278.566406 104.660156 284.917969 81.304688 285.816406 C 70.222656 286.265625 59.21875 285.21875 48.585938 281.855469 C 27.851562 275.425781 13.324219 261.96875 4.042969 242.679688 C 0.523438 235.429688 0 227.65625 1.121094 219.28125 C 12.875 245.820312 34.960938 256.886719 61.390625 261.59375 C 75.6875 264.136719 90.0625 264.136719 104.4375 262.34375 C 101.367188 262.34375 98.296875 262.34375 95.230469 262.34375 C 77.335938 262.042969 59.742188 259.800781 42.972656 253.074219 C 27.773438 246.941406 15.347656 237.523438 7.859375 222.570312 C 0.972656 208.816406 2.46875 195.882812 11.976562 183.996094 C 23.507812 169.417969 38.78125 160.074219 55.925781 153.867188 C 64.683594 150.652344 73.890625 148.785156 82.875 146.09375 C 91.636719 143.476562 100.246094 140.484375 108.929688 137.792969 C 114.769531 135.925781 120.683594 134.355469 126.523438 132.335938 C 128.769531 131.589844 130.9375 130.46875 132.960938 129.121094 C 135.507812 127.476562 137.828125 127.027344 140.445312 128.671875 C 142.691406 130.09375 144.714844 129.871094 146.585938 127.925781 C 147.335938 127.179688 148.308594 126.730469 149.058594 125.980469 C 150.628906 124.414062 152.277344 124.113281 153.996094 125.535156 C 156.691406 127.703125 159.164062 127.777344 161.558594 125.085938 C 164.179688 122.167969 167.097656 121.796875 170.320312 124.039062 C 172.9375 125.832031 175.558594 125.757812 178.105469 123.890625 C 181.175781 121.570312 184.394531 121.273438 187.6875 123.515625 C 190.683594 125.535156 193.527344 124.335938 196.371094 123.140625 C 199.066406 121.945312 201.613281 121.796875 204.007812 123.664062 C 206.703125 125.832031 209.621094 125.683594 212.617188 124.488281 C 214.863281 123.589844 216.882812 123.8125 218.832031 125.234375 C 225.042969 129.71875 232.679688 129.945312 239.71875 131.589844 C 240.542969 131.8125 241.589844 131.441406 242.414062 131.066406 C 244.210938 130.242188 246.082031 129.421875 247.730469 128.300781 C 250.796875 126.207031 253.71875 125.683594 256.9375 127.925781 C 258.433594 129.046875 259.558594 128.523438 260.679688 127.179688 C 263 124.335938 265.546875 121.722656 267.941406 118.878906 C 268.992188 117.609375 270.039062 116.785156 271.6875 117.683594 C 278.574219 121.273438 283.214844 118.582031 286.507812 112.300781 C 287.558594 110.207031 289.128906 109.910156 291.226562 110.730469 C 299.386719 114.246094 307.320312 113.570312 314.957031 109.234375 C 315.257812 109.085938 315.632812 108.9375 315.929688 108.863281 C 326.785156 106.171875 335.320312 100.414062 340.785156 90.546875 C 341.910156 88.601562 343.554688 88.453125 346.101562 89.199219 C 349.097656 90.023438 352.242188 90.398438 355.308594 90.398438 C 357.855469 90.398438 358.902344 90.84375 359.128906 93.011719 C 359.652344 98.097656 360.402344 103.105469 360.476562 108.339844 C 359.203125 106.769531 357.929688 105.125 356.207031 102.957031 C 355.535156 105.945312 354.9375 108.414062 354.5625 110.878906 C 354.261719 112.972656 353.363281 114.09375 351.117188 114.617188 C 346.777344 115.515625 342.582031 116.9375 338.242188 117.832031 C 335.621094 118.355469 333.75 119.628906 332.101562 121.722656 C 329.183594 125.457031 326.1875 129.121094 323.042969 132.636719 C 321.996094 133.757812 320.046875 134.804688 318.625 134.730469 C 313.386719 134.207031 309.71875 135.777344 306.273438 140.035156 C 301.78125 145.644531 295.792969 149.90625 288.304688 150.800781 C 285.460938 151.101562 282.542969 150.429688 279.621094 149.980469 C 275.054688 149.308594 270.5625 148.035156 266.070312 147.738281 C 263.75 147.585938 261.355469 149.007812 259.109375 150.128906 C 264.949219 147.664062 270.488281 148.785156 275.953125 151.101562 C 276.851562 151.476562 277.898438 152.148438 278.347656 152.894531 C 282.015625 159.472656 288.082031 162.089844 295.042969 162.613281 C 300.210938 162.988281 305.523438 162.464844 310.765625 162.015625 C 311.664062 161.941406 312.863281 160.746094 313.234375 159.773438 C 314.433594 157.082031 315.257812 154.242188 316.457031 150.875 C 319.675781 154.613281 322.667969 158.054688 325.886719 161.792969 C 330.15625 157.980469 334.722656 155.363281 340.5625 158.800781 C 341.984375 155.289062 343.183594 152.148438 344.679688 148.410156 C 333.75 146.167969 316.082031 142.128906 305.375 139.886719 C 308.296875 140.035156 299.984375 137.945312 302.90625 138.316406 C 305.824219 138.617188 326.1875 141.605469 327.535156 138.765625 C 327.761719 138.242188 328.285156 137.792969 329.109375 136.820312 C 334.125 144.671875 342.359375 143.773438 350.21875 145.121094 C 350.820312 142.429688 351.417969 139.960938 352.015625 137.195312 C 352.539062 137.570312 352.988281 137.71875 353.140625 138.019531 C 357.707031 144.671875 364.445312 147.8125 372.082031 149.308594 C 374.476562 149.753906 375 150.953125 374.851562 153.195312 C 374.324219 159.699219 370.058594 164.632812 363.023438 166.203125 C 339.515625 171.359375 316.007812 176.742188 292.347656 181.230469 C 282.542969 183.097656 272.585938 181.675781 263.300781 177.640625 C 260.832031 176.59375 258.734375 174.800781 256.710938 173.453125 C 258.136719 179.210938 265.171875 184.367188 275.804688 186.460938 C 270.636719 187.957031 265.996094 188.628906 261.953125 190.574219 C 254.765625 193.9375 249.527344 192.59375 245.484375 185.863281 C 244.960938 184.96875 244.136719 184.367188 242.9375 183.84375 C 244.359375 187.507812 245.855469 191.171875 247.355469 194.984375 C 244.433594 197.226562 241.664062 199.46875 238.671875 201.414062 C 237.996094 201.863281 236.5 201.789062 235.601562 201.339844 C 230.808594 199.023438 226.09375 196.554688 221.300781 194.3125 C 235.078125 205.375 248.925781 216.140625 267.195312 218.683594 C 268.839844 218.90625 270.488281 219.582031 272.136719 219.65625 C 278.125 220.027344 281.792969 224.066406 286.359375 228.179688 C 282.390625 227.65625 279.097656 227.28125 274.90625 226.757812 C 280.519531 231.390625 288.230469 232.886719 288.53125 241.484375 C 281.867188 239.542969 275.128906 237.523438 268.390625 235.503906 C 268.242188 235.804688 268.316406 235.726562 268.167969 236.027344 C 270.039062 237.148438 271.910156 238.34375 273.707031 239.464844 C 278.199219 242.234375 278.273438 242.382812 277.976562 248.4375 C 271.386719 245.894531 264.875 243.355469 257.835938 240.585938 C 258.136719 243.355469 258.433594 245.820312 258.734375 248.585938 C 255.140625 247.390625 252.070312 246.492188 249 245.371094 C 248.402344 245.148438 247.878906 244.550781 247.355469 244.027344 C 247.054688 243.726562 246.90625 243.277344 246.679688 242.980469 C 244.359375 239.09375 242.863281 234.234375 239.570312 231.617188 C 236.347656 229.148438 231.257812 229 226.992188 227.878906 C 214.488281 224.589844 201.988281 221.449219 189.558594 218.011719 C 188.210938 217.636719 186.488281 216.292969 185.890625 215.019531 C 182.597656 208.292969 183.792969 201.191406 189.109375 195.507812 C 193.75 190.5 199.664062 187.660156 205.953125 185.265625 C 207.226562 184.816406 208.425781 184.292969 210.222656 183.621094 C 197.417969 184.292969 187.164062 190.949219 180.425781 202.910156 Z M 345.652344 148.410156 C 345.503906 148.707031 345.351562 148.933594 345.203125 149.230469 C 346.699219 151.25 348.273438 153.195312 349.621094 155.289062 C 350.820312 157.15625 352.316406 157.828125 354.410156 157.457031 C 356.582031 157.082031 358.304688 156.183594 359.203125 153.121094 C 354.5625 151.550781 350.144531 149.980469 345.652344 148.410156 Z M 286.210938 128.148438 C 277.375 126.804688 277 126.953125 275.953125 132.785156 C 280.296875 133.757812 282.839844 131.066406 286.210938 128.148438 Z M 286.210938 128.148438 " fill-opacity="1" fill-rule="nonzero"></path>
  </g>
  <path fill="#c89e67" d="M 88.941406 140.113281 C 99.644531 125.160156 115.742188 122.84375 125.699219 128.75 C 113.570312 132.484375 101.292969 136.300781 88.941406 140.113281 Z M 88.941406 140.113281 " fill-opacity="1" fill-rule="nonzero"></path>
</svg>
