<?xml version="1.0" encoding="UTF-8"?>
<svg xmlns="http://www.w3.org/2000/svg" xmlns:xlink="http://www.w3.org/1999/xlink" width="500" zoomAndPan="magnify" viewBox="0 0 375 374.999991" height="500" preserveAspectRatio="xMidYMid meet" version="1.0">
  <defs>
    <clipPath id="12b7c932d4">
      <path d="M 0 18.046875 L 375 18.046875 L 375 357 L 0 357 Z M 0 18.046875 " clip-rule="nonzero"></path>
    </clipPath>
  </defs>
  <g clip-path="url(#12b7c932d4)">
    <path fill="#c89e67" d="M 371.085938 18.933594 C 367.644531 19.621094 361.230469 20.898438 356.210938 26.535156 C 351.203125 32.171875 347.585938 42.160156 346.210938 54.988281 C 344.832031 67.816406 345.683594 83.488281 344.746094 96.242188 C 343.796875 108.980469 341.042969 118.792969 336.050781 124.140625 C 331.058594 129.46875 323.824219 130.332031 316.503906 128.691406 C 309.183594 127.050781 301.792969 122.921875 294.046875 116.640625 C 286.289062 110.359375 278.207031 101.921875 271.3125 97.441406 C 264.429688 92.960938 258.75 92.449219 251.429688 94.25 C 244.109375 96.066406 235.164062 100.195312 228.796875 103.214844 C 222.425781 106.230469 218.632812 108.121094 213.816406 108.984375 C 208.988281 109.847656 203.144531 109.671875 197.539062 110.535156 C 191.945312 111.382812 186.617188 113.289062 179.472656 117.84375 C 172.59375 122.242188 164.03125 129.113281 158.945312 134.992188 C 149.78125 134.515625 143.089844 133.578125 135.492188 132.195312 C 127.132812 130.671875 117.660156 128.605469 102.683594 129.894531 C 87.707031 131.199219 67.222656 135.839844 50.605469 144.539062 C 33.988281 153.238281 21.253906 165.976562 14.109375 179.933594 C 12.238281 183.585938 10.75 187.324219 9.597656 191.121094 C 7.777344 194.371094 6.238281 197.761719 5.265625 201.167969 C 4.605469 203.453125 3.273438 206.820312 2.996094 209.425781 C 2.265625 216.648438 1.605469 224.289062 2.660156 231.277344 L 4.5625 292.695312 C 4.210938 294.613281 3.597656 295.976562 2.953125 297.28125 C 0.875 301.394531 0.550781 309.699219 1.195312 311 C 2.191406 310.984375 2.03125 308.628906 4.78125 308.394531 C -0.00390625 317.429688 1.519531 314.910156 1.695312 322.628906 C 4.753906 321.824219 5.894531 316.523438 7.242188 313.960938 C 11.839844 305.1875 10.976562 305.496094 10.976562 295.390625 C 10.976562 292.109375 9.761719 290.777344 8.675781 288.421875 C 6.523438 283.777344 7.898438 268.226562 7.871094 261.972656 C 7.832031 254.574219 8.375 246.078125 8.757812 237.917969 C 10.046875 243.949219 11.835938 249.597656 14.09375 254.417969 C 14.46875 263.714844 14.902344 273.070312 17.402344 281.539062 C 21.71875 296.179688 22.117188 292.886719 22.117188 310.253906 C 22.117188 315.324219 20.929688 319.1875 20.167969 323.785156 C 19.378906 328.574219 17.78125 333.453125 17.78125 338.722656 C 17.78125 341.289062 19.011719 342.238281 19.011719 344.917969 C 19.011719 349.78125 18.394531 351.960938 18.394531 356.675781 C 25.25 356.675781 30.226562 356.28125 36.976562 356.078125 C 40.503906 355.972656 59.523438 355.972656 53.328125 350.21875 C 50.0625 347.171875 47.605469 344.40625 45.320312 340.277344 C 43.929688 337.757812 44.546875 339.058594 44.355469 335.679688 C 44.238281 333.511719 44.035156 332.46875 43.679688 330.15625 C 42.144531 319.933594 40.710938 317.34375 43.386719 306.15625 C 44.824219 300.207031 43.957031 298.46875 47.105469 293.796875 C 48.222656 292.128906 48.921875 290.632812 49.949219 289.199219 C 51.089844 287.574219 52.347656 286.503906 53.828125 285.023438 C 56.023438 282.84375 59.40625 278.230469 62.335938 277.453125 C 62.847656 279.371094 63.59375 279.652344 64.808594 281.171875 C 68.804688 286.183594 69.625 286.886719 72.054688 293.109375 C 76.433594 304.324219 76.886719 314.636719 75.992188 326.394531 C 74.675781 343.644531 76.855469 334.875 78.878906 344.480469 C 79.695312 348.417969 79.359375 350.367188 80.898438 353.589844 L 110.105469 353.722656 C 120.441406 352.710938 119.066406 348.480469 110.222656 341.582031 C 100.457031 333.980469 96.3125 309.523438 95.730469 296.609375 C 95.566406 293.183594 97.441406 287.238281 98.21875 284.25 L 100.9375 276.347656 C 107.648438 276.722656 116.21875 277.300781 125.582031 276.460938 C 137.980469 275.332031 151.742188 271.714844 160.101562 267.496094 C 168.445312 263.28125 171.375 258.460938 173.863281 257.933594 C 176.367188 257.421875 178.433594 261.214844 179.71875 268.007812 C 181.023438 274.820312 181.535156 284.628906 181.785156 297.546875 C 182.046875 310.464844 182.046875 326.484375 180.9375 335.945312 C 179.808594 345.421875 177.570312 348.347656 177.054688 350.765625 C 176.542969 353.167969 177.742188 355.070312 183.511719 356.007812 C 189.28125 356.957031 199.617188 356.957031 205.457031 355.667969 C 211.3125 354.382812 212.691406 351.789062 211.066406 348.433594 C 209.425781 345.082031 204.769531 340.9375 203.746094 335.167969 C 202.707031 329.410156 205.296875 322 206.761719 313.476562 C 208.210938 304.953125 208.5625 295.304688 209.601562 291.523438 C 210.625 287.730469 212.355469 289.796875 214.667969 292.972656 C 216.996094 296.167969 219.925781 300.472656 221.8125 305.042969 C 223.714844 309.59375 224.578125 314.429688 224.402344 318.558594 C 224.226562 322.6875 223.027344 326.128906 221.652344 329.144531 C 220.273438 332.160156 218.722656 334.738281 218.285156 337.84375 C 217.859375 340.933594 218.546875 344.550781 221.125 347.144531 C 223.714844 349.722656 228.195312 351.273438 233.011719 352.316406 C 237.828125 353.339844 242.996094 353.851562 246.015625 352.386719 C 249.015625 350.925781 249.878906 347.480469 249.101562 343.777344 C 248.328125 340.085938 245.925781 336.117188 245.488281 331.726562 C 245.0625 327.332031 246.613281 322.515625 247.039062 316.832031 C 247.476562 311.152344 246.789062 304.605469 244.285156 294.792969 C 241.796875 284.980469 237.492188 271.890625 235.164062 261.386719 C 232.839844 250.875 232.5 242.953125 233.703125 235.378906 C 234.75 228.769531 236.976562 222.417969 234.042969 209.855469 C 236.140625 211.414062 238.34375 212.746094 240.421875 213.339844 C 243.421875 214.203125 246.175781 213.515625 248.503906 210.234375 C 250.828125 206.96875 252.71875 201.109375 254.535156 196.980469 C 256.335938 192.851562 258.0625 190.433594 260.304688 189.234375 C 262.542969 188.019531 265.296875 188.019531 268.632812 186.597656 C 271.972656 185.179688 275.882812 182.335938 279.746094 181.679688 C 283.597656 181.035156 287.386719 182.585938 288.675781 182.234375 C 289.964844 181.898438 288.765625 179.65625 286.203125 177.902344 C 283.640625 176.128906 279.71875 174.839844 279.03125 173.582031 C 278.34375 172.324219 280.890625 171.09375 282.878906 171.679688 C 284.886719 172.25 286.347656 174.636719 291.578125 176.425781 C 296.816406 178.210938 305.808594 179.394531 313.59375 179.453125 C 321.382812 179.515625 327.972656 178.429688 332.773438 176.773438 C 337.578125 175.117188 340.59375 172.878906 338.71875 172.117188 C 336.847656 171.371094 330.082031 172.101562 324.167969 171.929688 C 318.253906 171.753906 313.171875 170.683594 309.65625 168.796875 C 306.15625 166.921875 304.210938 164.226562 303.332031 163.316406 C 302.453125 162.394531 302.613281 163.257812 310.433594 161.210938 C 318.234375 159.171875 333.679688 154.226562 344.425781 146.933594 C 355.160156 139.636719 361.191406 129.988281 363.855469 119.914062 C 366.519531 109.851562 365.832031 99.339844 364.117188 88.835938 C 362.390625 78.335938 359.640625 67.824219 358.4375 60.078125 C 357.222656 52.332031 357.574219 47.335938 359.550781 42.605469 C 361.527344 37.859375 365.144531 33.378906 368.160156 30.800781 C 371.175781 28.222656 373.578125 27.535156 374.265625 26.671875 C 374.953125 25.808594 373.929688 24.769531 373.839844 23.320312 C 373.753906 21.855469 374.617188 19.953125 374.808594 19.058594 C 374.992188 18.144531 374.527344 18.246094 371.085938 18.933594 Z M 371.085938 18.933594 " fill-opacity="1" fill-rule="evenodd"></path>
  </g>
</svg>
