<?xml version="1.0" encoding="UTF-8"?>
<svg xmlns="http://www.w3.org/2000/svg" xmlns:xlink="http://www.w3.org/1999/xlink" width="500" zoomAndPan="magnify" viewBox="0 0 375 374.999991" height="500" preserveAspectRatio="xMidYMid meet" version="1.0">
  <defs>
    <clipPath id="1e69a2ab38">
      <path d="M 0.03125 35.15625 L 374.972656 35.15625 L 374.972656 339.65625 L 0.03125 339.65625 Z M 0.03125 35.15625 " clip-rule="nonzero"></path>
    </clipPath>
  </defs>
  <path fill="#c89e67" d="M 344.011719 135.84375 C 345.90625 137.152344 347.617188 138.550781 349.140625 140.019531 C 349.273438 138.359375 349.269531 136.65625 349.113281 134.914062 C 350.273438 134.890625 351.324219 133.953125 351.546875 133.324219 C 351.890625 132.335938 350.414062 131.523438 348.363281 130.410156 C 348.03125 129.03125 347.597656 127.628906 347.050781 126.203125 C 348.121094 125.113281 351.214844 123.625 344.976562 121.710938 C 344.886719 121.535156 344.796875 121.355469 344.699219 121.175781 C 344.285156 120.441406 343.71875 119.386719 343.34375 118.636719 C 344.953125 117.664062 347.359375 115.113281 341.390625 114.003906 C 341.335938 113.992188 341.171875 113.640625 341.121094 113.621094 C 340.515625 112.109375 339.964844 110.585938 339.464844 109.050781 C 340.785156 109.183594 341.867188 108.796875 342.058594 108.023438 C 342.304688 107.050781 341.074219 105.851562 339.320312 105.34375 C 338.96875 105.242188 338.625 105.183594 338.292969 105.148438 C 337.945312 103.882812 337.632812 102.609375 337.347656 101.339844 C 338.582031 101.417969 339.566406 101.027344 339.753906 100.289062 C 339.996094 99.316406 338.765625 98.117188 337.007812 97.609375 C 336.863281 97.566406 336.71875 97.539062 336.570312 97.507812 C 336.316406 96.089844 336.09375 94.679688 335.902344 93.273438 C 336.828125 93.25 337.558594 92.867188 337.722656 92.214844 C 337.953125 91.300781 336.976562 90.222656 335.542969 89.808594 C 335.523438 89.800781 335.503906 89.800781 335.488281 89.796875 C 335.371094 88.699219 335.277344 87.609375 335.195312 86.527344 C 336.191406 86.644531 337.039062 86.300781 337.207031 85.640625 C 337.402344 84.855469 336.5625 83.929688 335.332031 83.574219 C 335.222656 83.542969 335.117188 83.523438 335.011719 83.5 C 334.949219 82.226562 334.910156 80.96875 334.886719 79.726562 C 335.730469 79.792969 336.429688 79.488281 336.570312 78.925781 C 336.746094 78.222656 335.996094 77.394531 334.894531 77.074219 C 334.886719 77.070312 334.878906 77.070312 334.867188 77.070312 C 334.871094 75.796875 334.894531 74.546875 334.933594 73.324219 C 335.792969 73.445312 336.535156 73.152344 336.675781 72.585938 C 336.839844 71.925781 336.136719 71.148438 335.101562 70.847656 C 335.078125 70.84375 335.058594 70.839844 335.035156 70.835938 C 335.097656 69.558594 335.171875 68.316406 335.265625 67.113281 C 335.996094 67.191406 336.609375 66.9375 336.734375 66.453125 C 336.871094 65.894531 336.300781 65.242188 335.445312 64.957031 C 335.554688 63.746094 335.675781 62.585938 335.804688 61.476562 C 336.453125 61.539062 336.996094 61.304688 337.105469 60.871094 C 337.226562 60.386719 336.757812 59.828125 336.039062 59.550781 C 336.960938 52.386719 338.089844 47.867188 338.089844 47.867188 C 330.972656 64.996094 328.691406 87.285156 330.980469 105.476562 C 342.492188 124.015625 343.859375 135.023438 344.011719 135.84375 " fill-opacity="1" fill-rule="nonzero"></path>
  <g clip-path="url(#1e69a2ab38)">
    <path fill="#c89e67" d="M 368.902344 176.625 C 362.050781 169.128906 356.613281 154.691406 356.613281 154.691406 C 355.550781 148.25 349.980469 143.027344 341.972656 137.722656 C 340.414062 128.585938 336.632812 117.121094 328.027344 105.796875 C 309.09375 80.878906 313.535156 35.15625 313.535156 35.15625 C 311.933594 40.503906 310.828125 46.242188 310.167969 52.125 C 308.898438 51.871094 307.859375 52.011719 307.742188 52.5 C 307.617188 53.023438 308.597656 53.746094 309.960938 54.179688 C 309.84375 55.40625 309.742188 56.640625 309.667969 57.875 C 308.566406 57.746094 307.722656 57.933594 307.617188 58.386719 C 307.496094 58.894531 308.328125 59.574219 309.554688 60.054688 C 309.5 61.394531 309.460938 62.738281 309.445312 64.082031 C 308.351562 64.003906 307.546875 64.21875 307.433594 64.691406 C 307.304688 65.238281 308.152344 65.96875 309.441406 66.507812 C 309.457031 67.941406 309.492188 69.375 309.554688 70.800781 C 308.605469 70.792969 307.933594 71.023438 307.832031 71.464844 C 307.699219 72.007812 308.472656 72.722656 309.6875 73.277344 C 309.777344 74.753906 309.898438 76.21875 310.046875 77.671875 C 309.234375 77.734375 308.679688 77.980469 308.582031 78.398438 C 308.449219 78.957031 309.164062 79.675781 310.335938 80.273438 C 310.507812 81.691406 310.703125 83.097656 310.925781 84.480469 C 310.078125 84.574219 309.503906 84.851562 309.394531 85.308594 C 309.238281 85.964844 310.082031 86.804688 311.453125 87.5 C 311.796875 89.292969 312.175781 91.042969 312.597656 92.753906 C 311.523438 92.808594 310.800781 93.085938 310.683594 93.582031 C 310.511719 94.308594 311.667969 95.296875 313.492188 96.125 C 313.921875 97.609375 314.382812 99.054688 314.878906 100.453125 C 313.941406 100.535156 313.320312 100.808594 313.210938 101.265625 C 313.03125 102.015625 314.273438 103.042969 316.199219 103.886719 C 316.839844 105.429688 317.523438 106.894531 318.25 108.277344 C 317.46875 108.445312 316.964844 108.757812 316.851562 109.210938 C 316.621094 110.1875 318.265625 111.535156 320.816406 112.652344 C 321.644531 114.035156 322.382812 115.390625 323.039062 116.726562 C 321.734375 116.8125 320.875 117.148438 320.734375 117.746094 C 320.5 118.726562 322.285156 120.121094 325.042969 121.289062 C 325.496094 122.480469 325.882812 123.632812 326.222656 124.757812 C 323.890625 124.5 322.246094 124.757812 322.035156 125.542969 C 321.765625 126.574219 324.039062 128.199219 327.414062 129.527344 C 327.597656 130.472656 327.75 131.386719 327.867188 132.253906 C 324.007812 132.074219 322.019531 133.355469 322.019531 133.355469 C 313.417969 131.015625 305.339844 114.566406 305.339844 114.566406 C 305.339844 114.566406 302.722656 130.871094 307.929688 138.664062 C 311.53125 144.054688 317.6875 142.882812 317.6875 142.882812 C 314.085938 145.074219 310.722656 148.539062 307.796875 152.265625 C 304.105469 156.972656 290.097656 178.136719 282.871094 191.644531 C 282.425781 192.476562 282.003906 193.28125 281.613281 194.046875 C 281.304688 194.484375 281.042969 194.902344 280.960938 195.359375 C 277.011719 198.339844 273.660156 202.570312 267.300781 203.09375 C 261.15625 203.601562 251.65625 208.164062 249.191406 212.050781 C 247.332031 214.976562 237.15625 220.425781 228.421875 223.011719 C 218.855469 225.84375 203.496094 244.066406 131.925781 228.707031 C 127.023438 227.652344 125.402344 225.457031 115.074219 226.988281 C 110.453125 227.675781 92.921875 236.898438 88.316406 236.257812 C 81.304688 235.277344 81.15625 240.472656 74.433594 240.851562 C 74.660156 243.140625 78.539062 245.269531 84.125 246.875 C 88.035156 247.996094 100.488281 236.953125 105.054688 237.34375 C 105.054688 237.34375 105.71875 238.117188 104.835938 239.46875 C 101.546875 244.476562 105.484375 261.5 105.632812 267.449219 C 99.738281 275.417969 97.484375 275.886719 89.578125 273.367188 C 82.582031 271.808594 76.625 274.488281 72.671875 280.507812 C 68.628906 286.671875 44.625 304.519531 37.28125 304.753906 C 36.46875 304.777344 34.75 301.203125 33.726562 301.960938 C 33.542969 302.09375 33.265625 302.59375 33.339844 303.976562 C 33.371094 304.519531 34.074219 307.320312 27.546875 306.0625 C 21.53125 304.90625 21.503906 308.980469 8.535156 315.507812 C 3.71875 317.933594 20.785156 324.796875 32.382812 317.476562 C 34.714844 316.003906 37.878906 316.148438 39.9375 314.648438 C 78.609375 286.484375 93.898438 288.734375 94.125 288.550781 C 94.566406 288.488281 97.636719 289.027344 102.179688 288.742188 C 99.011719 292.984375 93.425781 295.90625 83.914062 295.949219 C 77.003906 294.023438 70.921875 296.386719 66.683594 302.195312 C 62.339844 308.136719 37.496094 324.695312 30.152344 324.546875 C 29.335938 324.527344 27.796875 320.867188 26.738281 321.566406 C 26.546875 321.691406 26.246094 322.179688 26.253906 323.5625 C 26.257812 324.105469 26.824219 326.9375 20.363281 325.339844 C 14.414062 323.867188 14.1875 327.9375 0.917969 333.773438 C -4.011719 335.941406 12.699219 343.695312 24.636719 336.996094 C 27.039062 335.644531 30.246094 336.039062 32.320312 334.566406 C 71.207031 307.007812 87.382812 313.230469 87.617188 313.058594 C 88.613281 312.96875 134.621094 318.671875 145.25 304.144531 C 149.128906 298.835938 150.648438 296.457031 152.160156 295.601562 C 148.472656 292.164062 144.816406 287.675781 144.816406 287.675781 C 148.441406 291.855469 151.589844 294.058594 154.007812 295.214844 C 155.816406 295.320312 158.476562 296.398438 164.222656 297.148438 C 248.527344 308.160156 267.449219 282.558594 273.632812 278.015625 C 270.167969 273.808594 266.65625 267.425781 266.65625 267.425781 C 270.457031 273.839844 274.140625 276.628906 276.609375 277.847656 C 285.394531 281.054688 293.957031 278.941406 301.8125 279.429688 C 292.679688 286.28125 283.976562 294.226562 283.007812 293.554688 C 279.792969 291.308594 279.917969 289.699219 279.335938 291.785156 C 279.3125 291.867188 279.308594 292.003906 279.328125 292.46875 C 279.714844 302.5 271.609375 294.488281 266.699219 299.398438 C 259.203125 306.898438 257.515625 308.582031 259.03125 309.53125 C 263.035156 312.058594 275.503906 308.257812 278.605469 305.355469 C 282.054688 302.128906 283.609375 302.726562 285.941406 301.488281 C 301.394531 293.285156 310.214844 286.828125 317.40625 281.5625 C 319.773438 281.679688 320.28125 284.3125 318.417969 285.480469 C 308.609375 290.335938 283.527344 310.527344 281.882812 309.378906 C 278.667969 307.136719 278.785156 306.324219 278.203125 308.414062 C 278.203125 308.414062 278.21875 308.488281 278.195312 309.101562 C 277.859375 319.132812 270.476562 311.117188 265.566406 316.027344 C 258.070312 323.527344 256.382812 325.210938 257.902344 326.160156 C 261.902344 328.6875 274.371094 324.886719 277.472656 321.984375 C 280.921875 318.757812 282.480469 319.355469 284.808594 318.117188 C 327.859375 295.261719 338.265625 289.996094 340.632812 287.605469 C 342.128906 286.097656 343.398438 285.320312 342.035156 282.636719 C 340.769531 280.136719 337.769531 277.15625 335.675781 274.835938 C 338.972656 272.675781 340.917969 271.832031 341.765625 270.976562 C 343.261719 269.46875 344.527344 268.691406 343.171875 266.003906 C 340.0625 259.867188 327.125 253.976562 322.425781 249.105469 C 328.382812 241.515625 328.960938 235.03125 326.484375 226.527344 C 324.84375 220.898438 322.691406 214.789062 322.382812 208.972656 C 325.039062 197.222656 328.03125 186.410156 330.035156 180.664062 C 327.472656 179.585938 320.015625 172.984375 319.425781 171.746094 C 319.425781 171.746094 328.894531 179.339844 331.753906 179.871094 C 332.207031 179.816406 332.949219 179.691406 333.941406 179.613281 C 336.910156 179.375 342.121094 179.535156 348.578125 183.199219 C 351.96875 185.125 358.007812 187.410156 360.96875 188.5 C 364.921875 189.949219 373.460938 188.042969 374.667969 185.453125 C 375.777344 183.078125 373.867188 182.058594 368.902344 176.625 " fill-opacity="1" fill-rule="nonzero"></path>
  </g>
</svg>
