<?xml version="1.0" encoding="UTF-8"?>
<svg xmlns="http://www.w3.org/2000/svg" xmlns:xlink="http://www.w3.org/1999/xlink" width="500" zoomAndPan="magnify" viewBox="0 0 375 374.999991" height="500" preserveAspectRatio="xMidYMid meet" version="1.0">
  <defs>
    <clipPath id="f3b4e15de9">
      <path d="M 13.125 0 L 361.875 0 L 361.875 375 L 13.125 375 Z M 13.125 0 " clip-rule="nonzero"></path>
    </clipPath>
  </defs>
  <g clip-path="url(#f3b4e15de9)">
    <path fill="#c89e67" d="M 38.433594 203.0625 C 38.03125 200.878906 37.488281 197.90625 37.019531 194.5 C 36.878906 195.980469 36.796875 197.613281 36.742188 199.390625 C 36.617188 203.40625 36.636719 208.183594 36.601562 212.878906 C 36.5625 217.578125 36.453125 222.179688 36.242188 225.894531 C 36.03125 229.621094 35.707031 232.457031 35.796875 235.214844 C 35.890625 237.960938 36.40625 240.648438 36.265625 243.222656 C 36.140625 245.8125 35.359375 248.292969 33.269531 250.753906 C 31.1875 253.222656 27.789062 255.652344 24.878906 257.933594 C 21.980469 260.203125 19.574219 262.320312 18.082031 264.152344 C 16.601562 265.984375 16.039062 267.539062 15.707031 267.230469 C 15.363281 266.921875 15.261719 264.746094 15.238281 261.984375 C 15.207031 259.214844 15.261719 255.847656 16.152344 252.503906 C 17.042969 249.15625 18.796875 245.835938 20.796875 243.792969 C 22.8125 241.746094 25.078125 240.96875 27.316406 239.1875 C 29.550781 237.410156 31.742188 234.621094 32.578125 229.964844 C 33.398438 225.3125 32.863281 218.785156 32.503906 211.511719 C 32.140625 204.230469 31.957031 196.207031 32.34375 190.457031 C 33.332031 175.8125 42.109375 162.957031 52.035156 152.746094 C 55.324219 149.359375 58.378906 146.175781 60.972656 143.84375 C 63.574219 141.5 65.710938 140 69.558594 138.855469 C 73.390625 137.726562 78.929688 136.949219 84.878906 135.609375 C 90.832031 134.269531 97.199219 132.371094 103.058594 130.285156 C 108.925781 128.199219 114.273438 125.933594 119.703125 122.851562 C 125.136719 119.773438 130.652344 115.890625 135.070312 111.914062 C 139.5 107.941406 142.84375 103.875 145.429688 101.179688 C 148.007812 98.476562 149.832031 97.128906 153.3125 95.609375 C 156.785156 94.085938 161.933594 92.371094 167.839844 90.996094 C 173.75 89.613281 180.441406 88.570312 187.171875 86.832031 C 193.902344 85.097656 200.664062 82.65625 208.21875 79.40625 C 215.757812 76.160156 224.085938 72.09375 232.285156 67.332031 C 240.488281 62.558594 248.570312 57.105469 256.003906 51.515625 C 263.4375 45.925781 270.242188 40.191406 276.683594 34.816406 C 283.136719 29.4375 289.230469 24.414062 293.234375 21.167969 C 297.242188 17.910156 299.136719 16.4375 301.339844 14.796875 C 303.539062 13.148438 306.066406 11.324219 308.242188 10.621094 C 310.425781 9.910156 312.265625 10.3125 313.664062 10.847656 C 315.058594 11.382812 315.996094 12.050781 316.5 12.394531 C 317.007812 12.722656 317.09375 12.722656 317.617188 12.460938 C 318.136719 12.191406 319.097656 11.648438 319.757812 10.679688 C 320.410156 9.699219 320.761719 8.285156 320.496094 7.039062 C 320.226562 5.792969 319.347656 4.726562 319.039062 3.617188 C 318.730469 2.496094 318.996094 1.347656 320.007812 0.730469 C 321.03125 0.121094 322.796875 0.0351562 324.097656 0.0195312 C 325.386719 -0.015625 326.21875 0.0195312 326.625 1.0625 C 327.027344 2.109375 327 4.160156 327.402344 6.25 C 327.804688 8.339844 328.625 10.445312 329.605469 11.683594 C 330.585938 12.917969 331.703125 13.257812 333.035156 13.332031 C 334.355469 13.398438 335.878906 13.179688 336.5 13.800781 C 337.117188 14.410156 336.816406 15.855469 338.148438 18.796875 C 339.46875 21.746094 342.410156 26.1875 345.5625 30.09375 C 348.703125 33.992188 352.046875 37.367188 354.71875 40.1875 C 357.390625 43.007812 359.40625 45.292969 360.523438 47.960938 C 361.65625 50.632812 361.890625 53.710938 361.761719 55.695312 C 361.621094 57.675781 361.109375 58.558594 360.238281 58.707031 C 359.355469 58.847656 358.097656 58.261719 357.246094 58.214844 C 356.402344 58.183594 355.980469 58.683594 355.570312 58.835938 C 355.179688 58.984375 354.804688 58.769531 353.722656 58.109375 C 352.632812 57.457031 350.84375 56.359375 349.078125 55.011719 C 347.308594 53.65625 345.570312 52.050781 343.335938 51.210938 C 341.101562 50.371094 338.375 50.28125 335.988281 50.207031 C 333.613281 50.121094 331.578125 50.046875 328.203125 48.84375 C 324.839844 47.640625 320.128906 45.304688 316.847656 44.425781 C 313.570312 43.539062 311.726562 44.105469 310.195312 44.742188 C 308.671875 45.394531 307.46875 46.105469 303.890625 50.003906 C 300.300781 53.90625 294.335938 60.96875 286.511719 69.847656 C 278.683594 78.726562 268.992188 89.429688 259.765625 98.347656 C 250.535156 107.253906 241.757812 114.375 233.085938 120.734375 C 224.417969 127.105469 215.855469 132.726562 209.859375 137.011719 C 203.863281 141.292969 200.445312 144.230469 198.726562 147.5625 C 197.011719 150.894531 197.011719 154.613281 197.683594 157.851562 C 198.351562 161.089844 199.683594 163.84375 200.652344 166.261719 C 201.613281 168.6875 202.210938 170.78125 201.910156 174.464844 C 201.609375 178.160156 200.4375 183.449219 198.535156 188.011719 C 196.636719 192.554688 194.019531 196.347656 192.445312 199.566406 C 190.855469 202.773438 190.324219 205.402344 190.058594 206.714844 C 189.792969 208.027344 189.792969 208.027344 191.421875 211.6875 C 193.054688 215.351562 196.320312 222.6875 199.421875 229.066406 C 202.535156 235.445312 205.472656 240.875 208.390625 245.703125 C 211.3125 250.539062 214.199219 254.765625 216.433594 257.953125 C 218.667969 261.140625 220.246094 263.277344 221.351562 265.484375 C 222.460938 267.6875 223.109375 269.96875 223.195312 272.589844 C 223.289062 275.207031 222.84375 278.179688 221.972656 280.597656 C 221.101562 283.023438 219.820312 284.898438 218.902344 286.988281 C 218 289.074219 217.464844 291.375 216.164062 297.433594 C 214.867188 303.492188 212.800781 313.3125 211.394531 320.3125 C 209.980469 327.308594 209.222656 331.484375 208.710938 334.480469 C 208.199219 337.472656 207.941406 339.292969 207.101562 341.324219 C 206.25 343.359375 204.800781 345.609375 204.015625 347.84375 C 203.226562 350.078125 203.085938 352.296875 203.011719 354.796875 C 202.925781 357.300781 202.902344 360.082031 203.171875 362.597656 C 203.4375 365.121094 204 367.367188 203.734375 368.445312 C 203.464844 369.53125 202.371094 369.457031 200.601562 368.117188 C 198.835938 366.777344 196.394531 364.183594 194.460938 362.078125 C 192.519531 359.976562 191.070312 358.378906 190.273438 357.089844 C 189.476562 355.800781 189.3125 354.839844 189.890625 353.894531 C 190.464844 352.949219 191.773438 352.011719 192.710938 350.890625 C 193.648438 349.785156 194.203125 348.496094 194.460938 346.992188 C 194.71875 345.476562 194.660156 343.734375 195.238281 341.496094 C 195.8125 339.269531 197.019531 336.53125 198.59375 331.664062 C 200.179688 326.792969 202.128906 319.789062 203.472656 314.625 C 204.800781 309.460938 205.527344 306.136719 206.398438 302.164062 C 207.261719 298.1875 208.285156 293.566406 208.96875 289.628906 C 209.648438 285.695312 210 282.460938 210 279.316406 C 210 276.171875 209.648438 273.117188 209.039062 270.722656 C 208.441406 268.328125 207.582031 266.589844 204.695312 263 C 201.808594 259.417969 196.886719 253.988281 193.160156 249.652344 C 189.445312 245.320312 186.933594 242.082031 184.675781 239.324219 C 182.40625 236.566406 180.40625 234.296875 179.402344 233.15625 C 178.390625 232.019531 178.390625 232.019531 177.871094 233.414062 C 177.351562 234.796875 176.304688 237.589844 175.175781 241.425781 C 174.035156 245.265625 172.800781 250.167969 171.617188 256.570312 C 170.421875 262.980469 169.273438 270.90625 168.496094 276.503906 C 167.71875 282.105469 167.316406 285.398438 166.738281 288.019531 C 166.152344 290.628906 165.386719 292.578125 164.84375 294.773438 C 164.289062 296.964844 163.957031 299.40625 163.863281 303.292969 C 163.753906 307.167969 163.894531 312.480469 163.886719 318.746094 C 163.863281 325.023438 163.703125 332.238281 163.777344 337.703125 C 163.84375 343.15625 164.128906 346.851562 164.683594 349.855469 C 165.226562 352.867188 166.035156 355.203125 167.621094 358.074219 C 169.21875 360.953125 171.59375 364.367188 174.023438 366.902344 C 176.441406 369.429688 178.902344 371.054688 179.816406 372.015625 C 180.71875 372.960938 180.082031 373.230469 176.492188 373.335938 C 172.902344 373.445312 166.375 373.390625 162.925781 372.804688 C 159.476562 372.207031 159.101562 371.089844 159.242188 369.671875 C 159.367188 368.257812 160.019531 366.542969 159.976562 364.976562 C 159.9375 363.410156 159.210938 361.996094 157.996094 360.40625 C 156.78125 358.832031 155.066406 357.09375 153.917969 355.46875 C 152.769531 353.828125 152.171875 352.304688 152.195312 349.429688 C 152.203125 346.550781 152.820312 342.324219 153.238281 335.308594 C 153.65625 328.28125 153.867188 318.460938 153.847656 310.503906 C 153.839844 302.539062 153.605469 296.4375 153.355469 292.210938 C 153.113281 287.992188 152.878906 285.628906 153.378906 280.109375 C 153.882812 274.59375 155.128906 265.914062 155.957031 258.417969 C 156.785156 250.929688 157.203125 244.625 157.605469 239.34375 C 158.007812 234.0625 158.417969 229.789062 158.671875 226.273438 C 158.929688 222.769531 159.03125 220.011719 158.789062 218.667969 C 158.542969 217.335938 157.957031 217.414062 156.636719 217.347656 C 155.304688 217.28125 153.25 217.0625 151.195312 216.410156 C 149.128906 215.75 147.070312 214.652344 144.777344 214.425781 C 142.476562 214.203125 139.929688 214.84375 137 215.800781 C 134.070312 216.769531 130.75 218.050781 126.722656 218.78125 C 122.699219 219.527344 117.960938 219.707031 113.742188 219.039062 C 109.535156 218.378906 105.84375 216.84375 103.433594 216.015625 C 101.023438 215.195312 99.894531 215.054688 99.34375 214.992188 C 98.78125 214.917969 98.78125 214.917969 98.707031 217.445312 C 98.628906 219.957031 98.480469 224.984375 98.3125 230.714844 C 98.144531 236.433594 97.9375 242.859375 98.554688 250.355469 C 99.183594 257.84375 100.621094 266.40625 101.785156 273.179688 C 102.957031 279.941406 103.839844 284.925781 105.15625 289.824219 C 106.480469 294.722656 108.246094 299.558594 110.621094 304.945312 C 112.988281 310.335938 115.960938 316.289062 119.621094 323.566406 C 123.285156 330.839844 127.652344 339.421875 130.675781 345.460938 C 133.6875 351.484375 135.382812 354.96875 137.308594 357.738281 C 139.238281 360.507812 141.402344 362.558594 143.847656 364.273438 C 146.296875 365.988281 149.019531 367.351562 150.441406 368.191406 C 151.855469 369.035156 151.964844 369.363281 151.386719 369.738281 C 150.8125 370.113281 149.554688 370.535156 146.167969 370.910156 C 142.792969 371.285156 137.273438 371.613281 134.441406 371.355469 C 131.605469 371.097656 131.4375 370.269531 131.417969 369.179688 C 131.386719 368.101562 131.496094 366.761719 131.25 365.398438 C 130.992188 364.035156 130.378906 362.640625 129.078125 361.28125 C 127.777344 359.917969 125.796875 358.574219 124.371094 356.601562 C 122.933594 354.644531 122.0625 352.042969 120.058594 346.804688 C 118.070312 341.554688 114.972656 333.664062 111.164062 325.941406 C 107.367188 318.21875 102.871094 310.679688 98.886719 304.734375 C 94.90625 298.792969 91.421875 294.457031 88.441406 291.582031 C 85.460938 288.703125 82.96875 287.289062 81.628906 285.488281 C 80.296875 283.679688 80.105469 281.484375 79.777344 277.011719 C 79.433594 272.550781 78.957031 265.808594 78.03125 260.460938 C 77.101562 255.113281 75.71875 251.164062 74.582031 248.234375 C 73.433594 245.304688 72.523438 243.398438 71.953125 242.25 C 71.378906 241.101562 71.132812 240.703125 70.535156 240.75 C 69.949219 240.792969 68.988281 241.261719 67.320312 243.585938 C 65.648438 245.894531 63.253906 250.070312 60.140625 255.292969 C 57.03125 260.511719 53.210938 266.773438 49.789062 273.023438 C 46.359375 279.265625 43.335938 285.507812 41.121094 290.523438 C 38.894531 295.535156 37.480469 299.339844 35.964844 304.421875 C 34.453125 309.5 32.84375 315.871094 31.214844 322.480469 C 29.582031 329.085938 27.925781 335.933594 26.835938 340.675781 C 25.75 345.417969 25.25 348.03125 25.121094 350.375 C 25.003906 352.71875 25.273438 354.773438 25.984375 357.085938 C 26.6875 359.40625 27.835938 361.972656 28.871094 363.855469 C 29.902344 365.742188 30.8125 366.945312 32.101562 368.277344 C 33.378906 369.597656 35.039062 371.046875 35.964844 372.117188 C 36.894531 373.207031 37.070312 373.929688 36.25 374.367188 C 35.441406 374.8125 33.621094 374.976562 30.542969 374.886719 C 27.464844 374.8125 23.128906 374.496094 20.808594 373.917969 C 18.476562 373.34375 18.15625 372.511719 18.257812 371.308594 C 18.339844 370.105469 18.851562 368.519531 18.867188 367.125 C 18.890625 365.71875 18.398438 364.480469 17.484375 363.117188 C 16.554688 361.753906 15.191406 360.253906 14.34375 358.730469 C 13.480469 357.207031 13.140625 355.652344 13.617188 353.03125 C 14.109375 350.414062 15.441406 346.714844 17.058594 340.773438 C 18.6875 334.832031 20.613281 326.652344 21.988281 320.152344 C 23.351562 313.667969 24.171875 308.875 24.820312 303.808594 C 25.484375 298.738281 25.96875 293.390625 26.035156 289.003906 C 26.101562 284.625 25.726562 281.21875 25.472656 278.585938 C 25.214844 275.957031 25.078125 274.117188 25.289062 272.558594 C 25.515625 271.003906 26.070312 269.75 28.65625 265.691406 C 31.234375 261.640625 35.835938 254.792969 38.582031 247.925781 C 41.316406 241.0625 42.203125 234.183594 42.054688 227.648438 C 41.914062 221.117188 40.730469 214.917969 39.996094 211.078125 C 39.222656 207.230469 38.925781 205.738281 38.433594 203.0625 Z M 38.433594 203.0625 " fill-opacity="1" fill-rule="evenodd"></path>
  </g>
</svg>
