<?xml version="1.0" encoding="UTF-8"?>
<svg xmlns="http://www.w3.org/2000/svg" xmlns:xlink="http://www.w3.org/1999/xlink" width="500" zoomAndPan="magnify" viewBox="0 0 375 374.999991" height="500" preserveAspectRatio="xMidYMid meet" version="1.0">
  <path fill="#c89e67" d="M 31.910156 279.109375 C 31.910156 279.109375 31.074219 281.453125 30.738281 284.128906 C 30.40625 286.808594 28.5625 294.171875 26.054688 295.34375 C 23.542969 296.515625 23.207031 296.015625 23.207031 296.015625 C 23.207031 296.015625 19.273438 297.269531 17.933594 295.429688 C 16.59375 293.589844 16.761719 293.585938 16.761719 293.585938 C 16.761719 293.585938 13.917969 292.582031 13.082031 289.90625 C 13.082031 289.90625 5.550781 278.855469 4.878906 270.988281 C 4.210938 263.121094 9.0625 260.609375 9.734375 259.105469 C 10.402344 257.597656 10.902344 255.421875 11.070312 254.585938 C 11.242188 253.746094 11.574219 251.070312 12.242188 249.226562 C 12.914062 247.386719 12.746094 246.046875 13.582031 243.703125 C 14.421875 241.359375 15.089844 236.171875 15.257812 235.5 C 15.425781 234.832031 0.0234375 215.078125 1.867188 193.320312 C 3.707031 171.558594 16.59375 159.003906 20.949219 155.324219 C 25.300781 151.640625 53.421875 129.878906 93.929688 129.378906 C 134.4375 128.875 189.171875 137.414062 206.246094 137.914062 C 223.320312 138.417969 229.847656 130.886719 234.871094 130.046875 C 239.894531 129.210938 242.90625 129.210938 242.90625 129.210938 L 252.949219 118.832031 C 252.949219 118.832031 253.285156 116.152344 255.125 114.8125 C 256.964844 113.472656 261.484375 111.296875 261.484375 111.296875 C 261.484375 111.296875 264.664062 104.769531 266.507812 103.265625 C 268.347656 101.757812 268.347656 101.253906 268.347656 101.253906 C 268.347656 101.253906 265.503906 93.554688 268.851562 88.535156 C 272.199219 83.511719 284.082031 86.191406 284.082031 86.191406 C 284.082031 86.191406 289.941406 81.503906 289.273438 78.15625 C 288.601562 74.808594 284.753906 64.597656 286.929688 56.5625 C 289.105469 48.53125 289.441406 52.210938 290.777344 47.523438 C 292.117188 42.839844 294.292969 37.148438 303.332031 38.988281 C 312.371094 40.832031 316.722656 33.964844 327.769531 36.144531 C 338.816406 38.320312 349.195312 43.339844 348.023438 53.21875 C 346.855469 63.09375 344.007812 63.761719 344.007812 63.761719 C 344.007812 63.761719 347.691406 73.472656 344.675781 76.652344 C 341.664062 79.832031 338.316406 71.964844 338.316406 71.964844 L 336.140625 71.464844 C 336.140625 71.464844 322.414062 86.191406 322.414062 91.882812 C 322.414062 97.574219 328.941406 108.121094 333.125 115.652344 C 337.3125 123.1875 341.328125 131.054688 347.019531 136.242188 C 352.710938 141.429688 356.226562 143.441406 356.226562 143.441406 C 356.226562 143.441406 359.070312 132.226562 359.742188 126.367188 C 360.410156 120.507812 362.421875 117.996094 365.601562 118.664062 C 368.78125 119.335938 371.792969 134.566406 365.933594 148.964844 C 365.933594 148.964844 372.296875 151.808594 373.636719 155.660156 C 374.976562 159.511719 371.625 162.523438 365.769531 164.699219 C 359.910156 166.875 350.199219 170.390625 344.84375 173.402344 C 339.488281 176.414062 326.933594 175.246094 326.933594 175.246094 C 326.933594 175.246094 325.261719 185.289062 321.746094 187.632812 C 321.746094 187.632812 320.40625 196.167969 315.71875 200.855469 C 315.71875 200.855469 316.390625 217.929688 306.011719 231.152344 C 295.632812 244.375 289.941406 244.878906 289.941406 244.878906 C 289.941406 244.878906 286.929688 252.410156 280.902344 255.425781 C 280.902344 255.425781 288.101562 280.53125 291.617188 284.882812 C 295.128906 289.234375 294.796875 295.933594 294.460938 297.269531 C 294.125 298.609375 293.625 300.953125 295.632812 303.296875 C 297.640625 305.640625 299.148438 309.65625 300.820312 310.828125 C 302.496094 312 310.195312 316.6875 312.707031 319.199219 C 315.21875 321.710938 319.066406 323.382812 320.40625 324.554688 C 321.746094 325.726562 326.097656 330.414062 323.753906 333.59375 C 321.410156 336.773438 317.894531 333.761719 317.894531 333.761719 C 317.894531 333.761719 318.734375 338.78125 314.714844 339.117188 C 310.699219 339.449219 302.160156 338.949219 302.160156 338.949219 C 302.160156 338.949219 302.832031 340.957031 296.46875 340.792969 C 290.109375 340.625 287.933594 337.777344 285.421875 337.277344 C 282.910156 336.773438 277.722656 335.265625 276.886719 331.921875 C 276.050781 328.574219 277.890625 323.382812 277.386719 321.710938 C 276.886719 320.035156 269.351562 312.167969 269.351562 312.167969 C 269.351562 312.167969 262.65625 298.777344 260.3125 296.9375 C 257.972656 295.09375 250.941406 291.078125 248.933594 286.894531 C 246.921875 282.707031 240.5625 267.476562 240.226562 266.636719 C 239.890625 265.800781 239.222656 264.628906 239.222656 264.628906 C 239.222656 264.628906 210.097656 266.804688 194.53125 272.832031 C 178.960938 278.859375 157.871094 279.863281 135.609375 273 C 113.347656 266.136719 99.285156 257.601562 92.757812 257.601562 C 86.230469 257.601562 87.566406 259.273438 83.71875 259.941406 C 79.867188 260.613281 78.53125 263.792969 74.175781 263.125 C 69.824219 262.453125 67.648438 261.113281 67.648438 261.113281 C 67.648438 261.113281 68.488281 267.140625 65.808594 269.820312 C 63.128906 272.5 75.683594 288.902344 76.6875 289.738281 C 77.691406 290.574219 78.863281 293.921875 78.863281 293.921875 C 78.863281 293.921875 88.40625 295.765625 89.746094 297.4375 C 91.085938 299.113281 100.457031 308.988281 100.792969 310.996094 C 101.128906 313.007812 92.757812 314.011719 92.757812 314.011719 C 92.757812 314.011719 92.589844 317.359375 88.574219 319.199219 C 84.554688 321.042969 77.691406 319.199219 77.691406 319.199219 C 77.691406 319.199219 72.503906 321.542969 67.484375 321.042969 C 62.460938 320.539062 54.761719 315.683594 53.925781 314.847656 C 53.085938 314.011719 51.078125 305.976562 47.730469 302.964844 C 44.382812 299.949219 39.695312 286.726562 37.019531 285.21875 L 31.914062 279.109375 Z M 31.910156 279.109375 " fill-opacity="1" fill-rule="nonzero"></path>
  <path fill="#c89e67" d="M 227.671875 268.8125 C 227.671875 268.8125 237.550781 266.300781 238.386719 266.972656 C 239.222656 267.640625 242.402344 276.011719 243.238281 279.527344 C 244.074219 283.042969 247.089844 287.558594 249.933594 290.910156 C 252.78125 294.257812 260.3125 299.613281 262.320312 302.792969 C 264.332031 305.972656 266.84375 312 266.84375 312 C 266.84375 312 254.121094 309.824219 248.933594 308.652344 C 243.742188 307.480469 244.578125 303.464844 242.738281 301.789062 C 240.894531 300.117188 238.886719 296.769531 236.210938 292.75 C 233.53125 288.734375 230.015625 279.695312 229.683594 278.019531 C 229.347656 276.347656 227.675781 268.816406 227.675781 268.816406 Z M 227.671875 268.8125 " fill-opacity="1" fill-rule="nonzero"></path>
</svg>
