<?xml version="1.0" encoding="UTF-8"?>
<svg xmlns="http://www.w3.org/2000/svg" xmlns:xlink="http://www.w3.org/1999/xlink" width="500" zoomAndPan="magnify" viewBox="0 0 375 374.999991" height="500" preserveAspectRatio="xMidYMid meet" version="1.0">
  <defs>
    <clipPath id="4467ed775a">
      <path d="M 0 83.203125 L 373 83.203125 L 373 291 L 0 291 Z M 0 83.203125 " clip-rule="nonzero"></path>
    </clipPath>
  </defs>
  <g clip-path="url(#4467ed775a)">
    <path fill="#c89e67" d="M 317.9375 105.007812 C 317.9375 103.21875 318.09375 101.351562 317.3125 99.796875 C 316.769531 100.183594 316.457031 101.117188 316.066406 101.664062 C 315.523438 100.808594 315.367188 99.40625 314.746094 98.472656 C 314.589844 99.40625 314.277344 100.261719 314.277344 101.195312 C 313.578125 99.484375 312.488281 97.539062 311.164062 96.214844 C 311.242188 97.382812 311.007812 98.785156 310.851562 99.949219 C 309.296875 98.472656 309.140625 95.359375 307.117188 94.113281 C 306.492188 95.59375 307.425781 97.695312 306.648438 99.09375 C 306.027344 97.773438 304.9375 96.761719 303.921875 95.828125 C 303.847656 96.761719 303.847656 97.773438 304.078125 98.707031 C 303.144531 97.226562 301.742188 95.980469 300.652344 94.582031 C 299.410156 95.75 298.550781 97.773438 297.382812 98.9375 C 297.382812 98.003906 297.230469 96.449219 296.527344 95.75 C 295.4375 96.527344 294.113281 98.082031 292.945312 98.472656 C 292.558594 94.347656 290.066406 97.695312 287.964844 97.382812 C 287.265625 94.191406 285.160156 96.371094 282.980469 96.527344 C 283.058594 96.136719 282.902344 95.515625 282.902344 95.125 C 280.957031 95.046875 279.710938 95.90625 277.921875 96.527344 C 278 96.136719 277.84375 95.75 277.921875 95.359375 C 276.132812 95.28125 274.339844 95.515625 272.472656 95.515625 C 271.304688 95.515625 270.136719 95.75 269.125 95.90625 C 269.28125 94.503906 269.4375 93.179688 269.359375 91.703125 C 268.503906 91.9375 267.878906 92.871094 267.023438 93.101562 C 266.945312 91.78125 267.257812 90.300781 266.011719 89.601562 C 265.855469 90.847656 265.464844 91.859375 264.609375 92.714844 C 264.375 91.15625 264.066406 89.601562 262.820312 88.511719 C 262.351562 90.070312 261.496094 91.703125 260.5625 93.027344 C 260.71875 91.390625 260.09375 89.058594 258.847656 88.046875 C 258.769531 89.757812 257.914062 91.46875 256.902344 92.636719 C 256.511719 91.003906 256.046875 87.8125 254.878906 86.722656 C 253.632812 88.046875 253.554688 90.222656 251.921875 91.3125 C 250.984375 88.511719 250.363281 85.789062 248.261719 83.609375 C 246.9375 84.699219 247.171875 89.058594 246.316406 90.847656 C 246.238281 89.523438 245.691406 87.113281 244.523438 86.332031 C 244.136719 87.734375 244.292969 89.679688 243.667969 91.003906 C 243.277344 89.601562 242.65625 86.878906 241.410156 86.023438 C 240.710938 87.578125 239.386719 88.746094 238.53125 90.144531 C 238.765625 87.5 237.519531 85.554688 236.351562 83.375 C 236.117188 86.253906 235.960938 88.589844 234.792969 91.234375 C 233.78125 89.835938 233.703125 87.035156 232.222656 86.101562 C 232.148438 87.421875 232.148438 88.589844 231.757812 89.757812 C 231.210938 89.210938 230.277344 86.179688 229.421875 86.566406 C 228.953125 86.722656 228.953125 88.902344 228.488281 89.367188 C 227.398438 86.957031 225.453125 85.242188 223.425781 83.765625 C 223.347656 85.476562 224.671875 86.800781 224.441406 88.511719 C 223.582031 87.421875 222.183594 86.179688 220.9375 85.789062 C 220.78125 86.722656 221.09375 87.578125 221.246094 88.433594 C 219.378906 87.265625 217.898438 85.398438 215.953125 84.308594 C 215.953125 84.855469 216.34375 86.566406 216.730469 87.96875 C 215.253906 86.957031 212.761719 86.101562 211.828125 85.398438 C 211.75 86.101562 211.828125 86.878906 211.984375 87.421875 C 210.117188 86.878906 208.089844 85.242188 206.300781 84.542969 C 206.378906 85.476562 207 86.332031 207.234375 87.1875 C 205.753906 86.179688 204.121094 85.476562 202.484375 84.699219 C 202.875 85.789062 203.886719 86.644531 204.042969 87.8125 C 201.863281 86.644531 199.449219 85.632812 197.113281 84.933594 C 197.972656 86.179688 199.605469 87.578125 199.839844 89.058594 C 197.113281 88.511719 194.3125 86.101562 191.507812 85.945312 C 191.585938 86.722656 192.132812 87.34375 192.445312 87.96875 C 191.199219 88.199219 189.40625 86.410156 188.316406 85.867188 C 187.070312 85.167969 185.671875 84.386719 184.347656 83.84375 C 184.191406 85.554688 186.371094 87.265625 186.683594 88.824219 C 185.671875 88.199219 181.390625 86.023438 180.300781 86.957031 C 179.363281 87.8125 182.011719 89.601562 182.480469 90.457031 C 180.144531 90.847656 177.808594 88.667969 175.550781 88.667969 C 175.9375 89.445312 176.71875 90.144531 176.875 90.925781 C 174.226562 91.546875 171.734375 88.199219 169.167969 88.667969 C 168.777344 90.070312 170.414062 90.613281 171.035156 91.625 C 169.246094 91.390625 165.976562 89.058594 164.261719 89.523438 C 162.472656 90.070312 164.496094 91.703125 165.429688 92.402344 C 163.484375 92.636719 161.148438 91.46875 159.125 91.390625 C 159.511719 92.089844 160.292969 92.714844 160.679688 93.414062 C 158.578125 93.804688 156.476562 92.636719 154.375 92.871094 C 154.53125 93.492188 155.308594 93.960938 155.699219 94.503906 C 154.53125 94.738281 153.363281 94.191406 152.195312 94.347656 C 151.726562 95.90625 147.523438 94.425781 146.199219 94.582031 C 146.199219 94.894531 146.199219 95.4375 146.355469 95.75 C 144.957031 95.359375 142.464844 95.203125 141.609375 95.203125 C 139.507812 95.203125 137.480469 94.816406 135.457031 95.046875 C 135.769531 95.671875 136.703125 96.371094 137.402344 96.917969 C 135.457031 96.992188 133.433594 96.371094 131.488281 96.917969 C 131.566406 97.070312 131.488281 97.304688 131.566406 97.539062 C 129.542969 98.316406 126.972656 97.695312 124.871094 98.160156 C 124.949219 98.785156 125.335938 99.328125 125.648438 99.796875 C 123.9375 100.652344 121.445312 99.640625 119.5 99.796875 C 119.578125 100.183594 119.421875 100.574219 119.65625 100.960938 C 118.566406 101.195312 117.242188 101.039062 116.152344 101.351562 C 114.90625 101.664062 115.449219 101.972656 114.75 102.519531 C 113.894531 103.140625 112.257812 102.753906 111.402344 103.6875 C 111.011719 104.074219 111.402344 104.929688 110.855469 105.320312 C 110.3125 105.785156 109.378906 105.007812 108.910156 105.398438 C 108.132812 106.019531 108.753906 106.332031 109.378906 106.796875 C 105.953125 106.796875 102.839844 108.820312 99.726562 110.222656 C 95.753906 112.011719 91.863281 114.113281 87.96875 116.214844 C 84.3125 118.238281 81.117188 120.648438 77.304688 122.4375 C 73.722656 124.074219 71.386719 126.953125 68.507812 129.597656 C 66.015625 131.933594 61.734375 134.734375 59.476562 137.847656 C 59.164062 138.003906 58.855469 138.234375 58.542969 138.46875 C 56.753906 139.636719 52.160156 142.980469 52.625 145.628906 C 53.484375 145.707031 54.339844 145.160156 55.117188 144.851562 C 54.027344 146.015625 52.625 146.796875 52.394531 148.585938 C 52.546875 148.507812 52.78125 148.507812 52.9375 148.429688 C 52.003906 149.984375 50.210938 151.773438 49.824219 153.644531 C 50.210938 153.566406 50.601562 153.566406 50.992188 153.253906 C 49.121094 154.886719 47.332031 157.300781 46.320312 159.710938 C 49.667969 159.089844 45.929688 164.457031 45.851562 166.015625 C 46.242188 165.78125 46.789062 165.78125 47.175781 165.625 C 46.867188 168.117188 45.851562 170.996094 45.074219 173.328125 C 45.386719 173.019531 45.929688 172.628906 46.164062 172.316406 C 46.398438 175.351562 43.363281 178.464844 43.828125 181.5 C 44.296875 181.421875 44.761719 181.578125 45.152344 181.34375 C 44.683594 182.980469 43.050781 184.457031 42.972656 186.089844 C 43.363281 186.011719 43.90625 186.246094 44.296875 186.167969 C 44.761719 188.269531 42.117188 190.058594 42.582031 192.394531 C 43.128906 192.394531 43.671875 192.238281 44.140625 192.003906 C 43.441406 193.792969 42.273438 195.507812 41.570312 197.375 C 42.039062 197.296875 42.660156 197.140625 43.128906 196.984375 C 42.582031 198.464844 41.726562 200.019531 41.570312 201.578125 C 42.972656 201.421875 43.207031 202.121094 43.128906 203.132812 C 40.324219 206.554688 37.523438 209.589844 35.265625 213.480469 C 33.085938 217.292969 30.4375 220.5625 28.335938 224.296875 C 28.105469 224.765625 27.714844 225.542969 27.167969 226.398438 C 26.078125 227.253906 24.988281 228.03125 23.898438 228.8125 C 21.332031 230.679688 17.59375 231.378906 15.414062 233.714844 C 13.3125 235.96875 13.078125 239.859375 12.535156 242.816406 C 11.832031 246.476562 10.898438 249.898438 9.652344 253.402344 C 8.875 255.578125 8.328125 257.835938 7.707031 260.09375 C 7.550781 260.480469 7.394531 260.792969 7.238281 261.027344 C 5.683594 263.90625 4.203125 266.863281 2.257812 269.429688 C 0.3125 272.074219 0.777344 274.800781 1.402344 277.835938 C 0.699219 280.402344 0 283.203125 1.011719 285.539062 C 2.414062 288.960938 5.214844 288.726562 7.941406 287.949219 C 8.484375 288.960938 9.34375 289.585938 11.132812 289.429688 C 13.78125 289.273438 18.0625 291.53125 18.996094 289.585938 C 18.917969 288.804688 18.605469 287.871094 18.605469 287.015625 C 19.773438 287.484375 21.410156 287.871094 22.03125 287.640625 C 23.433594 286.9375 22.421875 284.835938 21.796875 283.824219 C 20.242188 281.101562 17.203125 279.703125 15.570312 277.054688 C 16.113281 274.019531 16.972656 270.988281 17.90625 268.03125 C 20.007812 261.105469 24.210938 254.023438 28.570312 248.34375 C 31.0625 245.152344 33.863281 242.351562 37.289062 240.328125 C 39.9375 238.695312 42.582031 237.449219 44.996094 235.503906 C 44.996094 236.203125 44.996094 236.824219 44.996094 237.292969 C 44.839844 239.316406 44.917969 241.417969 45.464844 243.285156 C 46.554688 242.585938 47.175781 240.871094 48.1875 239.9375 C 47.253906 243.050781 45.621094 248.421875 46.398438 251.609375 C 46.941406 248.808594 49.667969 246.863281 50.914062 244.21875 C 51.925781 242.039062 53.328125 239.238281 53.25 236.75 C 53.871094 237.292969 53.949219 238.460938 54.027344 239.394531 C 54.726562 238.148438 54.574219 236.902344 54.648438 235.503906 C 55.273438 236.125 55.664062 237.371094 55.664062 238.382812 C 57.6875 235.816406 59.011719 229.355469 58.386719 225.230469 C 59.632812 224.609375 60.878906 223.910156 61.890625 223.285156 C 66.949219 220.40625 70.453125 216.75 74.113281 212.082031 C 75.824219 209.902344 77.617188 207.957031 79.09375 205.542969 C 80.105469 203.832031 81.273438 201.652344 82.753906 200.097656 C 83.375 200.875 84 201.730469 84.621094 202.511719 C 86.257812 204.535156 88.203125 206.089844 90.070312 207.878906 C 93.1875 210.992188 95.910156 214.882812 97.933594 218.851562 C 101.515625 225.777344 102.292969 234.023438 103.074219 241.726562 C 103.304688 244.140625 103.539062 246.707031 103.304688 249.199219 C 102.292969 251.066406 101.359375 252.933594 101.4375 255.035156 C 101.515625 258.847656 104.007812 260.871094 106.730469 262.738281 C 109.765625 264.761719 112.492188 267.097656 115.0625 269.742188 C 120.042969 274.722656 125.027344 280.480469 131.097656 284.058594 C 132.8125 288.726562 138.570312 289.816406 142.851562 287.484375 C 143.320312 287.714844 143.789062 287.949219 144.097656 288.105469 C 145.734375 288.804688 147.523438 288.417969 149.238281 288.496094 C 150.40625 288.574219 152.742188 289.660156 153.832031 289.351562 C 155.074219 288.960938 154.84375 287.640625 154.53125 286.394531 C 157.101562 286.394531 160.757812 286.472656 157.800781 283.203125 C 156.011719 281.257812 154.53125 279.625 152.039062 279.46875 C 151.417969 278.144531 149.78125 277.132812 148.613281 276.976562 C 146.980469 276.746094 145.421875 277.054688 143.789062 276.824219 C 142.386719 276.433594 140.90625 276.042969 139.660156 275.5 C 136.78125 274.332031 134.523438 271.375 132.1875 269.273438 C 127.050781 264.761719 123.3125 259.082031 121.601562 252.3125 C 121.132812 250.597656 120.667969 248.964844 120.277344 247.332031 C 120.746094 244.21875 121.523438 241.105469 122.457031 238.070312 C 125.257812 228.890625 127.207031 218.929688 127.828125 209.28125 C 128.140625 204.6875 128.140625 200.097656 128.0625 195.507812 C 128.0625 195.351562 128.0625 195.117188 128.0625 194.882812 C 128.839844 193.328125 130.554688 190.136719 131.644531 189.902344 C 131.722656 191.070312 131.953125 192.238281 132.109375 193.40625 C 132.65625 192.550781 133.589844 190.292969 134.601562 190.292969 C 134.757812 191.148438 134.679688 192.160156 134.992188 192.9375 C 135.613281 191.847656 136.703125 190.449219 138.027344 190.527344 C 138.183594 191.617188 137.792969 192.859375 137.871094 194.027344 C 139.273438 193.484375 140.75 191.460938 142.230469 191.539062 C 142.230469 192.160156 142.230469 192.785156 142.308594 193.40625 C 144.097656 193.171875 145.34375 190.449219 147.445312 190.527344 C 147.523438 191.304688 147.214844 192.003906 147.289062 192.785156 C 149.238281 192.707031 153.90625 189.4375 155.230469 191.226562 C 156.089844 192.316406 154.609375 193.640625 156.554688 192.550781 C 157.644531 192.003906 158.269531 190.605469 159.511719 190.527344 C 159.589844 191.695312 159.589844 192.859375 159.511719 194.027344 C 160.136719 193.171875 161.226562 190.914062 162.238281 190.605469 C 163.5625 190.214844 162.859375 191.539062 163.328125 192.550781 C 164.417969 191.925781 165.351562 190.214844 166.363281 189.828125 C 168 189.125 167.21875 190.683594 167.066406 192.003906 C 168.308594 191.070312 170.957031 190.136719 172.980469 189.902344 C 173.058594 199.476562 173.683594 208.96875 173.292969 218.539062 C 173.058594 224.609375 172.203125 230.367188 171.347656 236.359375 C 170.957031 238.847656 171.035156 241.417969 170.800781 243.90625 C 170.566406 245.851562 169.945312 247.640625 169.710938 249.585938 C 169.246094 253.710938 170.800781 255.8125 172.59375 258.304688 C 172.59375 260.480469 172.4375 262.660156 172.359375 264.839844 C 172.046875 269.742188 170.566406 275.890625 171.578125 280.714844 C 172.746094 286.082031 178.121094 284.914062 182.324219 285.148438 C 183.878906 286.082031 185.75 286.78125 187.226562 287.171875 C 189.097656 287.714844 193.300781 288.652344 195.011719 286.859375 C 195.945312 287.484375 196.957031 288.027344 197.660156 287.871094 C 198.359375 287.640625 198.671875 286.78125 198.671875 285.925781 C 200.152344 286.550781 202.019531 286.9375 203.1875 286.78125 C 203.34375 285.769531 202.484375 284.757812 201.707031 283.980469 C 202.097656 281.570312 197.425781 277.910156 195.789062 277.523438 C 194.078125 277.054688 192.367188 277.289062 190.652344 276.589844 C 189.097656 275.964844 187.617188 274.722656 186.058594 274.097656 C 185.980469 273.710938 185.902344 273.320312 185.828125 273.007812 C 184.96875 269.429688 184.96875 265.152344 185.75 261.570312 C 186.214844 259.390625 186.761719 257.214844 186.992188 255.035156 C 187.070312 253.945312 187.148438 252.855469 187.226562 251.765625 C 187.226562 251.53125 187.304688 251.066406 187.382812 250.675781 C 188.082031 248.964844 188.707031 247.253906 189.171875 245.542969 C 191.429688 237.136719 191.355469 228.265625 193.6875 219.863281 C 195.011719 215.195312 196.179688 210.523438 197.035156 205.777344 C 197.503906 203.289062 198.515625 201.03125 199.136719 198.621094 C 199.527344 197.140625 199.761719 195.507812 200.304688 193.949219 C 200.851562 194.730469 201.316406 195.738281 201.628906 196.519531 C 202.484375 195.429688 202.5625 193.5625 203.421875 192.628906 C 204.589844 191.460938 204.511719 193.09375 204.742188 194.417969 C 205.679688 193.71875 205.988281 191.773438 206.300781 190.683594 C 207.78125 190.527344 207.703125 192.707031 208.167969 193.71875 C 208.871094 191.847656 209.101562 189.671875 209.648438 187.726562 C 209.960938 188.191406 210.117188 188.816406 210.191406 189.515625 C 210.972656 188.425781 211.90625 187.414062 212.917969 186.558594 C 213.152344 187.257812 213.386719 187.957031 213.539062 188.738281 C 214.398438 191.695312 214.628906 194.882812 215.640625 197.839844 C 217.667969 203.523438 223.582031 205.390625 228.332031 207.800781 C 234.328125 210.835938 239.621094 214.960938 245.148438 218.851562 C 254.410156 225.464844 263.910156 231.691406 272.238281 239.628906 C 272.785156 241.804688 273.015625 244.140625 274.574219 245.929688 C 275.820312 247.332031 277.144531 247.796875 278.542969 248.03125 C 279.246094 250.445312 280.023438 252.777344 281.035156 255.035156 C 282.203125 257.523438 283.683594 259.703125 285.007812 262.117188 C 286.328125 264.527344 285.394531 267.40625 286.71875 269.898438 C 287.652344 271.6875 290.378906 274.488281 292.167969 275.34375 C 294.191406 276.355469 296.917969 275.8125 299.253906 275.578125 C 300.265625 276.746094 301.121094 278.300781 302.289062 278.769531 C 304.15625 279.546875 304.15625 277.367188 303.769531 275.734375 C 304.546875 275.65625 305.324219 275.421875 306.101562 274.953125 C 307.816406 276.355469 310.074219 277.910156 311.476562 277.289062 C 311.242188 276.433594 310.773438 275.578125 310.464844 274.800781 C 311.242188 274.566406 312.097656 274.175781 312.644531 273.632812 C 313.886719 274.097656 315.054688 274.878906 316.457031 274.175781 C 316.457031 273.398438 315.835938 271.84375 315.132812 271.140625 C 315.367188 268.261719 312.875 266.085938 310.386719 264.996094 C 307.582031 263.75 304.546875 262.660156 301.898438 261.105469 C 299.175781 259.546875 297.929688 256.824219 296.761719 254.023438 C 295.359375 250.753906 294.113281 247.175781 292.402344 244.0625 C 291.625 242.585938 290.84375 241.183594 290.222656 239.628906 C 289.832031 238.695312 289.597656 237.449219 289.132812 236.4375 C 288.742188 233.480469 288.355469 230.445312 286.953125 228.03125 C 284.851562 224.453125 279.710938 221.964844 276.597656 219.394531 C 272.941406 216.359375 269.824219 212.78125 266.246094 209.667969 C 261.886719 205.933594 258.460938 201.886719 255.96875 196.519531 C 254.800781 194.105469 254.023438 191.847656 253.554688 189.125 C 253.164062 186.945312 253.242188 184.691406 252.621094 182.589844 C 252.855469 181.8125 253.011719 181.035156 253.089844 180.332031 C 253.789062 176.285156 254.101562 179.242188 255.578125 181.265625 C 257.136719 179.554688 255.5 170.917969 258.769531 177.066406 C 259.859375 175.898438 259.394531 172.316406 259.9375 170.605469 C 260.328125 171.152344 260.71875 172.085938 261.261719 172.472656 C 261.730469 171.230469 261.960938 168.582031 263.207031 167.804688 C 264.765625 166.949219 264.144531 168.972656 265.464844 169.285156 C 266.089844 167.960938 267.179688 164.925781 268.65625 164.691406 C 268.890625 165.625 268.890625 167.027344 269.671875 167.570312 C 270.449219 166.171875 272.082031 164.535156 273.640625 164.847656 C 273.796875 165.78125 273.953125 166.636719 274.105469 167.570312 C 275.429688 166.558594 276.832031 164.304688 278.621094 164.070312 C 278.621094 164.769531 278.777344 165.394531 278.855469 166.09375 C 280.648438 166.328125 282.125 164.535156 283.996094 164.691406 C 284.226562 167.960938 286.953125 165.003906 288.742188 165.082031 C 288.820312 165.625 289.054688 166.09375 288.976562 166.714844 C 290.378906 166.636719 291.933594 165.703125 293.257812 165.082031 C 293.492188 165.546875 293.570312 166.171875 293.492188 166.714844 C 294.503906 166.480469 296.996094 163.679688 297.074219 166.328125 C 298.085938 166.09375 299.175781 164.304688 300.34375 164.457031 C 301.355469 164.535156 300.652344 165.46875 301.820312 165.238281 C 302.054688 165.160156 302.757812 164.304688 302.910156 164.226562 C 303.535156 164.925781 303.300781 165.859375 303.300781 166.714844 C 305.089844 166.25 306.804688 165.238281 308.75 164.847656 C 315.054688 163.601562 321.90625 164.535156 328.210938 163.449219 C 329.300781 163.757812 330.46875 163.992188 331.558594 164.304688 C 335.0625 165.160156 338.253906 166.480469 341.523438 167.882812 C 343.160156 168.582031 344.871094 169.515625 346.585938 169.828125 C 348.375 170.140625 349.777344 169.515625 351.488281 169.207031 C 354.757812 168.582031 357.484375 170.761719 360.675781 169.050781 C 363.554688 167.492188 366.4375 165.546875 368.226562 162.667969 C 369.785156 162.667969 371.261719 161.890625 372.351562 160.414062 C 375 156.675781 367.914062 151.308594 365.425781 149.363281 C 361.53125 146.328125 358.730469 142.515625 355.226562 139.089844 C 355.070312 138.15625 354.992188 137.144531 354.835938 136.132812 C 354.371094 132.632812 352.734375 129.910156 351.023438 126.953125 C 347.984375 121.503906 342.457031 116.371094 337.632812 112.789062 C 335.0625 110.84375 332.496094 109.289062 329.613281 108.199219 C 329.769531 106.410156 330.082031 104.621094 330.78125 102.828125 C 331.328125 101.273438 333.273438 96.371094 331.25 95.125 C 329.613281 94.191406 326.5 97.226562 325.175781 98.003906 C 323.152344 99.171875 321.363281 100.417969 319.570312 101.972656 C 319.414062 103.53125 318.636719 104.230469 317.9375 105.007812 Z M 317.9375 105.007812 " fill-opacity="1" fill-rule="nonzero"></path>
  </g>
</svg>
