<?xml version="1.0" encoding="UTF-8"?>
<svg xmlns="http://www.w3.org/2000/svg" xmlns:xlink="http://www.w3.org/1999/xlink" width="500" zoomAndPan="magnify" viewBox="0 0 375 374.999991" height="500" preserveAspectRatio="xMidYMid meet" version="1.0">
  <path fill="#c89e67" d="M 136.695312 250.695312 C 136.476562 251.6875 136.15625 252.433594 135.699219 252.820312 C 136.023438 252.128906 136.359375 251.414062 136.695312 250.695312 Z M 63.90625 357.117188 L 63.808594 356.953125 Z M 330.140625 140.425781 L 330.113281 140.367188 L 330.054688 140.242188 L 329.914062 140 L 329.871094 139.941406 L 329.835938 139.894531 L 329.75 139.789062 C 329.625 139.636719 329.484375 139.492188 329.320312 139.351562 L 329.265625 139.304688 C 329.117188 139.175781 328.949219 139.046875 328.773438 138.921875 L 328.632812 138.820312 C 328.460938 138.710938 328.28125 138.59375 328.105469 138.480469 L 328.019531 138.429688 C 327.804688 138.300781 327.578125 138.175781 327.359375 138.058594 L 327.28125 138.019531 C 327.085938 137.917969 326.890625 137.820312 326.699219 137.730469 L 326.574219 137.667969 C 326.371094 137.574219 326.183594 137.484375 326 137.402344 L 325.980469 137.398438 C 325.214844 137.0625 324.648438 136.855469 324.648438 136.855469 C 322.621094 134.15625 305.089844 122.855469 299.859375 119.511719 L 299.808594 119.480469 C 299.535156 119.308594 299.296875 119.15625 299.105469 119.03125 L 299.019531 118.976562 C 298.835938 118.859375 298.6875 118.769531 298.585938 118.703125 L 298.535156 118.671875 L 298.382812 118.574219 C 298.355469 118.457031 298.316406 118.335938 298.269531 118.207031 C 298.222656 118.097656 298.167969 117.980469 298.097656 117.851562 L 298.085938 117.828125 L 298.0625 117.792969 L 297.96875 117.632812 L 297.871094 117.472656 C 297.8125 117.378906 297.722656 117.265625 297.652344 117.167969 C 297.515625 116.976562 297.378906 116.78125 297.207031 116.570312 C 297.109375 116.453125 296.988281 116.316406 296.882812 116.195312 C 296.675781 115.957031 296.476562 115.722656 296.230469 115.46875 L 296.027344 115.265625 C 295.039062 114.242188 293.816406 113.128906 292.476562 111.984375 L 292.285156 111.828125 C 291.902344 111.496094 291.507812 111.171875 291.113281 110.847656 C 290.972656 110.734375 290.839844 110.621094 290.699219 110.511719 C 290.320312 110.203125 289.945312 109.898438 289.558594 109.59375 C 289.390625 109.464844 289.230469 109.335938 289.070312 109.207031 C 288.699219 108.917969 288.328125 108.632812 287.960938 108.347656 C 287.785156 108.214844 287.609375 108.078125 287.433594 107.941406 C 287.078125 107.667969 286.726562 107.402344 286.375 107.140625 L 286.1875 106.992188 C 286.496094 106.414062 286.800781 105.863281 287.070312 105.332031 C 287.214844 105.054688 287.351562 104.789062 287.484375 104.519531 C 287.738281 104.03125 287.972656 103.5625 288.1875 103.117188 C 288.285156 102.917969 288.398438 102.699219 288.488281 102.503906 L 288.519531 102.441406 C 288.75 101.957031 288.953125 101.507812 289.140625 101.082031 L 289.132812 101.101562 L 289.199219 100.949219 C 289.300781 100.710938 289.394531 100.496094 289.484375 100.269531 C 289.597656 100 289.703125 99.746094 289.796875 99.5 C 289.886719 99.28125 289.96875 99.0625 290.042969 98.863281 C 290.121094 98.65625 290.183594 98.46875 290.242188 98.28125 C 290.34375 97.972656 290.433594 97.695312 290.5 97.4375 C 290.539062 97.273438 290.589844 97.109375 290.621094 96.957031 C 290.65625 96.804688 290.675781 96.671875 290.699219 96.539062 C 290.714844 96.4375 290.730469 96.339844 290.742188 96.25 C 290.753906 96.132812 290.761719 96.019531 290.765625 95.917969 L 290.761719 95.707031 L 290.746094 95.453125 L 290.710938 95.324219 C 290.679688 95.210938 290.640625 95.109375 290.589844 95.039062 L 290.527344 94.941406 L 290.441406 94.863281 L 290.355469 94.8125 L 290.265625 94.777344 L 290.128906 94.75 L 290.027344 94.75 L 289.933594 94.761719 L 289.871094 94.773438 L 289.792969 94.789062 L 289.765625 94.800781 L 289.726562 94.808594 C 289.085938 95.339844 288.449219 95.875 287.816406 96.410156 L 287.703125 96.503906 C 287.078125 97.03125 286.472656 97.558594 285.871094 98.074219 L 285.761719 98.167969 C 285.167969 98.683594 284.59375 99.1875 284.039062 99.679688 L 283.933594 99.765625 C 283.398438 100.246094 282.886719 100.703125 282.398438 101.132812 L 282.320312 101.203125 L 282.324219 101.203125 C 282.191406 101.324219 282.054688 101.445312 281.929688 101.558594 L 281.9375 101.492188 C 281.960938 101.171875 281.988281 100.851562 282.011719 100.523438 L 282.039062 100.242188 C 282.167969 98.527344 282.289062 96.710938 282.410156 94.855469 L 282.414062 94.804688 C 282.441406 94.390625 282.460938 93.972656 282.488281 93.558594 L 282.507812 93.273438 C 282.535156 92.863281 282.558594 92.449219 282.582031 92.035156 L 282.605469 91.753906 C 282.621094 91.363281 282.652344 90.976562 282.671875 90.589844 C 282.679688 90.460938 282.6875 90.328125 282.695312 90.199219 C 282.855469 87.460938 283.003906 84.777344 283.125 82.355469 C 283.136719 82.179688 283.144531 82.007812 283.15625 81.84375 C 283.164062 81.558594 283.175781 81.285156 283.195312 81.011719 C 283.199219 80.886719 283.207031 80.757812 283.214844 80.628906 C 283.230469 80.316406 283.242188 80.007812 283.257812 79.710938 C 283.261719 79.574219 283.277344 79.441406 283.28125 79.3125 C 283.289062 79.054688 283.300781 78.796875 283.316406 78.554688 C 283.320312 78.433594 283.328125 78.324219 283.335938 78.203125 C 283.371094 77.367188 283.414062 76.601562 283.4375 75.914062 C 283.449219 75.753906 283.460938 75.585938 283.46875 75.433594 C 283.488281 74.980469 283.503906 74.582031 283.523438 74.21875 C 283.527344 74.074219 283.535156 73.941406 283.539062 73.8125 L 283.546875 73.710938 C 283.554688 73.507812 283.558594 73.335938 283.5625 73.175781 L 283.566406 73.105469 L 283.574219 72.953125 C 283.597656 72.574219 283.601562 72.347656 283.601562 72.347656 C 283.601562 71.859375 283.570312 71.386719 283.527344 70.921875 C 283.507812 70.761719 283.480469 70.617188 283.460938 70.464844 C 283.417969 70.15625 283.367188 69.847656 283.300781 69.546875 C 283.261719 69.371094 283.21875 69.199219 283.171875 69.03125 C 283.101562 68.761719 283.03125 68.488281 282.945312 68.226562 C 282.886719 68.046875 282.820312 67.878906 282.753906 67.703125 C 282.667969 67.453125 282.566406 67.203125 282.460938 66.957031 C 282.386719 66.785156 282.3125 66.617188 282.230469 66.445312 C 282.109375 66.207031 281.988281 65.972656 281.859375 65.738281 C 281.769531 65.574219 281.679688 65.417969 281.582031 65.257812 C 281.441406 65.023438 281.296875 64.792969 281.140625 64.5625 C 281.042969 64.414062 280.941406 64.269531 280.839844 64.121094 C 280.667969 63.886719 280.492188 63.652344 280.308594 63.425781 C 280.203125 63.296875 280.109375 63.164062 280.003906 63.039062 C 279.792969 62.785156 279.566406 62.539062 279.339844 62.296875 L 279.082031 62.007812 C 278.433594 61.332031 277.730469 60.6875 276.984375 60.082031 L 276.761719 59.902344 C 276.46875 59.660156 276.160156 59.421875 275.851562 59.195312 C 275.734375 59.109375 275.613281 59.023438 275.503906 58.941406 C 275.226562 58.746094 274.949219 58.546875 274.667969 58.355469 C 274.53125 58.265625 274.398438 58.175781 274.261719 58.085938 C 273.988281 57.90625 273.71875 57.734375 273.4375 57.5625 C 273.296875 57.476562 273.152344 57.386719 273.015625 57.300781 C 272.734375 57.132812 272.445312 56.972656 272.167969 56.808594 C 272.03125 56.730469 271.886719 56.652344 271.746094 56.570312 C 271.453125 56.414062 271.164062 56.253906 270.871094 56.101562 C 270.734375 56.03125 270.601562 55.960938 270.460938 55.890625 C 270.15625 55.730469 269.847656 55.578125 269.539062 55.425781 C 269.417969 55.367188 269.296875 55.308594 269.179688 55.257812 C 268.816406 55.082031 268.457031 54.914062 268.105469 54.757812 L 267.902344 54.664062 C 267.023438 54.273438 266.15625 53.914062 265.308594 53.582031 L 265.238281 53.558594 C 264.847656 53.402344 264.464844 53.257812 264.082031 53.121094 C 263.984375 53.082031 263.890625 53.054688 263.789062 53.015625 C 263.488281 52.910156 263.195312 52.800781 262.898438 52.699219 C 262.777344 52.660156 262.65625 52.617188 262.53125 52.574219 C 262.269531 52.488281 262.003906 52.394531 261.75 52.316406 C 261.625 52.273438 261.503906 52.234375 261.375 52.195312 C 261.144531 52.117188 260.90625 52.046875 260.671875 51.972656 C 260.539062 51.929688 260.410156 51.894531 260.285156 51.851562 C 260.070312 51.789062 259.859375 51.726562 259.664062 51.667969 C 259.535156 51.628906 259.410156 51.59375 259.285156 51.558594 C 259.089844 51.5 258.902344 51.449219 258.707031 51.398438 C 258.597656 51.363281 258.480469 51.335938 258.367188 51.300781 C 258.199219 51.253906 258.042969 51.210938 257.886719 51.171875 C 257.765625 51.140625 257.636719 51.105469 257.523438 51.078125 C 257.421875 51.046875 257.324219 51.027344 257.230469 51 C 255.816406 50.644531 254.957031 50.472656 254.957031 50.472656 C 233.023438 46.632812 220.269531 0.03125 220.269531 0.03125 C 224.921875 21.097656 228.878906 33.53125 232.492188 41.1875 L 232.492188 41.183594 L 232.515625 41.230469 C 233.847656 44.042969 235.128906 46.210938 236.382812 47.917969 L 236.417969 47.957031 C 236.625 48.242188 236.839844 48.515625 237.050781 48.773438 L 237.105469 48.851562 C 237.3125 49.105469 237.519531 49.347656 237.722656 49.582031 L 237.773438 49.636719 C 237.984375 49.875 238.191406 50.097656 238.402344 50.316406 L 238.40625 50.320312 C 239.472656 51.414062 240.523438 52.242188 241.578125 52.929688 L 241.707031 53.015625 C 241.875 53.121094 242.035156 53.21875 242.207031 53.324219 L 242.394531 53.4375 C 242.550781 53.523438 242.699219 53.613281 242.851562 53.699219 L 242.875 53.710938 L 243.09375 53.832031 C 243.238281 53.910156 243.382812 53.992188 243.523438 54.066406 L 243.808594 54.210938 C 243.941406 54.28125 244.070312 54.347656 244.203125 54.414062 C 244.308594 54.46875 244.421875 54.523438 244.519531 54.574219 L 244.570312 54.597656 C 244.6875 54.65625 244.796875 54.710938 244.902344 54.765625 C 245.042969 54.832031 245.175781 54.898438 245.3125 54.964844 C 245.621094 55.113281 245.933594 55.265625 246.242188 55.421875 C 254.601562 59.574219 271.550781 61.222656 273.550781 73.195312 C 273.664062 73.871094 273.742188 74.582031 273.8125 75.304688 C 273.835938 75.539062 273.851562 75.777344 273.867188 76.019531 C 273.90625 76.53125 273.933594 77.050781 273.957031 77.582031 C 273.964844 77.84375 273.972656 78.101562 273.984375 78.363281 C 273.992188 78.953125 273.992188 79.554688 273.984375 80.15625 C 273.984375 80.34375 273.984375 80.523438 273.980469 80.707031 C 273.960938 81.484375 273.925781 82.277344 273.875 83.0625 C 273.863281 83.304688 273.847656 83.546875 273.828125 83.785156 C 273.789062 84.363281 273.742188 84.933594 273.691406 85.507812 C 273.667969 85.796875 273.640625 86.085938 273.609375 86.371094 C 273.550781 86.933594 273.492188 87.496094 273.425781 88.050781 C 273.398438 88.296875 273.371094 88.535156 273.34375 88.777344 C 273.246094 89.554688 273.148438 90.332031 273.03125 91.085938 C 273.015625 91.230469 272.988281 91.367188 272.96875 91.507812 C 272.875 92.140625 272.773438 92.765625 272.675781 93.378906 C 272.648438 93.542969 272.617188 93.707031 272.589844 93.875 C 272.546875 93.777344 272.507812 93.675781 272.46875 93.578125 C 272.308594 93.210938 272.128906 92.859375 271.964844 92.496094 C 271.722656 91.980469 271.476562 91.46875 271.226562 90.960938 C 271.027344 90.566406 270.828125 90.183594 270.625 89.796875 C 270.367188 89.3125 270.105469 88.828125 269.847656 88.347656 C 269.644531 87.996094 269.449219 87.636719 269.246094 87.289062 C 268.820312 86.546875 268.386719 85.820312 267.945312 85.101562 C 267.769531 84.824219 267.59375 84.554688 267.410156 84.277344 C 267.074219 83.742188 266.730469 83.210938 266.394531 82.699219 C 266.1875 82.390625 265.984375 82.097656 265.777344 81.796875 C 265.457031 81.328125 265.136719 80.867188 264.8125 80.410156 C 264.628906 80.148438 264.441406 79.890625 264.261719 79.636719 C 263.792969 78.996094 263.328125 78.367188 262.871094 77.765625 C 262.796875 77.667969 262.722656 77.578125 262.652344 77.480469 C 262.210938 76.90625 261.773438 76.355469 261.34375 75.824219 C 261.191406 75.628906 261.039062 75.445312 260.882812 75.257812 C 260.722656 75.054688 260.550781 74.84375 260.394531 74.652344 L 260.40625 74.683594 C 258.652344 72.566406 257.113281 70.882812 256.089844 69.871094 C 254.265625 68.042969 249.359375 66.011719 244.074219 64.21875 L 244.003906 64.195312 C 241.101562 63.210938 238.101562 62.304688 235.421875 61.539062 L 235.351562 61.515625 C 232.667969 60.746094 230.332031 60.128906 228.78125 59.730469 L 228.777344 59.726562 C 228.160156 59.570312 227.667969 59.445312 227.328125 59.359375 L 227.261719 59.34375 C 227.144531 59.316406 227.050781 59.289062 226.980469 59.273438 L 226.875 59.25 L 226.785156 59.226562 C 224.957031 58.476562 223.195312 57.707031 221.496094 56.929688 L 221.457031 56.914062 C 220.949219 56.675781 220.46875 56.429688 219.96875 56.191406 C 218.800781 55.636719 217.640625 55.074219 216.535156 54.496094 C 216.003906 54.214844 215.484375 53.9375 214.964844 53.652344 C 213.929688 53.09375 212.914062 52.53125 211.9375 51.960938 C 211.46875 51.683594 211 51.402344 210.539062 51.117188 C 209.542969 50.515625 208.582031 49.902344 207.648438 49.292969 C 174.78125 27.613281 180.167969 0.03125 180.167969 0.03125 C 178.917969 4.285156 178.320312 8.355469 178.257812 12.238281 L 178.257812 12.234375 C 178.238281 13.46875 178.28125 14.675781 178.367188 15.863281 C 178.398438 16.269531 178.460938 16.660156 178.5 17.058594 C 178.585938 17.847656 178.667969 18.632812 178.792969 19.402344 C 178.867188 19.875 178.972656 20.332031 179.066406 20.789062 C 179.203125 21.476562 179.339844 22.164062 179.511719 22.835938 C 179.632812 23.316406 179.773438 23.785156 179.910156 24.261719 C 179.957031 24.40625 179.992188 24.554688 180.035156 24.707031 L 179.988281 24.609375 C 180.023438 24.71875 180.066406 24.828125 180.097656 24.9375 C 180.230469 25.347656 180.359375 25.753906 180.5 26.160156 C 180.613281 26.488281 180.722656 26.816406 180.84375 27.140625 C 180.933594 27.375 181.023438 27.609375 181.113281 27.835938 C 181.316406 28.351562 181.527344 28.867188 181.75 29.375 C 181.949219 29.839844 182.152344 30.296875 182.367188 30.75 C 182.59375 31.230469 182.824219 31.703125 183.070312 32.175781 C 183.179688 32.398438 183.300781 32.621094 183.410156 32.84375 C 183.589844 33.167969 183.761719 33.488281 183.945312 33.808594 C 184.144531 34.160156 184.339844 34.503906 184.546875 34.851562 C 184.707031 35.125 184.875 35.390625 185.046875 35.667969 C 185.265625 36.027344 185.492188 36.390625 185.726562 36.746094 C 185.875 36.976562 186.023438 37.210938 186.179688 37.4375 C 186.371094 37.722656 186.582031 38 186.78125 38.285156 L 186.902344 38.453125 C 187.160156 38.820312 187.417969 39.203125 187.691406 39.570312 C 188.148438 40.1875 188.632812 40.789062 189.117188 41.390625 C 189.355469 41.6875 189.578125 41.988281 189.828125 42.28125 C 190.195312 42.726562 190.585938 43.15625 190.964844 43.589844 C 191.222656 43.882812 191.480469 44.179688 191.742188 44.46875 C 191.859375 44.59375 191.96875 44.730469 192.085938 44.855469 C 192.28125 45.066406 192.496094 45.273438 192.695312 45.480469 C 192.792969 45.585938 192.898438 45.695312 193 45.796875 C 193.292969 46.101562 193.582031 46.410156 193.882812 46.707031 C 194.089844 46.917969 194.289062 47.128906 194.503906 47.339844 C 194.757812 47.585938 195.011719 47.820312 195.265625 48.0625 C 195.542969 48.328125 195.824219 48.589844 196.105469 48.855469 C 196.417969 49.140625 196.71875 49.433594 197.039062 49.714844 C 197.25 49.90625 197.464844 50.097656 197.679688 50.285156 C 197.917969 50.492188 198.15625 50.695312 198.390625 50.898438 C 198.8125 51.265625 199.234375 51.625 199.664062 51.980469 C 200.058594 52.3125 200.460938 52.628906 200.859375 52.949219 C 201.285156 53.296875 201.710938 53.636719 202.140625 53.96875 C 202.261719 54.066406 202.382812 54.152344 202.5 54.246094 C 202.863281 54.527344 203.230469 54.796875 203.601562 55.074219 C 203.921875 55.3125 204.242188 55.558594 204.570312 55.796875 C 204.71875 55.90625 204.863281 56 205.011719 56.105469 L 205.121094 56.179688 C 205.53125 56.484375 205.949219 56.777344 206.371094 57.066406 C 206.882812 57.425781 207.398438 57.773438 207.921875 58.125 C 208.304688 58.382812 208.691406 58.644531 209.078125 58.894531 L 209.335938 59.066406 C 209.808594 59.371094 210.28125 59.660156 210.75 59.960938 C 211.152344 60.214844 211.550781 60.464844 211.949219 60.710938 C 212.378906 60.972656 212.804688 61.226562 213.234375 61.480469 C 213.535156 61.660156 213.84375 61.84375 214.148438 62.015625 C 214.339844 62.132812 214.535156 62.25 214.730469 62.359375 C 215.046875 62.539062 215.359375 62.714844 215.671875 62.894531 C 216.042969 63.101562 216.414062 63.3125 216.78125 63.511719 C 217.011719 63.640625 217.246094 63.773438 217.472656 63.898438 C 217.683594 64.011719 217.890625 64.117188 218.101562 64.230469 C 218.476562 64.433594 218.859375 64.628906 219.226562 64.824219 C 219.53125 64.984375 219.839844 65.152344 220.136719 65.304688 C 220.28125 65.378906 220.425781 65.449219 220.574219 65.527344 C 220.925781 65.703125 221.269531 65.875 221.621094 66.046875 C 222 66.242188 222.382812 66.433594 222.761719 66.617188 C 223.070312 66.765625 223.371094 66.90625 223.679688 67.054688 C 223.796875 67.113281 223.914062 67.164062 224.027344 67.21875 C 224.378906 67.386719 224.734375 67.558594 225.078125 67.714844 L 225.304688 67.820312 C 225.652344 67.976562 225.984375 68.128906 226.320312 68.277344 C 226.601562 68.402344 226.890625 68.535156 227.171875 68.660156 C 227.359375 68.746094 227.539062 68.824219 227.726562 68.90625 C 228.027344 69.035156 228.328125 69.160156 228.613281 69.289062 C 228.832031 69.375 229.050781 69.472656 229.269531 69.5625 C 229.527344 69.671875 229.777344 69.777344 230.03125 69.878906 C 230.277344 69.980469 230.515625 70.082031 230.753906 70.179688 C 230.925781 70.246094 231.09375 70.3125 231.261719 70.378906 C 231.550781 70.496094 231.828125 70.601562 232.109375 70.710938 C 232.21875 70.753906 232.34375 70.808594 232.464844 70.847656 C 232.640625 70.921875 232.8125 70.988281 232.988281 71.054688 L 233.128906 71.101562 C 233.390625 71.203125 233.644531 71.292969 233.898438 71.390625 C 234.117188 71.472656 234.335938 71.554688 234.550781 71.628906 C 234.699219 71.683594 234.84375 71.730469 234.996094 71.785156 C 235.183594 71.855469 235.363281 71.917969 235.546875 71.980469 C 235.789062 72.066406 236.019531 72.140625 236.242188 72.214844 C 236.394531 72.269531 236.550781 72.324219 236.699219 72.371094 C 236.808594 72.40625 236.917969 72.441406 237.023438 72.476562 C 237.292969 72.566406 237.546875 72.640625 237.796875 72.71875 C 237.925781 72.757812 238.066406 72.800781 238.1875 72.839844 L 238.328125 72.882812 C 238.730469 73 239.105469 73.105469 239.445312 73.195312 C 249.328125 75.789062 259.199219 95.816406 263.058594 104.480469 C 262.65625 104.792969 262.273438 105.128906 261.898438 105.472656 C 261.769531 105.585938 261.625 105.6875 261.5 105.804688 L 261.5 105.796875 C 260.289062 100.867188 257.566406 98.445312 256.917969 97.921875 L 256.882812 97.902344 L 256.757812 97.804688 C 250.765625 96.476562 253.761719 112.769531 253.761719 112.769531 C 253.707031 113.054688 253.691406 113.398438 253.691406 113.769531 L 253.695312 114.015625 C 253.710938 114.394531 253.730469 114.785156 253.789062 115.222656 L 253.789062 115.246094 L 253.792969 115.238281 C 253.886719 115.949219 254.03125 116.71875 254.203125 117.511719 C 254.085938 117.816406 253.980469 118.121094 253.867188 118.425781 C 253.796875 118.613281 253.722656 118.800781 253.660156 118.988281 C 253.421875 119.664062 253.207031 120.332031 253.011719 120.964844 C 251.414062 126.1875 249.128906 132.210938 247.101562 137.257812 L 247.101562 137.253906 C 246.484375 138.78125 245.894531 140.21875 245.359375 141.515625 L 245.347656 141.542969 C 245.089844 142.160156 244.839844 142.742188 244.613281 143.292969 L 244.550781 143.445312 C 244.332031 143.949219 244.132812 144.421875 243.945312 144.851562 L 243.867188 145.035156 C 243.703125 145.429688 243.550781 145.777344 243.410156 146.097656 L 243.304688 146.355469 C 243.191406 146.605469 243.097656 146.816406 243.011719 147.015625 C 242.96875 147.113281 242.921875 147.230469 242.882812 147.3125 C 242.816406 147.46875 242.769531 147.578125 242.722656 147.683594 L 242.640625 147.871094 C 242.59375 147.980469 242.554688 148.058594 242.554688 148.058594 C 242.304688 148.6875 242.03125 149.285156 241.730469 149.855469 C 241.617188 150.089844 241.480469 150.296875 241.351562 150.523438 C 241.167969 150.84375 240.988281 151.171875 240.792969 151.476562 C 240.628906 151.746094 240.445312 151.984375 240.265625 152.234375 C 240.101562 152.472656 239.941406 152.710938 239.769531 152.933594 C 239.554688 153.207031 239.335938 153.460938 239.113281 153.71875 C 238.96875 153.886719 238.828125 154.066406 238.679688 154.222656 C 238.425781 154.507812 238.160156 154.773438 237.894531 155.03125 C 237.777344 155.144531 237.667969 155.261719 237.554688 155.363281 C 237.246094 155.65625 236.933594 155.921875 236.625 156.179688 L 236.417969 156.363281 C 236.0625 156.652344 235.703125 156.921875 235.347656 157.179688 L 235.285156 157.222656 C 234.910156 157.492188 234.53125 157.746094 234.160156 157.976562 C 230.90625 160.019531 228.117188 160.660156 228.117188 160.660156 C 227.675781 160.878906 227.222656 161.066406 226.765625 161.238281 C 226.648438 161.285156 226.527344 161.324219 226.414062 161.367188 C 226.125 161.460938 225.832031 161.546875 225.535156 161.628906 C 225.402344 161.667969 225.265625 161.714844 225.121094 161.753906 C 225.015625 161.777344 224.898438 161.804688 224.785156 161.828125 C 224.46875 161.902344 224.148438 161.960938 223.820312 162.019531 L 223.679688 162.046875 C 223.476562 162.078125 223.265625 162.109375 223.058594 162.132812 C 222.8125 162.171875 222.5625 162.191406 222.316406 162.214844 C 221.867188 162.257812 221.417969 162.285156 220.96875 162.300781 L 220.804688 162.304688 L 220.617188 162.3125 C 220.300781 162.316406 219.984375 162.316406 219.671875 162.3125 L 219.636719 162.308594 C 214.714844 162.195312 210.332031 160.699219 209.273438 160.308594 L 209.214844 160.289062 C 209.109375 160.246094 209.023438 160.214844 209.023438 160.214844 C 200.113281 156.667969 182.832031 163.652344 182.832031 163.652344 C 182.410156 163.636719 181.949219 163.628906 181.449219 163.628906 L 181.160156 163.628906 C 177.824219 163.640625 173 163.957031 167.355469 163.972656 C 160.046875 163.992188 151.378906 163.503906 142.8125 161.148438 C 142.257812 160.996094 141.667969 160.84375 141.054688 160.691406 C 140.894531 160.652344 140.722656 160.613281 140.558594 160.570312 C 140.101562 160.464844 139.640625 160.355469 139.167969 160.246094 C 138.972656 160.203125 138.765625 160.15625 138.570312 160.113281 C 138.113281 160.007812 137.648438 159.910156 137.1875 159.808594 C 136.976562 159.765625 136.757812 159.722656 136.542969 159.679688 C 136.074219 159.582031 135.59375 159.480469 135.113281 159.390625 C 134.902344 159.347656 134.699219 159.304688 134.492188 159.265625 C 133.976562 159.164062 133.46875 159.070312 132.960938 158.972656 C 132.785156 158.941406 132.613281 158.90625 132.4375 158.875 C 131.878906 158.769531 131.328125 158.667969 130.769531 158.570312 C 130.632812 158.542969 130.492188 158.519531 130.351562 158.496094 C 129.742188 158.386719 129.144531 158.28125 128.542969 158.175781 L 128.300781 158.132812 C 124.320312 157.445312 120.589844 156.851562 117.933594 156.382812 L 117.636719 156.324219 C 117.355469 156.277344 117.097656 156.230469 116.847656 156.179688 C 116.703125 156.15625 116.550781 156.128906 116.417969 156.101562 C 116.195312 156.058594 116.003906 156.019531 115.808594 155.980469 C 115.261719 155.871094 114.792969 155.765625 114.492188 155.671875 C 111.503906 154.777344 102.175781 157.570312 102.175781 157.570312 C 98.894531 159.359375 85.929688 163.324219 85.929688 163.324219 C 83.5625 163.988281 81.546875 164.980469 79.820312 166.125 L 79.824219 166.109375 C 79.824219 166.109375 44.335938 171.851562 74.105469 233.523438 C 75.09375 239.425781 75.855469 245.78125 75.792969 251.148438 C 75.738281 255.738281 75.082031 259.605469 73.441406 261.828125 C 73.441406 261.828125 48.132812 287.636719 50.796875 293.628906 C 50.796875 293.628906 62.597656 344.65625 63.316406 355.347656 C 63.320312 355.785156 63.421875 362.1875 62.582031 366.199219 C 62.582031 366.199219 63.832031 369.359375 66.328125 368.699219 L 67.492188 370.03125 C 67.492188 370.03125 74.195312 371.738281 78.996094 369.195312 C 78.996094 369.195312 70.109375 353.8125 70.011719 352.644531 L 69.914062 352.789062 C 69.902344 350.8125 69.917969 347.722656 70.011719 342.84375 C 70.011719 342.84375 63.355469 306.925781 70.011719 291.628906 C 70.011719 291.628906 71.714844 290.234375 74.40625 287.933594 C 73.933594 289.058594 74.105469 289.636719 74.105469 289.636719 C 73.214844 293.628906 84.097656 304.265625 84.097656 304.265625 C 85.636719 307.59375 95.753906 325.21875 95.753906 325.21875 C 96.304688 326.1875 96.828125 327.140625 97.339844 328.078125 C 97.523438 328.421875 97.695312 328.757812 97.875 329.097656 C 98.1875 329.679688 98.488281 330.269531 98.78125 330.839844 C 98.972656 331.222656 99.160156 331.59375 99.347656 331.972656 C 99.597656 332.484375 99.847656 332.992188 100.089844 333.492188 C 100.277344 333.875 100.453125 334.253906 100.628906 334.628906 C 100.847656 335.101562 101.058594 335.558594 101.265625 336.011719 C 101.4375 336.390625 101.605469 336.761719 101.765625 337.132812 C 101.953125 337.5625 102.140625 337.988281 102.316406 338.40625 C 102.472656 338.761719 102.628906 339.128906 102.777344 339.476562 C 102.933594 339.875 103.09375 340.257812 103.246094 340.640625 C 103.382812 340.984375 103.53125 341.339844 103.664062 341.675781 C 103.777344 341.972656 103.882812 342.25 103.988281 342.542969 C 104.128906 342.90625 104.277344 343.28125 104.402344 343.628906 L 104.40625 343.625 C 106.707031 349.859375 107.410156 353.625 107.410156 353.625 C 108.597656 355.429688 109.546875 356.925781 110.324219 358.171875 L 111.867188 370.625 C 118.980469 373.136719 127.851562 370.625 127.851562 370.625 L 127.851562 369.28125 C 125.25 363.460938 117.558594 353.222656 117.160156 352.695312 C 114.839844 344.175781 100.75 302.933594 100.75 302.933594 C 99.417969 299.609375 100.75 294.292969 100.75 294.292969 C 102.746094 289.636719 113.378906 283.0625 113.378906 283.0625 C 118.929688 276.460938 125.328125 269.183594 125.328125 269.183594 C 130.351562 263.445312 132.914062 258.714844 135.695312 252.824219 C 135.710938 252.8125 136.996094 251.945312 138.242188 250.257812 C 138.871094 250.414062 139.503906 250.574219 140.148438 250.71875 L 140.164062 250.71875 C 155.519531 254.144531 174.667969 252.757812 188.101562 251.027344 C 190.1875 256.621094 193.265625 262.894531 193.40625 265.792969 C 193.65625 270.773438 193.921875 279.359375 193.921875 279.359375 C 194.511719 284.265625 194.898438 287.574219 195.34375 290.320312 L 195.347656 290.351562 C 195.871094 293.527344 196.46875 295.949219 197.5625 299.195312 C 197.832031 300 198.058594 301.242188 198.25 302.71875 C 198.285156 302.988281 198.320312 303.273438 198.355469 303.558594 C 198.375 303.777344 198.398438 303.992188 198.421875 304.214844 C 198.457031 304.507812 198.488281 304.808594 198.511719 305.117188 C 198.535156 305.355469 198.554688 305.589844 198.578125 305.835938 C 198.601562 306.140625 198.628906 306.445312 198.65625 306.761719 C 198.675781 307.035156 198.695312 307.3125 198.71875 307.59375 C 198.738281 307.957031 198.765625 308.3125 198.792969 308.679688 C 198.816406 309.148438 198.851562 309.621094 198.871094 310.09375 C 198.890625 310.386719 198.90625 310.6875 198.921875 310.976562 C 198.9375 311.277344 198.949219 311.582031 198.96875 311.878906 C 198.984375 312.164062 198.992188 312.445312 199 312.726562 C 199.011719 313.03125 199.03125 313.335938 199.039062 313.636719 C 199.054688 313.902344 199.0625 314.164062 199.070312 314.425781 C 199.082031 314.742188 199.097656 315.050781 199.105469 315.355469 C 199.117188 315.578125 199.121094 315.796875 199.125 316.011719 C 199.136719 316.402344 199.144531 316.777344 199.164062 317.136719 C 199.164062 317.25 199.167969 317.367188 199.171875 317.476562 C 199.183594 317.941406 199.191406 318.378906 199.199219 318.785156 C 199.203125 318.910156 199.210938 319.019531 199.210938 319.132812 C 199.21875 319.414062 199.222656 319.691406 199.226562 319.933594 C 199.226562 320.054688 199.230469 320.167969 199.230469 320.28125 C 199.234375 320.46875 199.238281 320.648438 199.238281 320.804688 C 199.242188 320.914062 199.242188 321.03125 199.246094 321.121094 C 199.246094 321.222656 199.246094 321.308594 199.246094 321.382812 L 199.253906 321.605469 L 199.253906 321.75 C 197.875 326.179688 199.875 343.851562 199.875 343.851562 C 199.839844 344.464844 199.800781 345.097656 199.773438 345.730469 C 199.765625 345.855469 199.757812 345.976562 199.753906 346.101562 C 199.695312 347.402344 199.652344 348.710938 199.621094 349.980469 L 199.617188 350.132812 C 199.496094 355.15625 199.5625 359.441406 199.5625 359.441406 L 199.601562 359.492188 C 199.640625 361.503906 199.714844 364.464844 199.839844 368.605469 L 200.410156 369.902344 C 200.410156 369.902344 208.234375 374.976562 216.386719 370.988281 L 217.140625 370.027344 L 208.546875 356.304688 L 208.542969 356.308594 C 207.769531 354.71875 206.859375 353.480469 206.859375 353.480469 C 206.375 347.996094 206.324219 337.292969 206.375 328.703125 L 206.378906 328.703125 C 206.425781 322.058594 206.523438 316.6875 206.539062 315.964844 L 206.539062 315.875 C 208.65625 311.003906 207.527344 302.585938 207.527344 302.585938 C 207.527344 301.679688 207.566406 300.796875 207.628906 299.910156 L 207.636719 299.820312 C 207.707031 298.953125 207.804688 298.082031 207.925781 297.195312 C 208.359375 294.050781 209.101562 290.683594 209.945312 286.175781 C 210 285.910156 210.050781 285.636719 210.101562 285.363281 C 210.175781 284.960938 210.246094 284.550781 210.324219 284.132812 C 210.378906 283.8125 210.4375 283.492188 210.496094 283.164062 C 210.574219 282.722656 210.652344 282.265625 210.730469 281.804688 C 210.78125 281.488281 210.832031 281.179688 210.886719 280.855469 C 211.019531 280.066406 211.152344 279.25 211.28125 278.390625 C 212.53125 270.207031 213.480469 261.589844 213.816406 258.386719 C 215.066406 261.441406 216.082031 264.15625 216.164062 265.792969 C 216.414062 270.773438 216.683594 279.359375 216.683594 279.359375 C 216.851562 280.773438 217.003906 282.050781 217.144531 283.226562 C 217.171875 283.421875 217.191406 283.609375 217.214844 283.800781 C 217.265625 284.195312 217.3125 284.589844 217.355469 284.964844 C 217.382812 285.152344 217.40625 285.335938 217.429688 285.519531 C 217.472656 285.847656 217.507812 286.175781 217.554688 286.492188 C 217.578125 286.695312 217.605469 286.894531 217.628906 287.085938 C 217.667969 287.375 217.707031 287.648438 217.746094 287.917969 C 217.769531 288.113281 217.796875 288.304688 217.824219 288.492188 C 217.859375 288.769531 217.902344 289.039062 217.945312 289.3125 C 217.964844 289.464844 217.992188 289.617188 218.015625 289.761719 C 218.074219 290.136719 218.132812 290.5 218.195312 290.859375 L 218.203125 290.953125 C 218.273438 291.351562 218.347656 291.738281 218.425781 292.117188 L 218.425781 292.144531 L 218.425781 292.117188 C 218.640625 293.261719 218.886719 294.347656 219.183594 295.449219 L 219.179688 295.445312 L 219.179688 295.449219 L 219.222656 295.605469 C 219.367188 296.132812 219.515625 296.660156 219.683594 297.210938 L 219.730469 297.355469 C 219.910156 297.949219 220.109375 298.554688 220.320312 299.195312 C 221.847656 303.734375 222.007812 321.75 222.007812 321.75 C 220.628906 326.179688 222.632812 343.851562 222.632812 343.851562 C 222.511719 345.769531 222.433594 347.785156 222.386719 349.710938 L 222.382812 349.738281 C 222.332031 351.648438 222.316406 353.457031 222.304688 354.996094 L 222.308594 354.996094 C 222.207031 356.871094 221.933594 361.476562 221.273438 368.6875 L 221.84375 369.992188 C 221.84375 369.992188 228.960938 373.527344 237.117188 369.535156 L 237.328125 368.617188 L 229.753906 353.667969 C 229.753906 353.667969 229.617188 353.769531 229.394531 353.914062 C 229.511719 353.832031 229.617188 353.722656 229.742188 353.648438 C 229.660156 353.539062 229.617188 353.480469 229.617188 353.480469 C 228.925781 345.644531 229.125 327.144531 229.234375 319.390625 L 229.234375 319.347656 C 229.242188 319.210938 229.242188 319.09375 229.246094 318.964844 C 229.246094 318.789062 229.253906 318.617188 229.257812 318.453125 C 229.257812 318.332031 229.261719 318.222656 229.261719 318.113281 C 229.277344 316.710938 229.296875 315.875 229.296875 315.875 C 231.414062 311.003906 230.285156 302.585938 230.285156 302.585938 C 230.285156 295.945312 232.167969 290.65625 234.035156 278.390625 C 234.140625 277.734375 234.238281 277.066406 234.332031 276.40625 C 234.410156 275.925781 234.472656 275.449219 234.542969 274.96875 C 234.5625 274.796875 234.59375 274.613281 234.617188 274.4375 C 234.695312 273.871094 234.769531 273.308594 234.847656 272.75 L 234.875 272.542969 C 234.957031 271.960938 235.03125 271.390625 235.105469 270.820312 L 235.128906 270.636719 C 235.527344 267.628906 235.859375 264.816406 236.117188 262.554688 L 236.113281 262.589844 C 236.25 261.386719 236.367188 260.351562 236.457031 259.496094 C 236.472656 259.382812 236.476562 259.292969 236.488281 259.191406 C 236.519531 258.953125 236.539062 258.738281 236.558594 258.535156 L 236.570312 258.433594 C 236.660156 257.574219 236.714844 257.0625 236.714844 257.0625 C 240.460938 249.566406 244.476562 244.527344 244.476562 244.527344 C 250.523438 235.054688 249.007812 234.160156 248.28125 228.65625 C 248.355469 228.289062 248.429688 227.933594 248.496094 227.582031 L 248.523438 227.429688 C 248.835938 225.8125 249.027344 224.507812 249.027344 224.507812 C 268.46875 216.265625 272.695312 181.375 274.023438 173.152344 C 274.054688 172.921875 274.09375 172.707031 274.125 172.519531 C 274.140625 172.421875 274.160156 172.332031 274.175781 172.246094 C 274.222656 172 274.265625 171.78125 274.304688 171.640625 C 275.296875 168.066406 276.859375 165.285156 276.859375 165.285156 C 276.976562 165.105469 277.074219 164.890625 277.160156 164.660156 L 277.226562 164.433594 C 277.28125 164.253906 277.335938 164.078125 277.382812 163.882812 L 277.429688 163.59375 C 277.464844 163.394531 277.503906 163.191406 277.527344 162.96875 L 277.554688 162.691406 C 277.582031 162.449219 277.597656 162.207031 277.609375 161.953125 L 277.625 161.710938 C 277.636719 161.433594 277.644531 161.144531 277.644531 160.855469 L 277.644531 160.691406 C 277.644531 160.363281 277.636719 160.03125 277.628906 159.699219 L 277.625 159.644531 C 277.605469 159.292969 277.59375 158.941406 277.570312 158.589844 L 277.566406 158.535156 C 277.542969 158.167969 277.519531 157.808594 277.480469 157.449219 L 277.480469 157.441406 C 277.285156 155.183594 276.972656 153.242188 276.886719 152.734375 L 276.886719 152.726562 L 276.859375 152.597656 C 277.828125 152.753906 278.820312 152.878906 279.8125 152.984375 L 279.832031 152.988281 L 279.839844 152.988281 C 283.167969 153.34375 286.535156 153.445312 289.382812 153.433594 C 290.675781 153.421875 291.867188 153.398438 292.886719 153.363281 C 293.148438 153.347656 293.398438 153.339844 293.636719 153.332031 L 293.667969 153.332031 L 293.757812 153.324219 L 293.957031 153.316406 C 294.109375 153.3125 294.257812 153.304688 294.390625 153.300781 L 294.542969 153.292969 L 294.757812 153.277344 L 294.808594 153.273438 C 294.921875 153.269531 295.03125 153.261719 295.132812 153.253906 L 295.3125 153.246094 L 295.46875 153.238281 L 295.488281 153.238281 L 295.726562 153.21875 L 295.902344 153.207031 L 295.929688 153.207031 L 296.09375 153.195312 L 296.152344 153.191406 C 296.273438 153.183594 296.359375 153.175781 296.433594 153.171875 L 296.5 153.167969 L 296.589844 153.15625 C 298.382812 152.5625 304.148438 154.152344 307.535156 154.550781 C 308.050781 154.609375 308.546875 154.648438 309.039062 154.675781 L 309.296875 154.691406 L 309.359375 154.691406 C 309.746094 154.707031 310.113281 154.71875 310.46875 154.722656 L 310.53125 154.722656 C 311.234375 154.722656 311.851562 154.707031 312.375 154.679688 L 312.367188 154.679688 L 312.375 154.679688 L 312.390625 154.675781 L 312.457031 154.675781 C 313.34375 154.617188 313.902344 154.550781 313.902344 154.550781 C 314.34375 154.828125 314.761719 155.066406 315.160156 155.273438 L 315.246094 155.324219 L 315.25 155.324219 L 315.402344 155.394531 C 315.585938 155.480469 315.753906 155.550781 315.925781 155.628906 L 315.929688 155.628906 C 316.09375 155.703125 316.269531 155.789062 316.429688 155.851562 C 316.566406 155.90625 316.695312 155.9375 316.828125 155.980469 C 317.050781 156.054688 317.277344 156.136719 317.484375 156.1875 C 317.628906 156.226562 317.761719 156.246094 317.90625 156.273438 C 318.082031 156.304688 318.265625 156.34375 318.4375 156.363281 C 318.574219 156.375 318.695312 156.375 318.824219 156.378906 C 318.980469 156.386719 319.128906 156.390625 319.269531 156.386719 C 319.398438 156.378906 319.515625 156.363281 319.628906 156.347656 C 319.757812 156.328125 319.886719 156.3125 320.007812 156.289062 C 320.117188 156.261719 320.226562 156.230469 320.324219 156.199219 C 320.4375 156.164062 320.546875 156.128906 320.648438 156.089844 C 320.746094 156.046875 320.839844 156 320.929688 155.960938 L 321.203125 155.804688 L 321.4375 155.648438 L 321.667969 155.46875 L 321.867188 155.289062 L 322.015625 155.144531 L 322.042969 155.109375 L 322.054688 155.097656 L 322.183594 154.957031 L 322.191406 154.964844 C 322.824219 154.363281 323.054688 153.359375 323.054688 153.359375 C 326.441406 153.359375 327.832031 151.566406 327.832031 151.566406 C 331.015625 148.382812 328.230469 144.011719 328.230469 144.011719 C 328.230469 144.011719 330.210938 143.554688 330.035156 141.550781 C 330.167969 141.136719 330.222656 140.832031 330.222656 140.832031 C 330.222656 140.695312 330.1875 140.558594 330.140625 140.425781 " fill-opacity="1" fill-rule="nonzero"></path>
</svg>
