<?xml version="1.0" encoding="UTF-8"?>
<svg xmlns="http://www.w3.org/2000/svg" xmlns:xlink="http://www.w3.org/1999/xlink" width="500" zoomAndPan="magnify" viewBox="0 0 375 374.999991" height="500" preserveAspectRatio="xMidYMid meet" version="1.0">
  <defs>
    <clipPath id="1538364e0c">
      <path d="M 0 107.109375 L 375 107.109375 L 375 267.609375 L 0 267.609375 Z M 0 107.109375 " clip-rule="nonzero"></path>
    </clipPath>
  </defs>
  <g clip-path="url(#1538364e0c)">
    <path fill="#c89e67" d="M 196.476562 203.929688 C 190.316406 203.703125 184.683594 205.652344 179.351562 208.425781 C 176.347656 210 173.644531 211.949219 170.640625 213.449219 C 164.929688 216.300781 159.148438 218.921875 153.363281 221.621094 C 147.28125 224.472656 141.046875 226.945312 135.265625 230.246094 C 129.179688 233.691406 125.875 239.390625 125.351562 246.4375 C 124.898438 253.261719 129.707031 258.507812 136.617188 258.507812 C 139.847656 258.507812 141.796875 259.859375 142.925781 262.707031 C 143.976562 265.40625 142.699219 267.355469 139.769531 267.429688 C 134.0625 267.507812 128.355469 267.582031 122.722656 267.355469 C 121.59375 267.28125 120.394531 266.230469 119.492188 265.40625 C 117.839844 263.832031 116.488281 261.808594 114.761719 260.382812 C 111.003906 257.308594 109.351562 253.710938 110.628906 248.914062 C 111.382812 246.0625 112.132812 243.214844 112.734375 240.367188 C 113.632812 235.792969 114.460938 231.21875 115.0625 226.644531 C 115.4375 223.722656 116.113281 221.097656 119.265625 220.199219 C 131.585938 216.675781 136.316406 207.378906 138.195312 195.832031 C 138.492188 194.03125 138.792969 192.234375 138.945312 190.433594 C 139.394531 183.160156 141.046875 176.261719 145.855469 170.492188 C 145.628906 170.339844 145.402344 170.191406 145.101562 170.117188 C 143.601562 172.214844 142.097656 174.3125 140.523438 176.339844 C 139.921875 177.011719 139.09375 177.988281 138.34375 178.0625 C 127.378906 179.039062 117.691406 183.460938 108.976562 189.757812 C 98.761719 197.03125 89.074219 205.203125 79.011719 212.625 C 68.722656 220.199219 58.355469 227.769531 47.617188 234.59375 C 39.957031 239.464844 31.394531 242.464844 22.082031 242.765625 C 14.71875 242.988281 8.261719 240.890625 2.855469 235.867188 C 0 233.242188 0.148438 229.644531 3.003906 227.46875 C 5.03125 225.972656 7.210938 225.820312 9.164062 227.621094 C 15.246094 233.242188 22.457031 234.367188 29.890625 231.667969 C 36.5 229.269531 43.261719 226.496094 48.96875 222.445312 C 59.859375 214.800781 70.148438 206.402344 80.4375 198.003906 C 93.730469 186.835938 106.800781 175.4375 121.820312 166.441406 C 129.78125 161.71875 138.117188 157.894531 147.207031 155.644531 C 150.058594 154.96875 152.839844 153.246094 155.242188 151.445312 C 162.753906 145.824219 171.238281 144.023438 180.476562 143.875 C 196.925781 143.574219 213.375 143.425781 229.820312 142.523438 C 239.585938 142 249.347656 140.199219 258.960938 138.925781 C 253.105469 142.601562 246.570312 145.148438 239.359375 146.046875 C 244.46875 146.796875 249.273438 145.824219 253.78125 143.648438 C 256.632812 142.300781 259.488281 140.875 261.816406 138.851562 C 271.582031 130.378906 283.070312 127.003906 295.6875 126.179688 C 304.925781 125.582031 311.835938 119.957031 318.746094 114.710938 C 319.273438 114.335938 319.195312 112.683594 318.972656 111.785156 C 317.84375 108.113281 318.371094 107.136719 322.277344 107.289062 C 324.753906 107.363281 327.308594 108.113281 329.785156 108.261719 C 334.21875 108.636719 338.722656 109.460938 343.003906 108.863281 C 349.539062 107.960938 354.347656 110.660156 359.003906 114.410156 C 363.207031 117.859375 367.488281 121.234375 371.84375 124.457031 C 374.550781 126.480469 375 128.128906 373.046875 130.980469 C 372.371094 132.027344 371.996094 133.378906 371.46875 134.503906 C 370.644531 136.300781 369.742188 138.101562 368.992188 139.976562 C 368.164062 142 366.738281 144.023438 366.738281 146.125 C 366.738281 148.371094 365.6875 148.972656 364.183594 148.972656 C 360.128906 148.972656 356 149.046875 352.09375 148.222656 C 348.1875 147.398438 344.957031 147.773438 341.878906 150.398438 C 332.492188 158.496094 326.332031 168.617188 322.800781 180.535156 C 318.972656 193.582031 314.765625 206.476562 310.558594 219.375 C 307.480469 228.894531 305.300781 238.566406 306.804688 248.613281 C 307.105469 250.789062 307.855469 252.960938 308.757812 254.984375 C 309.960938 257.609375 312.136719 258.734375 315.214844 258.433594 C 316.566406 258.359375 318.746094 258.960938 319.273438 259.933594 C 320.25 261.808594 320.324219 264.058594 320.472656 266.230469 C 320.472656 266.53125 319.273438 267.207031 318.597656 267.207031 C 313.488281 267.28125 308.457031 267.429688 303.351562 267.207031 C 298.316406 266.980469 296.140625 264.507812 295.839844 259.410156 C 295.464844 252.4375 295.386719 245.390625 294.5625 238.492188 C 294.113281 235.269531 291.933594 232.269531 290.808594 229.121094 C 290.355469 227.695312 290.054688 225.671875 290.730469 224.472656 C 291.785156 222.597656 293.511719 221.023438 295.164062 219.523438 C 302.824219 212.550781 308.082031 203.929688 312.0625 194.480469 C 312.136719 194.257812 312.136719 193.882812 312.210938 192.90625 C 311.386719 194.332031 310.933594 195.082031 310.484375 195.90625 C 303.5 207.527344 295.464844 218.097656 282.546875 223.796875 C 275.859375 226.796875 272.105469 231.894531 272.558594 239.316406 C 272.855469 244.714844 273.609375 250.1875 274.734375 255.433594 C 275.484375 258.882812 277.0625 259.257812 280.441406 258.132812 C 284.421875 256.785156 289.15625 259.710938 289.679688 263.832031 C 289.980469 266.007812 289.457031 267.582031 286.675781 267.507812 C 281.570312 267.355469 276.539062 267.507812 271.429688 267.429688 C 266.625 267.355469 264.445312 265.632812 263.242188 260.910156 C 262.417969 257.683594 261.96875 254.3125 261.140625 251.085938 C 260.015625 246.886719 258.960938 242.691406 257.308594 238.640625 C 255.65625 234.519531 255.65625 230.769531 257.460938 226.644531 C 259.714844 221.621094 261.214844 216.300781 263.167969 210.75 C 261.667969 210.527344 260.992188 210.300781 260.390625 210.300781 C 254.382812 210.226562 248.75 208.726562 243.339844 206.101562 C 237.03125 203.027344 230.347656 201.53125 223.4375 200.628906 C 219.15625 200.105469 215.550781 201.378906 213.675781 205.277344 C 210.144531 212.625 204.0625 217.125 197.300781 221.097656 C 196.023438 221.847656 194.746094 222.820312 193.394531 223.421875 C 185.660156 226.945312 183.558594 233.617188 184.535156 241.039062 C 185.359375 247.414062 189.492188 252.4375 194.449219 256.484375 C 195.5 257.308594 197.527344 256.933594 199.105469 256.933594 C 205.414062 256.785156 208.566406 260.234375 207.664062 266.605469 C 206.839844 266.679688 205.9375 266.832031 205.113281 266.832031 C 200.53125 266.832031 195.949219 266.679688 191.367188 266.90625 C 186.785156 267.132812 184.007812 266.15625 181.304688 261.507812 C 177.699219 255.285156 172.066406 250.261719 167.109375 244.9375 C 163.429688 240.964844 163.355469 240.964844 165.230469 236.015625 C 166.957031 231.445312 168.011719 226.796875 166.660156 221.773438 C 166.359375 220.722656 167.257812 218.847656 168.234375 218.023438 C 175.746094 211.800781 184.457031 207.753906 193.695312 204.679688 C 194.746094 204.453125 195.648438 204.152344 196.476562 203.929688 Z M 196.476562 203.929688 " fill-opacity="1" fill-rule="nonzero"></path>
  </g>
</svg>
