<?xml version="1.0" encoding="UTF-8"?>
<svg xmlns="http://www.w3.org/2000/svg" xmlns:xlink="http://www.w3.org/1999/xlink" width="500" zoomAndPan="magnify" viewBox="0 0 375 374.999991" height="500" preserveAspectRatio="xMidYMid meet" version="1.0">
  <defs>
    <clipPath id="4d894fe89c">
      <path d="M 1 49.921875 L 375 49.921875 L 375 325.171875 L 1 325.171875 Z M 1 49.921875 " clip-rule="nonzero"></path>
    </clipPath>
  </defs>
  <g clip-path="url(#4d894fe89c)">
    <path fill="#c89e67" d="M 315.109375 49.933594 C 319.449219 50.21875 319.929688 56.25 324.195312 57.039062 C 326.46875 57.464844 328.300781 56.152344 330.421875 56.730469 C 333.257812 57.5 335.898438 60.398438 336.6875 63.382812 C 336.808594 63.347656 336.929688 63.308594 337.007812 63.382812 C 337.082031 63.460938 336.929688 63.632812 337.007812 63.710938 C 337.160156 63.863281 337.503906 63.554688 337.65625 63.710938 C 337.730469 63.785156 337.578125 63.957031 337.65625 64.035156 C 337.808594 64.1875 338.152344 63.878906 338.304688 64.035156 C 338.378906 64.109375 338.226562 64.28125 338.304688 64.359375 C 338.417969 64.472656 339.699219 64.246094 339.925781 64.359375 C 340.0625 64.425781 340.113281 64.613281 340.25 64.683594 C 340.261719 64.6875 340.277344 64.683594 340.289062 64.6875 C 339.898438 64.324219 339.578125 63.890625 339.445312 63.269531 C 342.214844 63.921875 345.160156 67.097656 346.292969 70.425781 C 345.550781 72.402344 346.089844 73.121094 346.601562 75.097656 C 344.695312 78.613281 339.757812 77.175781 336.957031 79.769531 C 339.175781 82.320312 342.691406 83.578125 344.738281 86.304688 C 347.234375 94.597656 355.21875 97.402344 361.851562 101.558594 C 364.242188 105.058594 368.804688 106.054688 368.695312 110.277344 C 368.601562 114.070312 362.734375 118.765625 364.964844 122.417969 C 367.203125 121.808594 369.519531 121.226562 370.875 120.550781 L 370.875 122.105469 C 368.671875 122.285156 364.046875 122.183594 364.339844 125.84375 L 368.695312 125.84375 C 368.710938 125.414062 368.550781 125.15625 368.386719 124.90625 C 369.582031 126.617188 374.085938 125.019531 374.609375 127.398438 C 372.1875 127.390625 367.691406 125.542969 364.03125 126.773438 C 363.445312 129.199219 362.417969 131.183594 361.226562 133 C 362.203125 132.855469 362.050781 133.839844 362.785156 133.9375 C 364.261719 141.519531 360.628906 146.449219 357.496094 150.433594 C 356.726562 150.476562 355.996094 150.480469 355.625 150.121094 C 355.6875 151.015625 355.667969 151.824219 354.695312 151.679688 C 353.476562 151.375 354.910156 150.34375 354.070312 149.8125 C 354.339844 151.117188 352.679688 150.492188 352.203125 151.058594 C 351.71875 150.613281 351.957031 149.4375 350.957031 149.503906 C 350.929688 149.992188 351 150.578125 350.335938 150.433594 C 349.507812 147.414062 347.757812 145.980469 345.046875 146.699219 C 348.628906 147.957031 347.636719 153.273438 345.046875 154.792969 C 346.054688 157.964844 344.632812 162.546875 342.242188 162.265625 C 343.578125 160.769531 342.8125 156.847656 342.242188 154.792969 C 341.230469 162.289062 339.230469 168.792969 333.84375 171.914062 C 335.558594 172.691406 337.113281 173.625 338.511719 174.71875 C 337.167969 176.304688 333.839844 174.757812 332.628906 174.464844 C 332.613281 174.574219 332.589844 174.691406 332.628906 174.777344 C 332.664062 174.84375 332.757812 174.871094 332.792969 174.9375 C 332.816406 174.984375 332.792969 175.046875 332.792969 175.101562 L 332.792969 175.257812 C 335.351562 179.566406 337.949219 184.789062 336.332031 190.90625 C 335.058594 195.734375 330.808594 200.449219 328.863281 203.980469 C 329.164062 200.234375 330.476562 197.496094 331.355469 194.328125 C 328.496094 198.214844 328.539062 205 324.195312 207.402344 C 325.285156 204.132812 327.089844 201.582031 328.242188 198.375 L 326.6875 198.375 C 329.472656 195.304688 330.945312 189.390625 329.085938 184.664062 C 329.078125 184.664062 329.070312 184.671875 329.0625 184.664062 C 329.050781 184.652344 329.0625 184.628906 329.0625 184.609375 C 329.050781 184.574219 329.039062 184.539062 329.027344 184.503906 C 328.980469 184.511719 328.929688 184.53125 328.902344 184.503906 C 328.863281 184.464844 328.925781 184.390625 328.902344 184.339844 C 328.804688 184.148438 328.511719 184.050781 328.417969 183.855469 C 328.390625 183.808594 328.441406 183.742188 328.417969 183.691406 C 328.382812 183.628906 328.191406 183.460938 328.054688 183.332031 C 328.890625 188.820312 328.765625 196.21875 325.441406 199 C 324.058594 204.910156 322.558594 211.714844 319.839844 215.5 C 319.445312 216.050781 319.832031 217.773438 318.28125 216.746094 C 320.796875 211.6875 320.214844 202.324219 317.972656 196.820312 C 317.652344 198.160156 317.386719 199.390625 317.160156 200.535156 C 317.082031 200.179688 317 199.820312 316.90625 199.453125 C 316.90625 199.441406 316.910156 199.429688 316.90625 199.421875 C 316.90625 199.417969 316.898438 199.414062 316.898438 199.410156 C 316.839844 199.1875 316.808594 198.988281 316.746094 198.761719 C 316.746094 198.824219 316.746094 198.847656 316.746094 198.910156 C 316.761719 199.039062 316.765625 199.160156 316.777344 199.289062 C 316.816406 199.332031 316.871094 199.359375 316.898438 199.410156 C 316.902344 199.425781 316.90625 199.4375 316.90625 199.453125 C 316.96875 199.691406 316.828125 199.996094 316.90625 200.230469 C 316.933594 200.304688 317.035156 200.324219 317.070312 200.394531 C 317.09375 200.441406 317.070312 200.503906 317.070312 200.554688 L 317.070312 201.035156 C 316.53125 203.867188 316.277344 206.042969 316.195312 207.691406 C 314.855469 213.175781 311.90625 217.34375 310.191406 222.660156 C 309.691406 224.214844 309.09375 225.824219 308.011719 227.332031 C 310.332031 217.136719 310.585938 215.472656 310.585938 215.472656 C 309.386719 218.257812 308.417969 221.988281 307.707031 224.839844 C 306.46875 224.210938 307.535156 221.277344 306.148438 220.796875 C 305.980469 223.429688 305.636719 225.886719 303.972656 227.019531 C 304.171875 225.433594 305.472656 222.230469 303.660156 221.417969 C 304.625 226.726562 302.699219 231.039062 299.617188 233.246094 C 300.410156 229.890625 303.253906 226.929688 302.417969 222.972656 C 301 223.617188 301.40625 228.753906 299.617188 227.019531 C 298.617188 229.546875 297.21875 231.679688 295.257812 233.246094 C 294.378906 232.757812 295.960938 231.582031 294.949219 231.070312 C 291.703125 234.296875 290.808594 240.097656 292.769531 245.386719 C 290.785156 244.464844 290.640625 241.707031 289.96875 239.472656 C 289.363281 243.222656 292.242188 245.039062 292.148438 247.253906 C 290.648438 247.699219 290.765625 244.921875 289.96875 245.699219 C 290.085938 247.347656 291.304688 247.886719 291.210938 249.746094 C 288.699219 248.316406 289.023438 244.050781 286.855469 242.273438 C 285.824219 244.746094 290.222656 247.625 287.789062 249.4375 C 287.847656 247.511719 287.339844 246.148438 286.542969 245.074219 C 285.667969 249.617188 285.273438 254.207031 284.988281 258.460938 C 284.742188 262.128906 283.824219 265.839844 283.433594 269.671875 C 282.945312 274.433594 284.136719 279.890625 283.742188 284.925781 C 283.175781 292.214844 280.191406 297.652344 284.054688 302.980469 C 285.425781 301.402344 286.894531 301.855469 289.035156 301.113281 C 289.949219 301.617188 291.253906 302.074219 290.589844 303.292969 C 290.5 303.320312 290.445312 303.3125 290.375 303.320312 C 290.359375 303.386719 290.351562 303.453125 290.324219 303.515625 C 290.3125 303.550781 290.261719 303.5625 290.246094 303.597656 C 290.238281 303.605469 290.242188 303.726562 290.246094 303.839844 C 290.292969 303.824219 290.339844 303.789062 290.386719 303.769531 C 290.914062 303.449219 291.429688 303.113281 291.828125 302.667969 C 292.285156 302.632812 292.714844 302.625 293.125 302.632812 C 295.453125 302.6875 297.121094 303.402344 298.414062 304.488281 C 298.417969 304.488281 298.425781 304.484375 298.429688 304.488281 C 298.5625 304.621094 298.542969 304.613281 298.519531 304.585938 C 298.5 304.554688 298.472656 304.507812 298.59375 304.570312 C 298.6875 304.617188 298.738281 304.761719 298.835938 304.8125 C 298.859375 304.824219 298.898438 304.792969 298.917969 304.8125 C 298.949219 304.84375 298.90625 304.910156 298.917969 304.953125 C 298.925781 304.960938 298.933594 304.964844 298.941406 304.972656 C 298.960938 304.96875 298.984375 304.960938 298.996094 304.972656 C 299 304.976562 298.996094 305.015625 298.996094 305.027344 C 300.769531 306.820312 301.804688 309.359375 303.035156 311.695312 C 308.515625 312.410156 305.234375 322.53125 300.234375 321.035156 C 299.992188 323.179688 297.824219 323.398438 297.121094 325.078125 C 294.582031 324.441406 291.734375 323.753906 288.71875 324.457031 C 288.515625 323.75 288.679688 323.410156 288.890625 323.117188 C 288.886719 323.121094 288.882812 323.125 288.878906 323.128906 C 288.863281 323.136719 288.734375 323.128906 288.710938 323.128906 L 287.90625 323.128906 C 287.886719 323.128906 287.863281 323.140625 287.847656 323.128906 C 287.835938 323.117188 287.863281 323.085938 287.847656 323.074219 C 287.835938 323.058594 287.808594 323.074219 287.789062 323.074219 C 287.738281 323.074219 287.535156 323.082031 287.503906 323.074219 C 287.480469 323.0625 287.472656 323.027344 287.449219 323.015625 C 287.414062 322.996094 287.359375 323.042969 287.332031 323.015625 C 287.320312 323 287.34375 322.96875 287.332031 322.957031 C 287.3125 322.9375 287.238281 322.976562 287.21875 322.957031 C 287.203125 322.941406 287.230469 322.914062 287.21875 322.902344 C 287.203125 322.886719 287.175781 322.914062 287.164062 322.902344 C 287.148438 322.886719 287.175781 322.855469 287.164062 322.84375 C 287.144531 322.824219 287.066406 322.863281 287.046875 322.84375 C 287.03125 322.828125 287.046875 322.804688 287.046875 322.785156 C 287.027344 322.785156 287.007812 322.796875 286.988281 322.785156 C 286.964844 322.773438 286.957031 322.742188 286.933594 322.730469 C 286.917969 322.722656 286.851562 322.726562 286.800781 322.730469 C 286.480469 323.988281 284.085938 324.261719 283.425781 324.148438 C 283.433594 324.109375 283.449219 324.082031 283.457031 324.046875 L 283.378906 324.046875 C 283.359375 324.046875 283.335938 324.058594 283.324219 324.046875 C 283.308594 324.03125 283.335938 324.003906 283.324219 323.992188 C 283.308594 323.976562 283.277344 324.003906 283.265625 323.992188 C 283.25 323.976562 283.277344 323.945312 283.265625 323.933594 C 283.25 323.917969 283.222656 323.941406 283.207031 323.933594 C 283.183594 323.921875 283.175781 323.886719 283.152344 323.875 C 283.128906 323.863281 282.988281 323.886719 282.976562 323.875 C 282.964844 323.863281 282.992188 323.832031 282.976562 323.816406 C 282.964844 323.804688 282.933594 323.832031 282.921875 323.816406 C 282.90625 323.804688 282.933594 323.773438 282.921875 323.761719 C 282.90625 323.746094 282.878906 323.773438 282.863281 323.761719 C 282.851562 323.746094 282.878906 323.71875 282.863281 323.703125 C 282.835938 323.675781 282.773438 323.730469 282.75 323.703125 C 282.734375 323.691406 282.761719 323.660156 282.75 323.644531 C 282.734375 323.632812 282.707031 323.660156 282.691406 323.644531 C 282.679688 323.632812 282.707031 323.601562 282.691406 323.585938 C 282.679688 323.574219 282.648438 323.601562 282.632812 323.585938 C 282.621094 323.574219 282.648438 323.546875 282.632812 323.53125 C 282.621094 323.519531 282.589844 323.546875 282.574219 323.53125 C 282.546875 323.503906 282.601562 323.441406 282.574219 323.414062 C 282.5625 323.402344 282.535156 323.429688 282.519531 323.414062 C 282.507812 323.402344 282.535156 323.371094 282.519531 323.359375 C 282.507812 323.347656 282.476562 323.371094 282.460938 323.359375 C 282.445312 323.34375 282.476562 323.160156 282.460938 323.128906 C 282.449219 323.105469 282.417969 323.097656 282.40625 323.074219 C 282.398438 323.054688 282.40625 323.035156 282.40625 323.015625 L 282.40625 322.339844 C 282.21875 322.15625 281.988281 321.988281 281.566406 321.976562 C 281.4375 322.726562 282.132812 322.652344 281.875 323.53125 C 278.605469 323.617188 276.273438 321.925781 272.539062 322.597656 C 271.550781 320.992188 269.261719 320.683594 268.183594 319.171875 C 268.585938 314.453125 266.53125 312.191406 265.820312 308.59375 C 265.816406 308.589844 265.8125 308.585938 265.808594 308.582031 C 265.804688 308.570312 265.804688 308.554688 265.808594 308.539062 C 265.808594 308.527344 265.804688 308.511719 265.800781 308.5 C 265.792969 308.5 265.777344 308.507812 265.769531 308.5 C 265.761719 308.492188 265.769531 308.472656 265.769531 308.460938 L 265.769531 308.339844 C 265.996094 307.820312 265.660156 308.144531 265.382812 307.652344 C 262.488281 302.632812 261.484375 296.644531 261.335938 289.90625 C 261.324219 289.253906 262.019531 288.460938 261.957031 287.726562 C 261.792969 285.722656 260.113281 282.464844 259.46875 279.632812 C 257.871094 272.605469 256.589844 263.980469 255.734375 256.285156 C 253.917969 252.292969 251.277344 249.121094 249.511719 245.078125 C 249.542969 246.039062 250.574219 248.234375 248.890625 248.191406 C 248.660156 246.761719 248.777344 244.980469 248.265625 243.832031 C 245.125 247.632812 250.019531 248.617188 251.066406 252.238281 C 252.753906 258.054688 253.476562 262.152344 249.199219 266.554688 C 248.3125 266.488281 249.355469 265.773438 249.210938 265.460938 C 249.152344 265.492188 249.046875 265.410156 248.996094 265.460938 C 248.941406 265.515625 249.050781 265.636719 248.996094 265.691406 C 248.941406 265.746094 248.835938 265.65625 248.765625 265.691406 C 248.761719 265.691406 248.761719 265.695312 248.761719 265.695312 C 248.492188 266.5 248.320312 267.402344 248.265625 268.421875 C 241.402344 272.039062 235.152344 276.269531 229.28125 280.878906 C 229.253906 280.390625 229.324219 279.796875 228.660156 279.945312 C 223.390625 281.105469 213.253906 281.109375 210.296875 279.007812 C 210.457031 278.964844 210.632812 278.9375 210.800781 278.90625 C 210.789062 278.894531 210.777344 278.886719 210.773438 278.875 C 210.761719 278.855469 210.78125 278.835938 210.773438 278.820312 C 210.761719 278.792969 210.726562 278.785156 210.714844 278.761719 C 210.703125 278.742188 210.71875 278.722656 210.714844 278.703125 C 210.699219 278.664062 210.671875 278.628906 210.65625 278.589844 C 210.652344 278.570312 210.667969 278.550781 210.65625 278.53125 C 210.644531 278.507812 210.609375 278.5 210.597656 278.472656 C 210.585938 278.449219 210.59375 278.414062 210.597656 278.378906 C 210.394531 278.382812 210.199219 278.394531 209.980469 278.382812 C 207.085938 275.542969 203.164062 273.050781 202.203125 267.488281 C 202.371094 267.480469 202.472656 267.40625 202.578125 267.328125 C 202.574219 267.285156 202.570312 267.195312 202.578125 267.179688 C 202.589844 267.15625 202.621094 267.144531 202.632812 267.121094 C 202.652344 267.085938 202.609375 267.035156 202.632812 267.007812 C 202.648438 266.996094 202.675781 267.019531 202.691406 267.007812 C 202.703125 266.996094 202.679688 266.96875 202.691406 266.953125 C 202.703125 266.929688 202.738281 266.917969 202.75 266.894531 C 202.765625 266.863281 202.734375 266.808594 202.75 266.78125 C 202.761719 266.753906 202.796875 266.746094 202.808594 266.722656 C 202.828125 266.683594 202.785156 266.457031 202.808594 266.433594 C 202.820312 266.421875 202.847656 266.449219 202.863281 266.433594 C 202.890625 266.40625 202.832031 266.292969 202.863281 266.261719 C 202.875 266.25 202.90625 266.277344 202.921875 266.261719 C 202.949219 266.234375 202.894531 266.175781 202.921875 266.148438 C 202.933594 266.136719 202.964844 266.164062 202.976562 266.148438 C 202.980469 266.144531 202.976562 266.121094 202.976562 266.109375 C 202.828125 266.15625 202.734375 266.179688 202.519531 266.246094 C 203.105469 264.757812 203.230469 262.808594 205.007812 262.511719 C 205.378906 263.535156 206.921875 263.039062 207.1875 262.203125 C 206.652344 262.21875 206.390625 261.960938 206.253906 261.578125 C 208.539062 258.25 217.050781 258.519531 220.566406 260.644531 C 222.820312 259.886719 224.289062 258.347656 227.726562 258.777344 C 232.199219 251.652344 217.761719 245.140625 216.523438 239.164062 C 216.773438 239.152344 217.007812 239.121094 217.226562 239.078125 C 217.226562 239.042969 217.226562 239.015625 217.226562 238.984375 C 217.171875 238.984375 217.101562 239.019531 217.0625 238.984375 C 217.023438 238.945312 217.101562 238.859375 217.0625 238.820312 C 216.984375 238.746094 216.835938 238.867188 216.738281 238.820312 C 216.707031 238.804688 216.585938 238.671875 216.5 238.582031 C 212.304688 239.675781 206.070312 235.710938 200.332031 236.671875 C 199.796875 236.484375 200.355469 235.199219 199.710938 235.117188 C 196.480469 236.457031 191.929688 235.183594 189.128906 234.183594 C 189.34375 233.570312 190.863281 234.257812 190.996094 233.558594 C 189.742188 233.34375 189.21875 233.855469 188.191406 233.871094 C 184.601562 230.621094 177.082031 231.0625 172.320312 230.445312 C 172.230469 231.285156 173.621094 232.226562 172.632812 232.9375 C 172.257812 231.746094 170.941406 229.867188 169.832031 230.445312 C 170.089844 231.226562 170.6875 231.667969 170.769531 232.625 C 170.339844 238.527344 168.695312 243.210938 166.410156 247.257812 C 165.832031 247.300781 165.371094 247.460938 165.167969 247.878906 C 162.53125 257.378906 158.640625 265.632812 148.671875 267.800781 C 145.660156 274.230469 139.523438 277.539062 133.734375 281.1875 C 133.890625 284.144531 130.949219 284 129.6875 285.542969 C 129.101562 293.183594 129.355469 303.710938 138.402344 303.601562 C 139.101562 302.847656 139.828125 302.121094 140.582031 301.421875 C 143 301.390625 144.8125 301.964844 146.804688 302.355469 C 147.101562 302.9375 145.875 303.394531 146.804688 303.601562 C 151.363281 301.234375 157.257812 306.03125 155.519531 310.761719 C 157.21875 311.480469 158.160156 313.21875 157.074219 315.121094 C 157.972656 315.570312 159.320312 315.570312 159.253906 316.988281 C 158.601562 317.746094 157.871094 316.710938 157.386719 317.296875 C 157.234375 319.425781 155.167969 319.640625 153.65625 320.410156 C 152.921875 320.3125 153.46875 318.933594 152.410156 319.164062 C 153.058594 319.851562 152.652344 321.238281 152.097656 321.65625 C 151.191406 321.675781 150.347656 321.636719 149.914062 321.1875 C 149.875 321.183594 149.832031 321.167969 149.796875 321.1875 C 149.730469 321.222656 149.703125 321.316406 149.636719 321.347656 C 149.539062 321.398438 149.386719 321.273438 149.3125 321.347656 C 149.273438 321.386719 149.347656 321.472656 149.3125 321.511719 C 149.289062 321.535156 149.136719 321.523438 148.980469 321.511719 C 149.347656 321.722656 149.597656 322.121094 149.609375 322.898438 C 147.699219 323.085938 142.460938 324.402344 139.980469 321.671875 C 139.964844 321.671875 139.941406 321.671875 139.921875 321.671875 C 139.300781 321.867188 138.945312 322.53125 138.40625 321.96875 C 138.4375 321.726562 138.5 321.535156 138.558594 321.347656 L 137.640625 321.347656 C 137.601562 321.347656 137.558594 321.351562 137.523438 321.347656 C 137.503906 321.449219 137.484375 321.53125 137.472656 321.65625 C 133.574219 321.503906 129.992188 321.046875 126.269531 320.722656 C 126.125 320.421875 125.949219 320.15625 125.769531 319.890625 C 125.648438 319.890625 125.488281 319.890625 125.484375 319.890625 C 125.445312 319.851562 125.523438 319.765625 125.484375 319.726562 C 125.429688 319.671875 125.214844 319.78125 125.160156 319.726562 C 125.121094 319.691406 125.199219 319.605469 125.160156 319.566406 C 125.121094 319.527344 125.046875 319.589844 125 319.566406 C 124.324219 319.226562 125.171875 319.578125 124.835938 319.242188 C 124.796875 319.203125 124.710938 319.28125 124.675781 319.242188 C 124.636719 319.203125 124.710938 319.117188 124.675781 319.078125 C 124.636719 319.039062 124.550781 319.117188 124.511719 319.078125 C 124.4375 319.003906 124.589844 318.832031 124.511719 318.753906 C 124.472656 318.714844 124.386719 318.792969 124.351562 318.753906 C 124.273438 318.679688 124.425781 318.507812 124.351562 318.429688 C 124.347656 318.425781 124.335938 318.433594 124.332031 318.429688 C 124.191406 318.71875 123.972656 318.929688 123.46875 318.855469 C 123.433594 318.238281 123.273438 317.792969 123.082031 317.296875 L 122.730469 317.296875 C 122.683594 317.296875 122.640625 317.300781 122.597656 317.296875 C 122.683594 317.398438 122.757812 317.507812 122.851562 317.601562 C 122.613281 318.609375 121.988281 319.230469 120.984375 319.46875 C 120.496094 318.8125 119.894531 318.277344 119.117188 317.914062 C 119.136719 315.988281 118.796875 313.175781 120.050781 314.175781 C 120.382812 313.015625 118.882812 313.683594 119.117188 312.621094 C 116.125 304.308594 109.003906 300.121094 105.738281 292.074219 C 103.800781 289.863281 102.628906 286.878906 100.757812 284.601562 C 100.960938 282.035156 100.1875 280.363281 101.070312 278.6875 C 107.910156 273.828125 114.101562 264.582031 118.496094 256.582031 C 119.121094 255.445312 120.070312 253.835938 120.359375 252.535156 C 120.453125 252.125 119.722656 251.984375 119.742188 251.601562 C 119.792969 250.527344 121.007812 249.210938 120.359375 248.179688 C 119.652344 248.265625 119.195312 248.101562 119.117188 247.554688 C 119.578125 247.289062 119.785156 246.773438 119.738281 246 C 115.71875 242.027344 111.425781 238.335938 108.226562 233.546875 C 103.554688 238.007812 97.671875 241.253906 90.484375 243.199219 C 89.660156 244.554688 88.730469 245.796875 86.75 245.996094 C 82.964844 249.164062 80.304688 253.894531 76.167969 256.894531 C 71.46875 260.300781 65.207031 261.804688 59.988281 264.988281 C 59.53125 265.078125 58.957031 264.660156 58.558594 264.53125 C 58.542969 264.535156 58.519531 264.53125 58.511719 264.542969 C 58.457031 264.597656 58.5625 264.714844 58.511719 264.769531 C 58.429688 264.847656 58.277344 264.757812 58.160156 264.746094 C 58.300781 265.085938 58.820312 265.050781 59.054688 265.300781 C 56.441406 269.847656 51.585938 272.152344 47.851562 275.574219 C 45.214844 278.152344 46.261719 282.054688 44.742188 284.910156 C 44.089844 286.132812 42.410156 286.085938 41.003906 287.402344 C 38.507812 289.734375 38.859375 293.558594 36.027344 294.5625 C 35.117188 296.5625 33.21875 299.222656 34.160156 302.035156 C 35.050781 301.476562 35.613281 300.582031 37.273438 300.789062 C 37.824219 301.144531 38.691406 301.863281 37.890625 302.65625 C 37.613281 302.769531 37.4375 302.78125 37.308594 302.742188 L 37.308594 302.867188 C 37.257812 302.867188 37.308594 303.082031 37.308594 303.027344 L 37.308594 303.675781 C 37.257812 303.675781 37.308594 303.890625 37.308594 303.839844 L 37.308594 303.675781 C 37.417969 303.675781 37.234375 303.925781 37.308594 304 C 37.347656 304.039062 37.433594 303.960938 37.472656 304 C 37.480469 304.007812 37.472656 304.019531 37.472656 304.027344 C 37.859375 303.746094 38.289062 303.632812 38.75 303.671875 C 40.78125 303.839844 43.285156 306.675781 44.113281 308.273438 C 44.09375 309.394531 43.335938 309.777344 43.179688 310.761719 C 44.449219 311.671875 45.550781 312.746094 45.355469 315.121094 C 45.238281 315.210938 45.085938 315.273438 44.929688 315.328125 C 44.929688 315.5625 44.9375 315.816406 44.929688 315.835938 C 44.894531 315.90625 44.800781 315.929688 44.765625 316 C 44.742188 316.046875 44.789062 316.113281 44.765625 316.160156 C 44.730469 316.230469 44.636719 316.253906 44.605469 316.324219 C 44.554688 316.417969 44.679688 316.570312 44.605469 316.648438 C 44.566406 316.683594 44.480469 316.609375 44.441406 316.648438 C 44.429688 316.65625 44.445312 316.695312 44.441406 316.714844 C 45.105469 317.433594 45.371094 318.339844 45.042969 319.476562 C 42.722656 320.585938 39.527344 322.371094 36.691406 321.96875 C 36.679688 321.980469 36.671875 321.992188 36.660156 321.996094 C 36.613281 322.023438 36.25 321.996094 36.175781 321.996094 L 35.203125 321.996094 C 35.203125 321.945312 34.988281 321.996094 35.039062 321.996094 C 34.972656 321.964844 34.945312 321.871094 34.878906 321.835938 C 34.847656 321.820312 34.808594 321.832031 34.773438 321.835938 C 34.769531 321.882812 34.777344 321.921875 34.773438 321.96875 C 30.417969 321.242188 28.613281 319.011719 24.816406 319.789062 C 24.6875 319.195312 24.703125 318.449219 23.882812 318.542969 C 23.746094 319.132812 24.304688 320.417969 23.257812 320.097656 C 22.792969 318.765625 21.519531 318.246094 20.996094 316.972656 L 20.777344 316.972656 C 20.722656 316.972656 20.652344 317.011719 20.617188 316.972656 C 20.578125 316.933594 20.652344 316.847656 20.617188 316.808594 C 20.554688 316.75 20.378906 316.800781 20.25 316.808594 C 20.488281 317.292969 20.582031 317.859375 20.464844 318.539062 C 18.816406 318.632812 19.527344 316.367188 17.976562 316.359375 C 18.023438 317.132812 18.035156 317.871094 17.355469 317.917969 C 15.824219 315.75 13.171875 315.582031 12.6875 312.9375 C 11.8125 308.195312 18.496094 303.949219 16.421875 299.238281 C 18.832031 298.015625 17.53125 293.085938 18.910156 290.832031 C 17.226562 281.453125 20.925781 271.34375 27.683594 269.007812 C 27.71875 268.96875 27.75 268.921875 27.796875 268.898438 C 27.863281 268.863281 27.945312 268.898438 28.023438 268.898438 C 28.097656 268.824219 28.15625 268.71875 28.253906 268.667969 C 28.320312 268.632812 28.414062 268.703125 28.480469 268.667969 C 28.753906 268.53125 28.894531 268.132812 29.164062 267.988281 C 31.796875 264.835938 36.269531 262.398438 36.960938 258.457031 C 40.261719 256.78125 41.011719 252.546875 43.496094 250.050781 C 46.753906 235.339844 52.617188 224.726562 57.5 212.070312 C 57.394531 202.484375 63.585938 195.570312 66.523438 187.167969 C 60.523438 188.527344 54.292969 187.804688 48.164062 189.660156 C 43.890625 189.167969 39.042969 189.324219 35.09375 189.347656 C 34.175781 188.304688 32.714844 188.058594 31.359375 187.789062 C 23.144531 186.144531 16.289062 182.769531 9.882812 178.761719 C 7.710938 176.25 5.859375 171.8125 3.664062 170.355469 C 3.171875 166.441406 1.367188 162.453125 1.171875 157.902344 C 0.421875 140.578125 17.742188 125.179688 31.980469 121.792969 C 36.121094 120.804688 40.15625 120.96875 43.496094 118.054688 C 45.820312 118.203125 46.390625 117.648438 48.472656 117.121094 C 48.597656 117.660156 48.011719 117.917969 48.472656 118.054688 C 50.046875 116.839844 53.890625 117.539062 53.765625 116.1875 C 56.078125 117.070312 60.269531 115.074219 61.855469 116.1875 C 61.667969 116.726562 60.382812 116.164062 60.300781 116.8125 C 66.421875 117.847656 70.816406 120.609375 74.925781 123.660156 C 74.246094 123.6875 72.910156 122.808594 72.746094 123.347656 C 76.199219 126.222656 79.84375 128.910156 83.015625 132.066406 C 82.425781 132.046875 81.730469 131.800781 80.972656 131.480469 C 80.964844 131.503906 80.957031 131.53125 80.972656 131.546875 C 81 131.574219 81.0625 131.519531 81.089844 131.546875 C 81.117188 131.574219 81.0625 131.636719 81.089844 131.664062 C 81.144531 131.714844 81.265625 131.609375 81.320312 131.664062 C 81.34375 131.6875 81.292969 131.75 81.320312 131.777344 C 81.34375 131.804688 81.40625 131.75 81.433594 131.777344 C 81.460938 131.804688 81.40625 131.863281 81.433594 131.890625 C 81.460938 131.917969 81.523438 131.863281 81.550781 131.890625 C 81.574219 131.917969 81.523438 131.976562 81.550781 132.003906 C 81.601562 132.058594 81.722656 131.949219 81.777344 132.003906 C 81.804688 132.03125 81.761719 132.085938 81.777344 132.121094 C 81.800781 132.167969 81.871094 132.1875 81.894531 132.234375 C 81.910156 132.269531 81.894531 132.3125 81.894531 132.347656 L 81.894531 132.890625 C 83.386719 133.15625 84.730469 133.570312 84.878906 135.179688 C 84.347656 134.914062 83.664062 134.648438 82.925781 134.414062 C 82.882812 134.402344 82.851562 134.386719 82.808594 134.375 C 82.804688 134.386719 82.800781 134.402344 82.808594 134.414062 C 82.835938 134.441406 82.898438 134.386719 82.925781 134.414062 C 82.953125 134.441406 82.90625 134.492188 82.925781 134.527344 C 82.949219 134.574219 83.015625 134.59375 83.039062 134.640625 C 83.074219 134.710938 82.984375 134.816406 83.039062 134.871094 C 83.066406 134.898438 83.125 134.84375 83.152344 134.871094 C 83.179688 134.898438 83.125 134.960938 83.152344 134.988281 C 83.179688 135.011719 83.238281 134.964844 83.265625 134.988281 C 83.269531 135.035156 83.28125 135.101562 83.269531 135.101562 C 83.230469 135.101562 83.296875 135.011719 83.269531 134.988281 L 83.265625 134.988281 C 83.257812 134.914062 83.269531 134.871094 83.382812 135.101562 C 83.40625 135.144531 83.359375 135.421875 83.382812 135.445312 C 83.410156 135.472656 83.46875 135.417969 83.496094 135.445312 C 83.535156 135.484375 83.542969 135.507812 83.53125 135.527344 C 84.929688 135.613281 85.683594 135.742188 86.121094 137.359375 C 85.054688 136.804688 83.613281 136.625 83.054688 135.558594 L 82.59375 135.558594 C 82.441406 136.105469 82.472656 136.296875 82.703125 137.046875 C 84.226562 137.804688 86.535156 137.777344 87.058594 139.539062 C 83.527344 138.082031 81.714844 136.449219 76.789062 137.667969 C 77.296875 139.089844 75.277344 138.652344 76.167969 139.539062 C 58.699219 144.410156 54.132812 129.8125 38.511719 129.886719 C 37.167969 128.683594 34.167969 128.875 31.664062 129.574219 C 23.027344 131.992188 10.140625 144.109375 8.945312 155.726562 C 8.261719 162.371094 12.394531 168.355469 15.792969 170.980469 C 18.730469 173.25 23.613281 175.339844 27.308594 175.960938 C 29.367188 176.308594 31.945312 175.90625 34.152344 176.269531 C 36.910156 176.730469 39.570312 177.332031 42.867188 176.894531 C 52.957031 175.558594 60.042969 169.679688 67.761719 165.066406 C 81.953125 156.585938 96.5625 148.070312 110.398438 142.339844 L 110.398438 141.40625 C 117.078125 141.589844 123.21875 138.800781 129.691406 137.667969 C 139.574219 135.941406 149.75 135.328125 161.433594 136.425781 C 170.070312 137.238281 180.558594 138.398438 189.132812 138.917969 C 195.570312 139.304688 205.574219 139.539062 209.359375 136.113281 C 209.542969 135.949219 208.828125 135.515625 209.050781 135.179688 C 210.507812 132.976562 213.570312 131.917969 216.828125 131.757812 C 215.761719 131.070312 213.644531 131.554688 212.472656 131.757812 C 212.417969 130.039062 215.015625 130.980469 215.894531 130.199219 C 215.203125 129.441406 213.632812 126.746094 215.582031 126.152344 C 215.238281 127.019531 215.015625 128.785156 216.207031 128.953125 C 214.820312 124.882812 219.542969 123.203125 219.628906 120.546875 C 220.15625 119.929688 221.058594 119.695312 221.808594 119.300781 C 222.5625 115.414062 229.273438 115.019531 230.832031 118.371094 C 228.707031 116.226562 223.402344 116.855469 223.050781 119.300781 C 224.0625 119.121094 224.503906 119.515625 225.234375 119.613281 C 226.488281 116.773438 230.25 118.648438 232.390625 119.300781 C 232.550781 118.84375 232.851562 118.519531 233.011719 118.058594 C 229.875 116.847656 224.65625 112.582031 222.121094 117.125 C 223.296875 109.035156 232.4375 118.21875 237.058594 118.371094 C 237.21875 117.910156 237.519531 117.585938 237.679688 117.125 C 236.972656 116.695312 236.511719 117.925781 236.433594 117.125 C 236.902344 116.757812 237.710938 116.738281 237.992188 116.191406 C 236.945312 116.296875 234.855469 116.980469 233.945312 116.191406 C 235.859375 115.40625 231.613281 115.984375 232.078125 114.632812 C 235.875 115.523438 241.726562 115.671875 242.039062 112.144531 C 240.117188 114.335938 233.050781 115.648438 231.144531 112.453125 C 233.851562 113.21875 238.066406 114.136719 240.171875 112.144531 C 236.394531 113.527344 233.671875 111.234375 230.210938 110.585938 C 234.402344 110.75 241.511719 114.429688 242.039062 107.472656 C 241.417969 107.476562 241.644531 108.324219 240.792969 108.097656 C 239.46875 104.816406 236.648438 103.089844 237.679688 99.378906 C 238.519531 96.359375 241.488281 95.894531 243.902344 94.085938 C 243.722656 94.070312 243.570312 94.023438 243.398438 94 L 243.292969 94 C 243.285156 94 243.273438 94 243.265625 94 C 243.246094 93.992188 243.226562 93.976562 243.207031 93.96875 C 243.003906 93.917969 243.355469 94.058594 243.066406 93.941406 C 243.0625 93.941406 243.058594 93.9375 243.054688 93.9375 C 241.269531 93.265625 240.003906 92.273438 239.28125 91.03125 C 238.015625 90.613281 236.835938 90.8125 235.8125 92.84375 C 235.742188 91.628906 236.480469 91.226562 236.746094 90.351562 C 239.789062 88.671875 241.449219 91.667969 243.902344 91.910156 C 252.230469 92.722656 248.878906 83.644531 253.242188 78.210938 C 252.691406 78.480469 252.277344 79.25 251.996094 78.210938 C 253.882812 74.433594 256.601562 71.484375 260.6875 69.910156 C 260.691406 69.894531 260.683594 69.929688 260.703125 69.871094 C 260.734375 69.78125 260.652344 69.878906 260.746094 69.789062 C 260.75 69.777344 260.738281 69.757812 260.746094 69.746094 C 260.761719 69.714844 260.808594 69.699219 260.828125 69.667969 C 260.832031 69.65625 260.820312 69.636719 260.828125 69.625 C 260.847656 69.59375 260.886719 69.578125 260.90625 69.546875 C 260.914062 69.535156 260.902344 69.515625 260.90625 69.503906 C 260.914062 69.488281 260.9375 69.480469 260.949219 69.464844 C 260.953125 69.453125 260.941406 69.433594 260.949219 69.421875 C 261.03125 69.253906 260.945312 69.464844 261.027344 69.382812 C 261.039062 69.375 261.023438 69.355469 261.027344 69.34375 C 261.039062 69.324219 261.0625 69.320312 261.070312 69.300781 C 261.070312 69.300781 261.070312 69.296875 261.070312 69.296875 C 260.421875 69.484375 259.84375 69.652344 259.464844 69.804688 C 259.882812 67.214844 263.550781 67.875 265.378906 66.691406 C 264.5625 66.78125 264.039062 66.578125 264.132812 65.757812 C 265.417969 65.402344 267.675781 66.5 270.042969 66.070312 C 272.523438 64.917969 272.441406 61.203125 275.023438 60.152344 C 277.335938 53.929688 289.347656 51.738281 294.859375 56.164062 C 294.847656 56.078125 294.808594 55.980469 294.863281 55.925781 C 294.941406 55.847656 295.089844 55.972656 295.1875 55.925781 C 295.324219 55.855469 295.375 55.667969 295.511719 55.601562 C 295.605469 55.554688 295.738281 55.652344 295.820312 55.601562 C 294.042969 54.867188 292.421875 53.976562 290.585938 53.304688 C 290.894531 52.605469 292.28125 53.980469 292.765625 52.996094 C 292.03125 52.609375 290.523438 51.96875 291.207031 51.128906 C 292.816406 52.621094 294.792969 53.777344 296.972656 54.335938 C 296.96875 54.324219 296.964844 54.3125 296.972656 54.304688 C 296.992188 54.285156 297.027344 54.316406 297.050781 54.304688 C 297.085938 54.285156 297.105469 54.25 297.132812 54.222656 C 297.160156 54.195312 297.179688 54.160156 297.214844 54.140625 C 297.238281 54.128906 297.277344 54.160156 297.296875 54.140625 C 297.3125 54.121094 297.277344 54.078125 297.296875 54.0625 C 297.3125 54.042969 297.351562 54.074219 297.375 54.0625 C 297.410156 54.042969 297.421875 54.003906 297.453125 53.984375 C 295.777344 53.902344 294.355469 53.105469 293.386719 50.816406 C 295.402344 51.386719 297.214844 52.945312 299.609375 52.683594 C 300.773438 52.554688 301.359375 51.535156 302.410156 51.128906 C 304.195312 50.429688 305.941406 50.101562 307.589844 50.125 C 311.03125 50.171875 314.03125 51.765625 316.082031 54.710938 L 316.421875 54.710938 C 316.449219 54.710938 316.476562 54.699219 316.503906 54.710938 C 316.535156 54.726562 316.550781 54.773438 316.582031 54.789062 C 316.632812 54.816406 316.699219 54.765625 316.746094 54.789062 C 315.601562 53.148438 314.285156 51.683594 312.992188 50.191406 C 313.792969 49.96875 314.488281 49.890625 315.109375 49.929688 Z M 35.039062 322.003906 L 35.203125 322.003906 C 35.203125 322.058594 35.089844 322.027344 35.039062 322.003906 Z M 37.308594 303.035156 L 37.308594 302.871094 C 37.363281 302.871094 37.308594 302.980469 37.308594 303.035156 Z M 316.199219 207.699219 C 316.519531 206.398438 316.746094 205.023438 316.847656 203.542969 C 316.871094 203.523438 316.898438 203.507812 316.910156 203.480469 C 316.960938 203.382812 316.835938 203.230469 316.910156 203.15625 C 316.949219 203.117188 317.035156 203.191406 317.074219 203.15625 C 317.113281 203.117188 317.074219 203.046875 317.074219 202.992188 L 317.074219 201.039062 C 317.105469 200.867188 317.128906 200.714844 317.164062 200.539062 C 319.449219 210.851562 315.824219 215.480469 316.199219 207.699219 Z M 314.964844 54.457031 C 314.964844 54.460938 314.960938 54.464844 314.964844 54.46875 C 314.96875 54.472656 314.988281 54.46875 314.992188 54.46875 C 314.984375 54.464844 314.976562 54.460938 314.964844 54.457031 Z M 364.03125 128.335938 C 367.410156 128.691406 370.722656 129.117188 371.8125 131.761719 C 369.28125 130.554688 366.582031 129.519531 364.03125 128.335938 Z M 82.472656 134.269531 C 82.46875 134.28125 82.464844 134.296875 82.472656 134.304688 C 82.488281 134.320312 82.535156 134.308594 82.578125 134.304688 C 82.542969 134.292969 82.507812 134.28125 82.472656 134.269531 Z M 334.46875 181.570312 C 334.539062 185.613281 333.390625 189.9375 332.914062 194.335938 C 334.632812 191.363281 335.949219 185.8125 334.46875 181.570312 Z M 42.324219 309.355469 C 42.277344 309.367188 42.210938 309.320312 42.175781 309.355469 C 42.148438 309.382812 42.167969 309.429688 42.175781 309.46875 C 42.199219 309.488281 42.230469 309.503906 42.25 309.519531 C 42.265625 309.460938 42.300781 309.414062 42.324219 309.355469 Z M 42.324219 309.355469 " fill-opacity="1" fill-rule="evenodd"></path>
  </g>
</svg>
