<?xml version="1.0" encoding="UTF-8"?>
<svg xmlns="http://www.w3.org/2000/svg" xmlns:xlink="http://www.w3.org/1999/xlink" width="500" zoomAndPan="magnify" viewBox="0 0 375 374.999991" height="500" preserveAspectRatio="xMidYMid meet" version="1.0">
  <defs>
    <clipPath id="5f770599d0">
      <path d="M 64.6875 0 L 310.6875 0 L 310.6875 375 L 64.6875 375 Z M 64.6875 0 " clip-rule="nonzero"></path>
    </clipPath>
  </defs>
  <g clip-path="url(#5f770599d0)">
    <path fill="#c89e67" d="M 168.671875 274.320312 C 166.921875 267.191406 163.789062 259.699219 164.8125 252.207031 C 165.246094 248.789062 167.726562 246.023438 169.402344 243.113281 C 169.472656 242.75 169.546875 242.3125 169.691406 241.949219 C 170.273438 240.203125 171.003906 238.601562 171.441406 236.785156 C 172.242188 233.292969 172.96875 229.875 173.480469 226.382812 C 173.699219 224.636719 174.71875 222.089844 174.28125 220.34375 C 173.480469 220.707031 172.824219 221.21875 172.097656 221.582031 C 172.242188 220.488281 172.535156 219.472656 172.605469 218.453125 C 171.949219 218.960938 171.292969 219.835938 170.421875 219.90625 C 170.347656 218.960938 170.347656 217.945312 170.273438 217 C 166.996094 219.761719 163.5 220.78125 159.347656 220.855469 C 157.234375 220.925781 155.265625 221.21875 153.226562 221.21875 C 152.644531 221.21875 151.332031 221.363281 150.167969 221.363281 C 147.980469 223.179688 145.359375 224.273438 142.589844 224.925781 C 139.382812 225.726562 136.03125 225.726562 132.898438 227.109375 C 129.984375 228.417969 127.070312 230.238281 124.738281 232.492188 C 122.410156 234.746094 121.824219 237.585938 122.117188 240.859375 C 122.335938 243.039062 122.628906 245.003906 122.554688 247.042969 C 127.070312 255.480469 150.386719 299.5625 153.519531 305.457031 C 154.828125 308 156.214844 310.546875 157.890625 312.875 C 159.417969 314.984375 161.460938 316.585938 163.355469 318.40625 C 165.394531 320.367188 167.578125 322.914062 168.671875 325.75 C 168.816406 316.078125 168.671875 282.175781 168.671875 274.320312 Z M 212.019531 214.523438 C 211.511719 213.578125 211.4375 212.414062 211 211.46875 C 210.128906 213.941406 208.816406 216.199219 208.015625 218.671875 C 207.867188 217.871094 207.648438 216.996094 207.066406 216.417969 C 206.558594 217.945312 205.101562 220.417969 203.644531 221.144531 C 203.496094 220.855469 203.207031 220.636719 203.132812 220.34375 C 201.894531 221.507812 200.945312 222.308594 200.800781 224.199219 C 200.144531 223.761719 199.707031 222.671875 199.34375 221.945312 C 197.742188 222.671875 196.941406 226.089844 196.429688 227.691406 C 195.847656 226.890625 195.554688 225.507812 194.535156 225.289062 C 193.660156 228.566406 192.203125 231.402344 191.402344 234.675781 C 190.675781 237.875 188.488281 240.421875 187.542969 243.621094 C 187.324219 244.203125 187.105469 245.148438 186.8125 246.097656 C 186.449219 249.222656 185.867188 252.351562 185.71875 255.554688 C 185.5 260.0625 184.554688 264.425781 182.003906 268.28125 C 181.640625 268.792969 181.347656 269.375 180.984375 270.027344 C 180.183594 283.632812 177.925781 329.023438 181.785156 357.542969 C 184.042969 359.652344 186.957031 360.742188 189.726562 362.050781 C 191.550781 362.925781 193.660156 363.871094 195.554688 364.160156 C 197.523438 364.453125 199.707031 364.304688 201.675781 364.671875 C 203.132812 364.960938 205.101562 365.398438 205.972656 366.707031 C 207.359375 366.996094 208.597656 367.578125 209.761719 368.453125 C 210.636719 369.109375 213.550781 371.507812 212.894531 372.816406 C 212.167969 374.054688 208.523438 372.597656 207.429688 372.382812 C 206.558594 372.234375 205.609375 372.089844 204.664062 371.945312 C 202.988281 373.761719 198.105469 372.746094 196.285156 372.089844 C 194.753906 371.507812 193.296875 370.78125 191.765625 370.488281 C 190.964844 370.34375 190.089844 370.273438 189.21875 370.273438 C 190.238281 371.800781 190.964844 373.546875 190.820312 374.5625 C 188.851562 375 186.8125 373.910156 184.847656 372.816406 C 180.546875 372.964844 176.539062 372.964844 174.792969 368.960938 C 171.878906 369.472656 167.871094 370.34375 166.121094 368.160156 C 164.882812 366.5625 165.175781 364.089844 165.613281 361.832031 C 165.832031 360.667969 166.121094 359.578125 166.269531 358.707031 C 166.703125 355.722656 167.070312 352.8125 167.578125 349.832031 C 168.597656 344.230469 167.871094 338.554688 168.234375 332.878906 C 167.433594 334.410156 166.195312 335.644531 165.464844 337.316406 C 164.445312 339.71875 164.738281 342.484375 164.957031 345.027344 C 165.394531 350.046875 164.15625 354.703125 164.375 359.722656 C 164.375 360.160156 164.300781 360.886719 164.15625 361.6875 C 163.644531 363.941406 162.332031 366.78125 160.292969 365.835938 C 159.054688 365.253906 159.417969 362.777344 159.929688 360.742188 C 159.636719 360.160156 159.273438 359.578125 158.980469 358.996094 C 158.398438 357.757812 158.179688 356.742188 157.960938 355.359375 C 157.742188 353.902344 157.015625 352.738281 156.433594 351.503906 C 154.976562 353.539062 151.40625 354.996094 151.625 352.375 C 151.695312 351.792969 152.28125 351.066406 152.351562 350.339844 C 152.425781 349.539062 152.28125 348.59375 152.207031 347.867188 C 152.207031 347.792969 152.207031 347.722656 152.207031 347.648438 C 149.875 346.921875 149 343.210938 149.074219 341.027344 C 149.148438 338.992188 150.167969 337.246094 151.257812 335.574219 C 150.167969 334.625 150.3125 332.808594 150.238281 330.988281 C 150.167969 328.515625 149.875 326.480469 149.148438 324.222656 C 147.761719 320.222656 145.140625 316.875 144.046875 312.875 C 143.753906 311.785156 143.535156 310.695312 143.390625 309.53125 C 140.839844 304.074219 128.382812 281.59375 125.105469 275.777344 C 124.738281 275.121094 124.449219 274.683594 124.375 274.464844 C 124.375 274.394531 124.304688 274.394531 124.304688 274.394531 C 123.574219 272.792969 122.554688 271.410156 121.679688 269.957031 C 120.003906 267.265625 118.039062 264.644531 116.214844 262.027344 C 114.46875 259.480469 112.574219 256.71875 110.386719 254.535156 C 108.128906 252.28125 105.652344 250.535156 103.832031 247.914062 C 102.519531 246.023438 101.0625 244.277344 100.113281 242.3125 C 98.148438 239.914062 97.855469 236.859375 98.804688 233.800781 C 99.75 230.820312 101.863281 228.636719 104.339844 226.890625 C 107.109375 225 109.367188 222.890625 111.84375 220.636719 C 115.996094 216.78125 121.023438 213.214844 124.085938 208.269531 C 123.5 207.757812 123.0625 207.105469 122.699219 206.449219 C 121.824219 204.851562 121.023438 203.25 119.347656 202.449219 C 120.148438 202.449219 121.023438 202.375 121.898438 202.304688 C 121.097656 201.722656 120.515625 200.703125 119.710938 200.121094 C 120.367188 200.046875 121.023438 200.339844 121.679688 200.414062 C 120.003906 199.03125 118.910156 196.992188 117.601562 195.246094 C 117.746094 195.828125 117.820312 196.339844 117.820312 196.558594 C 117.964844 198.085938 117.601562 199.757812 117.820312 201.210938 C 117.164062 199.464844 116.289062 198.15625 115.414062 196.558594 C 115.488281 197.722656 115.121094 198.8125 115.195312 199.902344 C 114.832031 199.394531 114.46875 198.59375 113.957031 198.230469 C 113.8125 199.464844 112.863281 200.195312 112.574219 201.285156 C 112.28125 202.375 112.207031 203.6875 112.28125 204.851562 C 111.625 203.320312 110.96875 202.304688 110.824219 200.628906 C 110.3125 201.648438 109.878906 202.8125 109.292969 203.902344 C 109.003906 203.46875 108.710938 202.523438 108.128906 202.523438 C 108.203125 203.394531 107.253906 204.195312 106.746094 204.777344 C 106.527344 205.066406 106.234375 205.503906 105.941406 205.722656 C 105.578125 205.941406 105.289062 205.796875 104.921875 206.160156 C 104.339844 206.742188 104.339844 208.195312 104.195312 208.996094 C 104.046875 210.015625 103.832031 211.03125 103.902344 212.125 C 103.175781 211.542969 103.027344 210.234375 102.808594 209.359375 C 102.519531 208.414062 102.300781 207.46875 102.15625 206.449219 C 101.789062 206.742188 101.789062 207.324219 101.644531 207.832031 C 100.699219 207.25 100.480469 205.066406 100.042969 204.050781 C 99.53125 204.484375 99.605469 205.503906 99.605469 206.160156 C 98.148438 204.703125 96.398438 203.394531 95.453125 201.503906 C 95.378906 202.15625 95.523438 202.886719 95.453125 203.539062 C 94.722656 202.957031 94.285156 202.011719 93.703125 201.285156 C 93.777344 202.886719 93.847656 204.414062 94.941406 205.722656 C 93.628906 205.503906 92.171875 203.320312 91.371094 202.375 C 90.644531 201.578125 89.84375 200.414062 89.332031 199.175781 C 88.96875 200.339844 88.894531 201.867188 89.257812 202.304688 C 88.019531 201.429688 85.980469 199.03125 85.90625 197.355469 C 85.835938 198.449219 86.273438 199.832031 86.492188 200.921875 C 85.980469 200.414062 85.6875 199.757812 85.105469 199.320312 C 86.125 201.578125 85.253906 204.484375 86.417969 206.667969 C 85.761719 205.578125 84.960938 204.632812 84.378906 203.539062 C 83.792969 202.59375 83.648438 201.578125 83.359375 200.558594 C 82.703125 198.300781 81.609375 196.703125 80.371094 194.738281 C 80.445312 196.046875 80.660156 197.648438 81.316406 198.8125 C 80.808594 198.011719 80.152344 197.140625 79.496094 196.484375 C 79.570312 198.011719 79.421875 199.683594 80.296875 200.996094 C 78.332031 199.902344 77.238281 197.285156 76.289062 195.320312 C 75.707031 196.484375 76.289062 198.667969 76.507812 199.832031 C 76.65625 200.996094 77.019531 201.941406 77.746094 202.886719 C 76.726562 202.59375 75.707031 200.921875 75.269531 199.902344 C 74.6875 198.667969 74.613281 197.355469 74.25 196.046875 C 73.742188 197.066406 73.886719 198.738281 73.960938 199.832031 C 73.960938 200.703125 74.324219 202.375 73.8125 203.105469 C 73.375 202.449219 73.304688 201.285156 73.011719 200.484375 C 72.722656 199.539062 72.503906 198.667969 72.355469 197.722656 C 72.066406 196.339844 71.992188 194.449219 72.429688 193.136719 C 71.699219 193.648438 71.117188 194.082031 70.679688 194.882812 C 70.171875 193.648438 71.046875 192.410156 70.753906 191.171875 C 69.589844 191.464844 69.152344 192.703125 69.003906 190.882812 C 68.933594 189.863281 68.640625 188.773438 68.421875 187.828125 C 67.914062 185.574219 67.328125 183.460938 67.546875 181.136719 C 67.621094 180.1875 67.621094 178.589844 68.132812 177.714844 C 67.257812 177.644531 67.109375 178.296875 66.671875 178.808594 C 66.527344 177.863281 66.671875 177.207031 66.964844 176.40625 C 66.089844 176.769531 65.507812 177.351562 65.070312 178.226562 C 64.996094 176.769531 66.019531 175.242188 66.671875 173.933594 C 65.871094 174.007812 65.289062 174.078125 64.707031 174.734375 C 64.925781 172.476562 66.382812 169.640625 68.421875 168.113281 C 68.421875 166.730469 68.496094 165.421875 68.640625 163.96875 C 69.152344 159.164062 70.316406 154.21875 71.917969 149.710938 C 72.867188 147.164062 73.667969 144.542969 74.6875 142 C 75.488281 139.816406 76.726562 137.925781 77.746094 135.886719 C 78.839844 133.777344 79.789062 131.742188 81.464844 130.066406 C 82.847656 128.757812 84.085938 127.449219 85.105469 125.847656 C 86.273438 123.957031 87.511719 122.355469 88.820312 120.757812 C 90.207031 118.5 91.882812 116.464844 93.558594 114.5 C 96.035156 111.589844 99.53125 110.136719 102.664062 108.171875 C 106.160156 105.988281 109.804688 103.445312 113.59375 101.914062 C 117.453125 100.316406 121.386719 98.496094 125.324219 97.1875 C 128.894531 96.023438 132.609375 95.222656 136.179688 93.988281 C 137.855469 91.660156 140.402344 89.839844 142.734375 88.3125 C 145.359375 86.640625 148.125 85.328125 150.75 83.730469 C 153.371094 82.128906 155.414062 80.238281 158.398438 79.363281 C 161.679688 78.347656 164.882812 77.984375 168.308594 77.910156 C 171.148438 77.910156 173.917969 77.691406 176.757812 77.402344 C 176.25 76.890625 175.738281 76.382812 175.375 75.726562 C 174.644531 74.417969 173.625 72.089844 174.0625 70.5625 C 174.863281 71.726562 175.738281 72.597656 176.90625 73.398438 C 178.871094 74.710938 181.128906 76.019531 183.316406 76.964844 C 184.480469 77.472656 185.648438 77.765625 186.8125 78.273438 C 187.105469 78.417969 187.542969 78.566406 188.050781 78.78125 C 187.324219 77.765625 186.523438 76.820312 185.648438 75.800781 C 184.335938 74.273438 182.296875 72.382812 182.441406 70.125 C 183.753906 69.980469 185.066406 70.273438 186.304688 70.5625 C 187.324219 70.855469 188.199219 71.652344 189.144531 72.234375 C 189.144531 71.070312 189.582031 69.835938 190.457031 69.542969 C 190.457031 71.070312 191.332031 72.746094 191.984375 74.128906 C 193.515625 77.328125 195.191406 78.78125 198.46875 79.65625 C 199.855469 80.019531 201.3125 80.308594 202.621094 80.746094 C 203.277344 80.964844 204.371094 81.328125 205.246094 81.765625 C 205.027344 81.109375 204.953125 80.457031 205.027344 79.582031 C 206.921875 82.128906 209.910156 82.347656 212.457031 83.730469 C 212.238281 82.710938 212.167969 81.621094 212.238281 80.890625 C 213.1875 81.621094 214.0625 82.566406 215.082031 83.21875 C 216.175781 83.949219 217.339844 84.53125 218.503906 85.113281 C 220.835938 86.277344 223.3125 87.003906 225.644531 88.09375 C 228.195312 89.332031 229.796875 91.222656 231.765625 93.257812 C 233.585938 95.222656 235.699219 96.75 237.300781 98.933594 C 238.46875 100.535156 239.5625 103.152344 241.308594 104.316406 C 242.183594 104.242188 243.058594 104.242188 244.003906 104.390625 C 246.847656 104.824219 250.050781 105.554688 252.3125 107.515625 C 253.476562 108.535156 254.132812 109.992188 255.152344 111.15625 C 255.664062 111.734375 256.171875 112.316406 256.683594 112.828125 C 258.140625 113.046875 259.742188 113.480469 260.761719 113.847656 C 265.0625 115.226562 267.976562 118.066406 271.398438 120.976562 C 274.167969 123.304688 277.007812 125.558594 279.703125 128.03125 C 283.710938 125.046875 286.261719 121.121094 287.5 115.738281 C 290.125 103.878906 288.375 89.402344 284.949219 77.835938 C 283.273438 72.019531 280.289062 66.925781 277.664062 61.542969 C 275.917969 57.976562 274.460938 54.269531 272.929688 50.558594 C 272.855469 50.484375 272.785156 50.339844 272.785156 50.265625 C 271.179688 47.355469 269.652344 44.300781 268.265625 41.246094 C 267.539062 39.574219 266.734375 38.046875 265.789062 36.519531 C 264.988281 35.207031 264.039062 33.535156 264.550781 31.933594 C 264.332031 32.082031 264.113281 32.082031 263.820312 32.082031 C 263.675781 31.207031 263.894531 30.042969 264.113281 29.242188 C 263.894531 29.390625 263.601562 29.460938 263.457031 29.535156 C 263.386719 28.808594 263.238281 27.933594 263.75 27.351562 C 263.386719 27.351562 263.019531 27.644531 262.582031 27.570312 C 262.511719 26.988281 262.730469 26.117188 263.238281 25.75 C 262.875 25.824219 262.4375 25.96875 262.144531 26.1875 C 262 25.386719 262.363281 24.222656 262.800781 23.640625 C 262.363281 23.714844 262 24.078125 261.492188 24.152344 C 261.636719 23.132812 262 22.550781 262.582031 21.679688 C 261.929688 21.605469 261.492188 22.042969 260.90625 22.113281 C 261.492188 21.097656 261.710938 20.222656 262.730469 19.640625 C 262 19.277344 261.199219 18.988281 260.398438 18.988281 C 261.199219 18.550781 262.144531 18.257812 263.09375 17.96875 C 262.21875 18.039062 261.125 17.96875 260.46875 17.53125 C 261.417969 17.457031 262.582031 16.804688 263.3125 16.511719 C 262 16.511719 260.90625 16.222656 259.597656 16.148438 C 260.90625 15.785156 262.363281 14.695312 263.75 14.765625 C 263.3125 14.476562 262.65625 14.183594 262.363281 13.75 C 263.019531 13.53125 263.675781 13.238281 264.476562 13.167969 C 263.386719 13.09375 262.363281 12.074219 261.5625 11.492188 C 263.167969 11.492188 264.625 11.058594 265.933594 10.113281 C 266.882812 9.3125 267.902344 7.929688 269.066406 7.203125 C 268.558594 7.128906 268.195312 6.910156 267.683594 6.765625 C 266.808594 6.402344 265.789062 6.328125 265.132812 5.675781 C 266.300781 5.675781 267.390625 4.65625 268.558594 4.4375 C 268.121094 4.21875 267.539062 4.148438 267.246094 3.710938 C 268.265625 3.636719 269.214844 2.835938 270.304688 2.984375 C 269.941406 2.835938 269.214844 2.546875 268.847656 2.183594 C 270.742188 1.964844 272.636719 1.964844 274.460938 2.109375 C 274.386719 1.964844 274.460938 1.746094 274.386719 1.601562 C 275.1875 1.382812 275.84375 1.671875 276.644531 1.601562 C 276.570312 1.527344 276.425781 1.308594 276.351562 1.164062 C 277.445312 0 281.527344 0.363281 282.910156 0.800781 C 282.835938 0.65625 282.910156 0.507812 282.835938 0.292969 C 283.492188 0.144531 283.929688 0.582031 284.585938 0.65625 C 284.511719 0.507812 284.660156 0.21875 284.585938 0.0742188 C 285.242188 0.21875 285.898438 0.582031 286.40625 1.089844 C 286.699219 0.875 286.773438 0.582031 286.84375 0.21875 C 287.5 0.582031 288.375 0.875 289.03125 1.382812 C 289.46875 1.089844 290.125 0.945312 290.488281 1.019531 C 291.070312 1.089844 291.070312 1.746094 291.507812 1.746094 C 291.796875 1.746094 292.308594 0.945312 292.527344 0.726562 C 292.890625 0.945312 293.039062 1.382812 293.328125 1.746094 C 293.546875 1.308594 293.984375 0.800781 293.984375 0.292969 C 294.566406 0.65625 294.640625 1.453125 295.003906 1.964844 C 295.222656 1.527344 295.441406 1.019531 295.660156 0.582031 C 296.171875 1.089844 296.242188 1.820312 296.535156 2.472656 C 296.972656 1.671875 297.773438 0.875 298.648438 0.582031 C 298.355469 1.964844 298.429688 3.636719 298.066406 5.019531 C 298.574219 4.875 298.867188 4.4375 299.15625 4 C 298.792969 5.164062 298.792969 6.472656 298.136719 7.636719 C 298.5 7.636719 298.867188 7.566406 299.15625 7.492188 C 298.867188 8.148438 298.429688 8.65625 297.992188 9.238281 C 298.648438 9.238281 299.449219 9.238281 299.957031 9.601562 C 297.847656 10.257812 297.261719 12.511719 296.171875 14.113281 C 297.917969 16.511719 300.46875 17.96875 303.382812 18.769531 C 304.984375 19.203125 307.171875 19.496094 307.828125 21.386719 C 308.554688 23.425781 306.878906 25.242188 305.058594 25.679688 C 303.527344 25.96875 302.070312 25.535156 300.6875 24.953125 C 300.25 25.097656 299.667969 25.386719 299.304688 25.460938 C 298.429688 25.679688 297.480469 25.605469 296.605469 25.535156 C 294.785156 25.316406 293.109375 25.167969 291.289062 25.316406 C 291.289062 25.316406 291.214844 25.316406 291.214844 25.316406 C 290.925781 26.042969 290.339844 26.550781 289.90625 27.207031 C 289.394531 28.007812 289.101562 28.953125 288.8125 29.898438 C 288.230469 31.863281 287.9375 34.191406 288.082031 36.300781 C 288.230469 38.480469 288.667969 40.957031 289.46875 42.992188 C 290.269531 44.957031 291.214844 46.703125 291.800781 48.738281 C 294.496094 54.339844 296.390625 60.234375 299.230469 65.761719 C 302.945312 72.964844 306.078125 79.800781 307.753906 87.875 C 309.355469 95.730469 310.667969 103.953125 310.449219 112.027344 C 310.230469 119.957031 309.355469 128.25 306.953125 135.816406 C 304.621094 143.089844 303.019531 152.109375 296.753906 156.910156 C 295.804688 159.457031 294.566406 161.710938 292.527344 163.675781 C 292.234375 163.96875 291.945312 164.183594 291.726562 164.402344 C 291.507812 165.785156 290.707031 167.894531 290.632812 168.914062 C 290.488281 170.878906 290.34375 173.132812 289.6875 175.097656 C 289.03125 174.296875 288.957031 172.988281 288.082031 172.261719 C 287.9375 174.078125 287.28125 175.605469 286.480469 177.28125 C 286.40625 176.261719 286.261719 175.167969 285.75 174.222656 C 284.660156 176.699219 282.765625 178.007812 280.652344 178.953125 C 280.140625 181.789062 277.375 184.480469 275.40625 185.9375 C 272.492188 188.191406 270.453125 190.957031 268.628906 194.300781 C 268.628906 192.773438 268.921875 190.226562 268.121094 189.0625 C 267.683594 192.265625 265.789062 195.828125 263.675781 198.230469 C 261.34375 200.847656 258.941406 203.539062 256.609375 205.941406 C 256.464844 204.558594 256.828125 203.320312 256.683594 202.011719 C 255.734375 202.957031 254.859375 204.121094 253.769531 204.996094 C 253.550781 204.269531 253.402344 203.613281 253.257812 202.886719 C 251.074219 205.722656 249.25 209.070312 246.554688 211.542969 C 246.410156 209.871094 246.554688 208.195312 246.335938 206.523438 C 244.878906 208.632812 242.183594 213.433594 239.851562 214.234375 C 239.851562 211.980469 239.195312 209.578125 239.707031 207.324219 C 239.050781 209.070312 237.519531 210.816406 236.355469 212.195312 C 236.28125 211.324219 236.28125 210.523438 235.992188 209.722656 C 235.480469 211.542969 233.878906 214.015625 232.058594 214.597656 C 231.984375 213.289062 232.710938 211.980469 232.785156 210.597656 C 232.859375 209.722656 232.785156 208.921875 232.859375 208.195312 C 232.929688 207.976562 232.929688 207.757812 232.929688 207.542969 C 232.929688 207.757812 232.859375 207.976562 232.859375 208.195312 C 232.496094 210.304688 230.308594 212.488281 228.558594 213.070312 C 228.414062 211.90625 228.707031 210.449219 228.777344 209.289062 C 227.976562 210.742188 226.300781 212.34375 224.625 212.269531 C 224.480469 210.886719 225.5 209.652344 225.28125 208.339844 C 224.40625 209.722656 223.167969 210.667969 221.710938 210.886719 C 220.617188 211.03125 217.777344 211.398438 218.722656 209.503906 C 217.851562 210.234375 216.394531 210.378906 215.15625 210.160156 C 213.332031 211.6875 212.3125 213.871094 212.019531 214.523438 Z M 212.019531 214.523438 " fill-opacity="1" fill-rule="nonzero"></path>
  </g>
</svg>
