<?xml version="1.0" encoding="UTF-8"?>
<svg xmlns="http://www.w3.org/2000/svg" xmlns:xlink="http://www.w3.org/1999/xlink" width="500" zoomAndPan="magnify" viewBox="0 0 375 374.999991" height="500" preserveAspectRatio="xMidYMid meet" version="1.0">
  <defs>
    <clipPath id="2055d25983">
      <path d="M 0 95 L 375 95 L 375 280.171875 L 0 280.171875 Z M 0 95 " clip-rule="nonzero"></path>
    </clipPath>
  </defs>
  <g clip-path="url(#2055d25983)">
    <path fill="#c89e67" d="M 4.835938 207.972656 C 5.449219 206.765625 5.417969 205.296875 5.949219 203.851562 C 6.105469 204.3125 5.515625 204.832031 6.039062 204.878906 C 6.117188 204.15625 6.582031 203.621094 6.722656 202.90625 C 7.269531 200.183594 6.292969 196.757812 6.722656 193.894531 C 6.859375 193 7.492188 192.023438 7.925781 191.058594 C 9.222656 188.140625 10.378906 185.039062 11.613281 182.394531 C 11.15625 181.59375 11.71875 180.542969 11.871094 179.476562 C 12.210938 177.097656 11.890625 174.292969 12.128906 171.835938 C 12.496094 173.925781 14.167969 175.453125 14.960938 177.414062 C 15.015625 177.550781 15.09375 177.710938 15.132812 177.84375 C 16.050781 181.253906 16.507812 185.019531 16.929688 189.171875 C 16.625 189.484375 16.699219 189.789062 16.671875 190.117188 C 16.570312 191.714844 16.847656 193.582031 16.847656 195.4375 C 16.847656 200.84375 16.652344 206.820312 16.671875 211.742188 C 16.679688 212.699219 17.097656 213.9375 16.59375 214.492188 C 16.753906 216.914062 15.894531 218.910156 15.390625 221.1875 C 15.023438 222.835938 14.453125 224.511719 13.929688 226.078125 C 12.886719 229.234375 11.964844 232.519531 10.757812 235.605469 C 10.171875 237.089844 9.457031 238.5625 8.871094 240.070312 C 8.25 241.644531 7.8125 243.277344 7.152344 244.703125 C 6.523438 246.058594 5.734375 247.484375 4.921875 248.824219 C 4.03125 250.292969 2.382812 251.710938 2.179688 253.285156 C 1.996094 254.65625 2.621094 255.578125 2.863281 256.71875 C 2.945312 257.082031 2.878906 257.472656 2.949219 257.746094 C 3.203125 258.742188 3.851562 259.960938 4.324219 261.011719 C 5.074219 262.695312 5.9375 264.023438 7.582031 264.699219 C 7.894531 267.277344 7.382812 268.828125 6.808594 270.535156 C 5.949219 273.113281 4.523438 275.21875 3.722656 277.746094 C 4.199219 277.816406 4.332031 278.472656 5.007812 278.777344 C 5.875 279.167969 7.074219 279.296875 7.839844 278.863281 C 9.636719 279.320312 11.777344 279.445312 13.929688 279.546875 C 14.492188 280.15625 15.625 280.144531 16.847656 280.066406 C 19.195312 279.90625 22.082031 279.519531 25.171875 279.632812 C 27.972656 279.738281 31.550781 280.09375 33.578125 279.378906 C 34.148438 279.175781 34.53125 278.570312 35.117188 278.347656 C 36.117188 277.96875 38.289062 278.003906 38.378906 277.660156 C 39.054688 277.761719 39.835938 277.3125 40.523438 277.144531 C 40.664062 277.273438 40.417969 277.601562 40.777344 277.660156 C 41.394531 277.167969 42.179688 276.554688 41.894531 275.425781 C 42.117188 275.109375 42.347656 274.792969 42.496094 274.398438 C 41.746094 273.714844 41.761719 272.609375 41.382812 271.652344 C 40.386719 269.152344 38.375 267.859375 37.003906 265.558594 C 36.34375 264.445312 35.960938 262.964844 35.292969 261.78125 C 35.097656 261.445312 34.738281 261.1875 34.601562 260.835938 C 33.804688 258.753906 35.402344 257.910156 35.71875 256.117188 C 35.898438 255.980469 36.269531 256.039062 36.320312 255.773438 C 37.023438 253.976562 37.417969 251.714844 38.292969 249.765625 C 38.664062 248.933594 39.175781 248.113281 39.582031 247.191406 C 39.960938 246.324219 40.335938 245.386719 40.777344 244.535156 C 42.644531 240.953125 43.960938 237.484375 45.671875 233.804688 C 46.375 232.28125 47.371094 229.667969 48.757812 229.078125 C 49.664062 228.703125 50.75 228.605469 51.671875 228.3125 C 54.597656 227.375 56.90625 226.117188 59.136719 224.703125 C 61.023438 228.726562 62.746094 232.628906 64.796875 236.546875 C 67.253906 241.238281 69.710938 245.785156 70.03125 252.597656 C 70.085938 253.796875 69.75 255.253906 70.03125 256.375 C 70.183594 256.984375 70.964844 257.296875 71.0625 257.835938 C 72.324219 258.398438 73.539062 259.078125 74.925781 259.636719 C 76.21875 260.160156 77.765625 260.675781 78.957031 261.4375 C 79.484375 261.78125 80.058594 262.457031 80.582031 262.984375 C 81.65625 264.058594 82.402344 264.761719 82.640625 266.5 C 82.902344 268.375 81.714844 271.460938 82.386719 272.082031 C 82.671875 272.351562 82.910156 272.089844 83.328125 272.253906 C 83.734375 272.410156 84.203125 272.863281 84.699219 273.113281 C 85.160156 273.34375 85.660156 273.6875 86.160156 273.882812 C 87.78125 274.527344 89.792969 274.203125 91.816406 274.3125 C 93.058594 274.382812 94.378906 274.71875 95.679688 274.824219 C 99.824219 275.171875 103.941406 275.679688 108.207031 275.683594 C 108.433594 275.496094 108.425781 275.0625 108.628906 274.839844 C 108.648438 274.839844 108.667969 274.835938 108.6875 274.835938 C 111.9375 275.832031 114.382812 273.683594 117.042969 273.539062 C 117.949219 271.28125 116.171875 269.648438 115.839844 267.789062 C 114.714844 265.9375 113.589844 264.3125 112.320312 262.730469 C 111.070312 261.152344 109.6875 259.761719 108.289062 258.179688 C 106.957031 256.664062 105.402344 255.390625 103.917969 253.972656 C 102.394531 252.515625 100.621094 251.453125 99.457031 249.765625 C 97.417969 246.808594 95.871094 242.691406 95.59375 238.09375 C 95.167969 231.042969 96.34375 225.042969 97.050781 218.695312 C 100.660156 221.425781 104.816406 224 109.746094 225.304688 C 111.441406 225.757812 113.261719 225.847656 114.894531 226.679688 C 118.441406 227.1875 122.277344 227.738281 126.390625 227.878906 C 134.816406 228.171875 143.273438 227.628906 150.582031 226.503906 C 152.402344 226.230469 154.152344 225.636719 155.902344 225.390625 C 157.78125 225.132812 159.632812 225.054688 161.300781 224.359375 C 161.605469 224.464844 161.46875 225 161.734375 225.132812 C 163.894531 222.859375 168.5 222.574219 170.996094 220.929688 C 171.488281 226.128906 172.8125 230.5 173.742188 235.261719 C 174.710938 237.386719 175.804688 239.648438 177.003906 241.527344 C 177.410156 242.171875 178.019531 242.769531 178.289062 243.417969 C 178.679688 244.34375 178.785156 245.59375 179.0625 246.765625 C 179.644531 249.195312 179.722656 251.585938 180.089844 254.144531 C 180.265625 255.355469 180.707031 256.609375 180.691406 257.746094 C 180.675781 258.730469 180.273438 259.769531 180.175781 260.835938 C 180.039062 262.316406 180.164062 263.847656 179.835938 265.042969 C 179.722656 265.449219 179.386719 265.894531 179.234375 266.332031 C 179.050781 266.84375 178.996094 267.382812 178.804688 267.789062 C 178.40625 268.636719 177.675781 269.617188 177.691406 270.796875 C 178.109375 271.296875 177.183594 273.265625 177.601562 274.570312 C 177.984375 274.917969 178.535156 275.207031 179.234375 275 C 179.449219 275.414062 179.761719 275.726562 180.351562 275.773438 C 182.855469 275.109375 186.558594 276.300781 188.75 276.886719 C 189.625 277.117188 190.53125 277.042969 191.414062 277.230469 C 192.433594 277.445312 193.238281 277.925781 194.246094 278.089844 C 195.339844 278.269531 196.46875 278.304688 197.675781 278.429688 C 202.203125 278.921875 207.644531 279.261719 211.488281 278.003906 C 213.421875 277.371094 215.308594 276.855469 217.058594 276.03125 C 217.203125 275.285156 217.765625 274.824219 217.921875 273.882812 C 218.390625 273.863281 218.949219 273.941406 219.296875 273.796875 C 220.644531 272.4375 219.808594 270.449219 219.210938 268.992188 C 218.867188 268.152344 218.359375 267.59375 217.921875 266.84375 C 217.046875 265.339844 216.257812 263.875 215.261719 262.898438 C 214.671875 262.628906 214.230469 262.214844 213.722656 261.867188 C 213.089844 259.671875 210.542969 258.710938 209.511719 256.628906 C 209.523438 254.980469 209.445312 253.421875 209.683594 252 C 209.921875 250.601562 210.089844 249.175781 210.457031 247.878906 C 210.953125 246.125 211.890625 244.421875 212.605469 242.8125 C 214.867188 237.710938 216.605469 232.648438 218.695312 227.277344 C 221.898438 229.851562 223.136719 234.394531 225.296875 238.007812 C 224.660156 238.824219 224.578125 239.738281 223.582031 239.898438 C 222.808594 240.019531 221.386719 239.585938 220.410156 239.207031 C 219.5625 238.882812 218.320312 238.089844 217.496094 238.4375 C 217.203125 238.558594 216.933594 239.226562 216.636719 239.640625 C 214.597656 242.503906 213.1875 246.578125 213.632812 250.964844 C 213.765625 252.300781 213.832031 253.550781 214.144531 254.574219 C 215.117188 257.6875 216.957031 260.265625 218.265625 263.074219 C 218.351562 263.417969 218.253906 263.417969 218.265625 263.839844 C 219.117188 264.089844 219.113281 265.125 219.554688 265.816406 C 220.429688 267.214844 223.515625 268.433594 225.210938 268.992188 C 225.910156 269.21875 227.011719 269.605469 227.703125 269.507812 C 228.511719 269.390625 229.582031 267.992188 230.101562 267.359375 C 231.144531 266.082031 231.960938 264.308594 232.84375 262.730469 C 233.769531 261.066406 234.640625 259.460938 235.675781 258.09375 C 237.988281 256.464844 240.273438 254.808594 242.28125 252.511719 C 244 250.550781 246.867188 248.441406 247.605469 245.558594 C 248.207031 243.183594 248.085938 240.085938 248.207031 236.980469 C 248.234375 236.097656 248.519531 235.050781 248.460938 234.144531 C 248.394531 233.117188 247.734375 232.265625 248.03125 231.144531 C 247.855469 230.820312 247.527344 231.519531 247.429688 231.054688 C 246.640625 228.152344 245.042969 225.703125 244.429688 222.816406 C 244.070312 221.160156 243.808594 220.148438 243.226562 218.785156 C 242.414062 216.886719 241.519531 215.066406 240.574219 213.289062 C 240.089844 212.410156 239.4375 211.609375 239.023438 210.714844 C 238.113281 208.753906 237.890625 206.625 236.707031 204.792969 C 237.484375 204.28125 238.148438 203.664062 238.855469 203.078125 C 239.277344 204.390625 241.480469 205.3125 242.800781 204.191406 C 244.136719 205.402344 245.601562 206.476562 247.683594 206.941406 C 249.84375 208.363281 252.199219 209.386719 254.460938 210.800781 C 256.253906 211.917969 258.140625 212.980469 260.128906 213.71875 C 262.148438 214.476562 264.078125 215.441406 266.132812 216.292969 C 268.25 217.179688 270.519531 217.347656 272.820312 218.179688 C 273.136719 218.179688 273.050781 217.78125 273.507812 217.929688 C 276.695312 218.558594 280.011719 218.183594 283.199219 218.355469 C 284.246094 218.410156 285.507812 218.371094 286.378906 218.613281 C 286.863281 218.75 287.4375 219.398438 288.003906 219.558594 C 288.449219 219.679688 288.882812 219.519531 289.464844 219.640625 C 290.183594 219.789062 291.03125 220.277344 291.953125 220.585938 C 293.78125 221.199219 295.464844 221.8125 297.269531 222.304688 C 298.207031 222.554688 299.121094 223 299.925781 223.160156 C 302.035156 223.574219 304.484375 223.054688 306.105469 223.847656 C 306.558594 224.066406 306.933594 224.753906 307.5625 224.960938 C 307.671875 225.238281 307.210938 225.472656 307.648438 225.734375 C 309.070312 226.269531 310.59375 225.996094 312.113281 225.992188 C 314.023438 225.988281 315.753906 226.527344 317.515625 225.992188 C 318.246094 225.769531 319.082031 225.320312 319.746094 224.875 C 320.4375 224.414062 320.953125 223.632812 321.628906 223.328125 C 322.960938 222.746094 324.789062 222.707031 326.351562 222.390625 C 327.933594 222.066406 329.636719 221.660156 330.816406 221.101562 C 331.964844 220.550781 332.144531 219.699219 332.703125 218.695312 C 333.113281 217.957031 333.886719 217.449219 333.898438 216.640625 C 334.0625 216.160156 333.574219 216.332031 333.554688 216.039062 C 334.519531 214.640625 334.402344 212.855469 334.753906 211.058594 C 334.90625 210.304688 335.476562 209.585938 335.445312 208.828125 C 335.414062 208.121094 334.8125 207.335938 334.5 206.59375 C 334.175781 205.8125 333.820312 204.957031 333.640625 204.191406 C 333.347656 202.949219 333.761719 202.039062 334.070312 201.015625 C 334.429688 199.855469 334.679688 199.136719 335.097656 198.269531 C 335.269531 197.925781 335.359375 197.476562 335.527344 197.238281 C 335.984375 196.59375 337.148438 195.953125 337.851562 195.355469 C 339.429688 193.988281 340.914062 192.648438 342.136719 191.234375 C 342.792969 190.46875 343.265625 189.582031 344.023438 188.914062 C 345.039062 188.019531 346.289062 187.433594 347.367188 186.683594 C 348.464844 185.921875 349.460938 185.011719 350.457031 184.105469 C 352.40625 182.332031 354.511719 180.738281 356.457031 178.785156 C 360.101562 175.144531 363.394531 170.511719 366.066406 165.742188 C 367.417969 163.328125 368.652344 160.753906 369.582031 157.933594 C 370.496094 155.171875 371.703125 152.417969 372.414062 149.4375 C 373.472656 145 374.796875 140.746094 374.390625 134.417969 C 374.238281 132.105469 373.636719 128.605469 372.242188 130.726562 C 371.90625 130.828125 372.207031 130.152344 371.90625 130.464844 C 370.136719 132.132812 369.257812 134.484375 368.125 136.734375 C 366.636719 139.691406 365.441406 142.632812 363.753906 145.320312 C 363.042969 146.441406 362.066406 147.53125 361.265625 148.574219 C 359.542969 150.816406 357.730469 153.027344 356.203125 155.015625 C 355.378906 156.085938 354.71875 157.300781 353.800781 158.273438 C 352.003906 160.1875 349.632812 161.910156 347.539062 163.511719 C 346.464844 164.335938 345.398438 165.355469 344.28125 166 C 342.8125 166.847656 341.191406 167.355469 339.558594 168.058594 C 337.988281 168.734375 336.300781 169.636719 334.753906 170.035156 C 332.253906 170.679688 329.476562 170.984375 326.527344 170.890625 C 325.648438 170.867188 324.605469 170.5 323.691406 170.636719 C 323.371094 170.683594 323.101562 170.984375 322.664062 171.0625 C 322.140625 171.15625 321.613281 171.070312 321.03125 170.976562 C 321.464844 166.0625 322.273438 159.847656 320.085938 156.304688 C 319.578125 156.476562 319.136719 156.191406 318.628906 156.214844 C 317.785156 156.261719 317.09375 157.050781 316.402344 156.730469 C 315.109375 158.234375 313.253906 159.34375 311.507812 160.59375 C 308.925781 162.445312 306.808594 164.097656 303.792969 165.3125 C 302.984375 165.636719 301.773438 166.183594 300.960938 166.085938 C 299.890625 165.957031 298.589844 164.699219 297.703125 164.027344 C 296.570312 163.164062 295.59375 162.539062 294.78125 161.535156 C 293.363281 159.804688 291.34375 156.980469 290.835938 154.667969 C 290.730469 154.160156 290.785156 153.597656 290.667969 153.210938 C 290.453125 152.546875 290.074219 151.863281 289.804688 151.148438 C 289.546875 150.449219 289.28125 149.726562 289.035156 149.007812 C 288.542969 147.539062 288.179688 145.816406 287.574219 144.632812 C 287.394531 144.257812 287.050781 143.921875 286.800781 143.511719 C 286.078125 142.277344 285.242188 141.003906 284.234375 140.167969 C 286.53125 138.636719 288.441406 136.710938 289.550781 133.984375 C 289.515625 134.367188 289.601562 134.625 289.976562 134.589844 C 290.304688 133.945312 290.234375 133.128906 290.152344 132.441406 C 289.871094 130.128906 288.539062 127.675781 289.289062 124.976562 C 289.425781 124.496094 289.914062 124.117188 290.066406 123.515625 C 290.304688 122.558594 290.175781 121.75 289.894531 120.769531 C 288.433594 120.410156 287.722656 121.171875 286.972656 121.28125 C 286.359375 121.378906 285.710938 121.015625 284.921875 121.28125 C 284.449219 121.148438 284.316406 120.535156 283.628906 120.769531 C 283.167969 120.925781 283.328125 121.636719 283.03125 122.226562 C 282.859375 122.566406 282.414062 122.925781 282.171875 123.34375 C 281.9375 123.75 281.808594 124.21875 281.65625 124.457031 C 281.171875 125.234375 280.058594 126.058594 279.253906 126.863281 C 276.800781 129.324219 273.6875 131.542969 270.9375 133.210938 C 265.378906 130.464844 260.269531 127.679688 255.578125 124.117188 C 253.265625 122.359375 251.164062 120.417969 248.890625 118.625 C 246.621094 116.828125 244.300781 115.019531 241.851562 113.386719 C 240.601562 112.554688 239.324219 111.878906 238.160156 110.984375 C 237.015625 110.097656 235.894531 109.21875 234.738281 108.324219 C 232.367188 106.503906 229.625 105.367188 226.933594 103.863281 C 224.277344 102.382812 221.628906 101.019531 219.125 99.484375 C 217.058594 98.21875 214.992188 97.476562 212.433594 96.996094 C 211.59375 96.839844 210.660156 96.855469 209.683594 96.652344 C 208.722656 96.453125 207.8125 96.03125 206.769531 95.878906 C 200.144531 94.910156 192.359375 95.03125 186.695312 97.167969 C 184.214844 98.105469 181.785156 98.53125 179.234375 99.054688 C 176.785156 99.558594 174.5625 100.566406 172.285156 101.460938 C 163.152344 105.03125 152.054688 106.308594 139.515625 104.976562 C 139.269531 104.820312 139.324219 104.367188 139.003906 104.292969 C 135.855469 103.652344 132.609375 103.078125 129.222656 102.921875 C 128.058594 102.863281 126.773438 102.984375 125.617188 102.746094 C 124.542969 102.519531 123.378906 101.964844 122.1875 101.628906 C 119.742188 100.945312 117.617188 100.34375 114.980469 99.742188 C 113.699219 99.449219 112.230469 98.988281 111.035156 99.140625 C 110.476562 99.214844 110.199219 99.550781 109.746094 99.65625 C 108.6875 99.902344 107.519531 99.859375 106.402344 100.085938 C 103.332031 100.703125 100.257812 102.0625 97.3125 102.484375 C 92.964844 103.121094 88.769531 104.125 84.527344 104.976562 C 80.070312 105.871094 75.289062 105.683594 70.203125 105.921875 C 65.152344 106.15625 60.484375 106.382812 55.277344 106.351562 C 53.753906 106.339844 52.378906 106.167969 50.988281 106.351562 C 47.363281 106.832031 43.28125 107.988281 40.699219 109.523438 C 40.101562 109.882812 39.628906 110.292969 38.980469 110.644531 C 37.160156 111.613281 35.367188 112.796875 33.746094 113.992188 C 31.558594 115.597656 29.421875 117.378906 27.054688 118.707031 C 25.863281 119.378906 24.734375 120.191406 23.539062 120.855469 C 19.714844 122.984375 16.882812 125.46875 14.445312 129.011719 C 12.851562 131.320312 11.589844 133.480469 10.671875 136.304688 C 9.753906 139.125 9.371094 142.257812 8.699219 145.488281 C 7.320312 152.0625 7.34375 159.910156 7.070312 167.457031 C 7.777344 170.308594 6.796875 174.40625 6.554688 177.585938 C 6.359375 180.097656 6.066406 182.777344 5.605469 185.394531 C 5.125 188.164062 4.90625 190.921875 4.40625 193.210938 C 3.890625 195.570312 2.113281 197.371094 1.492188 199.300781 C 1.234375 200.09375 1.113281 201.324219 0.890625 202.476562 C 0.683594 203.574219 0.316406 204.710938 0.289062 205.652344 C 0.226562 207.941406 0.90625 209.664062 2.007812 210.800781 C 2.859375 209.832031 4.199219 209.214844 4.835938 207.972656 " fill-opacity="1" fill-rule="evenodd"></path>
  </g>
</svg>
