<?xml version="1.0" encoding="UTF-8"?>
<svg xmlns="http://www.w3.org/2000/svg" xmlns:xlink="http://www.w3.org/1999/xlink" width="500" zoomAndPan="magnify" viewBox="0 0 375 374.999991" height="500" preserveAspectRatio="xMidYMid meet" version="1.0">
  <path fill="#c89e67" d="M 6.023438 227.796875 C 12.019531 216.472656 24.1875 214.753906 28.816406 208.234375 C 33.445312 201.710938 42.355469 175.28125 52.640625 167.386719 C 62.921875 159.492188 72.179688 157.605469 81.089844 150.738281 C 90.003906 143.875 102.6875 139.582031 113.3125 127.054688 C 123.9375 114.527344 148.789062 100.625 148.789062 100.625 C 148.789062 100.625 136.792969 105.085938 125.996094 106.117188 C 115.199219 107.148438 102.859375 108.691406 101.65625 116.585938 C 100.457031 124.480469 97.03125 128.082031 97.03125 128.082031 C 97.03125 128.082031 101.144531 119.847656 100.628906 114.867188 C 100.117188 109.890625 108 104.570312 111.941406 104.398438 C 115.882812 104.230469 116.910156 96.335938 122.910156 91.871094 C 128.910156 87.410156 131.136719 87.582031 131.136719 87.582031 C 131.136719 87.582031 139.191406 80.203125 144.164062 77.972656 C 149.132812 75.738281 168.160156 71.449219 168.160156 71.449219 C 168.160156 71.449219 152.046875 74.710938 141.761719 71.792969 C 141.761719 71.792969 167.644531 69.734375 177.585938 65.441406 C 184.71875 62.363281 188.410156 61.40625 189.925781 61.109375 C 186.648438 61.59375 174.816406 63.210938 169.527344 62.183594 C 169.527344 62.183594 191.125 60.46875 204.664062 55.148438 C 218.203125 49.824219 229.6875 54.460938 229.6875 54.460938 C 229.6875 54.460938 226.601562 51.886719 221.460938 51.371094 C 221.460938 51.371094 236.714844 48.109375 243.226562 53.257812 C 249.738281 58.410156 251.625 62.355469 251.625 62.355469 C 251.625 62.355469 251.765625 56.621094 247.996094 53.40625 C 250.785156 55.429688 257.703125 60.703125 259.335938 64.242188 C 259.335938 64.242188 262.421875 63.726562 268.933594 66.476562 C 275.445312 69.222656 282.132812 71.964844 286.757812 71.621094 C 291.386719 71.28125 297.386719 73.855469 299.441406 74.710938 C 301.5 75.570312 313.152344 79.6875 317.609375 80.546875 C 322.066406 81.40625 331.664062 80.890625 331.664062 80.890625 C 331.664062 80.890625 332.863281 74.539062 333.71875 71.28125 C 334.578125 68.019531 336.121094 58.582031 335.605469 56.519531 C 335.09375 54.460938 335.949219 48.28125 336.808594 48.109375 C 337.664062 47.9375 339.890625 58.578125 340.578125 62.355469 C 341.265625 66.132812 340.921875 73.851562 340.921875 73.851562 L 335.953125 77.800781 C 335.953125 77.800781 340.921875 74.539062 343.835938 73.339844 C 346.75 72.136719 348.632812 72.308594 348.632812 72.308594 C 348.632812 72.308594 348.121094 74.367188 346.578125 75.914062 C 345.035156 77.457031 343.148438 80.546875 342.464844 83.808594 C 341.78125 87.070312 342.121094 88.269531 344.007812 89.8125 C 345.894531 91.359375 350.519531 91.875 355.578125 88.355469 C 355.578125 88.355469 348.890625 91.445312 345.292969 88.871094 C 341.695312 86.296875 345.378906 79 347.265625 77.285156 C 349.148438 75.570312 349.664062 74.023438 349.664062 74.023438 C 349.664062 74.023438 350.863281 68.363281 349.148438 63.210938 C 347.4375 58.0625 346.75 53.601562 347.265625 53.085938 C 347.777344 52.570312 353.433594 59.4375 355.148438 65.957031 C 356.863281 72.480469 355.492188 82.949219 355.492188 82.949219 C 355.492188 82.949219 358.0625 77.113281 358.40625 74.539062 C 358.40625 74.539062 366.460938 79.6875 367.488281 84.148438 C 368.515625 88.609375 366.972656 92.902344 366.972656 92.902344 C 366.972656 92.902344 361.832031 94.273438 358.234375 94.273438 C 354.632812 94.273438 350.691406 92.902344 350.691406 92.902344 C 350.691406 92.902344 351.378906 95.648438 356.863281 95.648438 C 362.347656 95.648438 371.429688 94.449219 372.460938 93.246094 C 373.488281 92.042969 374.6875 92.558594 374.6875 93.417969 C 374.6875 94.273438 371.261719 98.222656 367.148438 101.3125 C 363.035156 104.398438 359.09375 104.398438 359.09375 104.398438 C 359.09375 104.398438 366.121094 104.914062 370.40625 101.824219 C 370.40625 101.824219 372.632812 106.632812 373.832031 109.550781 C 375.03125 112.46875 374.6875 120.191406 373.660156 122.59375 C 372.632812 124.992188 372.289062 131.859375 372.804688 135.464844 C 373.316406 139.066406 373.148438 148.851562 372.804688 151.597656 C 372.460938 154.34375 370.234375 163.609375 369.375 165.152344 C 368.519531 166.699219 366.460938 171.160156 365.949219 174.421875 C 365.433594 177.683594 361.320312 180.429688 358.234375 181.285156 C 355.148438 182.144531 353.609375 181.117188 351.722656 181.800781 C 349.835938 182.488281 344.179688 185.40625 342.640625 183.347656 C 341.097656 181.285156 339.210938 179.054688 340.238281 176.480469 C 341.269531 173.90625 343.667969 168.242188 343.667969 168.242188 C 343.667969 168.242188 336.640625 174.421875 338.011719 181.113281 C 339.382812 187.808594 335.613281 189.351562 335.613281 189.351562 C 335.613281 189.351562 337.496094 183.347656 336.296875 181.113281 C 335.097656 178.882812 331.839844 176.996094 333.210938 171.160156 C 333.210938 171.160156 325.84375 177.339844 327.386719 183.175781 C 327.386719 183.175781 320.699219 176.136719 325.671875 165.839844 C 325.671875 165.839844 320.015625 169.273438 320.359375 175.449219 C 320.359375 175.449219 317.789062 168.585938 318.644531 162.0625 C 318.644531 162.0625 316.589844 166.011719 314.53125 166.871094 C 314.53125 166.871094 316.074219 158.632812 314.1875 155.027344 C 312.304688 151.425781 309.046875 147.992188 309.046875 147.992188 C 309.046875 147.992188 311.445312 154.171875 309.21875 158.117188 C 309.21875 158.117188 309.5625 151.082031 305.449219 148.851562 C 305.449219 148.851562 299.449219 154.171875 301.847656 156.058594 C 301.847656 156.058594 291.222656 154.683594 286.25 153.484375 C 281.28125 152.285156 265.855469 145.417969 265.855469 145.417969 C 265.855469 145.417969 275.625 151.941406 284.023438 154.859375 C 292.421875 157.773438 305.105469 158.632812 307.675781 162.238281 C 310.246094 165.839844 311.617188 169.445312 310.417969 174.078125 C 309.21875 178.710938 308.707031 186.265625 308.875 193.644531 C 309.046875 201.023438 311.621094 213.550781 310.933594 217.15625 C 310.246094 220.761719 303.5625 222.476562 302.878906 222.820312 C 302.191406 223.164062 291.910156 231.574219 289.339844 231.746094 C 286.769531 231.914062 281.285156 234.492188 279.226562 233.632812 C 277.167969 232.773438 276.484375 230.199219 280.082031 225.050781 C 283.683594 219.902344 287.109375 216.472656 288.824219 215.785156 C 290.539062 215.097656 291.738281 215.097656 291.738281 215.097656 C 291.738281 215.097656 292.253906 211.664062 293.96875 209.605469 C 295.679688 207.546875 297.910156 207.890625 297.910156 207.890625 C 297.910156 207.890625 297.910156 191.929688 295.679688 185.40625 C 293.453125 178.886719 291.910156 171.335938 291.910156 171.335938 C 291.910156 171.335938 282.652344 168.761719 278.882812 169.445312 C 275.113281 170.132812 262.601562 167.558594 257.117188 166.355469 C 251.632812 165.15625 244.949219 164.984375 240.835938 165.5 C 236.722656 166.011719 232.265625 166.355469 230.894531 162.753906 C 229.523438 159.148438 229.523438 149.367188 228.496094 145.417969 C 227.464844 141.472656 227.464844 159.835938 229.179688 163.78125 C 230.894531 167.730469 232.4375 168.929688 240.835938 168.242188 C 249.234375 167.558594 266.199219 170.648438 266.199219 170.648438 C 266.199219 170.648438 258.832031 178.027344 250.433594 177.339844 C 242.035156 176.65625 238.949219 174.59375 233.464844 176.996094 C 227.980469 179.398438 206.042969 185.234375 201.242188 191.929688 C 196.445312 198.621094 182.390625 210.804688 170.90625 215.269531 C 159.425781 219.730469 136.628906 219.214844 136.628906 219.214844 C 136.628906 219.214844 140.054688 213.722656 142.628906 209.433594 C 145.199219 205.140625 147.941406 202.566406 149.652344 203.597656 C 151.367188 204.628906 148.113281 200.679688 144.683594 201.710938 C 141.253906 202.738281 138.34375 209.089844 136.113281 213.722656 C 133.886719 218.355469 133.886719 222.132812 124.632812 227.796875 C 115.378906 233.460938 108.519531 238.953125 104.40625 241.011719 C 100.292969 243.070312 88.296875 246.332031 86.410156 250.792969 C 84.523438 255.257812 85.382812 261.089844 88.125 263.496094 C 90.867188 265.898438 105.089844 279.285156 108.691406 282.199219 C 112.289062 285.117188 118.289062 289.066406 118.289062 291.640625 C 118.289062 294.214844 116.574219 297.476562 117.089844 299.878906 C 117.601562 302.28125 117.089844 305.027344 115.03125 308.289062 C 112.976562 311.550781 110.40625 312.75 110.40625 312.75 C 110.40625 312.75 102.523438 320.988281 100.636719 318.929688 C 98.75 316.871094 102.523438 310.347656 102.523438 308.460938 C 102.523438 306.570312 102.179688 303.484375 103.035156 302.28125 C 103.894531 301.078125 104.40625 301.59375 104.234375 300.394531 C 104.0625 299.191406 101.320312 294.214844 100.292969 291.125 C 99.265625 288.035156 86.925781 277.222656 81.097656 272.589844 C 75.269531 267.957031 65.84375 260.746094 63.617188 257.660156 C 61.386719 254.570312 56.929688 251.136719 58.644531 248.046875 C 60.359375 244.960938 73.554688 237.75 78.183594 235.347656 C 82.8125 232.945312 86.238281 223.335938 86.070312 222.476562 C 85.898438 221.617188 82.640625 218.53125 74.757812 211.835938 C 71.109375 208.738281 68.929688 206.453125 67.640625 204.886719 C 69.632812 207.75 72.894531 212.191406 75.441406 214.410156 C 79.382812 217.84375 83.324219 221.273438 83.496094 222.992188 C 83.667969 224.707031 80.410156 230.714844 78.183594 232.773438 C 75.953125 234.832031 63.273438 240.496094 61.042969 241.527344 C 58.816406 242.554688 55.214844 248.046875 55.386719 250.964844 C 55.5625 253.882812 55.386719 253.023438 55.386719 253.023438 C 55.386719 253.023438 47.332031 256.800781 44.417969 270.1875 C 41.507812 283.574219 41.164062 303.136719 41.675781 307.085938 C 42.191406 311.03125 38.761719 310.175781 37.734375 312.40625 C 36.707031 314.636719 31.394531 320.128906 29.679688 322.1875 C 27.964844 324.25 24.539062 323.390625 23.167969 324.25 C 21.796875 325.105469 15.96875 327.507812 14.941406 326.480469 C 13.910156 325.449219 12.539062 325.105469 13.570312 322.53125 C 14.597656 319.957031 19.222656 310.003906 21.96875 308.632812 C 24.710938 307.257812 25.910156 307.257812 25.910156 307.257812 C 25.910156 307.257812 23.507812 305.542969 25.050781 303.3125 C 26.59375 301.078125 28.308594 300.222656 28.480469 300.222656 C 28.652344 300.222656 33.449219 284.605469 33.449219 266.410156 C 33.449219 248.21875 31.222656 243.242188 33.792969 239.296875 C 36.363281 235.347656 43.390625 236.378906 47.160156 235.863281 C 50.933594 235.347656 62.414062 229.511719 64.816406 225.738281 C 67.214844 221.960938 67.898438 221.445312 67.214844 219.730469 C 66.53125 218.015625 61.386719 210.292969 58.300781 205.828125 C 55.21875 201.367188 54.1875 188.496094 54.1875 188.496094 C 54.1875 188.496094 55.046875 203.769531 49.21875 214.925781 C 49.21875 214.925781 51.789062 200.679688 50.761719 194.160156 C 50.761719 194.160156 35.851562 207.890625 32.078125 218.015625 C 28.308594 228.140625 18.539062 236.035156 20.769531 239.640625 C 22.996094 243.242188 29.851562 247.191406 31.394531 253.367188 C 31.394531 253.367188 27.964844 248.734375 24.539062 246.160156 C 24.539062 246.160156 31.738281 258.515625 30.023438 272.074219 C 28.308594 285.632812 29.679688 289.753906 29.679688 289.753906 C 29.679688 289.753906 26.253906 286.664062 22.652344 273.105469 C 22.652344 273.105469 19.738281 278.597656 22.996094 285.289062 C 22.996094 285.289062 14.082031 277.054688 12.710938 268.128906 C 11.339844 259.203125 12.199219 258.347656 9.96875 253.199219 C 7.742188 248.050781 0.0273438 239.125 6.027344 227.796875 Z M 156.332031 90.5 C 155.304688 90.671875 149.476562 93.933594 144.164062 94.105469 C 138.851562 94.277344 134.394531 93.761719 129.765625 96.507812 C 125.140625 99.253906 116.570312 104.746094 116.570312 104.746094 C 116.570312 104.746094 123.9375 105.261719 132.335938 102.515625 C 140.734375 99.769531 156.332031 90.5 156.332031 90.5 Z M 156.332031 90.5 " fill-opacity="1" fill-rule="nonzero"></path>
  <path fill="#c89e67" d="M 248 53.40625 C 247.273438 52.878906 246.828125 52.574219 246.828125 52.574219 C 247.253906 52.824219 247.644531 53.105469 248 53.40625 Z M 248 53.40625 " fill-opacity="1" fill-rule="nonzero"></path>
</svg>
