<?xml version="1.0" encoding="UTF-8"?>
<svg xmlns="http://www.w3.org/2000/svg" xmlns:xlink="http://www.w3.org/1999/xlink" width="500" zoomAndPan="magnify" viewBox="0 0 375 374.999991" height="500" preserveAspectRatio="xMidYMid meet" version="1.0">
  <defs>
    <clipPath id="3409bf332f">
      <path d="M 2.8125 63 L 272 63 L 272 375 L 2.8125 375 Z M 2.8125 63 " clip-rule="nonzero"></path>
    </clipPath>
    <clipPath id="84d3eddbbb">
      <path d="M 220 0 L 372.5625 0 L 372.5625 158 L 220 158 Z M 220 0 " clip-rule="nonzero"></path>
    </clipPath>
  </defs>
  <g clip-path="url(#3409bf332f)">
    <path fill="#c89e67" d="M 88.566406 205.445312 C 89.46875 204.421875 90.289062 203.304688 91.296875 202.394531 C 92.921875 200.921875 94.671875 199.582031 96.085938 198.425781 C 100.910156 203.316406 105.351562 207.816406 109.792969 212.320312 C 110.050781 212.175781 110.304688 212.035156 110.558594 211.890625 C 110.558594 210.191406 110.777344 208.457031 110.523438 206.792969 C 108.628906 194.25 104.714844 182.511719 95.980469 172.925781 C 93.855469 170.601562 91.292969 168.605469 88.691406 166.796875 C 77.035156 158.6875 65.296875 150.691406 53.574219 142.679688 C 49.984375 140.230469 46.390625 137.777344 42.710938 135.472656 C 33.71875 129.832031 27.351562 129.617188 17.488281 134.269531 C 19.183594 130.492188 20.882812 126.71875 22.578125 122.941406 C 22.761719 123.011719 22.945312 123.082031 23.132812 123.148438 C 23.050781 123.472656 22.96875 123.796875 22.953125 123.839844 C 26.625 122.554688 30.363281 120.882812 34.28125 119.949219 C 41.496094 118.226562 48.839844 117.425781 56.207031 119.164062 C 62.035156 120.539062 66.84375 123.878906 71.316406 127.617188 C 90.808594 143.910156 105.472656 163.585938 112.953125 188.117188 C 115.652344 196.96875 116.316406 206.074219 115.542969 215.304688 C 115.453125 216.375 116.21875 218.097656 117.089844 218.554688 C 119.386719 219.757812 121.910156 220.671875 124.449219 221.246094 C 126.917969 221.808594 127.992188 220.78125 127.730469 218.164062 C 127.097656 211.761719 126.472656 205.34375 125.433594 198.996094 C 122.785156 182.820312 117.996094 167.339844 109.539062 153.167969 C 100.75 138.4375 90.097656 125.320312 76.589844 114.5625 C 69.234375 108.707031 60.824219 107.667969 51.972656 108.222656 C 44.785156 108.671875 37.953125 110.695312 31.417969 113.707031 C 31.097656 113.855469 30.734375 113.90625 29.878906 114.148438 C 37.078125 106.328125 45.191406 100.765625 54.421875 96.75 C 70.246094 89.875 86.484375 89.46875 102.957031 93.808594 C 113.429688 96.570312 123.792969 99.765625 134.269531 102.515625 C 147.039062 105.871094 159.75 105.878906 172.039062 101.074219 C 178.007812 105.878906 179.761719 112.515625 180.039062 119.53125 C 180.433594 129.390625 180.347656 139.269531 180.476562 149.136719 C 180.667969 163.515625 180.636719 177.902344 181.1875 192.265625 C 181.398438 197.699219 182.472656 203.230469 184.039062 208.449219 C 186.089844 215.265625 193.386719 219.515625 199.65625 218.320312 C 198.15625 213.597656 196.519531 208.921875 195.195312 204.164062 C 191.632812 191.371094 194.023438 179.296875 199.9375 167.714844 C 204.519531 158.742188 209.074219 149.746094 211.480469 139.894531 C 212.242188 136.757812 212.683594 133.480469 212.78125 130.253906 C 212.964844 123.808594 212.613281 117.34375 212.863281 110.898438 C 213.042969 106.269531 213.882812 101.667969 214.34375 97.042969 C 214.644531 93.996094 213.167969 92.335938 210.480469 92.179688 C 209.535156 96.757812 208.25 101.257812 207.75 105.84375 C 207.121094 111.621094 206.929688 117.46875 206.917969 123.289062 C 206.902344 132.800781 204.453125 141.621094 200.445312 150.179688 C 197.863281 155.703125 195.269531 161.332031 193.710938 167.1875 C 192.421875 172.039062 192.640625 177.292969 192.207031 182.1875 C 190.382812 179.617188 189.605469 176.234375 189.011719 172.800781 C 187.398438 163.414062 189.605469 154.648438 193.421875 146.148438 C 196.175781 140.003906 199.066406 133.898438 199.957031 127.109375 C 200.078125 126.1875 200.199219 125.257812 200.210938 124.332031 C 200.347656 115.082031 200.457031 105.828125 200.574219 96.578125 C 200.585938 95.589844 200.574219 94.601562 200.574219 93.5625 C 197.675781 94.144531 195.660156 96.605469 195.539062 99.625 C 195.449219 101.875 195.386719 104.152344 195.628906 106.382812 C 196.769531 116.875 194.796875 126.941406 191.671875 136.859375 C 189.882812 142.546875 188.015625 148.207031 186.179688 153.882812 C 186 154.433594 185.785156 154.980469 185.191406 155.4375 C 185.605469 150.433594 185.960938 145.425781 186.445312 140.425781 C 187.734375 127.164062 188.511719 113.949219 184.566406 100.921875 C 183.464844 97.285156 184.039062 96.492188 187.644531 95.382812 C 196.910156 92.53125 206.351562 90.867188 216.078125 91.199219 C 217.296875 91.242188 218.566406 91.460938 219.699219 91.894531 C 223.027344 93.167969 223.125 94.34375 222.023438 97.605469 C 220.644531 101.683594 219.261719 105.945312 219.050781 110.1875 C 218.316406 124.949219 218.78125 139.679688 221.632812 154.265625 C 223.914062 165.9375 229.863281 175.738281 236.941406 185 C 239.960938 188.953125 242.972656 192.90625 245.972656 196.871094 C 248.886719 200.726562 250.230469 205.0625 249.921875 209.890625 C 249.597656 209.570312 249.085938 209.304688 248.992188 208.9375 C 247.546875 203.113281 243.789062 199.019531 239.152344 195.527344 C 234.496094 192.019531 230.898438 187.601562 227.921875 182.597656 C 224.359375 176.613281 220.699219 170.679688 216.882812 164.851562 C 215.914062 163.378906 215.429688 162.0625 215.636719 160.371094 C 215.929688 157.984375 216.230469 155.59375 216.363281 153.195312 C 216.664062 147.882812 216.867188 142.570312 217.109375 137.257812 C 216.207031 139.460938 215.714844 141.707031 215.132812 143.929688 C 211.902344 156.332031 208.042969 168.46875 200.953125 179.339844 C 197.976562 183.902344 196.386719 189.039062 196.140625 194.453125 C 195.972656 198.113281 196.402344 201.804688 196.582031 205.882812 C 202.773438 202.71875 208.710938 202.257812 214.644531 203.683594 C 222.878906 205.664062 230.308594 209.132812 234.945312 216.828125 C 235.199219 217.25 236.253906 217.5 236.832031 217.371094 C 241.953125 216.226562 246.390625 213.84375 249.875 209.84375 C 254.761719 204.574219 257.542969 199.175781 257.65625 195.496094 C 255.050781 193.71875 252.34375 192.589844 250.65625 190.597656 C 244.585938 183.4375 238.605469 176.167969 233.078125 168.585938 C 227.742188 161.269531 225.273438 152.714844 225 143.714844 C 224.617188 131.066406 224.527344 118.402344 224.585938 105.742188 C 224.605469 102.117188 225.574219 98.492188 226.195312 94.269531 C 222.332031 90.625 217.847656 86.394531 213.359375 82.167969 C 213.464844 82.023438 213.570312 81.878906 213.675781 81.738281 C 215.78125 83.0625 217.886719 84.390625 220.523438 86.046875 C 218.324219 82.875 216.46875 80.199219 214.40625 77.222656 C 215.289062 77.320312 215.824219 77.378906 216.0625 77.40625 C 215.484375 74.214844 214.886719 70.9375 214.289062 67.65625 C 214.523438 67.515625 214.761719 67.371094 214.996094 67.230469 C 216.078125 67.832031 217.160156 68.4375 218.277344 69.0625 C 217.988281 67.40625 217.691406 65.71875 217.394531 64.035156 C 217.558594 63.933594 217.726562 63.832031 217.890625 63.730469 C 218.964844 64.679688 220.164062 65.523438 221.097656 66.597656 C 226.652344 72.992188 232.125 79.453125 237.667969 85.855469 C 239.117188 87.523438 239.769531 89.050781 239.683594 91.550781 C 239.519531 96.464844 240.269531 101.433594 240.949219 106.339844 C 242.363281 116.550781 243.96875 126.738281 245.503906 136.933594 C 246.953125 146.539062 250.578125 154.898438 259.441406 159.949219 C 261.671875 161.21875 264.292969 161.9375 266.824219 162.488281 C 268.128906 162.773438 269.636719 162.136719 271.050781 161.917969 C 268.8125 165.261719 266.402344 168.582031 264.332031 172.105469 C 263.589844 173.371094 263.253906 175.171875 263.445312 176.632812 C 265.132812 189.457031 262.328125 201.011719 253.914062 210.980469 C 249.429688 216.296875 243.703125 219.78125 236.898438 221.308594 C 234.96875 221.738281 234.210938 222.679688 233.710938 224.546875 C 230.832031 235.3125 227.652344 245.996094 224.882812 256.789062 C 223.984375 260.285156 223.550781 264.035156 223.71875 267.628906 C 224.199219 277.910156 222.121094 287.640625 218.703125 297.246094 C 217.746094 299.941406 217.398438 303 217.441406 305.886719 C 217.570312 313.726562 217.917969 321.574219 218.4375 329.398438 C 218.867188 335.925781 221.078125 341.8125 225.933594 346.457031 C 229.363281 349.742188 231.601562 353.738281 233.476562 358.070312 C 234.660156 360.804688 236.503906 363.269531 238.160156 365.785156 C 239.492188 367.8125 239.082031 369.058594 236.671875 369.179688 C 230.480469 369.488281 224.285156 369.710938 218.089844 369.820312 C 216.578125 369.84375 214.933594 369.574219 213.5625 368.960938 C 206.664062 365.867188 205.21875 362.925781 205.886719 357.277344 C 206.207031 354.578125 205.386719 352.375 203.585938 350.484375 C 197.3125 343.890625 196.015625 336.15625 197.546875 327.402344 C 199.242188 317.714844 200.480469 307.941406 201.605469 298.171875 C 201.933594 295.3125 201.394531 292.292969 200.894531 289.40625 C 199.949219 283.9375 199.921875 278.550781 200.410156 272.988281 C 201.042969 265.828125 200.9375 258.550781 200.53125 251.359375 C 199.976562 241.605469 198.839844 231.882812 197.925781 221.859375 C 193.769531 223.011719 189.859375 224.089844 185.957031 225.183594 C 172.550781 228.9375 158.917969 231 144.976562 230.191406 C 127.703125 229.195312 111.636719 224.757812 98.234375 213.121094 C 98.128906 213.027344 97.949219 213.019531 97.414062 212.84375 C 94.535156 217.582031 91.484375 222.332031 88.722656 227.242188 C 86.488281 231.226562 84.253906 235.273438 82.65625 239.527344 C 80.964844 244.042969 77.402344 246.414062 73.824219 248.949219 C 73.328125 249.300781 72.78125 249.585938 72.183594 250.472656 C 73.90625 250.820312 75.625 251.167969 77.503906 251.550781 C 77.167969 253.136719 76.214844 254.359375 74.433594 253.976562 C 71.011719 253.234375 67.65625 252.179688 63.796875 251.125 C 65.265625 248.207031 66.398438 245.964844 67.632812 243.511719 C 65.703125 244.226562 64.003906 245.101562 62.203125 245.46875 C 59.046875 246.117188 56.066406 245.453125 53.308594 243.675781 C 50.441406 241.832031 47.578125 239.929688 44.523438 238.445312 C 42.390625 237.410156 39.9375 237.039062 37.445312 236.320312 C 37.054688 239.472656 36.746094 241.914062 36.421875 244.535156 C 46.210938 243.757812 51.980469 250.855469 58.839844 255.828125 C 59.207031 256.097656 59.542969 256.414062 60.050781 256.839844 C 61.15625 255.28125 62.210938 253.789062 63.324219 252.214844 C 66.640625 255.257812 69.863281 258.289062 74.859375 256.707031 C 74.460938 260.554688 73.128906 261.816406 69.636719 261.941406 C 63.210938 262.171875 57.804688 259.347656 52.40625 256.378906 C 48.425781 254.191406 44.351562 252.171875 40.28125 250.15625 C 39.628906 249.835938 38.765625 249.875 37.996094 249.851562 C 35.722656 249.789062 33.929688 250.378906 33.460938 253.019531 C 33.273438 254.0625 32.699219 255.035156 32.214844 256.265625 C 38.246094 255.011719 43.207031 257.292969 47.960938 260.429688 C 49.441406 261.40625 51.0625 262.191406 52.6875 262.917969 C 54.105469 263.558594 55.644531 264.621094 56.972656 262.621094 C 57.128906 262.382812 57.867188 262.386719 58.277344 262.496094 C 62.800781 263.671875 67.316406 264.890625 71.769531 266.082031 C 71.0625 267.75 70.101562 268.492188 67.910156 268.445312 C 66.210938 268.410156 64.507812 268.21875 62.8125 268.03125 C 58.675781 267.574219 54.511719 267.253906 50.417969 266.53125 C 47.859375 266.082031 45.296875 265.242188 42.9375 264.136719 C 38.949219 262.265625 34.800781 261.671875 30.480469 261.808594 C 27.820312 261.890625 28.058594 264.578125 26.109375 266.308594 C 33.605469 265.320312 39.398438 269.0625 45.78125 270.097656 C 47.90625 270.441406 50.242188 271.308594 52.128906 269.238281 C 52.324219 269.023438 52.875 268.972656 53.203125 269.058594 C 57.972656 270.289062 62.730469 271.558594 67.496094 272.816406 C 66.722656 276.84375 66.707031 276.761719 62.988281 275.871094 C 59.378906 275.007812 55.734375 274.25 52.0625 273.742188 C 50.539062 273.53125 48.886719 273.984375 47.328125 274.308594 C 44.003906 275.003906 40.890625 274.347656 37.769531 273.226562 C 34.351562 272.003906 30.839844 271.046875 27.433594 269.804688 C 25.09375 268.949219 23.960938 269.878906 23.308594 271.988281 C 23.15625 272.492188 22.925781 272.976562 22.625 273.738281 C 25.082031 274.214844 27.429688 274.550781 29.710938 275.140625 C 34.058594 276.265625 38.394531 277.453125 42.679688 278.789062 C 44.332031 279.300781 45.425781 279.25 46.375 277.640625 C 46.71875 277.0625 47.773438 276.4375 48.371094 276.546875 C 53.613281 277.515625 58.824219 278.640625 64.039062 279.742188 C 64.398438 279.816406 64.710938 280.09375 65.183594 280.351562 C 64.890625 281.550781 64.601562 282.710938 64.261719 284.101562 C 57.363281 281.316406 50.375 282.042969 43.347656 281.988281 C 43.347656 284.296875 43.976562 285.273438 46.410156 285.359375 C 51.355469 285.53125 56.277344 286.253906 61.21875 286.628906 C 63.292969 286.789062 63.722656 287.757812 63.289062 289.113281 C 57.480469 290.886719 51.917969 292.582031 46.351562 294.285156 C 46.414062 294.582031 46.476562 294.878906 46.539062 295.179688 C 51.742188 294.304688 56.941406 293.433594 62.132812 292.5625 C 62.84375 294.859375 62.390625 295.796875 60.105469 296.078125 C 55.746094 296.617188 51.425781 297.515625 47.039062 298.273438 C 46.78125 300.390625 47.488281 301.445312 49.839844 301.15625 C 53.914062 300.660156 58.007812 300.285156 62.246094 299.84375 C 62.246094 300.628906 62.246094 301.660156 62.246094 303.242188 C 57.78125 303.71875 53.199219 304.210938 48.34375 304.726562 C 48.527344 305.765625 48.71875 306.851562 48.957031 308.214844 C 53.492188 307.40625 57.808594 306.632812 62.183594 305.851562 C 63.398438 307.816406 62.765625 308.917969 60.621094 309.4375 C 57.03125 310.308594 53.445312 311.207031 49.671875 312.144531 C 49.914062 313.433594 50.152344 314.707031 50.417969 316.144531 C 54.632812 314.316406 58.714844 312.546875 63.292969 310.558594 C 63.976562 315.578125 64.554688 320.136719 65.230469 324.683594 C 65.855469 328.894531 66.449219 333.117188 67.300781 337.28125 C 68.277344 342.03125 70.589844 346.113281 74.199219 349.421875 C 77.5625 352.5 80.113281 356.113281 82.023438 360.292969 C 83.101562 362.652344 84.871094 364.703125 86.378906 366.855469 C 87.660156 368.683594 87.335938 369.96875 85.132812 370.019531 C 80.175781 370.140625 75.132812 370.386719 70.273438 369.625 C 64.875 368.78125 61.796875 364.753906 62.109375 359.371094 C 62.355469 355.160156 60.832031 352.320312 57.714844 349.808594 C 54.15625 346.9375 51.035156 343.511719 50.101562 338.9375 C 49.464844 335.835938 49.242188 332.410156 49.886719 329.347656 C 50.691406 325.523438 49.605469 322.140625 48.921875 318.605469 C 47.222656 309.863281 45.519531 301.121094 43.761719 292.390625 C 43.414062 290.652344 42.71875 288.980469 42.378906 287.238281 C 42.082031 285.734375 42.066406 284.175781 41.878906 282.132812 C 38.003906 280.566406 33.316406 280.59375 28.539062 281 C 30.476562 281.472656 32.425781 281.921875 34.359375 282.433594 C 35.851562 282.828125 37.359375 283.203125 38.792969 283.757812 C 41.347656 284.746094 41.386719 284.996094 40.191406 286.925781 C 33.5625 286.042969 27.152344 285.1875 20.617188 284.320312 C 20.136719 286.132812 19.953125 287.433594 22.453125 287.738281 C 27.527344 288.355469 32.566406 289.214844 37.621094 289.980469 C 37.765625 290.003906 37.898438 290.097656 38.335938 290.292969 C 38.105469 291.207031 37.867188 292.175781 37.566406 293.398438 C 31.757812 292.230469 26.203125 291.109375 20.300781 289.917969 C 21.292969 290.609375 22.046875 291.417969 22.96875 291.726562 C 26.546875 292.9375 30.175781 294.015625 33.796875 295.089844 C 36.640625 295.933594 36.652344 295.902344 35.464844 298.941406 C 30.996094 297.714844 26.496094 296.476562 21.96875 295.234375 C 22.0625 297.046875 23.179688 298.101562 25 298.558594 C 27.324219 299.136719 29.648438 299.707031 31.96875 300.304688 C 34.957031 301.078125 35.007812 301.402344 34.714844 304.417969 C 34.050781 311.367188 32.820312 318.371094 33.191406 325.28125 C 33.613281 333.109375 35.292969 340.914062 36.949219 348.617188 C 37.460938 351 39.648438 353.035156 41.117188 355.195312 C 42.550781 357.300781 44.175781 359.285156 45.488281 361.460938 C 47.558594 364.898438 49.386719 368.480469 51.414062 371.949219 C 52.515625 373.835938 52.363281 374.453125 50.121094 374.523438 C 45.457031 374.664062 40.765625 374.902344 36.125 374.582031 C 29.296875 374.105469 25.324219 369.546875 25.664062 362.667969 C 25.871094 358.519531 24.855469 355.109375 21.875 352.144531 C 16.910156 347.203125 16.105469 341.191406 17.242188 334.492188 C 18.933594 324.558594 20.308594 314.570312 21.648438 304.582031 C 21.898438 302.730469 21.367188 300.773438 20.789062 298.847656 C 17.128906 306.878906 15.453125 315.878906 7.1875 320.867188 C 15.691406 311.085938 14.429688 299.332031 13.804688 287.6875 C 13.191406 289.769531 12.574219 291.855469 12.140625 293.316406 C 11.710938 285.707031 11.25 277.542969 10.792969 269.375 C 10.527344 269.339844 10.265625 269.304688 10 269.269531 C 8.28125 273.96875 6.761719 278.785156 2.816406 282.226562 C 7.4375 272.691406 8.253906 262.339844 9.621094 251.527344 C 7.117188 255.917969 4.878906 259.835938 2.847656 263.398438 C 5.070312 254.589844 7.371094 245.472656 9.671875 236.351562 C 9.457031 236.296875 9.238281 236.242188 9.023438 236.1875 C 7.683594 238.679688 6.34375 241.171875 5 243.664062 C 4.910156 243.621094 4.8125 243.578125 4.722656 243.535156 C 6.597656 236.417969 8.476562 229.296875 10.351562 222.175781 C 10.210938 222.128906 10.066406 222.082031 9.925781 222.035156 C 7.804688 224.773438 5.6875 227.511719 3.566406 230.25 C 3.453125 230.183594 3.339844 230.121094 3.226562 230.054688 C 3.355469 229.675781 3.441406 229.28125 3.613281 228.921875 C 10.703125 214.152344 15.269531 198.664062 17.808594 182.457031 C 18.667969 176.980469 17.148438 172.25 15.996094 167.269531 C 13.890625 158.199219 13.8125 149.132812 15.90625 139.695312 C 17.511719 140.898438 18.976562 141.992188 20.4375 143.097656 C 34.414062 153.667969 49.972656 161.289062 66.179688 167.75 C 72.875 170.421875 79.605469 173.089844 85.179688 177.894531 C 91.0625 182.960938 93.722656 189.5 93.835938 197.292969 C 93.238281 196.453125 92.652344 195.601562 92.039062 194.769531 C 86.921875 187.808594 79.925781 183.402344 71.878906 180.8125 C 65.335938 178.710938 58.636719 176.953125 51.890625 175.640625 C 40.886719 173.496094 31.21875 168.730469 22.410156 161.984375 C 20.152344 160.253906 17.871094 158.554688 15.363281 156.65625 C 15.128906 159.96875 15.394531 162.738281 17.046875 165.402344 C 24.136719 176.8125 34.402344 182.84375 47.667969 184.597656 C 56.886719 185.816406 65.980469 187.945312 74.445312 192.042969 C 80.582031 195.011719 85.894531 198.925781 88.597656 205.53125 C 79.128906 201.535156 69.039062 200.359375 58.996094 198.9375 C 50.078125 197.675781 41.203125 196.121094 33.109375 191.898438 C 29.566406 190.046875 26.25 187.757812 22.597656 185.519531 C 22.945312 186.390625 23.136719 187.222656 23.570312 187.898438 C 25.507812 190.90625 25.675781 194.324219 25.976562 197.714844 C 26.199219 200.265625 26.355469 202.824219 26.566406 205.375 C 27.867188 221.269531 28.171875 237.183594 27.550781 253.117188 C 27.453125 255.6875 27.539062 258.269531 27.539062 261.238281 C 32.761719 253.507812 35.894531 245.414062 37.039062 236.496094 C 37.230469 234.980469 35.839844 232.609375 38.4375 231.992188 C 40.128906 231.589844 42.019531 231.535156 43.730469 231.828125 C 45.527344 232.140625 47.265625 232.953125 48.941406 233.734375 C 51.117188 234.746094 53.179688 236.003906 55.339844 237.050781 C 59.335938 238.984375 63.398438 240.75 67.984375 240.480469 C 68.605469 240.445312 69.515625 240.238281 69.773438 239.804688 C 71.527344 236.84375 73.148438 233.800781 75.058594 230.339844 C 60.589844 233.410156 48.527344 228.039062 36.746094 221.429688 C 40.683594 221.671875 44.644531 221.859375 48.492188 222.609375 C 57.226562 224.308594 65.902344 226.300781 74.617188 228.117188 C 75.164062 228.230469 76.152344 228.050781 76.359375 227.6875 C 78.09375 224.601562 79.691406 221.441406 81.363281 218.25 C 78.605469 218.097656 76.039062 218.113281 73.511719 217.785156 C 63.984375 216.542969 54.476562 215.109375 44.941406 213.910156 C 37.742188 213.007812 30.664062 205.746094 30.40625 198.507812 C 35.683594 204.285156 42.449219 206.707031 49.789062 207.929688 C 54.679688 208.742188 59.621094 209.335938 64.453125 210.410156 C 70.613281 211.773438 76.683594 213.519531 83.125 215.1875 C 84.738281 212.292969 86.652344 208.871094 88.566406 205.445312 Z M 43.449219 104.671875 C 44.363281 104.304688 45.273438 103.917969 46.199219 103.570312 C 55.53125 100.085938 65.097656 98.292969 74.921875 100.871094 C 89.667969 104.738281 101.695312 113.164062 111.566406 124.5 C 123.121094 137.769531 128.53125 153.902344 131.515625 170.914062 C 133.96875 184.902344 134.066406 199.050781 133.527344 213.203125 C 133.273438 219.765625 134.496094 221.449219 140.898438 223.109375 C 141.574219 223.285156 142.261719 223.425781 142.949219 223.550781 C 146.132812 224.121094 146.945312 223.378906 146.613281 220.214844 C 146.507812 219.210938 146.40625 218.207031 146.269531 217.207031 C 144.960938 207.753906 143.632812 198.308594 142.335938 188.859375 C 140.597656 176.179688 139.1875 163.449219 137.074219 150.835938 C 135.039062 138.699219 129.480469 128.234375 119.867188 120.242188 C 111 112.871094 101.101562 107.0625 91.042969 101.476562 C 83.015625 97.015625 74.703125 95.074219 65.535156 96.703125 C 57.6875 98.101562 50.15625 100.222656 43.449219 104.671875 Z M 97.351562 96.988281 C 97.3125 97.167969 97.273438 97.351562 97.238281 97.527344 C 97.417969 97.660156 97.582031 97.824219 97.78125 97.910156 C 98.777344 98.339844 99.777344 98.757812 100.78125 99.160156 C 111.71875 103.511719 122.675781 107.8125 132.769531 113.988281 C 142.347656 119.851562 147.851562 128.417969 149.234375 139.421875 C 150.171875 146.878906 150.566406 154.417969 150.917969 161.929688 C 151.714844 178.929688 152.394531 195.929688 152.996094 212.9375 C 153.230469 219.574219 155.996094 222.699219 162.632812 223.226562 C 167.320312 223.597656 167.925781 222.9375 166.71875 218.347656 C 161.738281 199.375 158.945312 180.097656 158.058594 160.5 C 157.632812 151.054688 156.898438 141.597656 155.769531 132.210938 C 154.71875 123.457031 150.308594 116.839844 142.039062 112.828125 C 131.28125 107.605469 120.140625 103.480469 108.71875 100.050781 C 104.960938 98.925781 101.144531 98.003906 97.351562 96.988281 Z M 153.824219 107.773438 C 153.78125 107.957031 153.738281 108.136719 153.695312 108.324219 C 153.921875 108.484375 154.128906 108.726562 154.386719 108.800781 C 161.210938 110.835938 165.226562 115.5625 166.085938 122.417969 C 166.902344 128.929688 167.078125 135.550781 167.144531 142.128906 C 167.359375 162.867188 167.351562 183.609375 167.519531 204.351562 C 167.554688 208.535156 168.746094 212.511719 171.390625 215.824219 C 174.042969 219.152344 177.386719 221.441406 181.90625 221.339844 C 183.695312 221.300781 184.324219 220.5625 183.492188 218.8125 C 182.628906 216.996094 181.835938 215.144531 181.085938 213.277344 C 176.070312 200.863281 174.984375 187.707031 174.136719 174.566406 C 173.339844 162.164062 173.175781 149.730469 172.511719 137.320312 C 172.191406 131.289062 171.628906 125.246094 170.691406 119.285156 C 169.988281 114.828125 168.125 110.550781 163.339844 109.066406 C 160.324219 108.128906 157.003906 108.171875 153.824219 107.773438 Z M 262.476562 174.824219 C 261.492188 174.535156 260.65625 174.375 259.898438 174.046875 C 259.046875 173.683594 258.160156 173.285156 257.457031 172.703125 C 248.234375 165.0625 240.929688 156.042969 238.078125 144.144531 C 235.484375 133.308594 234.660156 122.222656 234.371094 111.121094 C 234.195312 104.46875 233.882812 97.765625 235.980469 91.265625 C 236.132812 90.789062 235.582031 89.863281 235.101562 89.445312 C 232.101562 86.859375 229.035156 84.351562 225.976562 81.828125 C 225.746094 81.640625 225.429688 81.558594 224.640625 81.183594 C 226.539062 84.53125 228.046875 87.410156 229.769531 90.15625 C 231.226562 92.480469 232.167969 94.71875 231.070312 97.515625 C 230.601562 98.703125 230.632812 100.105469 230.554688 101.417969 C 229.835938 113.867188 230.539062 126.242188 231.871094 138.636719 C 233.445312 153.285156 238.664062 166.257812 248.492188 177.273438 C 250.386719 179.398438 252.550781 181.375 254.890625 182.988281 C 257.472656 184.769531 259.71875 183.835938 260.734375 180.898438 C 261.40625 178.949219 261.882812 176.921875 262.476562 174.824219 Z M 233.550781 217.679688 C 223.144531 210.1875 211.332031 206.726562 197.894531 209.964844 C 198.667969 212.527344 199.425781 215.019531 200.195312 217.566406 C 211.871094 212.660156 221.585938 217.476562 230.96875 223.175781 C 231.875 221.242188 232.6875 219.511719 233.550781 217.679688 Z M 230.59375 225.390625 C 220.421875 223.375 210.410156 221.386719 200.027344 219.324219 C 200.292969 222.1875 200.515625 224.601562 200.757812 227.207031 C 210.640625 226.144531 219.953125 227.644531 229.191406 230.523438 C 229.722656 228.585938 230.144531 227.046875 230.59375 225.390625 Z M 201.738281 237.402344 C 206.007812 236.949219 209.992188 236.328125 213.996094 236.148438 C 217.714844 235.976562 221.457031 236.226562 225.183594 236.382812 C 227.171875 236.464844 228.246094 235.804688 228.054688 234.082031 C 218.984375 232.5625 210.082031 231.066406 201.023438 229.546875 C 201.25 232.0625 201.492188 234.734375 201.738281 237.402344 Z M 226.261719 239.558594 C 218.132812 240.765625 210.167969 241.839844 201.921875 239.554688 C 202.171875 241.871094 202.386719 243.835938 202.605469 245.871094 C 203.695312 245.871094 204.554688 245.976562 205.375 245.851562 C 211.425781 244.9375 217.457031 243.890625 223.523438 243.082031 C 225.664062 242.796875 226.5 241.875 226.261719 239.558594 Z M 202.414062 276.414062 C 202.414062 277.128906 202.511719 278.066406 202.394531 278.976562 C 202.113281 281.179688 202.992188 282.425781 205.164062 282.953125 C 208.675781 283.808594 212.132812 284.910156 215.664062 285.664062 C 218.621094 286.296875 218.65625 286.144531 219.207031 283.3125 C 213.667969 281.035156 208.160156 278.773438 202.414062 276.414062 Z M 220.644531 269.042969 C 214.722656 267.464844 209.09375 265.960938 203.386719 264.4375 C 202.734375 266.453125 203.121094 268.046875 205.511719 268.769531 C 207.648438 269.417969 209.742188 270.246094 211.910156 270.75 C 214.726562 271.40625 217.605469 271.816406 220.644531 272.367188 C 220.644531 270.851562 220.644531 269.796875 220.644531 269.042969 Z M 202.867188 258.707031 C 203.265625 259.582031 203.484375 261.148438 204.152344 261.367188 C 209.648438 263.179688 215.308594 263.734375 221.164062 263.0625 C 221.335938 261.894531 221.488281 260.859375 221.605469 260.089844 C 215.386719 259.632812 209.390625 259.1875 202.867188 258.707031 Z M 225.007812 246.507812 C 224.867188 246.28125 224.726562 246.050781 224.589844 245.828125 C 217.390625 248.003906 210.210938 250.46875 202.683594 247.171875 C 202.6875 250.894531 202.851562 251.023438 206.121094 251.21875 C 211.96875 251.5625 217.515625 250.140625 222.988281 248.371094 C 223.777344 248.113281 224.339844 247.144531 225.007812 246.507812 Z M 203.046875 284.964844 C 202.871094 288.761719 203.179688 289.398438 207.042969 290.816406 C 209.28125 291.632812 211.652344 292.066406 213.933594 292.765625 C 216.402344 293.527344 217.375 292.53125 217.316406 290.804688 C 212.339844 288.769531 207.609375 286.832031 203.046875 284.964844 Z M 223.101562 251.980469 C 216.273438 253.949219 209.777344 255.121094 203.1875 252.5625 C 203.1875 253.726562 203.1875 254.695312 203.1875 255.65625 C 209.066406 256.617188 214.742188 256.4375 220.460938 255.554688 C 222.71875 255.207031 222.894531 253.964844 223.101562 251.980469 Z M 212.648438 311.726562 C 212.84375 310.640625 213.011719 309.6875 213.109375 309.152344 C 209.550781 306.925781 206.226562 304.839844 202.976562 302.804688 C 201.515625 307.976562 205.886719 312.261719 212.648438 311.726562 Z M 62.277344 316 C 58.457031 317.144531 54.789062 318.242188 50.898438 319.40625 C 51.308594 320.894531 51.664062 322.179688 52.042969 323.558594 C 55.859375 322.179688 59.367188 320.914062 62.886719 319.640625 C 62.675781 318.382812 62.5 317.328125 62.277344 316 Z M 213.507812 336.925781 C 212.835938 336.296875 212.265625 335.289062 211.65625 335.269531 C 207.5625 335.128906 203.464844 335.195312 199.074219 335.195312 C 199.386719 336.519531 199.511719 337.691406 199.972656 338.707031 C 200.191406 339.191406 201.128906 339.75 201.617188 339.648438 C 205.445312 338.859375 209.25 337.921875 213.507812 336.925781 Z M 199.398438 331.320312 C 203.660156 331.570312 207.699219 331.804688 211.933594 332.054688 C 211.753906 330.785156 211.644531 330.035156 211.5 329.035156 C 207.199219 329.582031 203.472656 328.109375 199.898438 325.683594 C 199.722656 327.636719 199.582031 329.246094 199.398438 331.320312 Z M 201.347656 316.992188 C 201.085938 318.765625 200.769531 320.039062 200.753906 321.320312 C 200.746094 321.960938 201.105469 322.851562 201.601562 323.210938 C 204.546875 325.351562 207.929688 325.691406 211.546875 325.558594 C 211.546875 324.632812 211.546875 323.960938 211.546875 323.183594 C 207.460938 322.566406 204.007812 320.886719 201.347656 316.992188 Z M 63.199219 323.597656 C 60.1875 324.3125 57.460938 325.082031 54.683594 325.582031 C 52.390625 325.992188 51.65625 327.308594 51.71875 329.960938 C 55.761719 329.011719 59.609375 328.105469 63.492188 327.191406 C 63.382812 325.875 63.3125 324.96875 63.199219 323.597656 Z M 211.835938 319.210938 C 211.96875 318.054688 212.078125 317.109375 212.195312 316.121094 C 207.890625 315.636719 204.734375 313.539062 202.179688 310.003906 C 201.5625 315.605469 203.902344 317.746094 211.835938 319.210938 Z M 204.101562 292.304688 C 204.355469 296.023438 209.871094 299.628906 215.09375 299.144531 C 215.265625 298.332031 215.441406 297.515625 215.527344 297.128906 C 211.546875 295.449219 207.75 293.847656 204.101562 292.304688 Z M 30.863281 325.992188 C 30.863281 324.75 30.863281 323.75 30.863281 323.097656 C 27.542969 322.441406 24.476562 321.835938 21.210938 321.191406 C 21.109375 322.058594 20.96875 323.316406 20.800781 324.75 C 24.28125 325.179688 27.484375 325.574219 30.863281 325.992188 Z M 31.21875 330.597656 C 31.144531 330.363281 31.066406 330.128906 30.992188 329.894531 C 27.523438 329.25 24.054688 328.605469 20.382812 327.921875 C 20.222656 329.261719 20.046875 330.730469 19.84375 332.433594 C 23.996094 332.199219 27.78125 332.226562 31.21875 330.597656 Z M 202.058594 342.699219 C 204.171875 345.515625 204.226562 345.457031 207.160156 344.082031 C 209.71875 342.882812 212.375 341.894531 214.972656 340.816406 C 213.914062 338.9375 207.917969 339.707031 202.058594 342.699219 Z M 50.855469 333.953125 C 50.699219 335.574219 51.75 336.527344 53.632812 336.007812 C 56.882812 335.109375 60.070312 333.972656 63.242188 332.820312 C 63.730469 332.644531 63.996094 331.855469 64.582031 331.046875 C 59.691406 332.085938 55.371094 332.996094 50.855469 333.953125 Z M 206.273438 271.921875 C 210.152344 275.804688 214.640625 277.929688 220.09375 278.75 C 220.167969 277.769531 220.230469 276.96875 220.273438 276.421875 C 215.515625 274.894531 211.003906 273.445312 206.273438 271.921875 Z M 31.113281 316.199219 C 28.070312 315.730469 25.140625 315.277344 22.214844 314.828125 C 21.46875 317.425781 21.527344 318.089844 23.148438 318.382812 C 25.730469 318.851562 28.382812 318.9375 31.113281 319.199219 C 31.113281 317.835938 31.113281 317.070312 31.113281 316.199219 Z M 20.136719 343.859375 C 24.488281 342.542969 28.652344 341.28125 32.898438 339.996094 C 32.691406 339.308594 32.464844 338.539062 32.246094 337.796875 C 27.277344 338.523438 20.554688 341.847656 20.136719 343.859375 Z M 22.628906 308.269531 C 23.367188 309.613281 21.351562 311.816406 24.125 312.183594 C 26.15625 312.457031 28.289062 312.238281 30.335938 311.949219 C 31.035156 311.847656 31.613281 310.871094 32.464844 310.09375 C 28.894531 309.433594 26.03125 308.902344 22.628906 308.269531 Z M 33.40625 344.433594 C 33.476562 344.160156 33.542969 343.882812 33.609375 343.609375 C 32.898438 343.289062 32.15625 342.640625 31.488281 342.710938 C 30.050781 342.863281 28.605469 343.257812 27.25 343.777344 C 25.320312 344.519531 23.46875 345.460938 21.585938 346.320312 C 21.710938 346.671875 21.835938 347.023438 21.960938 347.375 C 26.105469 347.808594 29.53125 345.148438 33.40625 344.433594 Z M 32.410156 304.089844 C 29.332031 303.398438 26.367188 302.730469 23.398438 302.0625 C 23.4375 305.730469 24.601562 306.484375 30.128906 306.402344 C 31.566406 306.382812 33.097656 306.4375 32.410156 304.089844 Z M 19.351562 338.953125 C 23.296875 337.582031 27 336.328125 30.664062 334.976562 C 31.101562 334.8125 31.335938 334.097656 31.765625 333.5 C 27.425781 334.273438 23.570312 334.960938 19.503906 335.691406 C 19.460938 336.542969 19.414062 337.597656 19.351562 338.953125 Z M 206.96875 346.609375 C 209.371094 349.488281 211.789062 349.195312 217.601562 345.441406 C 216.378906 344.859375 215.398438 343.953125 214.675781 344.125 C 212.121094 344.734375 209.652344 345.710938 206.96875 346.609375 Z M 204.082031 297.191406 C 203.855469 297.257812 203.628906 297.320312 203.402344 297.386719 C 203.644531 298.328125 203.582031 299.742188 204.183594 300.128906 C 206.867188 301.859375 209.71875 303.335938 212.570312 304.773438 C 212.945312 304.964844 213.691406 304.414062 214.265625 304.207031 C 213.863281 303.824219 213.519531 303.230469 213.042969 303.09375 C 209.441406 302.042969 206.597656 299.878906 204.082031 297.191406 Z M 34.664062 348.210938 C 34.355469 347.921875 34.050781 347.636719 33.742188 347.351562 C 30.769531 348.777344 27.796875 350.203125 24.699219 351.691406 C 26.640625 353.816406 25.117188 354.273438 33.371094 350.101562 C 33.964844 349.800781 34.238281 348.855469 34.664062 348.210938 Z M 53.949219 342.96875 C 57.546875 340.105469 60.929688 337.410156 64.3125 334.71875 C 64.242188 334.632812 64.175781 334.550781 64.105469 334.464844 C 60.316406 336.324219 56.53125 338.191406 52.589844 340.128906 C 52.558594 340.023438 52.628906 340.488281 52.8125 340.902344 C 53.058594 341.457031 53.394531 341.976562 53.949219 342.96875 Z M 59.636719 348.078125 C 59.660156 348.367188 59.6875 348.65625 59.714844 348.941406 C 60.53125 348.875 61.464844 349.039062 62.132812 348.695312 C 63.359375 348.0625 64.457031 347.160156 65.5625 346.3125 C 68.058594 344.394531 68.046875 344.378906 66.15625 341.855469 C 63.988281 343.925781 61.8125 346.003906 59.636719 348.078125 Z M 65.359375 337.574219 C 65.195312 337.484375 65.03125 337.394531 64.867188 337.304688 C 62.1875 339.476562 59.480469 341.609375 56.863281 343.851562 C 56.421875 344.230469 56.382812 345.074219 56.15625 345.703125 C 56.851562 345.582031 57.738281 345.695312 58.210938 345.304688 C 60.417969 343.503906 62.554688 341.609375 64.605469 339.636719 C 65.082031 339.179688 65.121094 338.273438 65.359375 337.574219 Z M 27.394531 355.714844 C 27.660156 356.433594 27.925781 357.160156 28.222656 357.960938 C 31.238281 356.363281 34 354.898438 36.792969 353.417969 C 35.738281 352.378906 35.738281 352.378906 27.394531 355.714844 Z M 28.519531 361.792969 C 32.011719 359.734375 35.339844 357.769531 38.96875 355.628906 C 35.625 354.925781 29.09375 358.867188 28.519531 361.792969 Z M 219.949219 348.632812 C 218.941406 348.375 218.5625 348.136719 218.28125 348.226562 C 215.714844 349.015625 213.148438 349.800781 210.648438 350.761719 C 210.292969 350.894531 210.304688 351.976562 210.019531 353.144531 C 213.582031 351.527344 216.433594 350.230469 219.949219 348.632812 Z M 221.097656 350.859375 C 217.878906 350.457031 211.410156 353.914062 210.664062 356.214844 C 214.035156 354.480469 217.355469 352.777344 221.097656 350.859375 Z M 65.304688 359.160156 C 68.28125 356.429688 70.972656 353.964844 73.773438 351.398438 C 71.300781 351.238281 66.878906 355.265625 65.304688 359.160156 Z M 72.433594 349.320312 C 69.023438 349.480469 64.640625 353.84375 65.4375 355.679688 C 67.617188 353.695312 69.769531 351.738281 72.433594 349.320312 Z M 69.675781 346.382812 C 66.433594 347.1875 64.976562 349.636719 62.871094 351.308594 C 63.644531 351.648438 64.570312 351.835938 64.964844 351.464844 C 66.464844 350.050781 67.792969 348.453125 69.675781 346.382812 Z M 44.648438 290.054688 C 44.9375 290.917969 45.160156 291.585938 45.445312 292.429688 C 46.644531 291.542969 47.632812 290.8125 49.085938 289.738281 C 47.253906 289.867188 46.054688 289.953125 44.648438 290.054688 Z M 44.648438 290.054688 " fill-opacity="1" fill-rule="nonzero"></path>
  </g>
  <g clip-path="url(#84d3eddbbb)">
    <path fill="#c89e67" d="M 331.992188 71.144531 C 330.722656 70.984375 329.335938 70.40625 328.207031 70.726562 C 322.050781 72.488281 317.011719 71.59375 313.6875 64.65625 C 314.496094 70.972656 317.132812 74.75 322.894531 75.988281 C 329.339844 77.375 333.785156 81.664062 337.964844 86.894531 C 335.894531 85.851562 334.191406 84.785156 332.347656 84.117188 C 329.445312 83.070312 326.414062 82.375 323.488281 81.390625 C 316.664062 79.089844 313.457031 74.667969 313.222656 67.53125 C 313.167969 65.839844 312.894531 64.152344 312.710938 62.371094 C 311.660156 62.144531 310.652344 61.925781 309.175781 61.605469 C 315.382812 69.25 309.804688 75.074219 306.667969 81.230469 C 306.964844 79.726562 307.296875 78.226562 307.550781 76.714844 C 307.808594 75.1875 307.898438 73.625 308.230469 72.113281 C 309.269531 67.351562 308.886719 62.914062 305.878906 58.832031 C 304.886719 57.488281 304.234375 55.847656 303.667969 54.257812 C 302.984375 52.328125 303.164062 50.289062 304.578125 48.769531 C 308.199219 44.863281 311.199219 40.578125 313.328125 35.691406 C 313.441406 35.433594 313.691406 35.230469 314.09375 34.742188 C 313.90625 39.472656 311.9375 42.988281 309.003906 46.121094 C 304.96875 50.421875 305.378906 55.519531 310.015625 59.171875 C 310.5625 59.605469 311.328125 59.753906 312.148438 59.855469 C 310.257812 57.222656 307.96875 54.707031 308.777344 51.304688 C 309.265625 49.257812 310.625 47.421875 311.863281 45.636719 C 311.445312 53.300781 311.804688 56.367188 313.902344 60.324219 C 319.101562 59.320312 324.347656 58.410156 328.707031 62.683594 C 331.773438 55.757812 330.121094 48.832031 328.835938 41.90625 C 328.835938 44.660156 328.90625 47.417969 328.816406 50.167969 C 328.726562 52.945312 328.558594 55.722656 328.226562 58.476562 C 328.164062 59.003906 327.171875 59.421875 326.609375 59.886719 C 326.207031 59.257812 325.449219 58.625 325.453125 57.996094 C 325.507812 51.414062 325.683594 44.835938 325.824219 38.253906 C 325.859375 36.472656 324.898438 34.34375 327.757812 33.519531 C 325.050781 33.683594 323.476562 34.609375 323.050781 37.410156 C 322.378906 41.800781 321.710938 46.011719 323.410156 50.429688 C 324.148438 52.34375 323.574219 54.835938 323.28125 57.027344 C 323.179688 57.765625 322.105469 58.375 321.476562 59.042969 C 321.261719 58.898438 321.042969 58.757812 320.828125 58.613281 C 320.882812 58.125 321.027344 57.625 320.976562 57.152344 C 320.730469 54.800781 320.972656 52.207031 320.03125 50.164062 C 318.460938 46.757812 318.109375 43.550781 319.308594 40.070312 C 320.253906 37.3125 321.332031 34.519531 317.914062 32.160156 C 319.460938 31.125 320.683594 30.304688 322.277344 29.234375 C 317.828125 28.816406 314.445312 30.0625 311.261719 32.542969 C 312.03125 31.34375 312.773438 30.121094 313.578125 28.941406 C 318.46875 21.75 318.039062 14.386719 314.207031 6.976562 C 312.882812 4.417969 312.175781 4.359375 309.941406 6.070312 C 306.453125 8.738281 303.421875 11.808594 301.300781 15.710938 C 297.171875 23.292969 298.84375 30.808594 303.375 37.597656 C 303.695312 38.082031 304.578125 38.199219 305.199219 38.484375 C 305.523438 37.699219 306.050781 36.921875 306.105469 36.117188 C 306.148438 35.511719 305.582031 34.863281 305.292969 34.230469 C 302.769531 28.710938 302.605469 23.152344 305.105469 17.589844 C 306.089844 15.402344 307.179688 13.265625 308.222656 11.109375 C 311.925781 14.671875 313.03125 22.023438 310.636719 27.28125 C 310.285156 28.054688 309.957031 28.886719 309.417969 29.515625 C 306.972656 32.34375 307 35.183594 309.160156 38.117188 C 308.753906 38.125 308.148438 37.96875 307.980469 38.171875 C 304.882812 41.929688 302.507812 41.710938 300.257812 37.347656 C 299.457031 35.789062 298.820312 34.140625 298.105469 32.535156 C 298.027344 35.253906 298.3125 37.863281 298.949219 40.382812 C 299.390625 42.132812 300.074219 44.5 302.195312 44.335938 C 304.066406 44.191406 306.042969 42.996094 307.566406 41.757812 C 308.476562 41.019531 308.605469 39.3125 309.085938 38.042969 C 309.171875 39.042969 309.546875 40.132812 309.269531 41.023438 C 308.945312 42.082031 308.210938 43.121094 307.402344 43.910156 C 303.476562 47.75 300.398438 47.210938 298.050781 42.203125 C 297.042969 40.050781 296.429688 37.714844 295.5625 35.253906 C 293.53125 37.648438 292.671875 40.605469 292.765625 43.542969 C 292.921875 48.480469 293.464844 53.429688 294.234375 58.3125 C 295.25 64.78125 294.257812 70.90625 292.121094 76.71875 C 291.410156 68.765625 290.523438 60.636719 290.007812 52.484375 C 289.703125 47.640625 290.839844 42.9375 292.859375 38.488281 C 293.296875 37.519531 293.683594 36.535156 293.847656 36.148438 C 289.3125 33.34375 284.988281 30.664062 280.125 27.652344 C 283.285156 32.742188 285.945312 37.515625 289.609375 42.128906 C 289.632812 42.070312 289.484375 42.585938 289.226562 43.046875 C 285.628906 49.417969 285.035156 56.179688 287.199219 63.042969 C 289.5625 70.546875 290.289062 78.203125 290.242188 85.988281 C 290.234375 87.058594 290.242188 88.125 290.644531 89.234375 C 292.414062 82.796875 294.175781 76.355469 295.960938 69.925781 C 297.8125 63.269531 297.289062 56.550781 296.375 49.820312 C 296.652344 49.78125 296.929688 49.742188 297.207031 49.703125 C 297.871094 53.722656 298.785156 57.722656 299.144531 61.769531 C 299.695312 68.011719 297.757812 73.855469 295.667969 79.648438 C 293.730469 85.011719 292.285156 90.484375 293.625 96.253906 C 294.386719 99.535156 295.757812 102.492188 298.859375 104.90625 C 295.410156 95.460938 298.082031 86.65625 299.933594 77.855469 C 301.367188 71.03125 302.003906 64.246094 300.8125 57.308594 C 300.445312 55.15625 300.757812 52.890625 300.757812 50.675781 C 300.945312 50.671875 301.136719 50.667969 301.324219 50.664062 C 302.605469 55.863281 304.410156 61.007812 304.980469 66.285156 C 305.394531 70.089844 304.515625 74.15625 303.585938 77.957031 C 301.996094 84.460938 299.734375 91.09375 300.835938 97.640625 C 302.46875 107.316406 298.566406 115.464844 295.597656 123.964844 C 291.585938 135.445312 284.109375 144.851562 276.832031 154.324219 C 273.933594 158.097656 268.875 158.613281 264.882812 155.996094 C 260.277344 152.980469 257.53125 148.5 255.335938 143.628906 C 252.410156 137.125 251.292969 130.148438 250.207031 123.179688 C 248.675781 113.378906 247.160156 103.570312 245.8125 93.742188 C 245.40625 90.761719 245.492188 87.703125 245.535156 84.679688 C 245.554688 83.300781 245.253906 82.472656 244.003906 81.683594 C 238.15625 78.019531 232.570312 73.910156 226.550781 70.5625 C 222.027344 68.042969 220.929688 64.132812 220.308594 59.683594 C 220.234375 59.148438 220.296875 58.597656 220.296875 57.609375 C 220.957031 58.609375 221.410156 59.300781 221.863281 59.992188 C 221.960938 59.972656 222.0625 59.953125 222.164062 59.933594 C 221.722656 57.761719 221.28125 55.59375 220.84375 53.425781 C 220.980469 53.320312 221.121094 53.214844 221.261719 53.109375 C 222.449219 54.632812 223.636719 56.15625 224.828125 57.691406 C 224.355469 55.347656 223.890625 53.023438 223.421875 50.703125 C 223.558594 50.636719 223.691406 50.570312 223.828125 50.503906 C 224.847656 51.601562 225.863281 52.699219 227.066406 53.996094 C 226.832031 52.921875 226.648438 52.085938 226.464844 51.246094 C 226.628906 51.128906 226.789062 51.007812 226.953125 50.890625 C 227.574219 51.769531 228.195312 52.648438 229.046875 53.863281 C 229.515625 52.820312 229.78125 52.21875 230.058594 51.585938 C 230.394531 51.847656 230.71875 52.097656 231.25 52.511719 C 231.25 51.292969 231.25 50.335938 231.25 49.375 C 231.398438 49.277344 231.550781 49.175781 231.695312 49.074219 C 232.9375 50.566406 234.175781 52.0625 235.53125 53.695312 C 234.667969 50.785156 233.84375 48.019531 233.019531 45.253906 C 233.289062 45.09375 233.5625 44.9375 233.832031 44.78125 C 234.621094 45.789062 235.410156 46.796875 236.199219 47.804688 C 236.339844 47.714844 236.484375 47.628906 236.625 47.542969 C 236.054688 46.054688 235.480469 44.574219 234.710938 42.574219 C 236.679688 43.363281 238.183594 43.964844 240.164062 44.757812 C 239.40625 43.335938 238.867188 42.328125 238.261719 41.195312 C 238.949219 41.117188 239.339844 41.074219 239.773438 41.023438 C 239.550781 40.152344 239.367188 39.425781 238.984375 37.941406 C 240.910156 39.636719 242.339844 40.898438 244.1875 42.527344 C 243.128906 40.203125 242.300781 38.371094 241.46875 36.539062 C 241.644531 36.320312 241.824219 36.101562 242 35.882812 C 243.417969 36.371094 244.835938 36.855469 246.101562 37.292969 C 245.941406 36.8125 245.703125 36.082031 245.460938 35.351562 C 245.59375 35.25 245.726562 35.148438 245.863281 35.042969 C 247.628906 36.351562 249.394531 37.660156 251.550781 39.257812 C 250.113281 36.320312 248.875 33.78125 247.328125 30.617188 C 249.527344 31.21875 251.0625 31.632812 252.65625 32.066406 C 252.460938 30.96875 252.230469 29.671875 252.011719 28.421875 C 253.003906 28.574219 253.828125 28.703125 254.648438 28.828125 C 254.710938 28.59375 254.777344 28.359375 254.839844 28.125 C 255.492188 28.609375 256.144531 29.09375 256.992188 29.722656 C 257.035156 29.058594 257.058594 28.648438 257.089844 28.1875 C 258.335938 29.316406 259.550781 30.421875 260.816406 31.570312 C 260.160156 29.617188 259.511719 27.6875 258.859375 25.761719 C 259.0625 25.605469 259.261719 25.453125 259.464844 25.304688 C 260.019531 26.261719 260.574219 27.21875 261.128906 28.175781 C 261.371094 27.964844 261.613281 27.753906 261.859375 27.542969 C 261.578125 26.335938 261.292969 25.128906 261.011719 23.921875 C 261.171875 23.835938 261.332031 23.753906 261.492188 23.671875 C 261.871094 24.007812 262.25 24.339844 262.820312 24.847656 C 262.820312 23.496094 262.820312 22.445312 262.820312 20.972656 C 263.792969 22.035156 264.496094 22.804688 265.398438 23.789062 C 265.816406 23.136719 266.144531 22.617188 266.570312 21.945312 C 267.257812 22.558594 267.921875 23.152344 268.914062 24.035156 C 268.523438 22.324219 268.21875 20.976562 268.054688 20.261719 C 269.1875 19.097656 269.972656 18.289062 270.804688 17.433594 C 270.988281 17.71875 271.390625 18.339844 272.019531 19.304688 C 272.019531 18.136719 272.019531 17.339844 272.019531 15.804688 C 273.460938 18.003906 274.523438 19.621094 275.871094 21.679688 C 275.585938 19.964844 275.273438 18.777344 275.230469 17.582031 C 275.207031 16.902344 275.441406 15.863281 275.898438 15.617188 C 276.394531 15.351562 277.285156 15.816406 278.160156 15.996094 C 278.226562 15.046875 278.320312 13.796875 278.449219 11.976562 C 279.210938 13.089844 279.652344 13.734375 280.3125 14.695312 C 280.3125 13.816406 280.3125 13.289062 280.3125 12.421875 C 281.109375 13.097656 281.652344 13.558594 282.363281 14.160156 C 282.652344 13.335938 282.875 12.710938 283.113281 12.039062 C 283.574219 12.28125 284.03125 12.519531 284.328125 12.675781 C 284.867188 11.660156 285.367188 10.726562 286.011719 9.523438 C 286.753906 10.523438 287.230469 11.164062 287.914062 12.085938 C 287.914062 10.609375 287.914062 9.488281 287.914062 7.902344 C 288.636719 8.75 289.085938 9.277344 289.675781 9.972656 C 290.03125 8.890625 290.347656 7.925781 290.671875 6.933594 C 291.613281 7.617188 292.484375 8.25 293.355469 8.886719 C 293.605469 8.457031 293.824219 8.074219 294.160156 7.488281 C 294.59375 8.035156 294.910156 8.4375 295.230469 8.84375 C 295.316406 8.765625 295.496094 8.671875 295.484375 8.601562 C 295.269531 7.023438 296.515625 7.347656 297.359375 7.15625 C 297.371094 7.152344 297.417969 7.292969 297.445312 7.363281 C 298.375 6.765625 299.300781 6.167969 300.480469 5.410156 C 300.714844 5.792969 300.980469 6.234375 301.355469 6.84375 C 301.75 6.15625 302.003906 5.714844 302.382812 5.050781 C 302.480469 5.894531 302.554688 6.53125 302.636719 7.234375 C 302.867188 7.1875 303.113281 7.203125 303.269531 7.09375 C 305.738281 5.347656 308.109375 3.445312 310.679688 1.863281 C 313.515625 0.113281 314.703125 0.597656 316.074219 3.65625 C 316.449219 4.5 316.734375 5.386719 317.019531 6.265625 C 317.304688 7.132812 317.535156 8.023438 317.84375 9.09375 C 319.914062 8.257812 321.878906 7.464844 324.296875 6.488281 C 323.984375 7.195312 323.84375 7.519531 323.601562 8.070312 C 324.417969 8.175781 325.175781 8.277344 326.257812 8.414062 C 324.511719 9.566406 322.984375 10.574219 321.457031 11.582031 C 321.492188 11.660156 321.527344 11.738281 321.558594 11.816406 C 323.425781 11.183594 325.265625 10.4375 327.171875 9.960938 C 328.464844 9.636719 329.855469 9.699219 331.203125 9.589844 C 331.234375 9.792969 331.269531 9.996094 331.304688 10.195312 C 329.484375 11.238281 327.667969 12.285156 325.847656 13.328125 C 325.933594 13.496094 326.023438 13.664062 326.113281 13.835938 C 327.59375 13.089844 329.027344 12.234375 330.566406 11.636719 C 331.710938 11.1875 332.871094 9.640625 334.257812 11.074219 C 337.105469 9.335938 340.058594 7.503906 343.050781 5.738281 C 343.773438 5.3125 344.613281 5.058594 345.429688 4.832031 C 347.832031 4.167969 348.640625 4.699219 348.707031 7.128906 C 348.921875 14.753906 347.785156 22.109375 343.957031 29.203125 C 344.410156 29.46875 344.941406 29.777344 345.875 30.328125 C 344.78125 30.472656 344.289062 30.539062 343.484375 30.644531 C 345.378906 33 347.171875 35.230469 349.265625 37.832031 C 348.058594 37.6875 347.367188 37.609375 346.191406 37.46875 C 347.289062 39.429688 348.203125 41.066406 349.234375 42.910156 C 348.460938 43.019531 347.757812 43.121094 346.90625 43.242188 C 347.300781 44.15625 347.683594 45.035156 348.117188 46.046875 C 347.085938 45.707031 346.1875 45.410156 345.210938 45.085938 C 345.402344 45.542969 345.539062 45.871094 345.820312 46.539062 C 341.207031 44.089844 336.875 41.785156 332.539062 39.484375 C 335.589844 45.445312 339.191406 50.871094 344.875 54.585938 C 347.546875 56.335938 349.917969 58.332031 349.636719 61.980469 C 349.574219 62.824219 349.527344 63.757812 349.136719 64.464844 C 347.777344 66.929688 348.679688 69.183594 349.316406 71.609375 C 352.476562 83.605469 360.085938 93.238281 366.179688 103.671875 C 368.792969 108.144531 371.882812 112.378906 372.339844 117.804688 C 372.574219 120.597656 372.210938 123.160156 370.785156 125.640625 C 369.917969 127.152344 369.007812 128.886719 368.933594 130.558594 C 368.71875 135.1875 365.511719 136.699219 361.96875 137.292969 C 360.9375 137.46875 359.847656 137.703125 358.953125 138.207031 C 353.675781 141.1875 348.441406 139.910156 345.273438 134.761719 C 344.910156 134.167969 344.507812 133.5625 344.304688 132.910156 C 342.539062 127.25 338.410156 124.023438 333.171875 121.832031 C 329.816406 120.429688 326.605469 118.667969 323.207031 117.398438 C 320.570312 116.414062 319.21875 114.464844 319.023438 112.042969 C 318.78125 108.992188 318.933594 105.832031 319.46875 102.820312 C 319.984375 99.933594 322.285156 98.199219 325.015625 97.351562 C 332.796875 94.9375 340.515625 93.882812 347.710938 99.152344 C 347.925781 99.3125 348.207031 99.382812 348.613281 99.566406 C 346.132812 93.484375 342.648438 90.929688 336.570312 91.085938 C 332.070312 91.203125 327.554688 91.53125 323.105469 92.175781 C 321.652344 92.386719 319.75 93.578125 319.148438 94.84375 C 316.789062 99.78125 315.566406 105.078125 315.933594 110.605469 C 316.023438 111.960938 316.570312 113.289062 316.890625 114.574219 C 313.679688 114.222656 312.476562 113.023438 312.324219 109.6875 C 312.054688 103.898438 313.007812 98.261719 314.605469 92.714844 C 315.695312 88.925781 318.25 86.96875 322.101562 86.976562 C 327.359375 86.988281 332.648438 86.984375 337.878906 87.480469 C 341.527344 87.832031 344.042969 90.519531 346.316406 93.25 C 347.140625 94.242188 347.976562 95.222656 348.808594 96.207031 C 349.035156 96.082031 349.261719 95.953125 349.488281 95.828125 C 348.949219 94.660156 348.675781 93.234375 347.824219 92.375 C 345.210938 89.734375 342.410156 87.277344 339.625 84.8125 C 335.570312 81.226562 333.101562 76.800781 332.335938 71.433594 C 332.910156 72.335938 333.433594 73.273438 334.066406 74.132812 C 336.125 76.929688 338.042969 79.859375 340.351562 82.433594 C 343.351562 85.773438 346.65625 88.84375 349.882812 91.972656 C 350.492188 92.5625 351.355469 92.890625 352.105469 93.339844 C 352.328125 93.082031 352.554688 92.828125 352.78125 92.570312 C 349.722656 88.609375 347.007812 84.3125 343.527344 80.769531 C 339.042969 76.210938 334.550781 71.777344 331.734375 65.9375 C 331.449219 65.347656 330.90625 64.882812 330.484375 64.359375 C 330.191406 64.515625 329.902344 64.667969 329.613281 64.828125 C 330.402344 66.945312 331.195312 69.046875 331.992188 71.144531 Z M 284.71875 144.035156 C 284.453125 143.683594 284.1875 143.328125 283.917969 142.972656 C 280.121094 143.167969 277.4375 141.0625 275.511719 138.292969 C 272.605469 134.113281 269.773438 129.804688 267.566406 125.234375 C 262.695312 115.148438 259.945312 104.296875 257.269531 93.476562 C 255.621094 86.824219 253.535156 80.175781 254.308594 73.125 C 254.363281 72.613281 253.617188 71.835938 253.058594 71.464844 C 248.859375 68.679688 244.609375 65.964844 240.378906 63.226562 C 237.6875 61.492188 234.992188 59.761719 232.300781 58.023438 C 232.167969 58.167969 232.035156 58.316406 231.898438 58.460938 C 237.363281 65.332031 242.828125 72.199219 248.285156 79.058594 C 249.195312 78.386719 249.785156 77.953125 250.207031 77.640625 C 250.4375 81.160156 250.230469 84.710938 250.980469 88.046875 C 252.421875 94.449219 254.523438 100.703125 256.136719 107.074219 C 258.304688 115.621094 260.160156 124.246094 262.375 132.78125 C 263.660156 137.734375 265.308594 142.613281 268.730469 146.613281 C 271.96875 150.402344 275.546875 150.863281 279.59375 148.003906 C 281.359375 146.761719 283.015625 145.367188 284.71875 144.035156 Z M 260.148438 66.910156 C 260.105469 67.851562 260.109375 68.363281 260.050781 68.867188 C 259.550781 73.164062 259.773438 77.410156 261.207031 81.503906 C 264.246094 90.191406 267.191406 98.917969 270.539062 107.488281 C 273.292969 114.53125 276.441406 121.4375 279.699219 128.269531 C 280.625 130.21875 282.347656 131.925781 284.039062 133.351562 C 286.546875 135.460938 288.941406 134.90625 290.683594 132.148438 C 291.277344 131.210938 291.710938 130.175781 292.300781 129.027344 C 288.601562 128.5625 286.015625 126.667969 284.148438 124.023438 C 281.527344 120.308594 278.914062 116.519531 276.851562 112.480469 C 271.925781 102.839844 269.476562 92.304688 266.554688 81.96875 C 264.855469 75.957031 262.984375 69.902344 264.308594 63.472656 C 264.394531 63.054688 263.722656 62.320312 263.234375 61.972656 C 258.128906 58.316406 252.988281 54.703125 247.859375 51.082031 C 246.789062 50.328125 245.71875 49.578125 244.648438 48.828125 C 244.519531 48.96875 244.394531 49.113281 244.269531 49.257812 C 248.628906 55.710938 252.992188 62.164062 257.402344 68.683594 C 258.441406 68.011719 259.078125 67.601562 260.148438 66.910156 Z M 296.851562 118.859375 C 296.714844 118.613281 296.578125 118.367188 296.441406 118.121094 C 291.828125 117.351562 289.390625 113.992188 287.28125 110.429688 C 285.75 107.84375 284.21875 105.132812 283.40625 102.273438 C 280.257812 91.191406 277.351562 80.039062 274.453125 68.886719 C 273.164062 63.9375 272.832031 58.894531 274.585938 53.984375 C 275.164062 52.363281 274.601562 51.800781 273.355469 51.128906 C 267.148438 47.78125 260.972656 44.375 254.777344 41.003906 C 254.300781 40.742188 253.773438 40.570312 253.269531 40.359375 C 253.199219 40.46875 253.125 40.578125 253.054688 40.683594 C 257.929688 46.808594 262.804688 52.929688 267.71875 59.101562 C 268.726562 58.519531 269.476562 58.089844 269.738281 57.9375 C 269.714844 61.484375 268.84375 65.386719 269.8125 68.761719 C 273.863281 82.875 278.277344 96.898438 283.003906 110.804688 C 284.207031 114.347656 286.945312 117.402344 289.160156 120.558594 C 290.203125 122.046875 291.925781 123.347656 293.742188 122.421875 C 295.042969 121.75 295.832031 120.082031 296.851562 118.859375 Z M 286.351562 43.789062 C 280.683594 39.800781 275.15625 35.910156 269.632812 32.023438 C 269.6875 32.75 269.957031 33.273438 270.285156 33.75 C 273.328125 38.15625 276.339844 42.578125 279.457031 46.933594 C 280.191406 47.964844 280.398438 48.738281 280.011719 50.042969 C 279.324219 52.394531 278.839844 54.859375 278.699219 57.304688 C 278.339844 63.675781 280.4375 69.667969 281.917969 75.746094 C 284.105469 84.75 286.085938 93.8125 288.605469 102.722656 C 289.503906 105.890625 291.484375 108.855469 293.464844 111.558594 C 294.207031 112.570312 296.445312 113.09375 297.796875 112.828125 C 298.609375 112.667969 299.03125 110.539062 299.648438 109.25 C 294.96875 107.773438 293.472656 106.582031 291.65625 102.503906 C 290.589844 100.113281 289.601562 97.636719 289 95.09375 C 286.578125 84.792969 284.1875 74.476562 282.039062 64.117188 C 280.554688 56.945312 281.25 50.042969 286.351562 43.789062 Z M 325.824219 117.0625 C 323.660156 111.964844 325.480469 106.960938 331.597656 106.863281 C 336.785156 106.777344 341.964844 106.402344 347.148438 106.101562 C 348.132812 106.042969 349.105469 105.738281 350.183594 105.523438 C 348.445312 101.804688 345.195312 100.113281 341.394531 100.597656 C 337.78125 101.054688 334.15625 101.421875 330.554688 101.949219 C 327.5 102.394531 324.09375 102.570312 323.054688 106.289062 C 322.488281 108.332031 322.339844 110.542969 322.355469 112.679688 C 322.371094 114.765625 323.484375 116.347656 325.824219 117.0625 Z M 347.054688 8.476562 C 346.769531 8.199219 346.488281 7.925781 346.207031 7.65625 C 342.5 9.582031 338.796875 11.511719 334.929688 13.523438 C 336.246094 13.953125 337.996094 14.054688 336.226562 16.066406 C 337.890625 16.347656 339.292969 16.585938 341.132812 16.902344 C 340.074219 17.394531 339.417969 17.695312 338.625 18.066406 C 339.394531 18.53125 340.019531 18.90625 340.773438 19.363281 C 340.210938 19.652344 339.828125 19.847656 339.382812 20.074219 C 340.339844 20.832031 340.902344 21.273438 341.636719 21.855469 C 340.785156 22.046875 340.226562 22.167969 339.171875 22.40625 C 340.929688 22.957031 342.203125 23.359375 344.085938 23.953125 C 345.097656 18.675781 346.074219 13.574219 347.054688 8.476562 Z M 329.386719 118.480469 C 330.128906 114.597656 330.957031 113.945312 335.039062 114.0625 C 335.808594 114.082031 336.574219 114.273438 337.347656 114.308594 C 341.363281 114.492188 345.378906 114.738281 349.398438 114.769531 C 350.660156 114.777344 351.972656 114.140625 351.441406 112.414062 C 351.03125 111.089844 350.574219 109.6875 348.578125 110.15625 C 347.152344 110.492188 345.675781 110.714844 344.210938 110.78125 C 339.875 110.980469 335.539062 111.054688 331.203125 111.21875 C 329.460938 111.28125 328.167969 112.171875 327.824219 113.875 C 327.472656 115.613281 327.269531 117.484375 329.386719 118.480469 Z M 332.398438 48.417969 C 332.207031 48.472656 332.019531 48.527344 331.828125 48.578125 C 332.066406 49.511719 332.398438 50.429688 332.527344 51.378906 C 332.941406 54.507812 333.707031 57.671875 333.519531 60.773438 C 333.355469 63.53125 333.800781 65.851562 335.4375 67.925781 C 336.632812 69.445312 338.113281 70.734375 339.367188 72.207031 C 341.765625 75.03125 344.234375 77.816406 346.414062 80.800781 C 348.734375 83.984375 350.671875 87.445312 352.941406 90.667969 C 353.949219 92.101562 355.367188 93.246094 356.601562 94.519531 C 356.761719 94.347656 356.921875 94.171875 357.082031 93.996094 C 355.652344 92.085938 354.113281 90.25 352.8125 88.253906 C 348.117188 81.058594 343.390625 73.882812 338.929688 66.542969 C 337.316406 63.886719 336.285156 60.835938 335.238281 57.878906 C 334.136719 54.78125 333.332031 51.574219 332.398438 48.417969 Z M 359.757812 95.449219 C 351.8125 81.515625 343.867188 67.578125 335.925781 53.644531 C 335.742188 53.75 335.554688 53.855469 335.367188 53.964844 C 342.957031 68.089844 350.414062 82.289062 359.757812 95.449219 Z M 347.355469 70.917969 C 347.535156 70.84375 347.710938 70.769531 347.890625 70.695312 C 345.042969 64.421875 344.546875 56.773438 337.535156 53.039062 C 339.4375 55.753906 341.65625 58.417969 343.292969 61.398438 C 344.949219 64.40625 346.027344 67.730469 347.355469 70.917969 Z M 290.835938 25.808594 C 292.375 28.546875 293.910156 31.289062 295.613281 34.320312 C 296.867188 29.285156 296.867188 29.285156 290.835938 25.808594 Z M 335.269531 117.101562 C 334.023438 116.75 332.703125 116.730469 332.242188 118.292969 C 332.074219 118.859375 332.859375 119.703125 333.199219 120.394531 C 334.039062 119.058594 334.632812 118.117188 335.269531 117.101562 Z M 335.269531 117.101562 " fill-opacity="1" fill-rule="nonzero"></path>
  </g>
  <path fill="#c89e67" d="M 309.300781 111.6875 C 307.375 111.371094 305.769531 110.703125 305.253906 108.582031 C 303.046875 99.582031 304.652344 91.191406 309.679688 83.511719 C 311.230469 81.144531 313.777344 80.082031 317.320312 80.648438 C 307.914062 89.445312 307.636719 100.253906 309.300781 111.6875 Z M 309.300781 111.6875 " fill-opacity="1" fill-rule="nonzero"></path>
  <path fill="#c89e67" d="M 315.949219 58.835938 C 311.910156 49.941406 313.222656 41.355469 317.800781 32.519531 C 317.800781 34.207031 317.929688 35.507812 317.765625 36.769531 C 317.578125 38.21875 317.269531 39.683594 316.765625 41.050781 C 315.59375 44.242188 315.769531 47.074219 317.65625 50.085938 C 319.765625 53.449219 318.847656 56.972656 315.949219 58.835938 Z M 315.949219 58.835938 " fill-opacity="1" fill-rule="nonzero"></path>
  <path fill="#c89e67" d="M 237.191406 216.191406 C 237.980469 209.417969 234.128906 205.046875 229.273438 201.382812 C 219.242188 193.820312 208.328125 192.738281 196.75 197.574219 C 197.210938 192.53125 202.101562 187.976562 207.503906 187.261719 C 211.8125 186.691406 215.871094 187.453125 219.710938 189.332031 C 226.019531 192.417969 231.382812 196.714844 235.609375 202.339844 C 237.8125 205.265625 239.195312 208.550781 238.90625 212.277344 C 238.796875 213.667969 238.15625 215.015625 237.757812 216.378906 C 237.570312 216.316406 237.378906 216.253906 237.191406 216.191406 Z M 237.191406 216.191406 " fill-opacity="1" fill-rule="nonzero"></path>
  <path fill="#c89e67" d="M 227.789062 187.871094 C 221.902344 184.589844 216.191406 181.402344 210.339844 178.140625 C 211.335938 175.035156 212.433594 171.613281 213.628906 167.871094 C 220.570312 173.160156 223.78125 180.808594 227.789062 187.871094 Z M 227.789062 187.871094 " fill-opacity="1" fill-rule="nonzero"></path>
</svg>
