<?xml version="1.0" encoding="UTF-8"?>
<svg version="1.1" xmlns="http://www.w3.org/2000/svg" width="498" height="101">
<path d="M0 0 C164.34 0 328.68 0 498 0 C498 33.33 498 66.66 498 101 C333.66 101 169.32 101 0 101 C0 67.67 0 34.34 0 0 Z " fill="#FFFDFD" transform="translate(0,0)"/>
<path d="M0 0 C2.59392491 1.43746672 4.71770399 3.06926649 6.8125 5.1640625 C7.1425 3.5140625 7.4725 1.8640625 7.8125 0.1640625 C12.7625 0.1640625 17.7125 0.1640625 22.8125 0.1640625 C22.76815769 7.79590874 22.69812252 15.42694262 22.60498047 23.05834961 C22.57687439 25.65073152 22.55560871 28.24319747 22.54150391 30.83569336 C22.51993134 34.57709462 22.47320492 38.31749628 22.421875 42.05859375 C22.42064636 43.20487747 22.41941772 44.35116119 22.41815186 45.53218079 C22.27665489 53.42779108 21.4879476 61.92355274 16.10369873 68.13557434 C8.10422622 75.47389407 -0.45127827 76.40795227 -10.91796875 76.32421875 C-16.59915766 76.04592873 -21.42449834 75.33939694 -26.1875 72.1640625 C-26.04581863 70.72614734 -25.89898957 69.2887388 -25.75 67.8515625 C-25.66878906 67.05105469 -25.58757812 66.25054687 -25.50390625 65.42578125 C-25.1875 63.1640625 -25.1875 63.1640625 -24.1875 60.1640625 C-22.95 60.4940625 -21.7125 60.8240625 -20.4375 61.1640625 C-13.32174127 62.737848 -3.71821113 63.94500052 2.8125 60.1640625 C5.00800651 55.87284524 5.00271635 51.91947116 4.8125 47.1640625 C4.255625 47.7828125 3.69875 48.4015625 3.125 49.0390625 C-1.36853486 53.1682567 -5.69771208 53.62247839 -11.62890625 53.47265625 C-17.4188562 52.77432641 -21.56908412 50.13472648 -25.5 45.9140625 C-31.82940527 37.70480662 -32.15524454 29.26557569 -31.1875 19.1640625 C-29.41041657 12.16616899 -25.19617247 6.14193348 -19.41015625 1.84375 C-13.54251187 -1.58804201 -6.42157495 -2.453959 0 0 Z " fill="#FF8161" transform="translate(286.1875,24.8359375)"/>
<path d="M0 0 C6.24964633 3.53313339 9.95454654 7.66319713 12.625 14.29296875 C14.87091024 22.52463085 14.80348935 32.04624628 10.68359375 39.64453125 C6.46475156 46.25822775 2.07819152 50.27555572 -5.5 52.5 C-14.09682553 53.77709572 -22.89406249 53.64237033 -30.484375 49.046875 C-36.1262649 44.71705252 -40.09857607 39.56551231 -41.5 32.5 C-42.29144746 23.82705493 -42.09709545 15.55369706 -36.91796875 8.27734375 C-27.59144606 -2.91854732 -13.44702841 -6.17020755 0 0 Z " fill="#FF8161" transform="translate(357.5,26.5)"/>
<path d="M0 0 C4.92438581 4.50904661 6.79101566 10.58087325 7.1315918 17.1262207 C7.25375035 21.94040887 7.16257039 26.74873647 7.0625 31.5625 C7.04239933 33.25128084 7.02415488 34.94008485 7.0078125 36.62890625 C6.96411015 40.73235111 6.89528264 44.83466511 6.8125 48.9375 C1.8625 48.9375 -3.0875 48.9375 -8.1875 48.9375 C-8.1875 47.2875 -8.1875 45.6375 -8.1875 43.9375 C-8.8475 43.9375 -9.5075 43.9375 -10.1875 43.9375 C-10.1875 44.5975 -10.1875 45.2575 -10.1875 45.9375 C-16.6831688 50.88658099 -23.22983053 50.86414338 -31.1875 49.9375 C-35.63921472 48.01865745 -38.25437803 45.42528821 -40.4921875 41.0625 C-42.35077549 35.38232097 -42.11536445 29.82759424 -39.5 24.5 C-33.68177886 18.05278198 -26.79807915 14.38135299 -18.02734375 13.6875 C-15.40094993 13.6875 -12.80705549 13.75509382 -10.1875 13.9375 C-11.41363628 10.11553155 -11.41363628 10.11553155 -14.375 7.625 C-21.7820603 5.81438526 -28.09104792 7.78161583 -35.1875 9.9375 C-36.38037411 6.06065913 -37.1875 3.02128077 -37.1875 -1.0625 C-24.77733921 -6.65923918 -11.61304179 -7.51432116 0 0 Z " fill="#FF8262" transform="translate(175.1875,29.0625)"/>
<path d="M0 0 C3.93750848 3.3976137 6.64691536 7.71976457 7.20977783 12.94888306 C7.32674461 15.30690577 7.38110011 17.658841 7.4140625 20.01953125 C7.43342865 20.87810226 7.4527948 21.73667328 7.4727478 22.6212616 C7.53231556 25.35157474 7.57883734 28.08193057 7.625 30.8125 C7.66320079 32.66863773 7.70225375 34.52475812 7.7421875 36.38085938 C7.83799827 40.92043144 7.92211321 45.46008646 8 50 C3.05 50 -1.9 50 -7 50 C-7.66 48.68 -8.32 47.36 -9 46 C-9.86625 46.825 -10.7325 47.65 -11.625 48.5 C-17.10908422 52.43642855 -23.56249231 51.83463485 -30 51 C-34.53538865 48.88869839 -37.1653623 46.09447668 -40 42 C-41.78051245 36.65846265 -41.70509123 31.92911611 -39.4375 26.8125 C-36.13726692 20.94797432 -31.43712677 18.3066827 -25.1875 16.1875 C-20.09444013 14.79492756 -15.24588221 14.69864081 -10 15 C-10.33 13.02 -10.66 11.04 -11 9 C-19.38999374 6.90250157 -26.00215193 8.24664247 -34 11 C-35.42258812 7.17679443 -36.24042276 4.08718695 -36 0 C-24.6686303 -5.11022555 -11.07456368 -6.82966451 0 0 Z " fill="#FF8161" transform="translate(85,28)"/>
<path d="M0 0 C0.85722656 -0.00257812 1.71445313 -0.00515625 2.59765625 -0.0078125 C4.9375 0.125 4.9375 0.125 7.9375 1.125 C7.9375 5.085 7.9375 9.045 7.9375 13.125 C6.514375 13.2075 5.09125 13.29 3.625 13.375 C-0.03168354 13.77447196 -0.03168354 13.77447196 -3.0625 15.75 C-4.36531536 18.84418648 -4.74243275 21.79630062 -5.0625 25.125 C-1.4325 25.125 2.1975 25.125 5.9375 25.125 C5.9375 29.085 5.9375 33.045 5.9375 37.125 C2.3075 37.125 -1.3225 37.125 -5.0625 37.125 C-5.0625 50.655 -5.0625 64.185 -5.0625 78.125 C-10.6725 78.125 -16.2825 78.125 -22.0625 78.125 C-22.0625 64.925 -22.0625 51.725 -22.0625 38.125 C-24.0425 38.125 -26.0225 38.125 -28.0625 38.125 C-29.0625 37.125 -29.0625 37.125 -29.16015625 34.40234375 C-29.14855469 33.30019531 -29.13695313 32.19804688 -29.125 31.0625 C-29.11597656 29.95777344 -29.10695313 28.85304688 -29.09765625 27.71484375 C-29.08605469 26.86019531 -29.07445313 26.00554688 -29.0625 25.125 C-26.4225 25.125 -23.7825 25.125 -21.0625 25.125 C-21.10890625 24.4959375 -21.1553125 23.866875 -21.203125 23.21875 C-21.46714457 16.95771437 -20.96347212 12.18542773 -17.0625 7.125 C-11.68617786 2.06817242 -7.37685949 -0.02225297 0 0 Z " fill="#FF8263" transform="translate(126.0625,-0.125)"/>
<path d="M0 0 C-0.30921884 1.45903258 -0.62248799 2.91720722 -0.9375 4.375 C-1.11152344 5.18710937 -1.28554688 5.99921875 -1.46484375 6.8359375 C-2 9 -2 9 -3 11 C-3.70511719 10.83628906 -4.41023438 10.67257813 -5.13671875 10.50390625 C-8.09658688 9.98300176 -10.81061273 9.90133268 -13.8125 9.9375 C-14.78832031 9.94652344 -15.76414062 9.95554687 -16.76953125 9.96484375 C-17.50558594 9.97644531 -18.24164062 9.98804688 -19 10 C-19.5534764 12.07553648 -20 13.84365964 -20 16 C-19.443125 16.17015625 -18.88625 16.3403125 -18.3125 16.515625 C-3.4504383 21.23533378 -3.4504383 21.23533378 1 28 C3.08809183 32.17618366 2.63742412 37.60622022 1.45703125 42.0390625 C-0.68105336 46.59629448 -4.16669625 49.08014398 -8.6796875 51.12109375 C-13.05026554 52.27801147 -17.18081069 52.46923614 -21.6875 52.5 C-22.89901733 52.50954712 -22.89901733 52.50954712 -24.13500977 52.51928711 C-29.45172954 52.40623513 -33.24938331 51.39120733 -38 49 C-37.71788123 47.3733152 -37.42397625 45.74867104 -37.125 44.125 C-36.96257813 43.22007813 -36.80015625 42.31515625 -36.6328125 41.3828125 C-36 39 -36 39 -34 37 C-32.865625 37.495 -31.73125 37.99 -30.5625 38.5 C-26.02733883 40.21382205 -21.80810195 40.51871639 -17 40 C-16.01 39.505 -16.01 39.505 -15 39 C-15 37.35 -15 35.7 -15 34 C-15.556875 33.76925781 -16.11375 33.53851563 -16.6875 33.30078125 C-24.14159922 30.11516114 -31.41049396 26.97604918 -36 20 C-37.20643566 16.38069302 -37.32268559 13.80768995 -37 10 C-34.12014753 4.46182218 -30.05565113 0.22482105 -24.203125 -2.12109375 C-15.9053291 -4.39792799 -7.72269838 -3.634211 0 0 Z " fill="#FF8262" transform="translate(38,27)"/>
<path d="M0 0 C0 5.28 0 10.56 0 16 C-2.59875 16.12375 -2.59875 16.12375 -5.25 16.25 C-9.75402298 16.64495127 -9.75402298 16.64495127 -13.625 18.875 C-16.17438818 22.81496355 -16.18077258 26.26330021 -16.31640625 30.85546875 C-16.33718735 31.51710526 -16.35796844 32.17874176 -16.37937927 32.86042786 C-16.44464727 34.96934852 -16.50365344 37.07839135 -16.5625 39.1875 C-16.60570689 40.61915315 -16.64932188 42.05079404 -16.69335938 43.48242188 C-16.80107185 46.98815796 -16.90031308 50.49398975 -17 54 C-22.28 54 -27.56 54 -33 54 C-33 36.51 -33 19.02 -33 1 C-28.38 1 -23.76 1 -19 1 C-18.67 3.64 -18.34 6.28 -18 9 C-17.61328125 8.51789062 -17.2265625 8.03578125 -16.828125 7.5390625 C-16.30734375 6.90742188 -15.7865625 6.27578125 -15.25 5.625 C-14.73953125 4.99851562 -14.2290625 4.37203125 -13.703125 3.7265625 C-9.24803328 -0.78983782 -6.92058806 0 0 0 Z " fill="#FF8162" transform="translate(225,24)"/>
<path d="M0 0 C2.875 1.375 2.875 1.375 5 3 C5 3.66 5 4.32 5 5 C5.969375 4.154375 6.93875 3.30875 7.9375 2.4375 C10.97083761 0.27347256 12.95938726 -0.37806726 16.6875 -0.125 C20.05721926 0.47202011 20.91749468 0.92161995 23.5 3.375 C25.64630377 7.13103161 26.12223503 9.85333996 26.09765625 14.10546875 C26.09443359 15.08837891 26.09121094 16.07128906 26.08789062 17.08398438 C26.07532227 18.62022461 26.07532227 18.62022461 26.0625 20.1875 C26.05798828 21.22326172 26.05347656 22.25902344 26.04882812 23.32617188 C26.0370401 25.88417266 26.02058515 28.44205733 26 31 C23.03 31 20.06 31 17 31 C16.93941406 29.57945313 16.87882812 28.15890625 16.81640625 26.6953125 C16.73200709 24.83853091 16.64735877 22.98176064 16.5625 21.125 C16.52318359 20.18785156 16.48386719 19.25070313 16.44335938 18.28515625 C16.40146484 17.38925781 16.35957031 16.49335937 16.31640625 15.5703125 C16.26141968 14.32918701 16.26141968 14.32918701 16.20532227 13.06298828 C16.11761673 10.93820571 16.11761673 10.93820571 15 9 C13.02 9 11.04 9 9 9 C7.82530556 11.34938888 7.79965111 12.95073205 7.68359375 15.5703125 C7.64169922 16.46621094 7.59980469 17.36210938 7.55664062 18.28515625 C7.51732422 19.22230469 7.47800781 20.15945312 7.4375 21.125 C7.39431641 22.06988281 7.35113281 23.01476562 7.30664062 23.98828125 C7.2004106 26.32534172 7.09968729 28.6626513 7 31 C4.03 31 1.06 31 -2 31 C-2.02505615 30.36908447 -2.0501123 29.73816895 -2.07592773 29.08813477 C-2.19154137 26.24603175 -2.31442316 23.40428917 -2.4375 20.5625 C-2.47681641 19.56927734 -2.51613281 18.57605469 -2.55664062 17.55273438 C-2.59853516 16.60849609 -2.64042969 15.66425781 -2.68359375 14.69140625 C-2.72025146 13.81685791 -2.75690918 12.94230957 -2.79467773 12.04125977 C-2.78181066 10.0072598 -2.78181066 10.0072598 -4 9 C-6.5 8.83333333 -6.5 8.83333333 -9 9 C-10.61780157 10.61780157 -10.22272147 12.45635518 -10.31640625 14.69140625 C-10.35830078 15.63564453 -10.40019531 16.57988281 -10.44335938 17.55273438 C-10.48267578 18.54595703 -10.52199219 19.53917969 -10.5625 20.5625 C-10.60568359 21.55958984 -10.64886719 22.55667969 -10.69335938 23.58398438 C-10.79980298 26.0558415 -10.90181928 28.5278031 -11 31 C-13.97 31 -16.94 31 -20 31 C-20 21.1 -20 11.2 -20 1 C-17.36 1 -14.72 1 -12 1 C-11.67 1.66 -11.34 2.32 -11 3 C-10.29875 2.505 -9.5975 2.01 -8.875 1.5 C-5.52269394 -0.24902925 -3.73275441 -0.4665943 0 0 Z " fill="#FF8060" transform="translate(472,47)"/>
<path d="M0 0 C5.28 0 10.56 0 16 0 C16 17.49 16 34.98 16 53 C10.72 53 5.44 53 0 53 C0 35.51 0 18.02 0 0 Z " fill="#FF7F5F" transform="translate(231,25)"/>
<path d="M0 0 C3.51520834 2.3707219 5.79390381 5.02530762 7.6875 8.8125 C8.21198349 14.98526719 8.47638444 20.63435793 4.6875 25.8125 C-1.11409669 30.28456411 -6.10200948 31.72459624 -13.3125 30.8125 C-16.6875 29 -16.6875 29 -19.3125 26.8125 C-19.89 26.35875 -20.4675 25.905 -21.0625 25.4375 C-24.40094327 21.09752374 -24.78516213 16.10631583 -24.3125 10.8125 C-22.41922504 5.5534029 -19.71466785 3.02241406 -15.3125 -0.1875 C-10.1060264 -1.9229912 -5.16315911 -1.85094383 0 0 Z " fill="#FF8364" transform="translate(439.3125,48.1875)"/>
<path d="M0 0 C3.71023938 0.85342738 4.96884841 3.37751653 7.00390625 6.4609375 C8.55348773 9.56010046 8.27071698 12.81165599 8.31640625 16.2109375 C8.34541016 16.91476563 8.37441406 17.61859375 8.40429688 18.34375 C8.46670342 23.50909155 7.3571495 26.33819999 4.00390625 30.4609375 C1.30574742 32.60085657 0.01149814 32.46120864 -3.49609375 32.3359375 C-7.37987681 31.36499173 -8.66177409 30.65981999 -10.99609375 27.4609375 C-13.77978257 21.89355985 -13.67156366 15.54016673 -12.99609375 9.4609375 C-10.71591766 2.95738107 -7.05533735 -0.12993255 0 0 Z " fill="#FFFCFB" transform="translate(345.99609375,35.5390625)"/>
<path d="M0 0 C3.14748939 2.11973775 3.80564124 2.58424934 5 6 C5.79934628 13.07770685 6.46674052 20.02627663 2 26 C-1.06168978 28.55140815 -2.54284835 29 -6.5625 29 C-10.65050039 27.81076352 -11.78929734 26.57113506 -14 23 C-15.10111689 19.69664934 -15.20226528 17.10167863 -15.25 13.625 C-15.27578125 12.50351562 -15.3015625 11.38203125 -15.328125 10.2265625 C-14.96396428 6.64564874 -14.1562444 4.85148207 -12 2 C-7.95338977 -0.69774015 -4.74736615 -0.87298327 0 0 Z " fill="#FFFBFB" transform="translate(287,37)"/>
<path d="M0 0 C0.7734375 -0.00257812 1.546875 -0.00515625 2.34375 -0.0078125 C4.5 0.125 4.5 0.125 7.5 1.125 C7.17 3.435 6.84 5.745 6.5 8.125 C5.283125 8.0425 4.06625 7.96 2.8125 7.875 C-0.33009935 7.89732753 -1.58571261 8.16785631 -4.5 9.625 C-6.60448312 12.25560389 -6.8578457 12.97125894 -7 16.1875 C-6.83867986 19.93042217 -6.83867986 19.93042217 -5.29296875 21.828125 C-2.93901063 23.53077009 -1.19275746 23.62547029 1.6875 23.8125 C2.58855469 23.87824219 3.48960937 23.94398437 4.41796875 24.01171875 C5.10503906 24.04910156 5.79210937 24.08648437 6.5 24.125 C6.83 26.435 7.16 28.745 7.5 31.125 C2.38091655 32.83136115 -3.50108109 33.11744798 -8.671875 31.40625 C-12.55143668 29.3504139 -14.90974691 27.18898013 -16.5 23.125 C-17.93754325 17.04954348 -17.99776021 12.29107223 -14.8125 6.81640625 C-11.00526222 1.91005519 -6.01733546 -0.02005778 0 0 Z " fill="#FF8364" transform="translate(406.5,46.875)"/>
<path d="M0 0 C3.73400421 2.07444678 4.78947087 3.35671654 6.125 7.4375 C6 11 6 11 4.125 13.9375 C0.50140045 16.3290757 -1.63734582 16.74391603 -5.90234375 16.48046875 C-8 16 -8 16 -10.625 13.9375 C-12.44412682 10.05118362 -12.26114135 8.0801632 -11 4 C-7.62243132 0.23642347 -5.00273693 -0.83378949 0 0 Z " fill="#FF8364" transform="translate(242,2)"/>
<path d="M0 0 C0.61745335 8.98737651 0.61745335 8.98737651 -1.5625 12.5625 C-4.83100126 14.49007767 -7.20579522 15 -11 15 C-13.4375 13.4375 -13.4375 13.4375 -15 11 C-15.5625 8 -15.5625 8 -15 5 C-10.28521049 0.28521049 -6.47955063 -0.12225567 0 0 Z " fill="#FFFAF8" transform="translate(165,53)"/>
<path d="M0 0 C0.6271777 7.99651568 0.6271777 7.99651568 -1.875 12 C-4.46704473 14.43957151 -5.37975644 14.94721331 -8.9375 15.25 C-12 15 -12 15 -13.875 13.9375 C-15.68953275 10.81247137 -15.49493962 8.52644482 -15 5 C-10.01458737 0.01458737 -6.70610968 -0.10816306 0 0 Z " fill="#FFFAF9" transform="translate(76,53)"/>
<path d="M0 0 C1.63671875 1.17578125 1.63671875 1.17578125 3 3 C3.3984375 5.55859375 3.3984375 5.55859375 3.375 8.4375 C3.38273437 9.38496094 3.39046875 10.33242187 3.3984375 11.30859375 C2.94178412 14.39324255 2.15078492 15.77184871 0 18 C-2.4375 18.5625 -2.4375 18.5625 -5 18 C-7.44071647 15.88911008 -8.79629972 14.26998324 -9.31640625 11.02734375 C-9.42178323 7.26889829 -9.22784674 4.09423158 -7 1 C-4.45132831 -0.27433584 -2.82594567 -0.27570202 0 0 Z " fill="#FFFBFA" transform="translate(434,54)"/>
<path d="M0 0 C3.0625 0.3125 3.0625 0.3125 5 1.4375 C6.0625 3.3125 6.0625 3.3125 5.9375 6.375 C5.0625 9.3125 5.0625 9.3125 2.0625 11.3125 C-1.25990324 10.9883631 -2.54526303 10.70473697 -4.9375 8.3125 C-5.1875 5.3125 -5.1875 5.3125 -4.9375 2.3125 C-2.9375 0.3125 -2.9375 0.3125 0 0 Z " fill="#FF8466" transform="translate(380.9375,67.6875)"/>
</svg>
