<!DOCTYPE svg PUBLIC "-//W3C//DTD SVG 1.1//EN" "http://www.w3.org/Graphics/SVG/1.1/DTD/svg11.dtd">
<!-- Uploaded to: SVG Repo, www.svgrepo.com, Transformed by: SVG Repo Mixer Tools -->
<svg width="800px" height="800px" viewBox="0 0 48 48" xmlns="http://www.w3.org/2000/svg" fill="#414b38">
<g id="SVGRepo_bgCarrier" stroke-width="0"/>
<g id="SVGRepo_tracerCarrier" stroke-linecap="round" stroke-linejoin="round"/>
<g id="SVGRepo_iconCarrier">
<defs>
<style>.a{fill:none;stroke:#414b38;stroke-linecap:round;stroke-linejoin:round;}</style>
</defs>
<path class="a" d="M18.9035,10.115,5.821,41.256A37.6259,37.6259,0,0,1,17.0575,39.25Z"/>
<path class="a" d="M18.3923,18.1818c1.6749-2.77,7.4537-9.03,15.44-12.6818-2.0065,7.5043,3.692,24.2787,8.3471,31.6226C27.6117,37.564,10.436,42.5,10.436,42.5a4.6469,4.6469,0,0,1,0-2.5043"/>
<circle class="a" cx="27.391" cy="26.5884" r="7.1632"/>
<path class="a" d="M27.391,33.7516a3.5816,3.5816,0,0,0,0-7.1632"/>
<path class="a" d="M27.391,19.4252a3.5816,3.5816,0,1,0,0,7.1632"/>
</g>
</svg>